<?xml version="1.0" encoding="utf-8"?>
<svg viewBox="0 0 832 208" xmlns="http://www.w3.org/2000/svg" xmlns:bx="https://boxy-svg.com">
  <rect width="832" height="208" style="fill: #ffffff;"/>
  <rect x="0" y="0" width="500" height="208"/>
  <path d="M 58.06 54.7 L 91.347 54.7 C 99.805 54.7 106.099 56.796 110.238 60.992 C 114.375 65.189 116.449 71.388 116.449 79.594 C 116.449 83.977 115.434 87.824 113.411 91.134 C 111.383 94.446 108.389 97.008 104.425 98.827 C 100.465 100.645 95.575 101.55 89.763 101.55 L 90.288 95.256 C 93.024 95.256 96.146 95.653 99.671 96.45 C 103.193 97.242 106.608 98.64 109.91 100.645 C 113.211 102.65 115.942 105.448 118.099 109.037 C 120.257 112.624 121.336 117.216 121.336 122.811 C 121.336 128.962 120.389 134 118.495 137.916 C 116.602 141.834 114.114 144.861 111.032 147.007 C 107.948 149.15 104.644 150.618 101.126 151.413 C 97.6 152.204 94.211 152.601 90.95 152.601 L 58.06 152.601 C 55.769 152.601 53.853 151.784 52.315 150.151 C 50.771 148.522 50 146.493 50 144.068 L 50 63.233 C 50 60.808 50.771 58.779 52.315 57.15 C 53.853 55.515 55.769 54.7 58.06 54.7 Z M 88.968 71.203 L 65.454 71.203 L 67.174 68.963 L 67.174 94.28 L 65.588 93.021 L 89.367 93.021 C 91.922 93.021 94.211 92.137 96.236 90.362 C 98.261 88.59 99.273 86.03 99.273 82.668 C 99.273 78.66 98.326 75.75 96.432 73.931 C 94.539 72.111 92.053 71.203 88.968 71.203 Z M 90.026 109.524 L 65.984 109.524 L 67.174 108.405 L 67.174 137.916 L 65.853 136.516 L 90.95 136.516 C 95.006 136.516 98.219 135.374 100.593 133.088 C 102.973 130.808 104.164 127.38 104.164 122.811 C 104.164 118.616 103.371 115.584 101.784 113.72 C 100.202 111.853 98.308 110.688 96.105 110.223 C 93.902 109.755 91.88 109.524 90.026 109.524 Z M 150.132 136.241 L 187.516 136.241 C 189.807 136.241 191.724 137.007 193.262 138.547 C 194.806 140.083 195.575 142.062 195.575 144.49 C 195.575 146.82 194.806 148.753 193.262 150.291 C 191.724 151.833 189.807 152.601 187.516 152.601 L 144.586 152.601 C 142.295 152.601 140.378 151.784 138.834 150.151 C 137.295 148.522 136.525 146.493 136.525 144.068 L 136.525 63.233 C 136.525 60.808 137.321 58.779 138.903 57.15 C 140.488 55.515 142.517 54.7 144.977 54.7 C 147.092 54.7 148.964 55.515 150.595 57.15 C 152.225 58.779 153.037 60.808 153.037 63.233 L 153.037 138.615 L 150.132 136.241 Z M 240.882 77.495 L 244.717 76.655 L 216.183 147.707 C 215.565 149.476 214.618 150.85 213.342 151.833 C 212.064 152.812 210.677 153.3 209.181 153.3 C 206.803 153.3 205.042 152.601 203.898 151.204 C 202.751 149.804 202.179 148.079 202.179 146.03 C 202.179 145.187 202.309 144.302 202.575 143.368 L 235.465 59.736 C 236.173 57.869 237.254 56.424 238.704 55.399 C 240.158 54.371 241.72 53.95 243.396 54.141 C 244.982 54.141 246.454 54.632 247.822 55.609 C 249.185 56.588 250.178 57.96 250.792 59.736 L 283.289 141.69 C 283.729 142.905 283.95 144.023 283.95 145.051 C 283.95 147.565 283.177 149.568 281.64 151.06 C 280.097 152.552 278.403 153.3 276.55 153.3 C 274.966 153.3 273.535 152.787 272.26 151.76 C 270.98 150.739 269.992 149.34 269.284 147.565 L 240.882 77.495 Z M 265.719 130.645 L 220.274 130.645 L 227.54 114.558 L 263.212 114.558 L 265.719 130.645 Z M 359.248 59.451 C 361.539 60.665 362.881 62.578 363.275 65.189 C 363.671 67.799 363.035 70.176 361.363 72.321 C 360.218 74 358.739 74.934 356.934 75.119 C 355.133 75.307 353.304 74.934 351.452 74 C 349.34 72.974 347.114 72.182 344.781 71.622 C 342.447 71.061 340.006 70.784 337.452 70.784 C 332.694 70.784 328.443 71.576 324.704 73.159 C 320.958 74.749 317.766 77.008 315.123 79.946 C 312.482 82.881 310.478 86.352 309.116 90.362 C 307.749 94.371 307.065 98.803 307.065 103.651 C 307.065 109.34 307.836 114.279 309.38 118.474 C 310.922 122.669 313.055 126.165 315.784 128.962 C 318.516 131.76 321.729 133.839 325.429 135.188 C 329.128 136.542 333.133 137.216 337.452 137.216 C 339.83 137.216 342.205 136.983 344.584 136.516 C 346.962 136.051 349.252 135.213 351.452 134 C 353.304 133.065 355.133 132.743 356.934 133.019 C 358.739 133.3 360.26 134.278 361.493 135.955 C 363.258 138.289 363.893 140.69 363.409 143.159 C 362.924 145.633 361.58 147.429 359.382 148.548 C 357.09 149.754 354.736 150.757 352.31 151.55 C 349.889 152.347 347.446 152.951 344.98 153.368 C 342.513 153.788 340.006 154 337.452 154 C 331.11 154 325.1 152.93 319.42 150.784 C 313.737 148.641 308.673 145.466 304.225 141.269 C 299.782 137.076 296.28 131.833 293.725 125.541 C 291.172 119.247 289.893 111.951 289.893 103.651 C 289.893 96.468 291.061 89.85 293.393 83.788 C 295.726 77.732 299.03 72.485 303.301 68.053 C 307.572 63.629 312.616 60.178 318.427 57.707 C 324.242 55.238 330.579 54 337.452 54 C 341.327 54 345.114 54.464 348.809 55.399 C 352.508 56.333 355.987 57.683 359.248 59.451 Z M 441.016 152.601 C 438.549 152.601 436.568 151.532 435.072 149.383 L 404.557 106.865 L 416.578 93.858 L 448.153 138.053 C 449.386 139.829 450 141.741 450 143.79 C 450 146.402 449.075 148.522 447.228 150.151 C 445.374 151.784 443.307 152.601 441.016 152.601 Z M 442.601 54 C 444.714 54 446.456 54.911 447.82 56.729 C 449.185 58.548 449.87 60.387 449.87 62.251 C 449.87 64.211 449.075 66.03 447.492 67.707 L 392.141 123.788 L 391.48 103.788 L 436.129 57.216 C 438.158 55.07 440.313 54 442.601 54 Z M 385.536 152.601 C 383.069 152.601 381.088 151.784 379.591 150.151 C 378.091 148.522 377.342 146.493 377.342 144.068 L 377.342 63.233 C 377.342 60.808 378.136 58.779 379.721 57.15 C 381.303 55.515 383.332 54.7 385.799 54.7 C 388.265 54.7 390.223 55.515 391.68 57.15 C 393.13 58.779 393.859 60.808 393.859 63.233 L 393.859 144.068 C 393.859 146.493 393.108 148.522 391.609 150.151 C 390.113 151.784 388.09 152.601 385.536 152.601 Z" style="fill: rgb(255, 255, 255);"/>
  <path d="M 563.723 136.8 L 601.426 136.8 C 603.735 136.8 605.667 137.576 607.222 139.126 C 608.776 140.677 609.553 142.674 609.553 145.118 C 609.553 147.468 608.776 149.418 607.222 150.969 C 605.667 152.519 603.735 153.295 601.426 153.295 L 558.127 153.295 C 555.818 153.295 553.886 152.473 552.332 150.827 C 550.777 149.183 550 147.138 550 144.695 L 550 63.207 C 550 60.764 550.799 58.72 552.398 57.074 C 553.997 55.43 556.04 54.607 558.527 54.607 C 560.658 54.607 562.546 55.43 564.189 57.074 C 565.832 58.72 566.654 60.764 566.654 63.207 L 566.654 139.197 L 563.723 136.8 Z M 655.248 77.587 L 659.112 76.742 L 630.335 148.361 C 629.713 150.147 628.758 151.533 627.47 152.519 C 626.182 153.507 624.783 154 623.273 154 C 620.875 154 619.099 153.295 617.944 151.886 C 616.79 150.475 616.212 148.736 616.212 146.669 C 616.212 145.823 616.346 144.93 616.612 143.99 L 649.786 59.683 C 650.496 57.803 651.585 56.346 653.05 55.312 C 654.516 54.278 656.092 53.855 657.78 54.043 C 659.378 54.043 660.866 54.536 662.243 55.524 C 663.619 56.511 664.619 57.897 665.24 59.683 L 698.015 142.298 C 698.459 143.521 698.681 144.649 698.681 145.682 C 698.681 148.22 697.904 150.24 696.349 151.744 C 694.795 153.249 693.085 154 691.22 154 C 689.621 154 688.178 153.483 686.89 152.45 C 685.602 151.416 684.603 150.005 683.892 148.22 L 655.248 77.587 Z M 680.295 131.161 L 634.465 131.161 L 641.792 114.948 L 677.764 114.948 L 680.295 131.161 Z M 718.13 54.607 L 751.704 54.607 C 760.23 54.607 766.581 56.722 770.755 60.951 C 774.93 65.181 777.017 71.432 777.017 79.703 C 777.017 84.12 775.996 87.997 773.953 91.333 C 771.91 94.67 768.89 97.255 764.893 99.088 C 760.896 100.921 755.967 101.837 750.105 101.837 L 750.638 95.492 C 753.391 95.492 756.544 95.892 760.097 96.691 C 763.65 97.49 767.091 98.899 770.422 100.921 C 773.753 102.941 776.506 105.761 778.682 109.379 C 780.858 112.998 781.946 117.626 781.946 123.266 C 781.946 129.469 780.992 134.545 779.082 138.492 C 777.172 142.439 774.663 145.494 771.555 147.656 C 768.446 149.818 765.115 151.298 761.562 152.096 C 758.01 152.895 754.59 153.295 751.304 153.295 L 718.13 153.295 C 715.821 153.295 713.889 152.473 712.334 150.827 C 710.78 149.183 710.003 147.138 710.003 144.695 L 710.003 63.207 C 710.003 60.764 710.78 58.72 712.334 57.074 C 713.889 55.43 715.821 54.607 718.13 54.607 Z M 749.305 71.243 L 725.591 71.243 L 727.323 68.987 L 727.323 94.506 L 725.724 93.237 L 749.705 93.237 C 752.281 93.237 754.59 92.344 756.633 90.558 C 758.676 88.772 759.697 86.187 759.697 82.804 C 759.697 78.762 758.742 75.825 756.833 73.993 C 754.923 72.16 752.414 71.243 749.305 71.243 Z M 750.371 109.873 L 726.124 109.873 L 727.323 108.745 L 727.323 138.492 L 725.99 137.082 L 751.304 137.082 C 755.389 137.082 758.631 135.931 761.03 133.628 C 763.428 131.325 764.627 127.871 764.627 123.266 C 764.627 119.036 763.827 115.982 762.229 114.101 C 760.63 112.222 758.72 111.048 756.5 110.578 C 754.279 110.108 752.236 109.873 750.371 109.873 Z" style="fill: rgb(0, 0, 0);" bx:origin="0.5 0.500002"/>
</svg>