<svg xmlns="http://www.w3.org/2000/svg" viewBox="0 0 225.69 48.58"><defs><style>.cls-1{fill:#555658;}.cls-2{fill:#fcb813;}.cls-3{fill:#fff;}</style></defs><title>Asset 7</title><g id="Layer_2" data-name="Layer 2"><g id="Layer_1-2" data-name="Layer 1"><path class="cls-1" d="M0,8.2H18.4q6.86,0,10.36,3.52a9.15,9.15,0,0,1,2.71,6.74v.12A8.63,8.63,0,0,1,30,23.94a11.54,11.54,0,0,1-3.66,3.2,21.56,21.56,0,0,1,3.08,1.53,9.38,9.38,0,0,1,2.34,2,8.24,8.24,0,0,1,1.47,2.69,11.11,11.11,0,0,1,.51,3.52V37a10.27,10.27,0,0,1-1,4.76,9.26,9.26,0,0,1-3,3.41,14.32,14.32,0,0,1-4.7,2,25.51,25.51,0,0,1-6.09.68H0ZM16.56,24.25a9.09,9.09,0,0,0,4.59-1,3.43,3.43,0,0,0,1.71-3.21v-.11a3.5,3.5,0,0,0-1.48-3,7.27,7.27,0,0,0-4.25-1.05H8.51v8.39Zm2.33,16a8.37,8.37,0,0,0,4.53-1.05,3.58,3.58,0,0,0,1.65-3.26v-.11a3.76,3.76,0,0,0-1.53-3.15,8.32,8.32,0,0,0-4.94-1.16H8.51v8.73Z"/><path class="cls-1" d="M58.34,48.58A21.57,21.57,0,0,1,49.89,47a21.12,21.12,0,0,1-6.67-4.36,19.59,19.59,0,0,1-4.36-6.47,20.37,20.37,0,0,1-1.56-8v-.11a20,20,0,0,1,1.59-8A20.26,20.26,0,0,1,50,9.14a21.83,21.83,0,0,1,8.48-1.62A21.61,21.61,0,0,1,66.9,9.14a20.91,20.91,0,0,1,6.66,4.36A19.62,19.62,0,0,1,77.93,20a20.34,20.34,0,0,1,1.56,8v.11a20.08,20.08,0,0,1-1.59,8A20.24,20.24,0,0,1,66.81,47,21.78,21.78,0,0,1,58.34,48.58Zm.11-8a11.77,11.77,0,0,0,4.85-1A11.14,11.14,0,0,0,67,36.9,12.67,12.67,0,0,0,69.48,33a12.86,12.86,0,0,0,.88-4.79v-.11a13.14,13.14,0,0,0-.88-4.82,12,12,0,0,0-6.3-6.67,11.57,11.57,0,0,0-4.84-1,11.79,11.79,0,0,0-4.82,1,10.88,10.88,0,0,0-3.77,2.66,12.37,12.37,0,0,0-2.44,3.94,13,13,0,0,0-.88,4.8v.11a13.14,13.14,0,0,0,.88,4.82,11.84,11.84,0,0,0,6.32,6.66A11.65,11.65,0,0,0,58.45,40.53Z"/><path class="cls-1" d="M105.6,48.58A21.66,21.66,0,0,1,97.14,47a21.08,21.08,0,0,1-6.66-4.36,19.62,19.62,0,0,1-4.37-6.47,20.55,20.55,0,0,1-1.55-8v-.11a20,20,0,0,1,1.58-8,20.67,20.67,0,0,1,4.4-6.52,20.33,20.33,0,0,1,6.69-4.42,21.83,21.83,0,0,1,8.48-1.62,21.61,21.61,0,0,1,8.45,1.62,20.91,20.91,0,0,1,6.66,4.36A19.62,19.62,0,0,1,125.19,20a20.34,20.34,0,0,1,1.56,8v.11a20.08,20.08,0,0,1-1.59,8A20.24,20.24,0,0,1,114.07,47,21.78,21.78,0,0,1,105.6,48.58Zm.11-8a11.8,11.8,0,0,0,4.85-1,11.14,11.14,0,0,0,3.74-2.66A12.67,12.67,0,0,0,116.74,33a13.07,13.07,0,0,0,.88-4.79v-.11a13.34,13.34,0,0,0-.88-4.82,12,12,0,0,0-6.3-6.67,11.57,11.57,0,0,0-4.84-1,11.88,11.88,0,0,0-4.83,1A11.07,11.07,0,0,0,97,19.2a12.52,12.52,0,0,0-2.43,3.94,13,13,0,0,0-.88,4.8v.11a13.14,13.14,0,0,0,.88,4.82,11.84,11.84,0,0,0,6.32,6.66A11.65,11.65,0,0,0,105.71,40.53Z"/><path class="cls-1" d="M146.52,48.46a26.5,26.5,0,0,1-8.9-1.54,23.56,23.56,0,0,1-7.94-4.76L134.84,36a26,26,0,0,0,5.59,3.52,14.87,14.87,0,0,0,6.26,1.3,7.67,7.67,0,0,0,4.23-1,3.15,3.15,0,0,0,1.5-2.76V37a3.45,3.45,0,0,0-.31-1.51,3.22,3.22,0,0,0-1.2-1.22,12.29,12.29,0,0,0-2.44-1.14c-1.05-.37-2.4-.77-4.07-1.19q-3-.8-5.46-1.68A14.69,14.69,0,0,1,134.79,28a9,9,0,0,1-2.64-3.32,11.53,11.53,0,0,1-.94-4.95v-.11a11.59,11.59,0,0,1,1-4.91,11.24,11.24,0,0,1,2.85-3.78,12.84,12.84,0,0,1,4.37-2.45,17.84,17.84,0,0,1,5.61-.85,23.71,23.71,0,0,1,8,1.3,23.27,23.27,0,0,1,6.72,3.71l-4.53,6.56A28.92,28.92,0,0,0,150,16.34a13.32,13.32,0,0,0-5.11-1.05,6.16,6.16,0,0,0-3.82,1,3,3,0,0,0-1.28,2.47v.12a3.52,3.52,0,0,0,.37,1.67,3.32,3.32,0,0,0,1.34,1.28,12.28,12.28,0,0,0,2.64,1.08c1.12.34,2.53.74,4.24,1.19a42.16,42.16,0,0,1,5.37,1.79,15.18,15.18,0,0,1,4,2.39,9.15,9.15,0,0,1,2.45,3.27A11.24,11.24,0,0,1,161,36v.12A12.34,12.34,0,0,1,160,41.39a10.68,10.68,0,0,1-3,3.87,13.41,13.41,0,0,1-4.57,2.38A19.78,19.78,0,0,1,146.52,48.46Z"/><path class="cls-1" d="M175.14,16.25H163.06v-8H196v8.05H183.88V47.9h-8.74Z"/><path class="cls-2" d="M213.58.08a12.93,12.93,0,1,1-14.24,11.46A12.93,12.93,0,0,1,213.58.08Zm-8.1,12.13a6.75,6.75,0,1,0,7.44-6A6.75,6.75,0,0,0,205.48,12.21Z"/><path class="cls-3" d="M225.39,15.58,222,13.47l-3.64,2a21.4,21.4,0,0,1,0-3.4l3.4-1.71,3.84,2.32S225.45,15.12,225.39,15.58Z"/></g></g></svg>