<?xml version="1.0" encoding="UTF-8"?>
<svg width="226px" height="49px" viewBox="0 0 226 49" version="1.1" xmlns="http://www.w3.org/2000/svg" xmlns:xlink="http://www.w3.org/1999/xlink">
    <!-- Generator: Sketch 53.2 (72643) - https://sketchapp.com -->
    <title>boost-360-logo White</title>
    <desc>Created with Sketch.</desc>
    <g id="Page-1" stroke="none" stroke-width="1" fill="none" fill-rule="evenodd">
        <g id="Artboard" transform="translate(-21.000000, -21.000000)" fill="#FFFFFF" fill-rule="nonzero">
            <g id="boost-360-logo-White" transform="translate(21.000000, 21.000000)">
                <path d="M0,8.2 L18.4,8.2 C22.9733333,8.2 26.4266667,9.37333333 28.76,11.72 C30.5546834,13.4964611 31.5354191,15.9356342 31.47,18.46 L31.47,18.58 C31.5844759,20.4798849 31.0676622,22.3643209 30,23.94 C29.0210772,25.2544649 27.7733935,26.3453359 26.34,27.14 C27.4057693,27.5671728 28.4357117,28.0788 29.42,28.67 C30.3048147,29.2032578 31.0954589,29.8790221 31.76,30.67 C32.4139442,31.4668259 32.9125711,32.3792792 33.23,33.36 C33.587931,34.4983311 33.7601373,35.686892 33.74,36.88 L33.74,37 C33.7926211,38.6438498 33.4496703,40.2762955 32.74,41.76 C32.038582,43.1280832 31.0075712,44.2999988 29.74,45.17 C28.3058517,46.1129464 26.7138649,46.7903876 25.04,47.17 C23.0446974,47.6405457 20.9999488,47.8688591 18.95,47.85 L0,47.85 L0,8.2 Z M16.56,24.25 C18.1511912,24.3246024 19.7340496,23.979753 21.15,23.25 C22.2870739,22.5951641 22.9509183,21.349 22.86,20.04 L22.86,19.93 C22.9074141,18.7437073 22.3502201,17.6142599 21.38,16.93 C20.1048658,16.1516441 18.6209002,15.7850173 17.13,15.88 L8.51,15.88 L8.51,24.27 L16.56,24.25 Z M18.89,40.25 C20.4688654,40.3348985 22.0394863,39.9708473 23.42,39.2 C24.5248717,38.4969231 25.1576713,37.2466646 25.07,35.94 L25.07,35.83 C25.1099351,34.5920938 24.5376801,33.4139217 23.54,32.68 C22.0542975,31.788365 20.3272839,31.3828314 18.6,31.52 L8.51,31.52 L8.51,40.25 L18.89,40.25 Z" id="Shape"></path>
                <path d="M58.34,48.58 C55.4458525,48.6256264 52.5721252,48.0882904 49.89,47 C47.4101525,45.9830652 45.146536,44.5033999 43.22,42.64 C41.3475637,40.7974788 39.8648298,38.5971834 38.86,36.17 C37.8063532,33.6356619 37.2757328,30.9145313 37.3,28.17 L37.3,28.06 C37.2748349,25.3124244 37.8160888,22.5891342 38.89,20.06 C40.9899885,15.0848022 44.9893219,11.1538642 50,9.14 C52.6906366,8.04086436 55.5736741,7.49009541 58.48,7.52 C61.3666989,7.4921746 64.2297134,8.04301587 66.9,9.14 C69.3787058,10.153461 71.6396679,11.6336104 73.56,13.5 C75.4387303,15.3509346 76.9250077,17.5616446 77.93,20 C78.9844421,22.5340978 79.5150946,25.2553926 79.49,28 L79.49,28.11 C79.5128833,30.8573611 78.9717208,33.5801915 77.9,36.11 C75.7999931,41.0712855 71.8086775,44.9906206 66.81,47 C64.120049,48.0854352 61.2403776,48.6226112 58.34,48.58 Z M58.45,40.58 C60.1192892,40.5943786 61.7725419,40.2535018 63.3,39.58 C64.7052386,38.9518775 65.9650612,38.0393573 67,36.9 C68.0587857,35.7630449 68.8994358,34.4410549 69.48,33 C70.0757494,31.4739584 70.3744379,29.8481428 70.36,28.21 L70.36,28.1 C70.3714592,26.4523704 70.0729371,24.8172834 69.48,23.28 C68.3464103,20.3099415 66.0806042,17.9110643 63.18,16.61 C61.6575212,15.9319608 60.0065269,15.5908462 58.34,15.61 C56.680868,15.6004705 55.038406,15.9412303 53.52,16.61 C52.087616,17.2169446 50.8020459,18.1240047 49.75,19.27 C48.6957163,20.4178897 47.8678572,21.7546786 47.31,23.21 C46.7162964,24.7401048 46.4177032,26.3687951 46.43,28.01 L46.43,28.12 C46.4185408,29.7676296 46.7170629,31.4027166 47.31,32.94 C48.4351216,35.9196963 50.7132926,38.3204271 53.63,39.6 C55.152378,40.2488198 56.7955163,40.5658569 58.45,40.53 L58.45,40.58 Z" id="Shape"></path>
                <path d="M105.6,48.58 C102.702704,48.6245175 99.8259266,48.0872471 97.14,47 C94.6632521,45.9828171 92.4029601,44.5031064 90.48,42.64 C88.6045996,40.7978699 87.1185139,38.5976469 86.11,36.17 C85.0645006,33.6335329 84.5374743,30.913397 84.56,28.17 L84.56,28.06 C84.5316734,25.3131239 85.0695178,22.5898613 86.14,20.06 C87.1758137,17.6250656 88.6695208,15.4116632 90.54,13.54 C92.454461,11.6371536 94.7286864,10.1346012 97.23,9.12 C99.9206366,8.02086436 102.803674,7.47009541 105.71,7.5 C108.606779,7.46815387 111.480392,8.0190713 114.16,9.12 C116.638706,10.133461 118.899668,11.6136104 120.82,13.48 C122.700959,15.3368023 124.187364,17.5545059 125.19,20 C126.244442,22.5340978 126.775095,25.2553926 126.75,28 L126.75,28.11 C126.772883,30.8573611 126.231721,33.5801915 125.16,36.11 C123.059993,41.0712855 119.068678,44.9906206 114.07,47 C111.380049,48.0854352 108.500378,48.6226112 105.6,48.58 Z M105.71,40.58 C107.3792,40.5934647 109.032262,40.252627 110.56,39.58 C111.977778,38.962529 113.251471,38.0566408 114.3,36.92 C115.346573,35.773817 116.173638,34.4450901 116.74,33 C117.330846,31.4725688 117.629361,29.8476989 117.62,28.21 L117.62,28.1 C117.626771,26.4527817 117.328406,24.8185553 116.74,23.28 C115.60641,20.3099415 113.340604,17.9110643 110.44,16.61 C108.917521,15.9319608 107.266527,15.5908462 105.6,15.61 C103.93777,15.6017555 102.29231,15.9424305 100.77,16.61 C99.3467334,17.2014713 98.0626613,18.0836323 97,19.2 C95.9521377,20.3508715 95.1280546,21.687039 94.57,23.14 C93.9762964,24.6701048 93.6777032,26.2987951 93.69,27.94 L93.69,28.05 C93.6785408,29.6976296 93.9770629,31.3327166 94.57,32.87 C95.6951216,35.8496963 97.9732926,38.2504271 100.89,39.53 C102.407098,40.202847 104.050446,40.5437905 105.71,40.53 L105.71,40.58 Z" id="Shape"></path>
                <path d="M146.52,48.46 C143.487065,48.4597531 140.476681,47.9388552 137.62,46.92 C134.684584,45.874045 131.985828,44.2561508 129.68,42.16 L134.84,36 C136.546091,37.4062366 138.424582,38.5891151 140.43,39.52 C142.397722,40.4021093 144.533756,40.8456946 146.69,40.82 C148.166928,40.9015226 149.635924,40.5542423 150.92,39.82 C151.875781,39.232724 152.44712,38.1814612 152.42,37.06 L152.42,37 C152.431875,36.4797281 152.325897,35.9635106 152.11,35.49 C151.82736,34.9825423 151.412717,34.5609881 150.91,34.27 C150.140884,33.8017632 149.322639,33.4194684 148.47,33.13 C147.42,32.76 146.07,32.36 144.4,31.94 C142.4,31.4066667 140.58,30.8466667 138.94,30.26 C137.443771,29.7355557 136.042309,28.9723501 134.79,28 C133.658058,27.1194724 132.752921,25.9811947 132.15,24.68 C131.475575,23.1194756 131.154579,21.4291214 131.21,19.73 L131.21,19.62 C131.181316,17.9299951 131.522625,16.2541681 132.21,14.71 C132.880878,13.2619609 133.852423,11.9733849 135.06,10.93 C136.341666,9.83431658 137.826594,9.0018056 139.43,8.48 C141.24268,7.89919912 143.136629,7.61223713 145.04,7.63 C147.761515,7.60096166 150.467712,8.04071866 153.04,8.93 C155.469932,9.78613682 157.740822,11.0398572 159.76,12.64 L155.23,19.2 C153.589832,18.0690663 151.837191,17.1106432 150,16.34 C148.382525,15.6566066 146.645892,15.299764 144.89,15.29 C143.541432,15.1951254 142.199103,15.5465205 141.07,16.29 C140.264302,16.8537882 139.786061,17.7766427 139.79,18.76 L139.79,18.88 C139.774148,19.4586212 139.901233,20.0322226 140.16,20.55 C140.476125,21.0952019 140.940898,21.5391648 141.5,21.83 C142.335061,22.2913269 143.221036,22.6537713 144.14,22.91 C145.26,23.25 146.67,23.65 148.38,24.1 C150.208079,24.5756929 152.002121,25.1737071 153.75,25.89 C155.198388,26.4760608 156.547613,27.2822227 157.75,28.28 C158.802711,29.17139 159.640259,30.2892592 160.2,31.55 C160.765332,32.9638335 161.037504,34.4777914 161,36 L161,36.12 C161.057118,37.9287405 160.71572,39.727908 160,41.39 C159.313209,42.8949276 158.286219,44.2197448 157,45.26 C155.644835,46.3412857 154.092858,47.1495363 152.43,47.64 C150.512795,48.2105944 148.52013,48.4870725 146.52,48.46 Z" id="Path"></path>
                <polygon id="Path" points="175.14 16.25 163.06 16.25 163.06 8.25 196 8.25 196 16.3 183.88 16.3 183.88 47.9 175.14 47.9"></polygon>
                <path d="M225.11341,12.3860186 L221.76,10.36 L218.854113,11.8214904 C218.374396,8.90402293 216.002389,6.54416714 212.92,6.21 C211.1373,6.01673439 209.350962,6.5407401 207.955154,7.66639151 C206.559347,8.79204292 205.668793,10.4268209 205.48,12.21 C205.087735,15.9150104 207.77151,19.2372029 211.476191,19.6325664 C214.559504,19.9616174 217.379428,18.1597311 218.468347,15.4104688 L222,13.47 L224.91008,15.2812885 C224.359144,18.2644972 222.76449,21.0261789 220.301071,23.008678 C216.226157,26.288068 210.576839,26.7893414 205.988165,24.2786859 C201.39949,21.7680305 198.775453,16.7400585 199.34,11.54 C200.110317,4.44458574 206.483988,-0.684786757 213.58,0.08 C218.780497,0.640493827 223.13104,4.27901626 224.602378,9.29842741 C224.901389,10.318495 225.069518,11.3547538 225.11341,12.3860186 Z" id="Combined-Shape"></path>
            </g>
        </g>
    </g>
</svg>