<svg width="888.07971" height="534.96981" xmlns="http://www.w3.org/2000/svg" data-name="Layer 1">
 <title>online_payments</title>

 <g>
  <title>Layer 1</title>
  <path id="svg_1" fill="#e6e6e6" d="m58.23456,391.70037l-5.333,-21.03429a273.135,273.135 0 0 0 -28.9779,-10.39639l-0.67337,9.77549l-2.73043,-10.7696c-12.212,-3.48717 -20.51983,-5.02321 -20.51983,-5.02321s11.22195,42.67366 34.7592,75.29821l27.426,4.81755l-21.30654,3.072a110.50245,110.50245 0 0 0 9.53073,10.10012c34.24,31.78207 72.377,46.36387 85.18129,32.5693s-4.57282,-50.7417 -38.81286,-82.52378c-10.61474,-9.85276 -23.94912,-17.75951 -37.29675,-23.98229l-1.24654,18.09689z"/>
  <path id="svg_2" fill="#e6e6e6" d="m108.95536,368.85761l6.30738,-20.76292a273.13329,273.13329 0 0 0 -19.4325,-23.8785l-5.6294,8.02019l3.22943,-10.63063c-8.6515,-9.29758 -14.96941,-14.90686 -14.96941,-14.90686s-12.45157,42.33122 -9.16631,82.42573l20.98773,18.30061l-19.82728,-8.3836a110.50442,110.50442 0 0 0 2.938,13.57259c12.88281,44.90561 37.99241,77.10132 56.0839,71.91112s22.31392,-45.80088 9.43111,-90.70649c-3.9938,-13.92118 -11.32161,-27.58227 -19.53123,-39.80866l-10.42142,14.84742z"/>
  <path id="svg_4" fill="#2f2e41" d="m140.37786,255.61289s-6.91528,83.14848 -8.40005,100.9657a126.7102,126.7102 0 0 1 -7.42384,32.66491s-2.96954,5.93908 -2.96954,11.87815l0,75.7232s-5.93907,0 -4.4543,5.93908s2.96953,16.33245 2.96953,16.33245l22.27153,0s-1.48476,-4.4543 2.96954,-5.93907s0,-13.36292 0,-13.36292l23.7563,-89.08612l35.63445,-74.23843s20.78676,66.81459 25.24107,74.23843c0,0 16.33245,83.14705 19.302,90.57089s4.4543,7.42384 2.96953,10.39338s-1.48476,5.93907 0,7.42384s29.69538,0 29.69538,0l-7.42385,-105.41857l-13.36291,-126.20538l-68.29936,-20.78676l-52.47548,8.90722z"/>
  <path id="svg_5" fill="#2f2e41" d="m136.43213,487.23819s-7.42384,-26.72583 -19.302,-5.93907s-11.87815,28.2106 -11.87815,28.2106s-19.302,28.21061 7.42384,25.24107s20.78676,-16.33245 20.78676,-16.33245s10.39338,-5.93908 10.39338,-10.39338s-7.42383,-20.78677 -7.42383,-20.78677z"/>
  <path id="svg_6" fill="#2f2e41" d="m256.69839,484.26866s7.42384,-26.72584 19.302,-5.93908s11.87815,28.21061 11.87815,28.21061s19.302,28.2106 -7.42384,25.24106s-20.78676,-16.33245 -20.78676,-16.33245s-10.39338,-5.93908 -10.39338,-10.39338s7.42383,-20.78676 7.42383,-20.78676z"/>
  <path id="svg_7" fill="#a0616a" d="m186.91426,55.17052s2.96954,19.302 -5.93907,23.75629s19.302,20.78677 26.72584,20.78677s20.78676,-14.84769 20.78676,-14.84769s-7.42385,-22.27153 -5.93908,-26.72584l-35.63445,-2.96953z"/>
  <circle id="svg_8" fill="#a0616a" r="31.18014" cy="38.83808" cx="203.24671"/>
  <path id="svg_9" fill="#cfcce0" d="m264.12223,102.68311l-37.118,-22.4886s-21.1191,23.97337 -43.96746,-2.75246l-39.18081,10.39338l5.93908,100.96426s-8.90861,40.08876 -5.93908,47.5126s-7.42384,10.39338 -4.4543,11.87815s0,11.87815 0,11.87815s57.906,29.69537 121.751,7.42384l-5.93908,-19.302a15.58017,15.58017 0 0 0 -2.96954,-14.84769s5.93908,-8.90861 -1.48476,-16.33245c0,0 2.96953,-13.36292 -4.45431,-19.302l-1.48477,-20.78676l4.45431,-10.39338l14.84772,-63.84504z"/>
  <path id="svg_10" fill="#2f2e41" d="m187.28962,24.36025s-3.7173,8.04469 11.15192,4.82681c0,0 5.576,3.21788 5.576,-1.60893c0,0 7.43461,8.04469 9.29326,3.21787s5.576,1.60894 5.576,1.60894l3.7173,-8.04469l3.71731,4.82681l13.01045,0s3.7173,-32.17875 -40.89036,-28.96087s-22.663,54.20194 -22.663,54.20194s0.35921,-9.15169 4.07651,-4.32487s7.43461,-25.74301 7.43461,-25.74301z"/>
  <path id="svg_11" fill="#a0616a" d="m277.48515,162.07389l1.48477,31.18014s5.93908,57.906 -5.93907,83.147l0,13.36291s-2.96954,34.14968 -17.81723,32.66491s4.45431,-48.99736 4.45431,-48.99736l-2.96954,-65.32982l-2.96953,-37.1192l23.75629,-8.90858z"/>
  <path id="svg_12" fill="#cfcce0" d="m247.78978,104.16789l14.81131,-2.40638a72.31337,72.31337 0 0 1 20.82314,38.04083c4.4543,23.7563 5.93907,28.2106 5.93907,28.2106l-35.63444,8.90861l-19.302,-37.11922l13.36292,-35.63444z"/>
  <rect id="svg_13" fill="#fff" height="116.39453" width="234.31056" y="87.22321" x="184.01662"/>
  <path id="svg_14" fill="#18aebf" d="m209.60192,94.22271c-6.01967,-3.62 -13.278,-3.3435 -16.0373,-3.067c1.05081,2.56549 4.20371,9.10919 10.22338,12.731c6.03437,3.62916 13.28306,3.34441 16.03823,3.06977c-1.05037,-2.56459 -4.20371,-9.11103 -10.22431,-12.73377z"/>
  <path id="svg_15" fill="#18aebf" d="m237.88892,166.05556l-37.62353,0a8.4653,8.4653 0 1 0 0,16.93059l37.62353,0a8.4653,8.4653 0 1 0 0,-16.93059z"/>
  <path id="svg_16" fill="#18aebf" d="m408.26132,76.69966l-210.94359,0a18.68583,18.68583 0 0 0 -18.68587,18.68587l0,102.77593a18.68587,18.68587 0 0 0 18.68587,18.68587l210.94359,0a18.68587,18.68587 0 0 0 18.68587,-18.68587l0,-102.77593a18.68583,18.68583 0 0 0 -18.68587,-18.68587zm-216.1627,12.74663c0.41656,-0.07532 10.29412,-1.75626 18.47328,3.1653c8.17871,4.92063 11.32105,14.43582 11.45057,14.83815l0.33067,1.026l-1.06138,0.1883a28.17463,28.17463 0 0 1 -4.57756,0.33619a27.25632,27.25632 0 0 1 -13.89618,-3.50241c-8.17871,-4.91972 -11.32059,-14.43491 -11.4501,-14.83723l-0.33068,-1.026l1.06138,-0.1883zm45.7903,95.421l-37.62353,0a10.34647,10.34647 0 0 1 0,-20.69294l37.62353,0a10.34647,10.34647 0 1 1 0,20.69294zm171.18709,-1.88117a11.32027,11.32027 0 0 1 -11.28706,11.28706l-28.21765,0a11.32027,11.32027 0 0 1 -11.28706,-11.28706l0,-16.93056a11.32023,11.32023 0 0 1 11.28706,-11.28706l28.21765,0a11.32023,11.32023 0 0 1 11.28706,11.28706l0,16.93056z"/>
  <path id="svg_17" fill="#18aebf" d="m378.50686,179.69409l-12.22762,0a3.29206,3.29206 0 0 0 0,6.58412l12.22762,0a3.29206,3.29206 0 0 0 0,-6.58412zm0,4.70294l-12.22762,0a1.41089,1.41089 0 1 1 0,-2.82177l12.22762,0a1.41089,1.41089 0 0 1 0,2.82177z"/>
  <path id="svg_18" fill="#18aebf" d="m401.08101,179.69409l-12.22765,0a3.29206,3.29206 0 0 0 0,6.58412l12.22765,0a3.29206,3.29206 0 0 0 0,-6.58412zm0,4.70294l-12.22765,0a1.41089,1.41089 0 1 1 0,-2.82177l12.22765,0a1.41089,1.41089 0 0 1 0,2.82177z"/>
  <path id="svg_19" fill="#18aebf" d="m378.50686,171.22879l-12.22762,0a3.29206,3.29206 0 0 0 0,6.58412l12.22762,0a3.29206,3.29206 0 0 0 0,-6.58412zm0,4.70294l-12.22762,0a1.41088,1.41088 0 1 1 0,-2.82176l12.22762,0a1.41088,1.41088 0 1 1 0,2.82176z"/>
  <path id="svg_20" fill="#18aebf" d="m401.08101,171.22879l-12.22765,0a3.29206,3.29206 0 0 0 0,6.58412l12.22765,0a3.29206,3.29206 0 0 0 0,-6.58412zm0,4.70294l-12.22765,0a1.41088,1.41088 0 1 1 0,-2.82176l12.22765,0a1.41088,1.41088 0 1 1 0,2.82176z"/>
  <path id="svg_21" fill="#18aebf" d="m378.50686,162.7635l-12.22762,0a3.29206,3.29206 0 0 0 0,6.58412l12.22762,0a3.29206,3.29206 0 0 0 0,-6.58412zm0,4.70294l-12.22762,0a1.41089,1.41089 0 1 1 0,-2.82177l12.22762,0a1.41089,1.41089 0 0 1 0,2.82177z"/>
  <path id="svg_22" fill="#18aebf" d="m401.08101,162.7635l-12.22765,0a3.29206,3.29206 0 0 0 0,6.58412l12.22765,0a3.29206,3.29206 0 0 0 0,-6.58412zm0,4.70294l-12.22765,0a1.41089,1.41089 0 1 1 0,-2.82177l12.22765,0a1.41089,1.41089 0 0 1 0,2.82177z"/>
  <path id="svg_23" fill="#a0616a" d="m121.58444,144.25664s-13.36291,56.4212 2.96954,56.4212s54.93644,-63.84505 54.93644,-63.84505s40.08875,-20.78676 23.7563,-28.2106s-37.11922,11.87815 -37.11922,11.87815l-23.985,33.29991l-1.2561,-16.96746l-19.30196,7.42385z"/>
  <path id="svg_24" fill="#cfcce0" d="m152.76459,96.74404l-8.90862,-8.90861s-17.81722,10.39338 -19.302,20.78676s-8.90861,43.05829 -8.90861,43.05829l27.46822,2.22715l8.90861,-13.36292l0.7424,-43.80067z"/>
  <path id="svg_25" fill="#18aebf" d="m559.78272,112.62279c-1.11855,-3.30279 -15.14535,-14.52981 -6.55009,-16.41686l7.04866,9.39858l32.40661,-32.406l3.25929,3.25929l-36.16447,36.16499z"/>
  <path id="svg_26" fill="#18aebf" d="m559.78272,222.81676c-1.11855,-3.30278 -15.14535,-14.5298 -6.55009,-16.41685l7.04866,9.39858l32.40661,-32.406l3.25929,3.25929l-36.16447,36.16498z"/>
  <path id="svg_27" fill="#18aebf" d="m561.78272,331.58494c-1.11855,-3.30278 -15.14535,-14.5298 -6.55009,-16.41685l7.04866,9.39858l32.40661,-32.406l3.25929,3.25928l-36.16447,36.16499z"/>
  <polygon id="svg_34" fill="#3f3d56" points="586.0399780273438,342.4849853515625 536.0399780273438,342.4849853515625 536.0399780273438,291.4849853515625 570.0399780273438,291.4849853515625 570.0399780273438,293.4849853515625 538.0399780273438,293.4849853515625 538.0399780273438,340.4849853515625 584.0399780273438,340.4849853515625 584.0399780273438,317.4849853515625 586.0399780273438,317.4849853515625 586.0399780273438,342.4849853515625 "/>
  <polygon id="svg_35" fill="#3f3d56" points="585.0399780273438,237.48500061035156 535.0399780273438,237.48500061035156 535.0399780273438,186.48500061035156 569.0399780273438,186.48500061035156 569.0399780273438,188.48500061035156 537.0399780273438,188.48500061035156 537.0399780273438,235.48500061035156 583.0399780273438,235.48500061035156 583.0399780273438,212.48500061035156 585.0399780273438,212.48500061035156 585.0399780273438,237.48500061035156 "/>
  <polygon id="svg_36" fill="#3f3d56" points="585.0399780273438,123.48500061035156 535.0399780273438,123.48500061035156 535.0399780273438,72.48500061035156 569.0399780273438,72.48500061035156 569.0399780273438,74.48500061035156 537.0399780273438,74.48500061035156 537.0399780273438,121.48500061035156 583.0399780273438,121.48500061035156 583.0399780273438,98.48500061035156 585.0399780273438,98.48500061035156 585.0399780273438,123.48500061035156 "/>
  <text font-style="normal" font-weight="normal" transform="matrix(2.67994 0 0 1.79398 -1072.55 -30.4898)" xml:space="preserve" text-anchor="start" font-family="'Nunito'" font-size="19" stroke-width="0" id="svg_37" y="78.90869" x="630.07253" fill="#2f2e41">UPI</text>
  <text font-style="normal" font-weight="normal" transform="matrix(2.507 0 0 2.03077 -983.698 -24.3507)" xml:space="preserve" text-anchor="start" font-family="'Nunito'" font-size="19" stroke-width="0" id="svg_38" y="122.81699" x="637.21953" fill="#2f2e41">Cards</text>
  <text font-style="normal" font-weight="normal" transform="matrix(2.4971 0 0 2.33779 -966.743 -148.497)" xml:space="preserve" text-anchor="start" font-family="'Nunito'" font-size="19" stroke-width="0" id="svg_39" y="206.16106" x="633.35573" fill="#2f2e41">Wallets</text>
  <path id="svg_40" fill="#18aebf" d="m559.78272,432.58494c-1.11855,-3.30278 -15.14535,-14.5298 -6.55009,-16.41685l7.04866,9.39858l32.40661,-32.406l3.25929,3.25928l-36.16447,36.16499z"/>
  <polygon id="svg_41" fill="#3f3d56" points="585.0399780273438,447.4849853515625 535.0399780273438,447.4849853515625 535.0399780273438,396.4849853515625 569.0399780273438,396.4849853515625 569.0399780273438,398.4849853515625 537.0399780273438,398.4849853515625 537.0399780273438,445.4849853515625 583.0399780273438,445.4849853515625 583.0399780273438,422.4849853515625 585.0399780273438,422.4849853515625 585.0399780273438,447.4849853515625 "/>
  <text font-style="normal" font-weight="normal" transform="matrix(1.7422 0 0 1.84563 -501.321 -75.7936)" xml:space="preserve" text-anchor="start" font-family="'Nunito'" font-size="24" stroke-width="0" id="svg_42" y="279.05878" x="639.61571" fill="#2f2e41">Net Banking</text>
 </g>
</svg>