<svg width="632.79921" height="449.14098" xmlns="http://www.w3.org/2000/svg" data-name="Layer 1">

 <g>
  <title>Layer 1</title>
  <path id="svg_1" fill="#f2f2f2" d="m621.23977,435.14099c68.23434,-120.69593 -62.64082,-182.50964 -79.48628,-55.05707c-0.85331,-16.44794 -1.757,-33.16061 -7.22088,-48.69795c-8.29741,-32.23249 -53.38462,-55.58875 -74.91959,-22.961c-11.38413,20.21687 3.71282,48.57678 -9.37911,67.73424c-8.25769,-48.2147 -78.26339,-36.904 -70.89191,11.4727c5.53385,23.24182 30.08972,36.76744 49.69088,47.28173l192.20689,0.22735z"/>
  <path id="svg_2" fill="#fff" d="m389.3694,358.4274c34.63662,11.23884 77.92186,30.17049 81.43333,71.55017c0.10081,1.64036 2.66806,1.65181 2.56656,-0.00053c-0.89755,-14.61106 -8.01809,-27.98222 -17.87815,-38.55676c-10.81047,-11.59383 -24.81936,-19.51225 -39.283,-25.656c-2.82669,-0.65388 -32.26271,-14.57936 -26.83874,-7.33688z"/>
  <path id="svg_3" fill="#fff" d="m476.87741,297.9045a233.05468,233.05468 0 0 1 32.7402,132.906c-0.09519,1.65007 2.47167,1.64459 2.56658,0a235.89158,235.89158 0 0 0 -19.04295,-106.84728c-1.63585,-3.01175 -14.83306,-34.72773 -16.26385,-26.05873l0.00002,0.00001z"/>
  <path id="svg_4" fill="#fff" d="m602.49431,312.6471a374.88372,374.88372 0 0 0 -30.95147,119.95646c-0.14352,1.64514 2.42387,1.63551 2.56652,0a372.91417,372.91417 0 0 1 20.54019,-93.5674c-0.03047,-3.36135 14.76269,-30.64191 7.84476,-26.389l0,-0.00006z"/>
  <path id="svg_5" fill="#f2f2f2" d="m305.20014,433.06509c19.53273,-34.55037 -17.93153,-52.24513 -22.75371,-15.76062c-0.24426,-4.70838 -0.503,-9.49254 -2.067,-13.94025c-2.37522,-9.22686 -15.28186,-15.91281 -21.44645,-6.5728c-3.25882,5.78727 1.06283,13.90557 -2.68486,19.38957c-2.36384,-13.80192 -22.40364,-10.56413 -20.29349,3.28417c1.58412,6.65319 8.61347,10.525 14.22449,13.53485l55.02102,0.06508z"/>
  <path id="svg_6" fill="#fff" d="m238.82503,411.10509c9.91506,3.21722 22.30588,8.63659 23.31107,20.48192c0.02886,0.46957 0.76376,0.47284 0.7347,-0.00016a18.06265,18.06265 0 0 0 -5.11779,-11.03724a32.36951,32.36951 0 0 0 -11.24512,-7.34427c-0.80918,-0.18718 -9.23552,-4.17348 -7.68286,-2.10025z"/>
  <path id="svg_7" fill="#fff" d="m263.87503,393.77982a66.714,66.714 0 0 1 9.37221,38.04561c-0.02725,0.47235 0.70754,0.47078 0.7347,0a67.52614,67.52614 0 0 0 -5.45122,-30.586c-0.46828,-0.86215 -4.24611,-9.94115 -4.65569,-7.45956l0,-0.00005z"/>
  <path id="svg_8" fill="#fff" d="m299.83407,398.00004a107.3139,107.3139 0 0 0 -8.86015,34.33868c-0.04109,0.47094 0.69385,0.46818 0.73469,0a106.75,106.75 0 0 1 5.87983,-26.78456c-0.00873,-0.96222 4.22595,-8.77154 2.24563,-7.55412z"/>
  <path id="svg_9" fill="#3f3d56" d="m296,83.00001l-283,0a1,1 0 0 1 0,-2l283,0a1,1 0 0 1 0,2z"/>
  <circle id="svg_10" fill="#18aebf" r="17" cy="81" cx="237.79921"/>
  <path id="svg_11" fill="#3f3d56" d="m296,147.00001l-283,0a1,1 0 0 1 0,-2l283,0a1,1 0 0 1 0,2z"/>
  <circle id="svg_12" fill="#18aebf" r="17" cy="145" cx="79.79921"/>
  <path id="svg_13" fill="#3f3d56" d="m296,211.00001l-283,0a1,1 0 0 1 0,-2l283,0a1,1 0 0 1 0,2z"/>
  <circle id="svg_14" fill="#18aebf" r="17" cy="209" cx="146.79921"/>
  <path id="svg_15" fill="#ffb8b8" d="m309.5644,143.1665a11.25852,11.25852 0 0 1 0.93585,1.50549l52.70668,5.92648l7.66556,-10.35685l17.14236,9.52578l-15.08983,25.15734l-64.57279,-16.94663a11.225,11.225 0 1 1 1.21217,-14.81161z"/>
  <path id="svg_16" fill="#18aebf" d="m384.26918,158.77715a4.82738,4.82738 0 0 1 -1.174,-0.73259l-21.18317,-17.84464a4.81188,4.81188 0 0 1 -0.30946,-7.07655l19.22261,-19.302a4.78746,4.78746 0 0 1 6.2374,-0.4968l14.53685,10.55607a4.81475,4.81475 0 0 1 1.523,5.95108l-12.5758,26.5896a4.817,4.817 0 0 1 -6.27739,2.35583l-0.00004,0z"/>
  <polygon id="svg_17" fill="#ffb8b8" points="466.89202880859375,411.1570129394531 454.239990234375,414.5989990234375 434.9420166015625,367.43798828125 453.614013671875,362.3580017089844 466.89202880859375,411.1570129394531 "/>
  <path id="svg_18" fill="#2f2e41" d="m443.22207,413.71167l25.39754,-6.91028a0,0 0 0 1 0,0l4.17994,15.36266a0,0 0 0 1 0,0l-39.76216,10.81868a0,0 0 0 1 0,0l-0.27155,-0.99803a14.36463,14.36463 0 0 1 10.45623,-18.27303z"/>
  <polygon id="svg_19" fill="#ffb8b8" points="358.7349853515625,420.8110046386719 345.6239929199219,420.80999755859375 339.385986328125,370.23699951171875 358.7380065917969,370.2380065917969 358.7349853515625,420.8110046386719 "/>
  <path id="svg_20" fill="#2f2e41" d="m335.22389,417.06387l26.32087,0a0,0 0 0 1 0,0l0,15.92113a0,0 0 0 1 0,0l-41.20776,0a0,0 0 0 1 0,0l0,-1.03431a14.88686,14.88686 0 0 1 14.88689,-14.88682z"/>
  <circle transform="rotate(-45 -335.797 350.564)" id="svg_21" fill="#ffb8b8" r="26.26745" cy="650.62636" cx="374.29057"/>
  <path id="svg_22" fill="#2f2e41" d="m357.93245,384.75241l-17.91766,0a4.82663,4.82663 0 0 1 -4.80794,-4.516c-5.339,-84.87512 -2.216,-145.758 9.82817,-191.60036a5.00167,5.00167 0 0 1 0.195,-0.59009l0.95955,-2.399a4.79,4.79 0 0 1 4.46878,-3.02565l36.84556,0a4.80484,4.80484 0 0 1 3.65413,1.68045l5.00456,5.83931c0.09765,0.11384 0.189,0.22977 0.277,0.352c22.56711,31.4702 42.79109,92.99542 66.21384,175.69189a4.79653,4.79653 0 0 1 -3.164,5.89988l-19.25581,6.162a4.83851,4.83851 0 0 1 -5.802,-2.49405l-49.96879,-103.64012a3.74336,3.74336 0 0 0 -7.08032,1.11856l-14.68181,107.36027a4.83105,4.83105 0 0 1 -4.76826,4.16091z"/>
  <path id="svg_23" fill="#18aebf" d="m394.14271,190.56818c-0.0504,0 -0.10053,-0.001 -0.15118,-0.00209l-44.75592,-1.41309a4.797,4.797 0 0 1 -4.62936,-4.22882c-5.6735,-45.92485 9.8864,-58.228 16.83957,-61.38526a3.7,3.7 0 0 0 2.152,-2.93375l0.60158,-4.8137a4.79509,4.79509 0 0 1 0.95093,-2.33739c10.90183,-14.12253 25.78808,-18.64483 33.6914,-20.083a4.80525,4.80525 0 0 1 5.61606,4.11707l0.90133,6.91191a3.80783,3.80783 0 0 0 0.76294,1.80892c22.736,29.7229 -2.593,73.60906 -7.90149,82.1043l0,0a4.82165,4.82165 0 0 1 -4.07786,2.2549z"/>
  <path id="svg_24" fill="#ffb8b8" d="m389.9682,255.84414a11.48907,11.48907 0 0 0 1.50421,-17.55277l8.31333,-100.39328l-24.75213,3.40511l-0.4709,97.5412a11.55133,11.55133 0 0 0 15.40546,16.99974l0.00003,0z"/>
  <path id="svg_25" fill="#18aebf" d="m401.40319,152.35422a4.82707,4.82707 0 0 1 -1.36948,-0.19844l-26.57217,-7.81528a4.81187,4.81187 0 0 1 -3.1301,-6.35419l9.83365,-25.40426a4.78747,4.78747 0 0 1 5.51057,-2.964l17.55525,3.81628a4.81475,4.81475 0 0 1 3.78834,4.83562l-0.81673,29.40226a4.817,4.817 0 0 1 -4.79933,4.6821l0,-0.00009z"/>
  <path id="svg_26" fill="#3f3d56" d="m623.01575,435.00001l-381,0a1,1 0 0 1 0,-2l381,0a1,1 0 0 1 0,2z"/>
  <path id="svg_28" fill="#2f2e41" d="m373.26141,54.42016c-1.29565,4.32811 -6.25148,6.997 -10.70967,6.265s-8.1242,-4.40348 -9.47888,-8.71348a17.93824,17.93824 0 0 1 1.40188,-13.15052a20.4785,20.4785 0 0 1 11.71739,-10.43688a16.814,16.814 0 0 1 15.28884,2.443a5.62277,5.62277 0 0 1 3.9293,-4.10922a10.7448,10.7448 0 0 1 5.89659,0.087a24.29568,24.29568 0 0 1 13.52231,9.83738a39.53547,39.53547 0 0 1 6.12865,15.79793c1.50872,8.46858 0.95223,17.7224 -3.804,24.88978s-14.48686,11.39952 -22.38095,7.98245c-0.49224,-2.51642 0.67385,-5.05027 2.02294,-7.23079s2.948,-4.3047 3.46623,-6.8159s-0.4753,-5.58288 -2.90435,-6.40411c-2.07226,-0.70061 -4.28167,0.43447 -6.46487,0.57154a7.08406,7.08406 0 0 1 -6.79537,-10.20743l-0.83604,-0.80575z"/>
  <circle stroke="null" id="svg_29" fill="#ffffff" r="8.5" cy="144.5" cx="79.79921"/>
 </g>
</svg>