<?xml version="1.0" encoding="iso-8859-1"?>
<!-- Generator: Adobe Illustrator 18.0.0, SVG Export Plug-In . SVG Version: 6.00 Build 0)  -->
<!DOCTYPE svg PUBLIC "-//W3C//DTD SVG 1.1//EN" "http://www.w3.org/Graphics/SVG/1.1/DTD/svg11.dtd">
<svg version="1.1" xmlns="http://www.w3.org/2000/svg" xmlns:xlink="http://www.w3.org/1999/xlink" x="0px" y="0px"
	 viewBox="0 0 426.263 329.687" style="enable-background:new 0 0 426.263 329.687;" xml:space="preserve">
<g id="BACKGROUND">
</g>
<g id="OBJECTS">
	<path style="opacity:0.2;fill:#FFFFFF;" d="M36.591,205.848c2.154,0,93.352,0,93.352,0c11.805,0-4.914-7.813-8.671-2.465
		c0-6.299-5.107-9.796-11.406-9.796c-1.267,0-2.482,0.215-3.62,0.596c0.286-0.996,0.449-2.044,0.449-3.132
		c0-6.251-5.067-11.318-11.318-11.318c-2.529,0-4.855,0.839-6.74,2.241c0.295-1.302,0.455-2.656,0.455-4.047
		c0-10.097-8.185-18.281-18.282-18.281c-10.096,0-18.281,8.185-18.281,18.281c0,0.959,0.075,1.901,0.217,2.82
		c-1.307-0.643-2.773-1.014-4.328-1.014c-5.431,0-9.833,4.403-9.833,9.833c0,1.545,0.366,3.001,1.001,4.302
		c-0.602-0.182-1.239-0.282-1.901-0.282c-3.624,0-6.563,2.938-6.563,6.563C31.122,202.592,33.466,205.848,36.591,205.848z"/>
	<path style="opacity:0.2;fill:#FFFFFF;" d="M390.437,73.081c-1.413,0-2.703,0.521-3.696,1.377c0.098-0.444,0.153-0.904,0.153-1.377
		c0-3.517-2.851-6.368-6.368-6.368c-1.145,0-2.216,0.306-3.145,0.835c0.12-0.782,0.182-1.584,0.182-2.4
		c0-8.701-7.054-15.755-15.755-15.755c-8.157,0-14.867,6.199-15.674,14.144c-0.895-0.688-2.011-1.101-3.227-1.101
		c-2.929,0-5.303,2.374-5.303,5.303c0,0.412,0.052,0.812,0.141,1.197c-0.799-0.741-1.865-1.197-3.041-1.197
		c-2.474,0-4.48,2.006-4.48,4.48c0,0.878,0.256,1.694,0.693,2.385c-0.627-0.183-1.289-0.283-1.974-0.283
		c-3.609,0-6.458,3.237-3.717,3.237c2.741,0,67.1,0,69.153,0C396.431,77.558,394.273,73.081,390.437,73.081z"/>
	<path style="opacity:0.2;fill:#FFFFFF;" d="M407.553,234.08c-1.413,0-2.703,0.521-3.696,1.377c0.098-0.444,0.153-0.904,0.153-1.377
		c0-3.517-2.851-6.368-6.368-6.368c-1.145,0-2.216,0.306-3.145,0.835c0.12-0.782,0.182-1.584,0.182-2.4
		c0-8.701-7.054-15.755-15.755-15.755c-8.157,0-14.867,6.199-15.674,14.144c-0.894-0.688-2.011-1.101-3.227-1.101
		c-2.929,0-5.303,2.374-5.303,5.303c0,0.412,0.052,0.811,0.141,1.197c-0.799-0.741-1.865-1.197-3.041-1.197
		c-2.474,0-4.48,2.006-4.48,4.48c0,0.878,0.256,1.694,0.693,2.385c-0.627-0.183-1.288-0.283-1.974-0.283
		c-3.609,0-6.458,3.237-3.717,3.237c2.741,0,67.1,0,69.153,0C413.548,238.557,411.39,234.08,407.553,234.08z"/>
	<path style="opacity:0.2;fill:#FFFFFF;" d="M223.098,20.946h-28.253c-0.892-0.736-1.461-1.851-1.461-3.098
		c0-2.217,1.798-4.015,4.015-4.015c0.254,0,0.502,0.026,0.743,0.072c-0.072-0.463-0.121-0.933-0.121-1.416
		c0-5.038,4.084-9.122,9.122-9.122c4.527,0,8.274,3.302,8.989,7.626c1.036-0.817,2.341-1.308,3.763-1.308
		c3.363,0,6.089,2.726,6.089,6.089C225.985,17.961,224.829,19.872,223.098,20.946z"/>
	<g>
		<polyline style="fill:none;stroke:#8FC4E6;stroke-linecap:round;stroke-linejoin:round;stroke-miterlimit:10;" points="
			55.716,250.557 55.716,229.65 138.218,229.65 138.218,311.98 55.716,311.98 55.716,300.026 		"/>
		
			<line style="fill:none;stroke:#8FC4E6;stroke-linecap:round;stroke-linejoin:round;stroke-miterlimit:10;" x1="55.716" y1="277.06" x2="55.716" y2="296.749"/>
		
			<line style="fill:none;stroke:#8FC4E6;stroke-linecap:round;stroke-linejoin:round;stroke-miterlimit:10;" x1="55.716" y1="269.769" x2="55.716" y2="272.389"/>
		<g>
			<rect x="120.473" y="253.345" style="opacity:0.25;fill:#0964AF;" width="12.945" height="25.536"/>
			<rect x="62.255" y="239.563" style="opacity:0.25;fill:#0964AF;" width="71.163" height="8.672"/>
			<rect x="62.84" y="253.345" style="opacity:0.25;fill:#0964AF;" width="55.038" height="4.148"/>
			<rect x="62.84" y="264.039" style="opacity:0.25;fill:#0964AF;" width="55.038" height="4.148"/>
			<rect x="62.84" y="274.733" style="opacity:0.25;fill:#0964AF;" width="55.038" height="4.148"/>
			<rect x="62.84" y="285.427" style="opacity:0.25;fill:#0964AF;" width="70.871" height="4.148"/>
			<rect x="62.84" y="296.121" style="opacity:0.25;fill:#0964AF;" width="70.871" height="4.148"/>
		</g>
	</g>
	<g>
		<polyline style="fill:none;stroke:#8FC4E6;stroke-linecap:round;stroke-linejoin:round;stroke-miterlimit:10;" points="
			246.37,55.799 246.37,32.656 337.69,32.656 337.69,123.787 246.37,123.787 246.37,110.554 		"/>
		
			<line style="fill:none;stroke:#8FC4E6;stroke-linecap:round;stroke-linejoin:round;stroke-miterlimit:10;" x1="246.37" y1="85.134" x2="246.37" y2="106.927"/>
		
			<line style="fill:none;stroke:#8FC4E6;stroke-linecap:round;stroke-linejoin:round;stroke-miterlimit:10;" x1="246.37" y1="77.064" x2="246.37" y2="79.964"/>
		<g>
			<rect x="318.049" y="58.885" style="opacity:0.25;fill:#0964AF;" width="14.328" height="28.265"/>
			<rect x="253.608" y="43.629" style="opacity:0.25;fill:#0964AF;" width="78.769" height="9.599"/>
			<rect x="254.255" y="58.885" style="opacity:0.25;fill:#0964AF;" width="60.921" height="4.591"/>
			<rect x="254.255" y="70.722" style="opacity:0.25;fill:#0964AF;" width="60.921" height="4.591"/>
			<rect x="254.255" y="82.559" style="opacity:0.25;fill:#0964AF;" width="60.921" height="4.591"/>
			<rect x="254.255" y="94.395" style="opacity:0.25;fill:#0964AF;" width="78.446" height="4.591"/>
			<rect x="254.255" y="106.232" style="opacity:0.25;fill:#0964AF;" width="78.446" height="4.591"/>
		</g>
	</g>
	<path style="opacity:0.2;fill:#FFFFFF;" d="M103.893,87.627h45.729c1.444-1.192,2.364-2.995,2.364-5.014
		c0-3.589-2.909-6.498-6.498-6.498c-0.412,0-0.813,0.043-1.203,0.116c0.117-0.749,0.196-1.51,0.196-2.292
		c0-8.154-6.61-14.764-14.764-14.764c-7.328,0-13.392,5.344-14.549,12.344c-1.677-1.322-3.79-2.118-6.091-2.118
		c-5.443,0-9.856,4.413-9.856,9.856C99.22,82.795,101.091,85.889,103.893,87.627z"/>
	<g>
		<path style="fill:#0E67AA;" d="M289.175,265.931l6.58,44.962c0,0,5.219,7.046,24.894,7.046s24.894-7.046,24.894-7.046l6.58-44.962
			H289.175z"/>
		<path style="fill:#1D3F72;" d="M320.649,290.397c11.587,0,21.884-1.46,28.438-3.723l2.939-20.085h-62.755l2.939,20.085
			C298.766,288.937,309.062,290.397,320.649,290.397z"/>
		<path style="fill:#0E67AA;" d="M356.504,276.289c0,5.255-16.053,9.515-35.855,9.515c-19.802,0-35.855-4.26-35.855-9.515
			l-1.724-14.293h75.157L356.504,276.289z"/>
		<ellipse style="fill:#4193B7;" cx="320.649" cy="261.996" rx="37.579" ry="9.972"/>
		<ellipse style="fill:#1C538E;" cx="320.649" cy="261.809" rx="33.601" ry="7.518"/>
		<path style="fill:#0D2644;" d="M288.586,264.063c4.28-3.051,17.015-5.264,32.063-5.264c15.048,0,27.784,2.213,32.063,5.264
			c0.998-0.712,1.538-1.468,1.538-2.254c0-4.152-15.044-7.518-33.601-7.518c-18.558,0-33.601,3.366-33.601,7.518
			C287.048,262.594,287.588,263.351,288.586,264.063z"/>
		<g>
			<path style="fill:#15CCBE;" d="M347.118,202.108c2.426-8.727-0.522-15.619-3.727-23.405c-3.205-7.786-3.741-16.048-2.515-24.236
				c1.643-11.114,5.331-21.848,1.074-32.62c-3.988-10.173-7.84-23.577-18.842-27.864c-10.697-4.569-18.791,5.98-18.61,15.699
				c0.181,9.719,5.699,18.485,2.942,28.08c-2.095,7.858-4.84,17.16-0.741,24.689c4.906,9.329,14.047,15.892,10.629,27.225
				c-1.348,4.063-3.552,7.502-4.018,11.603c-0.553,6.157,2.561,7.669,5.358,12.585c11.776,20.697-9.797,29.043-1.331,51.776
				c0.237,0.637,0.854,1.053,1.532,1.018l0,0c0.744-0.039,1.368-0.606,1.447-1.347c2.694-25.424,20.816-16.658,21.005-37.255
				c0.035-3.833-1.148-7.7-0.694-11.506C341.167,210.686,345.709,207.64,347.118,202.108z"/>
			<path style="fill:none;stroke:#7DEFE9;stroke-linecap:round;stroke-linejoin:round;stroke-miterlimit:10;" d="M323.059,209.811
				c0,0,1.007,11.644,9.509,13.083"/>
			<path style="fill:none;stroke:#7DEFE9;stroke-linecap:round;stroke-linejoin:round;stroke-miterlimit:10;" d="M314.936,153.482
				c0,0,0.606,12.995,11.52,16.523"/>
			<path style="fill:none;stroke:#7DEFE9;stroke-linecap:round;stroke-linejoin:round;stroke-miterlimit:10;" d="M339.195,135.812
				c0,0-0.511,13.529-11.142,15.576"/>
			<path style="fill:none;stroke:#7DEFE9;stroke-linecap:round;stroke-linejoin:round;stroke-miterlimit:10;" d="M338.854,178.075
				c0,0,2.551,14.794-6.057,18.58"/>
			<path style="fill:none;stroke:#7DEFE9;stroke-linecap:round;stroke-linejoin:round;stroke-miterlimit:10;" d="M336.615,227.831
				c0,0,0,13.475-13.556,14.837"/>
			<path style="fill:none;stroke:#7DEFE9;stroke-linecap:round;stroke-linejoin:round;stroke-miterlimit:10;" d="M319.69,116.994
				c0,0,1.006,13.615,9.098,15.9"/>
			<path style="fill:none;stroke:#7DEFE9;stroke-linecap:round;stroke-linejoin:round;stroke-miterlimit:10;" d="M320.649,107.634
				c9.338,9.237,8.567,30.158,7.866,39.84c-0.59,7.038-4.339,23.409-0.016,35.314c4.573,12.593,8.687,26.031,3.48,43.358
				c-3.635,12.098-15.454,17.976-13.089,40.039"/>
			<path style="opacity:0.75;fill:#15CCBE;" d="M341.295,226.898c0.018,0.386,0.03,0.772,0.026,1.158
				c-0.124,13.52-7.975,14.388-14.118,20.579c0.72-3.608,0.89-8.072,3.3-11.018c2.646-2.94,6.174-3.528,8.821-7.057
				C340.282,229.238,340.913,228.028,341.295,226.898z M343.391,178.703c-3.205-7.786-3.741-16.048-2.515-24.236
				c0.119-0.806,0.25-1.609,0.387-2.411c-4.206,1.622-7.522,4.714-9.521,8.955c-5.953,12.627-1.263,21.195,3.858,30.746
				c4.179,7.796,1.47,14.995,2.352,23.228c0.369,3.442,1.867,6.113,3.036,8.68c-0.296-2.38-0.643-4.758-0.362-7.114
				c0.54-5.863,5.082-8.91,6.491-14.442C349.544,193.381,346.596,186.489,343.391,178.703z M321.173,244.846
				c-0.832-1.786-1.827-3.72-1.999-5.676c-2.687,7.042-5.677,14.333-2.469,24.614c0.008,0.027,0.018,0.055,0.026,0.082
				c0.183,0.582,0.382,1.171,0.606,1.772c0.044,0.118,0.105,0.225,0.172,0.326c0.012,0.017,0.023,0.035,0.035,0.052
				c0.072,0.099,0.154,0.188,0.245,0.266c0.005,0.005,0.011,0.009,0.017,0.013c0.291,0.243,0.665,0.381,1.063,0.36h0
				c0.298-0.015,0.574-0.118,0.806-0.281c0.462-0.339,0.571-0.722,0.622-0.973c0.005-0.031,0.015-0.061,0.019-0.093
				c0.401-3.785,1.146-6.808,2.121-9.287c-0.558,0.362-1.129,0.699-1.694,1.054C322.558,252.957,323.814,250.52,321.173,244.846z"/>
		</g>
		<g>
			<path style="fill:#17DDD8;" d="M374.815,197.585c-5.293-9.703-5.279-16.12-4.704-26.462c0.588-10.585-2.646-24.698-15.583-27.05
				c-9.703-1.764-17.595,2.171-21.205,9.829c-5.953,12.627-1.263,21.195,3.858,30.746c4.179,7.796,1.47,14.995,2.352,23.228
				c0.882,8.233,8.233,12.055,2.058,20.581c-2.646,3.528-6.174,4.116-8.821,7.057c-2.646,3.234-2.59,8.303-3.528,12.055
				c-2.37,9.477-11.65,8.133-12.038,17.738c-0.029,0.716,0.551,1.431,1.056,1.407c0.505-0.024,0.905,0.071,1.262-0.565
				c2.176-3.867,5.771-3.271,9.797-5.055c2.99-1.325,3.909-5.013,11.095-5.88c9.382-1.132,17.935,4.998,22.64-7.645
				c1.764-4.41,1.176-8.233,2.058-12.643c0.882-5.88,4.704-9.409,8.527-13.525C380.401,213.757,379.519,206.112,374.815,197.585z"/>
			<g>
				<path style="fill:none;stroke:#6CEFE8;stroke-linecap:round;stroke-linejoin:round;stroke-miterlimit:10;" d="M341.405,167.404
					c0,0,6.163,10.92,14.794,11.658"/>
				<path style="fill:none;stroke:#6CEFE8;stroke-linecap:round;stroke-linejoin:round;stroke-miterlimit:10;" d="M347.883,201.265
					c0,0-0.479,19.664,5.803,23.837"/>
				<path style="fill:none;stroke:#6CEFE8;stroke-linecap:round;stroke-linejoin:round;stroke-miterlimit:10;" d="M368.293,188.084
					c0,0-0.716,16.903-11.315,19.873"/>
				<path style="fill:none;stroke:#6CEFE8;stroke-linecap:round;stroke-linejoin:round;stroke-miterlimit:10;" d="M359.651,236.491
					c0,0-5.4,16.258-20.797,13.63"/>
				<path style="fill:none;stroke:#6CEFE8;stroke-linecap:round;stroke-linejoin:round;stroke-miterlimit:10;" d="M357.432,152.325
					c0,0,4.438,12.841-2.222,18.936"/>
				<path style="fill:none;stroke:#6CEFE8;stroke-linecap:round;stroke-linejoin:round;stroke-miterlimit:10;" d="M318.362,265.799
					c1.439-5.292,9.236-7.245,11.469-8.697c24.857-16.162,34.588-47.495,22.292-100.518"/>
			</g>
			<path style="opacity:0.75;fill:#15CCBE;" d="M317.203,265.307c-0.029,0.716,0.551,1.431,1.056,1.407
				c0.026-0.001,0.051-0.001,0.076-0.002c1.578-1.19-0.416-2.888,1.979-8.506C318.622,259.837,317.342,261.869,317.203,265.307z"/>
		</g>
		<g>
			<path style="fill:#17DDD8;" d="M318.975,242.036c-2.917-6.266-0.165-14.325-3.034-18.897c-3.513-5.718-9.382-1.369-16.199-9.229
				c-5.721-6.597-1.602-15.739-14.625-22.551c-3.977-2.08-8.587-1.059-10.138,3.431c-1.858,4.21,1.082,10.251,2.454,14.306
				c1.337,3.449,2.923,6.013,2.253,9.839c-0.007,0.04-0.016,0.082-0.026,0.121c-0.751,2.94-2.703,4.51-1.659,7.968
				c2.172,8.432,14.117,7.674,20.145,12.93c4.251,3.707,0.415,8.133,4.581,13.744c4.126,5.557,6.236-0.487,13.661,12.668
				c0.267,0.473,0.869,0.639,1.341,0.371l0,0c0.329-0.187,0.522-0.55,0.493-0.927C317.146,251.579,323.268,251.258,318.975,242.036z
				"/>
			<g>
				<path style="fill:none;stroke:#6CEFE8;stroke-linecap:round;stroke-linejoin:round;stroke-miterlimit:10;" d="M278.957,201.416
					c0,0,0.71,6.512,6.877,8.546"/>
				<path style="fill:none;stroke:#6CEFE8;stroke-linecap:round;stroke-linejoin:round;stroke-miterlimit:10;" d="M282.395,219.858
					c0,0,6.189,7.149,13.874,4.273"/>
				<path style="fill:none;stroke:#6CEFE8;stroke-linecap:round;stroke-linejoin:round;stroke-miterlimit:10;" d="M305.326,220.278
					c0,0,4.651,7.704,1.208,11.279"/>
				<path style="fill:none;stroke:#6CEFE8;stroke-linecap:round;stroke-linejoin:round;stroke-miterlimit:10;" d="M312.481,234.831
					c0,0,2.768,9.511-2.027,13.007"/>
				<path style="fill:none;stroke:#6CEFE8;stroke-linecap:round;stroke-linejoin:round;stroke-miterlimit:10;" d="M290.622,205.689
					c0,0,4.024,9.935,0.581,13.51"/>
				<path style="fill:none;stroke:#6CEFE8;stroke-linecap:round;stroke-linejoin:round;stroke-miterlimit:10;" d="M296.269,234.164
					c0,0,3.579,6.049,13.708,5.445"/>
				<path style="fill:none;stroke:#6CEFE8;stroke-linecap:round;stroke-linejoin:round;stroke-miterlimit:10;" d="M303.123,247.087
					c0,0,0.99,6.112,10.937,7.54"/>
				<path style="fill:none;stroke:#6CEFE8;stroke-linecap:round;stroke-linejoin:round;stroke-miterlimit:10;" d="M317.146,266.307
					c-0.399-12.952-7.3-14.047-7.072-21.71c0.178-5.974-0.026-11.653-7.3-16.002c-12.484-7.462-17.691-15.261-20.224-31.79"/>
			</g>
		</g>
	</g>
	<g>
		<g>
			<path style="fill:#628CD2;" d="M265.433,106.324c-1.22,12.987,8.427,20.482,12.735,31.437l15.67-9.554
				c-8.093-8.561-19.852-10.154-23.576-22.657"/>
		</g>
		<g>
			<path style="fill:#628CD2;" d="M284.008,127.962c-9.93,3.715-31.742,6.344-41.982,8.82l0,0c0,7.275,4.189,13.156,7.757,19.193
				c3.568,5.882,6.827,11.918,9.774,18.109c0.776,1.857,3.724,10.989,5.275,12.227c6.931-1.785,15.049-4.798,21.721-9.906
				c10.395-7.894,18.453-16.565,21.555-29.257l-6.173-9.387l-5.737-7.518l-8.046-4.012h-3.014L284.008,127.962z"/>
		</g>
		<path style="opacity:0.25;fill:#628CD2;" d="M298.021,155.283c0,0,0.586-4.237-1.932,0.989
			c-1.717,7.002-15.755,22.205-28.127,25.756c-1.453,1.235-1.911,2.604-1.851,3.932c6.639-1.819,14.173-4.755,20.441-9.554
			c4.835-3.671,9.154-7.518,12.714-11.852C298.649,159.966,298.021,155.283,298.021,155.283z"/>
		<g>
			<path style="fill:#FFB67E;" d="M291.202,191.737c0.437,2.75-0.936,2.721-1.378,4.641c-0.512,2.221-1.45,4.715,0.654,5.812
				c0.325,0.169,0.963-0.091,0.558-0.898c0.24,0.065,1.26,0.876,1.544,0.93c1.1,0.211,1.981,0.51,2.314-1.084
				c1.195-1.066,1.623-2.995,1.303-4.588c-0.345-1.375-1.378-1.719-1.378-3.266c0-1.547,1.378-3.609,1.895-5.156"/>
		</g>
		<g>
			<path style="fill:#628CD2;" d="M295.876,154.647c2.467,17.948,0.322,26.606-6.052,36.746c0.639,2.177,3.593,2.608,6.202,1.693
				c27.393-31.196,10.557-57.321,2.714-60.933"/>
		</g>
		<g style="opacity:0.25;">
			<path style="fill:#628CD2;" d="M301.805,134.353c7.79,8.426,16.519,31.319-6.988,58.089c-0.326,0.348-1.548,0.984-2.115,1.052
				c1.034,0.133,2.207-0.017,3.323-0.408C320.187,165.571,309.941,142.01,301.805,134.353z"/>
		</g>
		<g>
			<path style="fill:#FFB67E;" d="M292.487,116.588c-0.421,3.153-0.843,6.306-1.686,9.458c-1.053,3.363-3.371,6.516-1.053,9.458
				c5.689,7.777,19.173-2.312,19.173-9.669"/>
		</g>
		<g>
			<path style="fill:#FFB67E;" d="M295.035,125.921c0,0-0.023,0.084-0.064,0.231c-0.053,0.142-0.148,0.352-0.315,0.567
				c-0.17,0.214-0.424,0.419-0.713,0.592c-0.283,0.181-0.63,0.303-0.883,0.457c-0.059,0.037-0.107,0.075-0.132,0.106
				c-0.001,0.013-0.023,0.029-0.017,0.032c-0.014,0.042-0.026,0.087-0.018,0.092c-0.003,0.07,0.016,0.232,0.063,0.362
				c0.103,0.296,0.199,0.573,0.282,0.81c0.186,0.495,0.167,0.868,0.167,0.868s-0.186-0.29-0.466-0.725
				c-0.142-0.216-0.311-0.464-0.44-0.794c-0.055-0.172-0.129-0.34-0.095-0.608c0.011-0.081,0.026-0.116,0.04-0.155
				c0.024-0.082,0.068-0.128,0.108-0.19c0.087-0.098,0.18-0.161,0.268-0.212c0.353-0.17,0.662-0.263,0.951-0.38
				c0.286-0.114,0.529-0.262,0.715-0.421C294.874,126.249,295.022,125.909,295.035,125.921z"/>
		</g>
		<g>
			<path style="fill:#1B3760;" d="M311.12,119.879c0.913-2.487,1.667-5.266-1.311-7.471c-7.874-5.833-12.544-1.121-14.978-1.121
				c-1.123-0.187-3.328-4.564-4.493,0.934c-2.06,9.713,7.115,15.503,15.353,12.328c0.187,2.241-2.434,4.296-2.247,5.977
				c0.374,2.428,3.527,2.559,5.242,1.681C312.798,130.103,316.55,119.692,311.12,119.879z"/>
		</g>
		<g>
			<path style="fill:#E88949;" d="M290.906,201.048c0.015-0.004-0.124-0.274-0.182-0.719c-0.044-0.222,0.033-0.508,0.287-0.68
				c0.242-0.168,0.565-0.245,0.877-0.227c0.315,0.02,0.625,0.081,0.88,0.292c0.243,0.199,0.364,0.464,0.428,0.682
				c0.072,0.219,0.094,0.406,0.111,0.536c0.017,0.13,0.026,0.204,0.026,0.204s-0.116-0.272-0.291-0.68
				c-0.098-0.192-0.222-0.41-0.419-0.56c-0.187-0.136-0.48-0.223-0.752-0.253c-0.278-0.021-0.567-0.014-0.815,0.087
				c-0.122,0.045-0.248,0.122-0.284,0.245c-0.043,0.118-0.042,0.241-0.034,0.351C290.788,200.77,290.922,201.045,290.906,201.048z"
				/>
		</g>
		<g>
			<path style="fill:#E88949;" d="M293.847,198.628c-0.008,0.005,0.187,0.02,0.4,0.202c0.215,0.173,0.421,0.48,0.558,0.813
				c0.127,0.338,0.181,0.7,0.159,0.969c-0.021,0.27-0.089,0.436-0.089,0.436s-0.005-0.179-0.051-0.429
				c-0.046-0.249-0.118-0.578-0.251-0.885c-0.112-0.315-0.278-0.606-0.426-0.807C294.005,198.718,293.847,198.628,293.847,198.628z"
				/>
		</g>
		<g>
			<path style="fill:#E88949;" d="M292.034,200.418c0,0,0.064-0.034,0.159-0.064c0.094-0.031,0.223-0.036,0.344-0.042
				c0.227,0.014,0.465,0.03,0.479,0.016c0,0-0.027,0.07-0.118,0.136c-0.09,0.067-0.234,0.092-0.365,0.097
				c-0.13-0.012-0.252-0.03-0.345-0.068C292.095,200.456,292.034,200.418,292.034,200.418z"/>
		</g>
		<g style="opacity:0.55;">
			<path style="fill:#1B3760;" d="M312.626,120.219c0.445,0.663,0.715,1.149,0.676,2.248c-0.089,2.509-2.022,6.254-4.646,5.815
				c-0.845-0.142-1.404-1.004-1.425-1.858c-0.021-0.855,1.031-4.756,0.431-4.675c-1.928,0.258-9.035,3.687-16.496-2.073
				c2.483,4.889,8.727,7.108,14.525,4.873c0.187,2.241-2.434,4.296-2.247,5.977c0.374,2.428,3.527,2.559,5.242,1.681
				C312.326,130.344,315.671,121.985,312.626,120.219z"/>
		</g>
	</g>
	<g>
		<path style="fill:#8FC4E6;" d="M88.039,111.264h14.954c3.377,0,6.115,2.738,6.115,6.115v1.894l2.433,1.627
			c0.624,0.417,0.624,1.093,0,1.51l-2.433,1.627v1.894c0,3.377-2.738,6.115-6.115,6.115H88.039c-3.377,0-6.115-2.738-6.115-6.115
			v-8.553C81.924,114.002,84.662,111.264,88.039,111.264z"/>
		<g style="opacity:0.5;">
			<path style="fill:#FFFFFF;" d="M103.153,121.138c-0.154-0.226-0.257-0.499-0.31-0.82c-0.052-0.321-0.082-0.732-0.09-1.234
				c-0.008-0.514-0.025-0.86-0.053-1.038c-0.027-0.179-0.086-0.3-0.175-0.362c-0.089-0.062-0.247-0.109-0.473-0.14
				c-0.152-0.02-0.275-0.09-0.371-0.21c-0.096-0.121-0.143-0.286-0.143-0.496c0-0.463,0.286-0.694,0.858-0.694
				c0.548,0,0.987,0.161,1.316,0.481c0.329,0.321,0.499,0.75,0.511,1.287c0.016,0.868,0.027,1.415,0.035,1.643
				c0.008,0.228,0.036,0.438,0.084,0.63c0.049,0.193,0.132,0.351,0.251,0.473c0.119,0.122,0.318,0.271,0.598,0.446
				c0.226,0.144,0.339,0.36,0.339,0.648c0,0.198-0.039,0.343-0.117,0.435c-0.078,0.092-0.21,0.195-0.394,0.31
				c-0.185,0.115-0.334,0.238-0.45,0.371c-0.114,0.132-0.201,0.329-0.259,0.589c-0.023,0.105-0.041,0.337-0.053,0.695
				c-0.012,0.358-0.023,0.833-0.035,1.424c-0.004,0.35-0.081,0.661-0.233,0.931c-0.152,0.27-0.367,0.479-0.645,0.628
				c-0.278,0.147-0.594,0.222-0.948,0.222c-0.572,0-0.858-0.235-0.858-0.706c0-0.203,0.049-0.366,0.146-0.491
				c0.097-0.124,0.22-0.196,0.368-0.216c0.179-0.027,0.305-0.055,0.379-0.085c0.074-0.029,0.137-0.091,0.189-0.187
				c0.053-0.095,0.087-0.234,0.105-0.417c0.018-0.183,0.026-0.467,0.026-0.852c0-0.514,0.031-0.935,0.093-1.264
				c0.063-0.329,0.171-0.599,0.327-0.812c0.155-0.212,0.372-0.403,0.648-0.575C103.529,121.568,103.306,121.364,103.153,121.138z"/>
			<path style="fill:#FFFFFF;" d="M98.787,124.754c-0.173-0.158-0.26-0.375-0.26-0.651c0-0.241,0.086-0.446,0.26-0.616
				c0.173-0.17,0.382-0.254,0.627-0.254c0.245,0,0.451,0.085,0.619,0.257c0.167,0.171,0.251,0.376,0.251,0.613
				c0,0.28-0.087,0.498-0.263,0.654c-0.175,0.155-0.383,0.233-0.624,0.233C99.163,124.99,98.96,124.911,98.787,124.754z"/>
			<path style="fill:#FFFFFF;" d="M95.046,124.754c-0.173-0.158-0.26-0.375-0.26-0.651c0-0.241,0.086-0.446,0.26-0.616
				c0.173-0.17,0.382-0.254,0.627-0.254s0.451,0.085,0.619,0.257c0.167,0.171,0.251,0.376,0.251,0.613
				c0,0.28-0.087,0.498-0.263,0.654c-0.175,0.155-0.383,0.233-0.625,0.233C95.422,124.99,95.219,124.911,95.046,124.754z"/>
			<path style="fill:#FFFFFF;" d="M91.304,124.754c-0.173-0.158-0.26-0.375-0.26-0.651c0-0.241,0.086-0.446,0.26-0.616
				c0.173-0.17,0.382-0.254,0.627-0.254c0.245,0,0.451,0.085,0.619,0.257c0.167,0.171,0.251,0.376,0.251,0.613
				c0,0.28-0.087,0.498-0.263,0.654c-0.175,0.155-0.383,0.233-0.624,0.233C91.681,124.99,91.478,124.911,91.304,124.754z"/>
			<path style="fill:#FFFFFF;" d="M88.179,122.358c0.152,0.218,0.255,0.479,0.309,0.782c0.054,0.303,0.086,0.724,0.093,1.261
				c0,0.362,0.007,0.637,0.021,0.826c0.014,0.188,0.043,0.332,0.087,0.429c0.045,0.098,0.11,0.164,0.195,0.199
				c0.086,0.035,0.216,0.064,0.391,0.087c0.098,0.012,0.184,0.047,0.26,0.105c0.076,0.059,0.137,0.141,0.184,0.248
				c0.046,0.107,0.07,0.225,0.07,0.354c0,0.229-0.073,0.404-0.219,0.525c-0.146,0.121-0.355,0.181-0.627,0.181
				c-0.553,0-0.995-0.163-1.328-0.487c-0.333-0.325-0.505-0.756-0.517-1.293c-0.012-0.568-0.022-1.041-0.032-1.418
				c-0.01-0.377-0.039-0.661-0.087-0.85c-0.049-0.188-0.134-0.346-0.257-0.473c-0.123-0.126-0.32-0.273-0.593-0.44
				c-0.222-0.136-0.332-0.351-0.332-0.642c0-0.206,0.042-0.36,0.125-0.461c0.084-0.102,0.211-0.204,0.382-0.307
				c0.171-0.103,0.317-0.222,0.438-0.356c0.121-0.134,0.212-0.33,0.274-0.586c0.031-0.129,0.059-0.839,0.082-2.13
				c0.004-0.347,0.084-0.655,0.242-0.925c0.157-0.271,0.373-0.479,0.648-0.625c0.274-0.146,0.592-0.219,0.954-0.219
				c0.564,0,0.846,0.231,0.846,0.694c0,0.21-0.049,0.376-0.149,0.496c-0.099,0.121-0.221,0.191-0.365,0.21
				c-0.171,0.02-0.298,0.045-0.382,0.079c-0.084,0.033-0.149,0.094-0.195,0.184c-0.047,0.09-0.078,0.233-0.093,0.429
				c-0.016,0.196-0.023,0.479-0.023,0.849c0,0.381-0.018,0.713-0.053,0.995c-0.035,0.282-0.095,0.526-0.181,0.732
				c-0.086,0.206-0.195,0.381-0.327,0.525c-0.132,0.144-0.303,0.282-0.514,0.415C87.803,121.937,88.027,122.14,88.179,122.358z"/>
		</g>
	</g>
	<g>
		<path style="fill:#8FC4E6;" d="M34.316,172.807c0,3.134-2.541,5.675-5.675,5.675l-15.531-0.001c-3.134,0-5.675-2.541-5.675-5.675
			l0.001-15.531c0-3.134,2.541-5.675,5.675-5.675l15.531,0.001c3.134,0,5.675,2.541,5.675,5.675L34.316,172.807z"/>
		<g style="opacity:0.5;">
			<polyline style="fill:none;stroke:#FFFFFF;stroke-linecap:round;stroke-linejoin:round;stroke-miterlimit:10;" points="
				18.016,160.511 16.652,164.138 12.34,161.248 15.156,158.602 			"/>
			<polygon style="fill:none;stroke:#FFFFFF;stroke-linecap:round;stroke-linejoin:round;stroke-miterlimit:10;" points="
				20.876,160.511 23.736,160.511 26.596,158.602 23.956,157.458 20.876,157.458 17.796,157.458 15.156,158.602 18.016,160.511 			
				"/>
			<polyline style="fill:none;stroke:#FFFFFF;stroke-linecap:round;stroke-linejoin:round;stroke-miterlimit:10;" points="
				23.736,160.511 25.1,164.139 29.412,161.248 26.596,158.602 			"/>
			<polyline style="fill:none;stroke:#FFFFFF;stroke-linecap:round;stroke-linejoin:round;stroke-miterlimit:10;" points="
				29.412,161.248 20.875,172.625 25.1,164.139 20.876,164.139 16.652,164.138 20.875,172.625 12.34,161.248 			"/>
		</g>
	</g>
	<g>
		<g>
			<circle style="fill:#8FC4E6;" cx="185.23" cy="38.376" r="3.711"/>
		</g>
		<g>
			<circle style="fill:#8FC4E6;" cx="200.058" cy="56.253" r="3.711"/>
		</g>
		<g>
			<circle style="fill:#8FC4E6;" cx="167.084" cy="43.215" r="2.489"/>
		</g>
		<g>
			
				<rect x="185.142" y="46.442" transform="matrix(0.6496 0.7602 -0.7602 0.6496 103.4102 -130.3912)" style="fill:#8FC4E6;" width="16.064" height="1.117"/>
		</g>
		<g>
			
				<rect x="174.416" y="34.142" transform="matrix(0.2636 0.9646 -0.9646 0.2636 168.4321 -138.575)" style="fill:#8FC4E6;" width="1.118" height="13.768"/>
		</g>
	</g>
	<g>
		<g>
			<circle style="fill:#8FC4E6;" cx="407.92" cy="188.995" r="2.203"/>
		</g>
		<g>
			<circle style="fill:#8FC4E6;" cx="394.486" cy="192.106" r="2.203"/>
		</g>
		<g>
			<circle style="fill:#8FC4E6;" cx="410.182" cy="178.077" r="1.477"/>
		</g>
		<g>
			
				<rect x="396.46" y="190.584" transform="matrix(-0.9708 0.2399 -0.2399 -0.9708 836.5408 280.0053)" style="fill:#8FC4E6;" width="9.537" height="0.663"/>
		</g>
		<g>
			
				<rect x="408.911" y="178.76" transform="matrix(-0.9804 -0.1968 0.1968 -0.9804 774.4965 442.6607)" style="fill:#8FC4E6;" width="0.664" height="8.174"/>
		</g>
	</g>
	<g>
		<g>
			<circle style="fill:#8FC4E6;" cx="54.175" cy="151.292" r="2.027"/>
		</g>
		<g>
			<circle style="fill:#8FC4E6;" cx="47.719" cy="140.371" r="2.027"/>
		</g>
		<g>
			<circle style="fill:#8FC4E6;" cx="64.38" cy="150.247" r="1.359"/>
		</g>
		<g>
			
				<rect x="46.247" y="145.548" transform="matrix(0.5214 0.8533 -0.8533 0.5214 148.7738 26.6427)" style="fill:#8FC4E6;" width="8.775" height="0.814"/>
		</g>
		<g>
			
				<rect x="59.528" y="146.987" transform="matrix(0.1075 0.9942 -0.9942 0.1075 203.3692 74.9608)" style="fill:#8FC4E6;" width="0.814" height="7.52"/>
		</g>
	</g>
	<path style="fill:#8FC4E6;" d="M394.246,121.831c0,2.641-2.141,4.783-4.783,4.783h-19.999c-2.641,0-4.783-2.141-4.783-4.783
		v-19.999c0-2.641,2.141-4.783,4.783-4.783h19.999c2.641,0,4.783,2.141,4.783,4.783V121.831z"/>
	<path style="fill:#8FC4E6;" d="M416.178,129.939c0,0.991-0.803,1.794-1.794,1.794h-7.5c-0.991,0-1.794-0.803-1.794-1.794v-7.501
		c0-0.991,0.803-1.794,1.794-1.794h7.5c0.991,0,1.794,0.803,1.794,1.794V129.939z"/>
	<path style="fill:#8FC4E6;" d="M64.487,91.53c0,1.031-0.836,1.867-1.867,1.867h-7.806c-1.031,0-1.867-0.836-1.867-1.867v-7.806
		c0-1.031,0.836-1.867,1.867-1.867h7.806c1.031,0,1.867,0.836,1.867,1.867V91.53z"/>
	<path style="opacity:0.2;fill:#FFFFFF;" d="M66.367,54.736l1.59-1.59c0.243-0.243,0.243-0.635,0-0.878
		c-0.242-0.242-0.635-0.242-0.878,0l-1.59,1.59l-1.59-1.59c-0.242-0.242-0.635-0.242-0.877,0c-0.242,0.242-0.242,0.635,0,0.878
		l1.59,1.59l-1.59,1.59c-0.242,0.242-0.242,0.635,0,0.878c0.121,0.121,0.28,0.182,0.439,0.182c0.159,0,0.318-0.061,0.439-0.182
		l1.59-1.59l1.59,1.59c0.121,0.121,0.28,0.182,0.439,0.182c0.159,0,0.317-0.061,0.439-0.182c0.243-0.242,0.243-0.635,0-0.878
		L66.367,54.736z"/>
	<path style="opacity:0.2;fill:#FFFFFF;" d="M21.753,131.733l1.59-1.59c0.243-0.242,0.243-0.635,0-0.878
		c-0.242-0.242-0.635-0.242-0.878,0l-1.59,1.59l-1.59-1.59c-0.242-0.242-0.635-0.242-0.878,0c-0.242,0.242-0.242,0.635,0,0.878
		l1.59,1.59l-1.59,1.59c-0.242,0.242-0.242,0.635,0,0.878c0.121,0.121,0.28,0.182,0.439,0.182s0.317-0.061,0.439-0.182l1.59-1.59
		l1.59,1.59c0.121,0.121,0.28,0.182,0.439,0.182c0.159,0,0.317-0.061,0.439-0.182c0.243-0.243,0.243-0.635,0-0.878L21.753,131.733z"
		/>
	<path style="opacity:0.2;fill:#FFFFFF;" d="M227.181,42.378l1.59-1.59c0.242-0.242,0.242-0.635,0-0.878
		c-0.243-0.242-0.635-0.242-0.878,0l-1.59,1.59l-1.59-1.59c-0.242-0.242-0.635-0.242-0.878,0c-0.242,0.243-0.242,0.635,0,0.878
		l1.59,1.59l-1.59,1.59c-0.242,0.242-0.242,0.635,0,0.878c0.121,0.121,0.28,0.182,0.439,0.182s0.318-0.061,0.439-0.182l1.59-1.59
		l1.59,1.59c0.121,0.121,0.28,0.182,0.439,0.182s0.317-0.061,0.439-0.182c0.242-0.242,0.242-0.635,0-0.878L227.181,42.378z"/>
	<path style="opacity:0.2;fill:#FFFFFF;" d="M353.001,90.739l1.59-1.59c0.242-0.242,0.242-0.635,0-0.878
		c-0.242-0.242-0.635-0.242-0.878,0l-1.59,1.59l-1.59-1.59c-0.242-0.242-0.635-0.242-0.878,0c-0.242,0.243-0.242,0.635,0,0.878
		l1.59,1.59l-1.59,1.59c-0.242,0.243-0.242,0.635,0,0.878c0.121,0.121,0.28,0.182,0.439,0.182c0.159,0,0.318-0.061,0.439-0.182
		l1.59-1.59l1.59,1.59c0.121,0.121,0.28,0.182,0.439,0.182c0.159,0,0.318-0.061,0.439-0.182c0.242-0.242,0.242-0.635,0-0.878
		L353.001,90.739z"/>
	<path style="opacity:0.2;fill:#FFFFFF;" d="M417.056,205.185l1.59-1.59c0.242-0.242,0.242-0.635,0-0.878
		c-0.242-0.242-0.635-0.242-0.878,0l-1.59,1.59l-1.59-1.59c-0.242-0.242-0.635-0.242-0.878,0c-0.242,0.242-0.242,0.635,0,0.878
		l1.59,1.59l-1.59,1.59c-0.242,0.242-0.242,0.635,0,0.878c0.121,0.121,0.28,0.182,0.439,0.182c0.159,0,0.318-0.061,0.439-0.182
		l1.59-1.59l1.59,1.59c0.121,0.121,0.28,0.182,0.439,0.182c0.159,0,0.318-0.061,0.439-0.182c0.242-0.242,0.242-0.635,0-0.878
		L417.056,205.185z"/>
	<path style="opacity:0.2;fill:#FFFFFF;" d="M97.844,151.246l1.59-1.59c0.242-0.242,0.242-0.635,0-0.878
		c-0.242-0.242-0.635-0.242-0.878,0l-1.59,1.59l-1.59-1.59c-0.242-0.242-0.635-0.242-0.878,0c-0.242,0.242-0.242,0.635,0,0.878
		l1.59,1.59l-1.59,1.59c-0.242,0.242-0.242,0.635,0,0.878c0.121,0.121,0.28,0.182,0.439,0.182c0.159,0,0.318-0.061,0.439-0.182
		l1.59-1.59l1.59,1.59c0.121,0.121,0.28,0.182,0.439,0.182s0.318-0.061,0.439-0.182c0.242-0.242,0.242-0.635,0-0.878L97.844,151.246
		z"/>
	<g style="opacity:0.2;">
		<path style="fill:#FFFFFF;" d="M150.241,27.266c-1.792,0-3.249-1.457-3.249-3.248s1.457-3.248,3.249-3.248
			c1.791,0,3.248,1.457,3.248,3.248S152.032,27.266,150.241,27.266z M150.241,22.01c-1.107,0-2.007,0.901-2.007,2.007
			c0,1.107,0.901,2.007,2.007,2.007c1.107,0,2.007-0.901,2.007-2.007C152.248,22.911,151.347,22.01,150.241,22.01z"/>
	</g>
	<g style="opacity:0.2;">
		<path style="fill:#FFFFFF;" d="M55.716,120.242c-1.792,0-3.248-1.457-3.248-3.248c0-1.791,1.457-3.248,3.248-3.248
			s3.248,1.457,3.248,3.248C58.964,118.786,57.507,120.242,55.716,120.242z M55.716,114.987c-1.107,0-2.007,0.901-2.007,2.007
			c0,1.107,0.901,2.007,2.007,2.007c1.107,0,2.007-0.901,2.007-2.007C57.723,115.887,56.823,114.987,55.716,114.987z"/>
	</g>
	<g style="opacity:0.2;">
		<path style="fill:#FFFFFF;" d="M41.793,229.747c-1.791,0-3.248-1.457-3.248-3.248c0-1.792,1.457-3.249,3.248-3.249
			c1.792,0,3.249,1.457,3.249,3.249C45.042,228.29,43.585,229.747,41.793,229.747z M41.793,224.491
			c-1.107,0-2.007,0.901-2.007,2.007c0,1.107,0.901,2.007,2.007,2.007c1.107,0,2.007-0.901,2.007-2.007
			C43.801,225.392,42.9,224.491,41.793,224.491z"/>
	</g>
	<g style="opacity:0.2;">
		<path style="fill:#FFFFFF;" d="M347.865,27.839c-1.792,0-3.248-1.457-3.248-3.248c0-1.791,1.457-3.248,3.248-3.248
			s3.248,1.457,3.248,3.248C351.113,26.382,349.656,27.839,347.865,27.839z M347.865,22.583c-1.107,0-2.007,0.901-2.007,2.007
			c0,1.107,0.901,2.007,2.007,2.007c1.107,0,2.007-0.901,2.007-2.007C349.872,23.484,348.971,22.583,347.865,22.583z"/>
	</g>
	<g style="opacity:0.2;">
		<path style="fill:#FFFFFF;" d="M376.768,145.831c-1.792,0-3.248-1.457-3.248-3.248c0-1.792,1.457-3.249,3.248-3.249
			s3.248,1.457,3.248,3.249C380.016,144.374,378.559,145.831,376.768,145.831z M376.768,140.576c-1.107,0-2.007,0.901-2.007,2.007
			c0,1.107,0.901,2.007,2.007,2.007c1.107,0,2.007-0.901,2.007-2.007C378.775,141.476,377.874,140.576,376.768,140.576z"/>
	</g>
	<g>
		<path style="fill:#3679BC;" d="M142.137,63.227h124.306c4.275,0,7.74,3.465,7.74,7.74v235.288c0,4.275-3.465,7.74-7.74,7.74
			H142.137c-4.275,0-7.74-3.465-7.74-7.74V70.967C134.397,66.692,137.862,63.227,142.137,63.227z"/>
		<rect x="140.233" y="90.739" style="fill:#FFFFFF;" width="128.113" height="195.743"/>
		<path style="fill:#8FC4E6;" d="M184.182,78.966v-1.489c0-0.555,0.45-1.005,1.005-1.005h38.206c0.555,0,1.005,0.45,1.005,1.005
			v1.489c0,0.555-0.45,1.005-1.005,1.005h-38.206C184.632,79.971,184.182,79.521,184.182,78.966z"/>
		<circle style="fill:#8FC4E6;" cx="204.29" cy="299.233" r="7.725"/>
	</g>
	<g style="display:none;">
		<g style="display:inline;">
			<path style="opacity:0.25;fill:#0964AF;" d="M257.604,275.275H151.943c-0.941,0-1.703-0.793-1.703-1.772v-16.77l8.067-8.395
				h99.296c0.94,0,1.703,0.793,1.703,1.772v23.393C259.307,274.482,258.545,275.275,257.604,275.275z"/>
			<path style="opacity:0.25;fill:#0964AF;" d="M156.606,256.654h-6.365l8.068-8.394v6.623
				C158.309,255.86,157.546,256.654,156.606,256.654z"/>
		</g>
		<rect x="149.272" y="116.528" style="display:inline;opacity:0.25;fill:#0964AF;" width="27.616" height="51.549"/>
		<rect x="215.56" y="200.641" style="display:inline;opacity:0.25;fill:#0964AF;" width="43.747" height="39.611"/>
		<rect x="232.29" y="116.528" style="display:inline;opacity:0.25;fill:#0964AF;" width="27.018" height="27.018"/>
		<rect x="180.642" y="101.946" style="display:inline;opacity:0.25;fill:#0964AF;" width="78.665" height="9.175"/>
		<rect x="181.123" y="116.528" style="display:inline;opacity:0.25;fill:#0964AF;" width="45.18" height="4.388"/>
		<rect x="181.123" y="127.842" style="display:inline;opacity:0.25;fill:#0964AF;" width="45.18" height="4.389"/>
		<rect x="181.123" y="139.157" style="display:inline;opacity:0.25;fill:#0964AF;" width="45.18" height="4.389"/>
		<rect x="181.123" y="150.471" style="display:inline;opacity:0.25;fill:#0964AF;" width="78.185" height="4.389"/>
		<rect x="181.123" y="161.786" style="display:inline;opacity:0.25;fill:#0964AF;" width="78.185" height="4.389"/>
		<circle style="display:inline;opacity:0.25;fill:#0964AF;" cx="152.258" cy="104.932" r="2.986"/>
		<circle style="display:inline;opacity:0.25;fill:#0964AF;" cx="163.08" cy="104.932" r="2.986"/>
		<circle style="display:inline;opacity:0.25;fill:#0964AF;" cx="173.902" cy="104.932" r="2.986"/>
		<g style="display:inline;">
			<rect x="150.241" y="235.919" style="opacity:0.25;fill:#0964AF;" width="58.231" height="4.693"/>
			<rect x="150.241" y="224.152" style="opacity:0.25;fill:#0964AF;" width="58.231" height="4.693"/>
			<rect x="150.241" y="212.385" style="opacity:0.25;fill:#0964AF;" width="58.231" height="4.693"/>
			<rect x="150.241" y="200.617" style="opacity:0.25;fill:#0964AF;" width="58.231" height="4.693"/>
			<rect x="150.241" y="188.85" style="opacity:0.25;fill:#0964AF;" width="109.067" height="4.693"/>
			<rect x="150.241" y="177.082" style="opacity:0.25;fill:#0964AF;" width="109.067" height="4.693"/>
		</g>
	</g>
	<g>
		<polygon style="fill:#2AB8EA;" points="153.395,295.034 108.297,295.034 117.267,283.266 162.365,283.266 		"/>
		<polygon style="fill:#2297C6;" points="153.395,295.034 153.395,326.32 162.365,314.551 162.365,283.266 		"/>
		<rect x="108.297" y="295.034" style="fill:#24ABE2;" width="45.097" height="31.272"/>
	</g>
	<ellipse style="opacity:0.57;fill:#2AB8EA;" cx="135.855" cy="289.605" rx="20.235" ry="4.178"/>
	<g>
		<g>
			<path style="fill:#FFB67E;" d="M146.178,155.28c0.643-1.914,3.672-6.264,3.073-7.161c-0.133-0.2-1.397,1.382-2.58,3.043
				c0.505-0.863,0.965-1.752,1.375-2.664c0.191-0.425,0.31-1.045-0.106-1.255c-0.861,0.934-1.665,1.921-2.405,2.954
				c0.487-0.952,0.777-1.791,0.53-2.134c-0.199-0.276-1.479,1.455-2.54,3.23c0.593-1.225,1.05-2.378,0.763-2.564
				c-0.473-0.306-3.769,5.5-5.209,9.434c-1.086,2.968-2.963,5.331-3.904,7.475l6.684-0.495c0,0,0.706-3.201,1.425-4.367
				c0.792-1.285,2.566-2.042,3.53-3.77c0.653-1.17,2.374-3.189,1.824-3.726C148.088,152.743,146.759,155.271,146.178,155.28z"/>
		</g>
		<g>
			<g>
				<g>
					<path style="fill:#FFB67E;" d="M128.747,287.69l-7.316,1.367c0,0,0.13-1.685,0.511-2.593c0.381-0.908,0.66-0.993,0.872-2.002
						c0.907-4.327-1.92-24.472-0.787-32.143c-0.206-15.323,0.108-30.421-2.203-36.958c-2.485-7.028,11.145-8.224,12.307,0
						c1.162,8.224-4.055,68.957-2.787,69.764c2.001,1.274,5.594,1.367,5.594,2.381C134.938,288.52,128.747,287.69,128.747,287.69z"
						/>
					<path style="fill:#84DBEF;" d="M137.767,289.776c-0.452,1.717-12.622,1.358-14.983,1.358c-2.361,0-1.34-4.03-0.712-4.272
						c0.628-0.242,3.382,1.346,6.865,0.95c0.779-0.089-1.088-1.76-1.044-2.493c1.365-0.751,2.584,0.903,3.279,1.202
						C131.868,286.82,138.333,287.624,137.767,289.776z"/>
					<path style="fill:#063160;" d="M137.558,289.094c-0.452,1.717-12.622,1.358-14.983,1.358c-2.361,0-1.34-4.03-0.712-4.272
						c1.078,0.703,2.579,1.099,6.062,0.703c0.779-0.089-0.835-1.687,0.53-2.438c1.365-0.751,1.814,1.094,2.509,1.394
						C131.659,286.138,138.124,286.942,137.558,289.094z"/>
				</g>
				<path style="fill:none;stroke:#84DBEF;stroke-width:0.5;stroke-linecap:round;stroke-linejoin:round;stroke-miterlimit:10;" d="
					M129.872,286.883c0.17-0.568,0.591-1.057,1.128-1.309"/>
				<path style="fill:none;stroke:#84DBEF;stroke-width:0.5;stroke-linecap:round;stroke-linejoin:round;stroke-miterlimit:10;" d="
					M131.415,287.271c0.221-0.544,0.665-0.992,1.206-1.219"/>
				<path style="fill:none;stroke:#84DBEF;stroke-width:0.5;stroke-linecap:round;stroke-linejoin:round;stroke-miterlimit:10;" d="
					M132.723,287.635c0.21-0.493,0.598-0.908,1.076-1.152"/>
			</g>
			<g>
				<path style="fill:#184580;" d="M133.924,225.202c0.358,14.192-1.542,37.915-3.721,53.56v0.011
					c-0.112,0.782-0.223,1.542-0.335,2.28c-2.805,0.346-6.023-0.246-8.56-1.352c-1.408-10.236-1.732-35.267-2.693-43.425
					c-0.738-6.414-7-23.461-0.76-43.346l13.354,3.162l2.805,0.659l0.246,0.056l-0.447,9.387l-0.067,15.119
					C133.824,222.509,133.88,223.805,133.924,225.202z"/>
			</g>
			<g>
				<path style="fill:#1A60A0;" d="M130.586,278.985c-0.549-0.428-9.547-0.107-9.699,0c-0.228,0.161,0.085,2.213,0.316,2.338
					c0.257,0.139,8.615,0.211,9.017-0.01C130.58,281.114,131.135,279.413,130.586,278.985z"/>
			</g>
			<g>
				<g>
					<path style="fill:#FFB67E;" d="M142.57,288.744l-7.316,1.367c0,0,0.13-1.685,0.511-2.593c0.381-0.908,0.66-0.993,0.872-2.002
						c0.907-4.327-1.92-24.472-0.787-32.143c-0.206-15.323,0.109-30.421-2.203-36.957c-2.485-7.028,6.217-11.424,7.379-3.2
						c0.537,3.804,4.638,22.04,3.719,37.185c-1.068,17.6-2.26,35.346-1.579,35.78c2.001,1.274,5.594,1.367,5.594,2.381
						C148.761,289.574,142.57,288.744,142.57,288.744z"/>
					<path style="fill:#84DBEF;" d="M151.59,290.83c-0.452,1.717-12.621,1.358-14.983,1.358c-2.361,0-1.34-4.03-0.712-4.272
						c0.628-0.242,3.382,1.346,6.865,0.95c0.779-0.089-1.088-1.76-1.044-2.493c1.365-0.751,2.584,0.902,3.279,1.202
						C145.691,287.874,152.156,288.679,151.59,290.83z"/>
					<path style="fill:#033473;" d="M151.381,290.148c-0.452,1.717-12.622,1.358-14.983,1.358s-1.34-4.03-0.712-4.272
						c1.078,0.703,2.579,1.099,6.062,0.703c0.779-0.089-0.835-1.687,0.53-2.438c1.365-0.751,1.814,1.095,2.509,1.394
						C145.482,287.192,151.947,287.996,151.381,290.148z"/>
				</g>
				<path style="fill:none;stroke:#84DBEF;stroke-width:0.5;stroke-linecap:round;stroke-linejoin:round;stroke-miterlimit:10;" d="
					M143.694,287.937c0.17-0.568,0.591-1.057,1.128-1.309"/>
				<path style="fill:none;stroke:#84DBEF;stroke-width:0.5;stroke-linecap:round;stroke-linejoin:round;stroke-miterlimit:10;" d="
					M145.238,288.325c0.221-0.543,0.665-0.992,1.206-1.219"/>
				<path style="fill:none;stroke:#84DBEF;stroke-width:0.5;stroke-linecap:round;stroke-linejoin:round;stroke-miterlimit:10;" d="
					M146.546,288.689c0.21-0.493,0.598-0.909,1.076-1.152"/>
			</g>
			<g>
				<path style="fill:#6FDEF7;" d="M133.924,225.202c0.358,14.192-1.542,37.915-3.721,53.56
					c-1.229-13.622,1.618-31.919-3.939-57.202c-1.001-4.554-0.082-9.225-0.082-9.225S133.826,224.224,133.924,225.202z"/>
			</g>
			<g>
				<path style="fill:#184580;" d="M143.691,281.053c-0.883-0.458-1.799-0.615-2.738-0.659c-1.9-0.078-3.9,0.302-6.034-0.436
					c-2-10.046-1.039-38.128-3.565-48.353c-0.749-3.017-4.666-15.775-5.319-19.79c-1-6.151-0.09-13.298,0.972-18.885h15.309
					c2.905,6.694,2.861,14.695,3.252,21.835c0.045,0.872,0.089,1.788,0.123,2.749C146.384,234.757,145.602,265.476,143.691,281.053z
					"/>
			</g>
			<g>
				<path style="fill:#6FDEF7;" d="M143.691,281.053c-0.883-0.458-1.799-0.615-2.738-0.659c-0.101-5.8,0.19-42.687-0.045-52.264
					c-0.157-6.146-0.313-12.348-1.754-18.326c-1.43-5.978-4.258-11.789-8.929-15.779l1.185-1.095h10.906
					c2.905,6.694,2.861,14.695,3.252,21.835c0.045,0.872,0.089,1.788,0.123,2.749C146.384,234.757,145.602,265.476,143.691,281.053z
					"/>
			</g>
			<g>
				<path style="fill:#1A60A0;" d="M144.325,279.89c-0.54-0.384-9.381-0.096-9.53,0c-0.224,0.145,0.084,1.987,0.311,2.098
					c0.253,0.124,8.466,0.189,8.86-0.009C144.319,281.801,144.865,280.274,144.325,279.89z"/>
			</g>
		</g>
		<g>
			<path style="fill:#FFB67E;" d="M137.608,137.414c3.39,1.017,2.568,2.83,0.35,3.341"/>
		</g>
		<g>
			<path style="fill:#F6CB4D;" d="M145.94,207.611c-1.313,1.527-2.852,2.675-4.547,3.504c-2.554,1.29-5.442,1.87-8.378,2.012
				c-0.143,0.012-0.298,0.024-0.441,0.024c-0.203,0-0.394,0.012-0.597,0.012c-9.047,0.118-18.046-3.741-17.974-4.392
				c0.859-7.671,0.455-28.798,0.501-35.208c0.124-17.256,6.612-20.209,11.064-21.014l3.819,0.19
				c7.77-2.474,15.36,13.472,15.134,14.644c0.143,1.042,0.167,3.8,0.191,7.482C144.758,183.921,144.722,198.625,145.94,207.611z"/>
		</g>
		<g>
			<path style="fill:#F3A63F;" d="M145.94,207.611c-1.313,1.527-2.852,2.675-4.547,3.504c-2.494,1.184-5.383,1.788-8.378,2.012
				c-0.143,0.012-0.298,0.024-0.441,0.024c-0.263,0.024-0.525,0.036-0.788,0.047c0.06,0,0.131-0.012,0.191-0.035
				c2.471-0.687,9.132-4.832,9.715-12.336c0.061-0.785-0.322-24.293-0.609-31.432l3.628,5.469
				C144.758,183.921,144.722,198.625,145.94,207.611z"/>
		</g>
		<path style="fill:#F3A63F;" d="M149.438,166.543l2.17,2.53c0,0-2.084,11.284-3.255,8.777c-1.171-2.507-2.589-8.175-2.589-8.175
			L149.438,166.543z"/>
		<g>
			<path style="fill:#FFB67E;" d="M177.424,158.736c0.279-0.774-3.554,1.9-4.785,2.684c2.77-2.209,4.584-4.199,4.302-4.63
				c-0.282-0.431-4.606,3.128-5.54,3.609c0.724-0.812,4.265-3.837,3.772-4.515c-0.238-0.327-3.339,2.354-5.198,3.653
				c0.873-0.86,1.286-1.277,1.197-1.99c-0.154-1.231-4.607,4.352-6.088,5.954c-0.585,0.632-10.392,4.208-11.393,4.351
				c-1.177,0.169-8.06-7.2-8.06-7.2l-3.564,7.869c4.937,3.581,8.645,6.965,10.447,7.28c2.453,0.429,13.888-8.102,14.973-8.361
				c2.152-0.514,5.758-3.003,7.155-4.215c0.954-0.827,2.551-1.906,2.77-2.534c0.219-0.628-2.745,1.152-4.309,2.109
				C174.813,161.618,177.146,159.51,177.424,158.736z"/>
		</g>
		<g>
			<path style="fill:#F6CB4D;" d="M151.608,166.463c-7.152-8.76-14.661-13.269-20.9-14.526l6.986,16.82
				c2.759,3.713,6.266,7.309,10.867,9.389C147.741,172.855,150.447,166.994,151.608,166.463z"/>
		</g>
		<path style="fill:#FFB67E;" d="M125.895,152.539c0,0-0.217-3.256,0.332-6.682c0.549-3.426,7.54-3.229,6.562,0.131
			c-0.979,3.36,0.286,6.566,0.286,6.566C133.124,154.616,126.469,156.207,125.895,152.539z"/>
		<g>
			<path style="fill:#FFB67E;" d="M133.932,129.507c3.801,3.039,6.858,17.39,4.027,19.666c-1.396,1.122-8.693,3.143-11.482,0"/>
		</g>
		<path style="fill:#1B3760;" d="M138.553,128.737c-0.606-0.486-1.445-0.558-2.22-0.501c-0.102,0.008-0.202,0.033-0.304,0.044
			c-0.036-0.041-0.078-0.08-0.116-0.12c0.271-0.212,0.525-0.446,0.742-0.713c0.439-0.539,0.751-1.336,0.354-1.906
			c-0.314-0.451-0.934-0.555-1.483-0.547c-0.921,0.013-1.829,0.249-2.656,0.653c-0.042-0.548-0.278-1.084-0.738-1.373
			c-0.36-0.226-0.802-0.277-1.227-0.274c-0.919,0.007-1.831,0.254-2.638,0.695c-0.379-0.535-1.245-0.61-1.936-0.495
			c-1.218,0.203-2.383,0.691-3.399,1.393c-0.386-0.214-0.803-0.336-1.256-0.298c-0.801,0.066-1.476,0.628-1.982,1.252
			c-0.138,0.17-0.266,0.355-0.358,0.553c-0.32-0.097-0.646-0.174-0.978-0.21c-0.53-0.058-1.096-0.03-1.55,0.249
			c-0.569,0.35-0.863,1.062-0.795,1.726c0.05,0.488,0.277,0.942,0.6,1.315c-1.552,0.115-3.249,0.975-4.074,2.235
			c-0.954,1.457-0.068,2.916,0.5,3.162c-0.407,0.505-0.742,1.068-0.97,1.675c-0.255,0.681-0.381,1.461-0.079,2.123
			c0.281,0.616,0.889,1.026,1.524,1.26c0.14,0.052,0.29,0.069,0.435,0.105c-0.185,0.414-0.34,0.842-0.439,1.285
			c-0.096,0.426-0.137,0.917,0.135,1.259c0.273,0.344,0.775,0.414,1.206,0.336c0.292-0.053,0.561-0.183,0.811-0.342
			c-0.32,2.392,0.391,3.137,1.703,2.895c0.03,0.264,0.072,0.527,0.132,0.785c0.099,0.426,0.275,0.885,0.669,1.076
			c0.119,0.058,0.247,0.076,0.377,0.077c0.084,0.596,0.242,1.156,0.554,1.527c0.455,0.54,1.127,0.526,1.643,0.13
			c0.061-0.046,0.113-0.111,0.17-0.166c0.019,0.014,0.038,0.029,0.057,0.043c0.123,0.692,0.409,1.318,0.799,1.743
			c0.171,0.186,0.367,0.337,0.578,0.373c0.293,0.05,0.59-0.131,0.813-0.417c0.046-0.059,0.078-0.135,0.118-0.201
			c1.08,0.624,2.017,1.078,2.618,1.396c3.535,1.873,4.492-2.876,6.468-6.355c2.475-4.359,2.526-5.552,1.016-10.331
			c0.057-0.098,0.101-0.2,0.156-0.299c0.035-0.001,0.07,0.003,0.106,0.001c1.051-0.062,2.121-0.484,2.766-1.316
			c0.252-0.325,0.435-0.714,0.455-1.125c0.026-0.55-0.237-1.03-0.626-1.428c0.633-0.12,1.258-0.287,1.864-0.509
			c0.261-0.095,0.525-0.204,0.724-0.398C139.379,130.238,139.159,129.223,138.553,128.737z"/>
		<path style="opacity:0.55;fill:#1B3760;" d="M138.818,130.783c-0.19,0.19-0.458,0.302-0.715,0.391
			c-0.615,0.223-1.229,0.391-1.866,0.514c0.391,0.391,0.648,0.872,0.626,1.43c-0.022,0.402-0.201,0.793-0.458,1.117
			c-0.648,0.838-1.71,1.263-2.76,1.319h-0.112c-0.056,0.1-0.101,0.201-0.156,0.302c1.509,4.772,1.464,5.967-1.017,10.326
			c-1.967,3.486-2.928,8.236-6.459,6.358c-0.603-0.324-1.542-0.771-2.626-1.397c-0.034,0.067-0.067,0.145-0.112,0.201
			c-0.223,0.291-0.525,0.469-0.816,0.413c-0.212-0.034-0.402-0.179-0.581-0.369c-0.369-0.402-0.637-0.972-0.76-1.62
			c0.827,0.458,1.46,0.998,2.012,1.062c3.46,0.398,4.492-2.883,6.47-6.358c2.47-4.358,2.525-5.554,1.017-10.325
			c0.056-0.101,0.101-0.201,0.157-0.302h0.101c1.05-0.067,2.123-0.48,2.771-1.319c0.246-0.324,0.436-0.715,0.458-1.129
			c0.022-0.548-0.246-1.028-0.626-1.419c0.626-0.123,1.252-0.29,1.855-0.514c0.268-0.09,0.525-0.201,0.726-0.391
			c0.223-0.224,0.324-0.514,0.324-0.827c0.022-0.011,0.045-0.011,0.067-0.011c0.771-0.056,1.609,0.011,2.213,0.503
			C139.164,129.218,139.376,130.235,138.818,130.783z"/>
		<path style="fill:#1B3760;" d="M136.27,128.246c-0.078,0.011-0.156,0.022-0.246,0.034c-0.034-0.045-0.078-0.078-0.112-0.123
			c0.101-0.078,0.201-0.168,0.302-0.268C136.247,128.011,136.27,128.123,136.27,128.246z"/>
		<g>
			<path style="fill:#FFB67E;" d="M134.015,143.487c-0.109-0.699-0.487-1.353-1.039-1.795c-0.367-0.294-0.926-0.485-1.287-0.184
				c-0.182,0.152-0.262,0.39-0.328,0.618c-0.221,0.769-0.366,1.572-0.293,2.37c0.073,0.797,0.38,1.592,0.958,2.146
				c0.425,0.408,1.021,0.675,1.603,0.583c0.861-0.137,0.814-0.702,0.892-1.57"/>
		</g>
		<g>
			<path style="fill:#FFB67E;" d="M134.024,142.887c-0.109-0.699-0.487-1.353-1.039-1.795c-0.367-0.294-1.193-0.619-1.567-0.334
				c-1.917,1.46,0.039,4.73,0.617,5.284c0.425,0.408,1.021,0.675,1.603,0.583c0.861-0.137,0.814-0.702,0.892-1.57"/>
		</g>
	</g>
	<g>
		<g>
			<circle style="opacity:0.25;fill:#0964AF;" cx="167.217" cy="147.243" r="11.328"/>
			<g>
				<path d="M168.12,150.749h-1.09v-7.225l-2.186,0.803v-0.984l3.105-1.166h0.17V150.749z"/>
			</g>
		</g>
		<g>
			<circle style="opacity:0.25;fill:#0964AF;" cx="167.217" cy="178.681" r="11.328"/>
			<g>
				<path d="M168.12,182.187h-1.09v-7.225l-2.186,0.803v-0.984l3.105-1.166h0.17V182.187z"/>
			</g>
		</g>
		<g>
			<circle style="opacity:0.25;fill:#0964AF;" cx="167.217" cy="210.119" r="11.328"/>
			<g>
				<path d="M168.12,213.626h-1.09v-7.225l-2.186,0.803v-0.984l3.105-1.166h0.17V213.626z"/>
			</g>
		</g>
		<g>
			<circle style="opacity:0.25;fill:#0964AF;" cx="167.217" cy="241.557" r="11.328"/>
			<g>
				<path d="M166.265,240.86l-2.212-0.659l0.337-1.104l2.212,0.819l-0.066-2.517h1.121l-0.073,2.554l2.175-0.805l0.337,1.111
					l-2.249,0.666l1.45,1.985l-0.908,0.688l-1.362-2.109l-1.318,2.058l-0.916-0.666L166.265,240.86z"/>
			</g>
		</g>
	</g>
	<g>
		<circle style="opacity:0.25;fill:#0964AF;" cx="205.598" cy="147.243" r="11.328"/>
		<g>
			<path d="M208.528,150.749h-5.59v-0.779l2.953-3.281c0.438-0.496,0.739-0.899,0.905-1.21s0.249-0.632,0.249-0.964
				c0-0.445-0.135-0.811-0.404-1.096s-0.629-0.428-1.078-0.428c-0.539,0-0.958,0.153-1.257,0.46s-0.448,0.733-0.448,1.28h-1.084
				c0-0.785,0.253-1.42,0.759-1.904s1.183-0.727,2.03-0.727c0.793,0,1.42,0.208,1.881,0.624s0.691,0.97,0.691,1.661
				c0,0.84-0.535,1.84-1.605,3l-2.285,2.479h4.283V150.749z"/>
		</g>
		<g>
			<path d="M203.58,154.76h-1.102l-0.23,0.662h-0.514l1.074-2.844h0.443l1.076,2.844h-0.516L203.58,154.76z M202.617,154.362h0.824
				l-0.412-1.18L202.617,154.362z"/>
			<path d="M204.651,155.422v-2.844h0.975c0.322,0,0.566,0.064,0.734,0.193s0.252,0.321,0.252,0.576c0,0.13-0.035,0.248-0.105,0.352
				s-0.173,0.185-0.309,0.242c0.154,0.042,0.272,0.12,0.356,0.235s0.126,0.253,0.126,0.415c0,0.267-0.085,0.472-0.257,0.615
				s-0.417,0.215-0.735,0.215H204.651z M205.145,153.776h0.484c0.154,0,0.274-0.035,0.36-0.104s0.13-0.168,0.13-0.296
				c0-0.141-0.04-0.242-0.12-0.305s-0.205-0.094-0.374-0.094h-0.48V153.776z M205.145,154.139v0.889h0.549
				c0.155,0,0.276-0.039,0.363-0.115s0.131-0.184,0.131-0.32c0-0.295-0.151-0.447-0.453-0.453H205.145z"/>
			<path d="M209.344,154.496c-0.029,0.303-0.141,0.54-0.336,0.71s-0.455,0.255-0.779,0.255c-0.227,0-0.426-0.054-0.599-0.161
				s-0.306-0.26-0.399-0.458s-0.143-0.428-0.146-0.689v-0.266c0-0.268,0.047-0.504,0.143-0.709s0.231-0.362,0.409-0.473
				s0.383-0.166,0.616-0.166c0.314,0,0.566,0.085,0.758,0.255s0.303,0.411,0.334,0.722h-0.492c-0.023-0.205-0.083-0.352-0.179-0.442
				s-0.236-0.136-0.421-0.136c-0.215,0-0.38,0.079-0.495,0.235c-0.115,0.157-0.174,0.388-0.177,0.691v0.252
				c0,0.308,0.055,0.542,0.165,0.704s0.271,0.242,0.483,0.242c0.194,0,0.34-0.043,0.438-0.131s0.16-0.232,0.186-0.436H209.344z"/>
		</g>
	</g>
	<g>
		<circle style="opacity:0.25;fill:#0964AF;" cx="205.598" cy="178.681" r="11.328"/>
		<g>
			<path d="M208.528,182.187h-5.59v-0.779l2.953-3.281c0.438-0.496,0.739-0.899,0.905-1.21s0.249-0.632,0.249-0.964
				c0-0.445-0.135-0.811-0.404-1.096s-0.629-0.428-1.078-0.428c-0.539,0-0.958,0.153-1.257,0.46s-0.448,0.733-0.448,1.28h-1.084
				c0-0.785,0.253-1.42,0.759-1.904s1.183-0.727,2.03-0.727c0.793,0,1.42,0.208,1.881,0.624s0.691,0.97,0.691,1.661
				c0,0.84-0.535,1.84-1.605,3l-2.285,2.479h4.283V182.187z"/>
		</g>
		<g>
			<path d="M203.598,184.016h0.492v1.994c0,0.272-0.085,0.488-0.255,0.648s-0.394,0.24-0.673,0.24c-0.297,0-0.526-0.074-0.688-0.225
				c-0.162-0.149-0.242-0.357-0.242-0.625h0.492c0,0.151,0.038,0.265,0.112,0.341s0.183,0.114,0.325,0.114
				c0.133,0,0.239-0.044,0.317-0.132s0.118-0.209,0.118-0.364V184.016z"/>
			<path d="M205.471,185.632l-0.322,0.342v0.887h-0.494v-2.844h0.494v1.334l0.273-0.338l0.832-0.996h0.598l-1.057,1.26l1.117,1.584
				h-0.586L205.471,185.632z"/>
			<path d="M207.67,186.466h1.291v0.395h-1.785v-2.844h0.494V186.466z"/>
		</g>
	</g>
	<g>
		<circle style="opacity:0.25;fill:#0964AF;" cx="205.598" cy="210.119" r="11.328"/>
		<g>
			<path d="M208.528,213.626h-5.59v-0.779l2.953-3.281c0.438-0.496,0.739-0.899,0.905-1.21s0.249-0.632,0.249-0.964
				c0-0.445-0.135-0.811-0.404-1.096s-0.629-0.428-1.078-0.428c-0.539,0-0.958,0.153-1.257,0.46s-0.448,0.733-0.448,1.28h-1.084
				c0-0.785,0.253-1.42,0.759-1.904s1.183-0.727,2.03-0.727c0.793,0,1.42,0.208,1.881,0.624s0.691,0.97,0.691,1.661
				c0,0.84-0.535,1.84-1.605,3l-2.285,2.479h4.283V213.626z"/>
		</g>
		<g>
			<path d="M204.13,215.853h-0.887v2.445h-0.49v-2.445h-0.879v-0.398h2.256V215.853z"/>
			<path d="M206.583,215.455v1.9c0,0.302-0.097,0.541-0.29,0.718c-0.193,0.176-0.451,0.265-0.772,0.265
				c-0.326,0-0.584-0.087-0.775-0.261s-0.287-0.415-0.287-0.724v-1.898h0.492v1.902c0,0.189,0.048,0.335,0.145,0.436
				c0.096,0.1,0.238,0.15,0.426,0.15c0.38,0,0.57-0.201,0.57-0.602v-1.887H206.583z"/>
			<path d="M208.113,217.68l0.723-2.225h0.543l-1.023,2.844h-0.479l-1.02-2.844h0.541L208.113,217.68z"/>
		</g>
	</g>
	<g>
		<circle style="opacity:0.25;fill:#0964AF;" cx="205.598" cy="241.557" r="11.328"/>
		<g>
			<path d="M208.287,241.425c0,1.27-0.217,2.213-0.65,2.83s-1.111,0.926-2.033,0.926c-0.91,0-1.584-0.302-2.021-0.905
				s-0.664-1.505-0.68-2.704v-1.447c0-1.254,0.217-2.186,0.65-2.795s1.113-0.914,2.039-0.914c0.918,0,1.594,0.294,2.027,0.882
				s0.656,1.495,0.668,2.722V241.425z M207.203,239.942c0-0.918-0.129-1.587-0.387-2.007s-0.666-0.63-1.225-0.63
				c-0.555,0-0.959,0.209-1.213,0.627s-0.385,1.061-0.393,1.928v1.734c0,0.922,0.134,1.603,0.401,2.042s0.673,0.659,1.216,0.659
				c0.535,0,0.933-0.207,1.192-0.621s0.396-1.066,0.407-1.957V239.942z"/>
		</g>
		<g>
			<path d="M205.823,248.172h0.742v0.434h-0.742v0.846h-0.461v-0.846h-0.746v-0.434h0.746v-0.791h0.461V248.172z"/>
		</g>
	</g>
	<g>
		<g>
			<circle style="opacity:0.25;fill:#0964AF;" cx="243.979" cy="147.243" r="11.328"/>
			<g>
				<path d="M246.908,150.749h-5.59v-0.779l2.953-3.281c0.438-0.496,0.739-0.899,0.905-1.21s0.249-0.632,0.249-0.964
					c0-0.445-0.135-0.811-0.404-1.096s-0.629-0.428-1.078-0.428c-0.539,0-0.958,0.153-1.257,0.46s-0.448,0.733-0.448,1.28h-1.084
					c0-0.785,0.253-1.42,0.759-1.904s1.183-0.727,2.03-0.727c0.793,0,1.42,0.208,1.881,0.624s0.691,0.97,0.691,1.661
					c0,0.84-0.535,1.84-1.605,3l-2.285,2.479h4.283V150.749z"/>
			</g>
			<g>
				<path d="M240.731,155.422v-2.844h0.84c0.252,0,0.475,0.056,0.669,0.168c0.195,0.112,0.346,0.271,0.452,0.477
					c0.107,0.206,0.16,0.441,0.16,0.707v0.143c0,0.27-0.054,0.506-0.161,0.711s-0.26,0.362-0.459,0.473
					c-0.198,0.111-0.426,0.166-0.683,0.166H240.731z M241.225,152.977v2.051h0.322c0.26,0,0.458-0.081,0.597-0.243
					s0.21-0.395,0.212-0.698v-0.158c0-0.309-0.066-0.544-0.201-0.707c-0.134-0.163-0.328-0.244-0.584-0.244H241.225z"/>
				<path d="M245.007,154.153h-1.168v0.875h1.365v0.395h-1.859v-2.844h1.846v0.398h-1.352v0.785h1.168V154.153z"/>
				<path d="M247.245,154.217H246.1v1.205h-0.494v-2.844h1.807v0.398H246.1v0.846h1.145V154.217z"/>
			</g>
		</g>
		<g>
			<circle style="opacity:0.25;fill:#0964AF;" cx="243.979" cy="178.681" r="11.328"/>
			<g>
				<path d="M246.908,182.187h-5.59v-0.779l2.953-3.281c0.438-0.496,0.739-0.899,0.905-1.21s0.249-0.632,0.249-0.964
					c0-0.445-0.135-0.811-0.404-1.096s-0.629-0.428-1.078-0.428c-0.539,0-0.958,0.153-1.257,0.46s-0.448,0.733-0.448,1.28h-1.084
					c0-0.785,0.253-1.42,0.759-1.904s1.183-0.727,2.03-0.727c0.793,0,1.42,0.208,1.881,0.624s0.691,0.97,0.691,1.661
					c0,0.84-0.535,1.84-1.605,3l-2.285,2.479h4.283V182.187z"/>
			</g>
			<g>
				<path d="M240.356,184.016l0.82,2.18l0.818-2.18h0.639v2.844h-0.492v-0.938l0.049-1.254l-0.84,2.191h-0.354l-0.838-2.189
					l0.049,1.252v0.938h-0.492v-2.844H240.356z"/>
				<path d="M245.473,186.86h-0.494l-1.268-2.018v2.018h-0.494v-2.844h0.494l1.271,2.025v-2.025h0.49V186.86z"/>
				<path d="M248.327,185.513c0,0.279-0.048,0.523-0.145,0.733c-0.096,0.211-0.233,0.372-0.413,0.484
					c-0.179,0.113-0.385,0.169-0.618,0.169c-0.23,0-0.436-0.056-0.616-0.169c-0.18-0.112-0.319-0.272-0.418-0.481
					c-0.098-0.208-0.147-0.448-0.149-0.721v-0.16c0-0.277,0.05-0.521,0.147-0.734c0.099-0.212,0.237-0.374,0.416-0.487
					c0.18-0.112,0.385-0.169,0.616-0.169c0.232,0,0.438,0.056,0.616,0.167c0.18,0.111,0.317,0.271,0.415,0.48
					s0.147,0.452,0.148,0.729V185.513z M247.833,185.364c0-0.314-0.06-0.557-0.179-0.725s-0.288-0.252-0.507-0.252
					c-0.213,0-0.38,0.084-0.501,0.251c-0.12,0.168-0.182,0.404-0.185,0.71v0.164c0,0.313,0.062,0.555,0.183,0.725
					c0.122,0.171,0.291,0.256,0.507,0.256c0.219,0,0.388-0.083,0.505-0.25c0.118-0.166,0.177-0.41,0.177-0.73V185.364z"/>
			</g>
		</g>
		<g>
			<circle style="opacity:0.25;fill:#0964AF;" cx="243.979" cy="210.119" r="11.328"/>
			<g>
				<path d="M246.908,213.626h-5.59v-0.779l2.953-3.281c0.438-0.496,0.739-0.899,0.905-1.21s0.249-0.632,0.249-0.964
					c0-0.445-0.135-0.811-0.404-1.096s-0.629-0.428-1.078-0.428c-0.539,0-0.958,0.153-1.257,0.46s-0.448,0.733-0.448,1.28h-1.084
					c0-0.785,0.253-1.42,0.759-1.904s1.183-0.727,2.03-0.727c0.793,0,1.42,0.208,1.881,0.624s0.691,0.97,0.691,1.661
					c0,0.84-0.535,1.84-1.605,3l-2.285,2.479h4.283V213.626z"/>
			</g>
			<g>
				<path d="M241.05,217.596l0.438-2.141h0.49l-0.656,2.844h-0.473l-0.541-2.076l-0.553,2.076h-0.475l-0.656-2.844h0.49l0.441,2.137
					l0.543-2.137h0.414L241.05,217.596z"/>
				<path d="M243.317,216.482l0.598-1.027h0.57l-0.859,1.41l0.879,1.434h-0.576l-0.611-1.043l-0.613,1.043h-0.574l0.881-1.434
					l-0.861-1.41h0.57L243.317,216.482z"/>
				<path d="M245.798,216.803l0.654-1.348h0.547l-0.953,1.797v1.047h-0.496v-1.047l-0.955-1.797h0.549L245.798,216.803z"/>
				<path d="M247.772,217.904h1.52v0.395h-2.117v-0.32l1.471-2.125h-1.461v-0.398h2.061v0.313L247.772,217.904z"/>
			</g>
		</g>
		<g>
			<circle style="opacity:0.25;fill:#0964AF;" cx="243.979" cy="241.557" r="11.328"/>
			<g>
				<path d="M244.766,242.667h-1.547l-0.469,2.396h-0.838l0.469-2.396h-1.4v-0.809h1.553l0.404-2.08h-1.512v-0.809h1.67l0.48-2.438
					h0.838l-0.48,2.438h1.547l0.48-2.438h0.844l-0.48,2.438h1.195v0.809h-1.354l-0.404,2.08h1.318v0.809h-1.471l-0.469,2.396h-0.844
					L244.766,242.667z M243.372,241.858h1.547l0.404-2.08h-1.547L243.372,241.858z"/>
			</g>
		</g>
	</g>
	<g>
		<circle style="fill:#4CDA61;" cx="205.598" cy="270.815" r="11.328"/>
	</g>
	<g>
		<g>
			<path style="fill:#FFFFFF;" d="M211.252,274.088c0.024,0.184-0.032,0.344-0.168,0.48l-1.596,1.583
				c-0.072,0.08-0.166,0.148-0.282,0.204c-0.116,0.056-0.23,0.092-0.342,0.108c-0.008,0-0.032,0.002-0.072,0.006
				c-0.04,0.004-0.092,0.006-0.156,0.006c-0.152,0-0.398-0.026-0.738-0.078c-0.34-0.052-0.756-0.18-1.248-0.384
				c-0.492-0.204-1.05-0.51-1.674-0.918c-0.624-0.408-1.288-0.968-1.991-1.68c-0.56-0.552-1.024-1.08-1.392-1.584
				c-0.368-0.504-0.664-0.97-0.888-1.398c-0.224-0.428-0.392-0.816-0.504-1.164c-0.112-0.348-0.188-0.648-0.228-0.9
				c-0.04-0.252-0.056-0.45-0.048-0.594c0.008-0.144,0.012-0.224,0.012-0.24c0.016-0.112,0.052-0.226,0.108-0.342
				c0.056-0.116,0.124-0.21,0.204-0.282l1.596-1.596c0.112-0.112,0.24-0.168,0.384-0.168c0.104,0,0.196,0.03,0.276,0.09
				c0.08,0.06,0.148,0.134,0.204,0.222l1.284,2.435c0.072,0.128,0.092,0.268,0.06,0.42c-0.032,0.152-0.1,0.28-0.204,0.384
				l-0.588,0.588c-0.016,0.016-0.03,0.042-0.042,0.078c-0.012,0.036-0.018,0.066-0.018,0.09c0.032,0.168,0.104,0.36,0.216,0.576
				c0.096,0.192,0.244,0.426,0.444,0.702c0.2,0.276,0.484,0.594,0.852,0.954c0.36,0.368,0.68,0.654,0.96,0.858
				c0.28,0.204,0.514,0.354,0.702,0.45c0.188,0.096,0.332,0.154,0.432,0.174l0.15,0.03c0.016,0,0.042-0.006,0.078-0.018
				c0.036-0.012,0.062-0.026,0.078-0.042l0.684-0.696c0.144-0.128,0.312-0.192,0.504-0.192c0.136,0,0.244,0.024,0.324,0.072h0.012
				l2.315,1.368C211.12,273.796,211.22,273.928,211.252,274.088L211.252,274.088z M211.252,274.088"/>
		</g>
	</g>
	<g>
		<path d="M162.886,217.244v1.055h-0.494v-2.844h1.088c0.318,0,0.57,0.083,0.757,0.248c0.187,0.166,0.28,0.385,0.28,0.657
			c0,0.279-0.091,0.496-0.274,0.651s-0.439,0.232-0.769,0.232H162.886z M162.886,216.846h0.594c0.176,0,0.31-0.041,0.402-0.124
			s0.139-0.202,0.139-0.358c0-0.153-0.047-0.276-0.141-0.368s-0.223-0.139-0.387-0.142h-0.607V216.846z"/>
		<path d="M167.209,216.951c0,0.27-0.042,0.503-0.128,0.7s-0.205,0.354-0.358,0.47l0.488,0.381l-0.32,0.289l-0.605-0.479
			c-0.08,0.017-0.165,0.025-0.256,0.025c-0.229,0-0.434-0.057-0.614-0.169s-0.32-0.273-0.418-0.481s-0.148-0.448-0.149-0.721v-0.16
			c0-0.277,0.049-0.522,0.147-0.734s0.237-0.375,0.416-0.487s0.384-0.169,0.614-0.169c0.234,0,0.441,0.056,0.62,0.167
			s0.317,0.271,0.415,0.48s0.147,0.452,0.148,0.729V216.951z M166.713,216.803c0-0.32-0.06-0.563-0.18-0.729
			s-0.289-0.248-0.508-0.248c-0.212,0-0.378,0.084-0.499,0.251s-0.182,0.403-0.185,0.708v0.166c0,0.308,0.06,0.548,0.181,0.721
			s0.29,0.26,0.507,0.26c0.22,0,0.389-0.083,0.507-0.25s0.177-0.41,0.177-0.73V216.803z"/>
		<path d="M168.756,217.205h-0.551v1.094h-0.494v-2.844h1c0.328,0,0.582,0.073,0.76,0.221s0.268,0.36,0.268,0.64
			c0,0.19-0.046,0.35-0.138,0.478c-0.092,0.129-0.22,0.228-0.384,0.296l0.639,1.185v0.025h-0.529L168.756,217.205z M168.205,216.807
			h0.508c0.167,0,0.297-0.042,0.391-0.126s0.141-0.199,0.141-0.345c0-0.152-0.043-0.271-0.13-0.354s-0.216-0.126-0.388-0.129h-0.521
			V216.807z"/>
		<path d="M171.693,217.566c0-0.125-0.044-0.222-0.132-0.289s-0.247-0.136-0.476-0.205s-0.412-0.146-0.547-0.23
			c-0.259-0.163-0.389-0.375-0.389-0.637c0-0.229,0.093-0.418,0.28-0.566s0.429-0.223,0.728-0.223c0.198,0,0.375,0.036,0.529,0.109
			s0.277,0.177,0.365,0.312s0.133,0.284,0.133,0.448h-0.492c0-0.148-0.046-0.265-0.14-0.349s-0.226-0.126-0.399-0.126
			c-0.162,0-0.287,0.034-0.376,0.104s-0.134,0.165-0.134,0.289c0,0.104,0.048,0.191,0.145,0.261s0.255,0.138,0.477,0.203
			s0.399,0.141,0.533,0.225s0.232,0.181,0.295,0.289s0.094,0.236,0.094,0.382c0,0.237-0.091,0.426-0.272,0.565
			s-0.428,0.21-0.739,0.21c-0.206,0-0.395-0.038-0.567-0.114s-0.307-0.182-0.402-0.315s-0.144-0.29-0.144-0.469h0.494
			c0,0.161,0.053,0.286,0.16,0.375s0.26,0.133,0.459,0.133c0.172,0,0.301-0.035,0.388-0.104S171.693,217.681,171.693,217.566z"/>
	</g>
	<g>
		<path d="M166.234,186.491c-0.103,0.134-0.246,0.235-0.428,0.305s-0.389,0.104-0.621,0.104c-0.238,0-0.449-0.054-0.633-0.162
			s-0.325-0.263-0.425-0.464s-0.151-0.436-0.155-0.704v-0.223c0-0.43,0.103-0.766,0.309-1.007s0.493-0.362,0.861-0.362
			c0.316,0,0.568,0.078,0.754,0.235s0.298,0.383,0.336,0.677h-0.484c-0.055-0.343-0.253-0.514-0.596-0.514
			c-0.221,0-0.39,0.08-0.505,0.239s-0.175,0.393-0.179,0.701v0.219c0,0.307,0.065,0.545,0.194,0.715s0.31,0.255,0.54,0.255
			c0.252,0,0.432-0.058,0.539-0.172v-0.557h-0.586v-0.375h1.078V186.491z"/>
		<path d="M169.035,186.86h-0.492v-1.262h-1.271v1.262h-0.494v-2.844h0.494v1.184h1.271v-1.184h0.492V186.86z"/>
		<path d="M170.14,186.86h-0.492v-2.844h0.492V186.86z"/>
	</g>
	<g>
		<path style="fill:#3679BC;" d="M259.628,101.33h-12c-0.563,0-0.961,0.238-1.282,0.719l-4.32,6.48l4.32,6.481
			c0.321,0.398,0.719,0.718,1.282,0.718h12c0.878,0,1.597-0.718,1.597-1.597v-11.199C261.225,102.049,260.506,101.33,259.628,101.33
			L259.628,101.33z M257.225,111.408l-1.121,1.121l-2.879-2.879l-2.879,2.879l-1.121-1.121l2.879-2.879l-2.879-2.879l1.121-1.121
			l2.879,2.879l2.879-2.879l1.121,1.121l-2.879,2.879L257.225,111.408z M257.225,111.408"/>
	</g>
	<g>
		<path style="fill:#3679BC;" d="M154.61,100.464c-4.447,0-8.064,3.618-8.064,8.064c0,4.447,3.618,8.064,8.064,8.064
			c4.447,0,8.064-3.618,8.064-8.064C162.675,104.081,159.057,100.464,154.61,100.464L154.61,100.464z M154.61,115.21
			c-3.684,0-6.682-2.998-6.682-6.682c0-3.684,2.998-6.682,6.682-6.682c3.685,0,6.682,2.998,6.682,6.682
			C161.293,112.213,158.295,115.21,154.61,115.21L154.61,115.21z M154.61,115.21"/>
		<path style="fill:#3679BC;" d="M157.731,105.408c-0.27-0.27-0.708-0.27-0.977,0l-2.143,2.143l-2.143-2.143
			c-0.27-0.27-0.707-0.27-0.978,0c-0.27,0.27-0.27,0.707,0,0.978l2.143,2.143l-2.143,2.143c-0.27,0.27-0.27,0.707,0,0.978
			c0.135,0.135,0.312,0.202,0.489,0.202c0.177,0,0.354-0.067,0.489-0.202l2.143-2.143l2.143,2.143
			c0.135,0.135,0.311,0.202,0.489,0.202c0.177,0,0.354-0.067,0.489-0.202c0.27-0.27,0.27-0.707,0-0.978l-2.143-2.143l2.143-2.143
			C158.001,106.115,158.001,105.678,157.731,105.408L157.731,105.408z M157.731,105.408"/>
	</g>
	<g>
		<path style="fill:#8FC4E6;" d="M227.93,15.426c3.102,0.003,5.616,2.517,5.62,5.62c0,0.362,0.294,0.655,0.655,0.655
			c0.362,0,0.656-0.293,0.656-0.655c-0.004-3.826-3.105-6.926-6.931-6.931c-0.362,0-0.655,0.294-0.655,0.656
			C227.275,15.132,227.568,15.426,227.93,15.426z"/>
		<path style="fill:#8FC4E6;" d="M227.93,10.328c5.916,0.006,10.711,4.801,10.717,10.717c0,0.362,0.294,0.655,0.656,0.655
			c0.362,0,0.655-0.293,0.655-0.655c-0.007-6.64-5.388-12.021-12.028-12.028c-0.362,0-0.655,0.293-0.655,0.655
			C227.275,10.034,227.568,10.328,227.93,10.328z"/>
		<path style="fill:#8FC4E6;" d="M227.93,4.116c-0.362,0-0.655,0.294-0.655,0.655c0,0.362,0.293,0.656,0.655,0.656
			c8.612,0,15.619,7.006,15.619,15.619c0,0.362,0.293,0.655,0.656,0.655c0.362,0,0.655-0.293,0.655-0.655
			C244.86,11.71,237.265,4.116,227.93,4.116z"/>
		<path style="fill:#8FC4E6;" d="M219.713,36.486l-4.966,11.445h11.416l-3.26-10.73C221.812,37.105,220.739,36.865,219.713,36.486z"
			/>
		<path style="fill:#8FC4E6;" d="M213.299,27.353c0.746,3.406,3.075,6.25,6.267,7.653c0.043,0.013,0.083,0.031,0.122,0.053
			c3.877,1.643,8.352,0.912,11.506-1.876l-15.403-15.402C213.479,20.39,212.552,23.947,213.299,27.353z"/>
		<polygon style="fill:#8FC4E6;" points="226.454,26.588 230.438,20.359 228.601,18.522 222.371,22.506 		"/>
	</g>
	<g>
		<path style="fill:#8FC4E6;" d="M30.1,229.054c3.102,0.003,5.616,2.517,5.62,5.62c0,0.362,0.294,0.655,0.655,0.655
			c0.362,0,0.656-0.293,0.656-0.655c-0.004-3.826-3.105-6.926-6.931-6.931c-0.362,0-0.655,0.294-0.655,0.656
			C29.444,228.76,29.738,229.054,30.1,229.054z"/>
		<path style="fill:#8FC4E6;" d="M30.1,223.956c5.916,0.006,10.711,4.801,10.717,10.717c0,0.362,0.294,0.655,0.656,0.655
			c0.362,0,0.655-0.293,0.655-0.655c-0.007-6.64-5.388-12.021-12.028-12.028c-0.362,0-0.655,0.293-0.655,0.655
			C29.444,223.663,29.738,223.956,30.1,223.956z"/>
		<path style="fill:#8FC4E6;" d="M30.1,217.744c-0.362,0-0.655,0.294-0.655,0.655c0,0.362,0.293,0.656,0.655,0.656
			c8.612,0,15.619,7.006,15.619,15.619c0,0.362,0.293,0.655,0.656,0.655c0.362,0,0.655-0.293,0.655-0.655
			C47.029,225.338,39.435,217.744,30.1,217.744z"/>
		<path style="fill:#8FC4E6;" d="M21.882,250.114l-4.966,11.445h11.416l-3.26-10.73C23.981,250.734,22.909,250.493,21.882,250.114z"
			/>
		<path style="fill:#8FC4E6;" d="M15.469,240.981c0.746,3.406,3.075,6.25,6.267,7.653c0.043,0.013,0.083,0.031,0.122,0.053
			c3.877,1.643,8.352,0.912,11.506-1.876l-15.403-15.402C15.649,234.018,14.722,237.575,15.469,240.981z"/>
		<polygon style="fill:#8FC4E6;" points="28.623,240.216 32.608,233.987 30.771,232.15 24.541,236.134 		"/>
	</g>
	<g>
		<g>
			<path style="fill:#8FC4E6;" d="M113.176,26.922h-9.324l3.311-5.433c0.287-0.471,0.138-1.085-0.333-1.373
				c-0.471-0.287-1.086-0.138-1.373,0.333l-3.944,6.472h-2.458l-3.944-6.472c-0.287-0.471-0.901-0.62-1.373-0.333
				c-0.471,0.287-0.62,0.902-0.333,1.373l3.311,5.433h-9.324c-1.207,0-2.188,0.981-2.188,2.188v18.061
				c0,1.206,0.981,2.188,2.188,2.188h25.784c1.206,0,2.188-0.981,2.188-2.188V29.11C115.364,27.904,114.382,26.922,113.176,26.922
				L113.176,26.922z M106.354,44.546c0,0.657-0.533,1.19-1.19,1.19H89.943c-0.657,0-1.189-0.532-1.189-1.19V31.735
				c0-0.657,0.533-1.19,1.19-1.19h15.221c0.657,0,1.19,0.532,1.19,1.19V44.546z M110.756,44.166c-1.138,0-2.064-0.926-2.064-2.064
				c0-1.138,0.926-2.064,2.064-2.064c1.138,0,2.064,0.926,2.064,2.064C112.82,43.24,111.894,44.166,110.756,44.166L110.756,44.166z
				 M110.756,36.243c-1.138,0-2.064-0.926-2.064-2.064s0.926-2.064,2.064-2.064c1.138,0,2.064,0.926,2.064,2.064
				S111.894,36.243,110.756,36.243L110.756,36.243z M110.756,36.243"/>
		</g>
	</g>
	<g>
		<g>
			<path style="fill:#8FC4E6;" d="M407.138,251.434h-9.324l3.311-5.433c0.287-0.471,0.138-1.085-0.333-1.373
				c-0.471-0.287-1.086-0.138-1.373,0.333l-3.944,6.472h-2.458l-3.944-6.472c-0.287-0.471-0.901-0.62-1.373-0.333
				c-0.471,0.287-0.62,0.902-0.333,1.373l3.311,5.433h-9.324c-1.207,0-2.188,0.981-2.188,2.188v18.061
				c0,1.206,0.981,2.188,2.188,2.188h25.784c1.206,0,2.188-0.981,2.188-2.188v-18.061
				C409.326,252.416,408.344,251.434,407.138,251.434L407.138,251.434z M400.316,269.058c0,0.657-0.533,1.19-1.189,1.19h-15.221
				c-0.657,0-1.189-0.532-1.189-1.19v-12.811c0-0.657,0.533-1.19,1.19-1.19h15.221c0.657,0,1.189,0.532,1.189,1.19V269.058z
				 M404.718,268.678c-1.138,0-2.064-0.926-2.064-2.064c0-1.138,0.926-2.064,2.064-2.064c1.138,0,2.064,0.926,2.064,2.064
				C406.782,267.752,405.856,268.678,404.718,268.678L404.718,268.678z M404.718,260.755c-1.138,0-2.064-0.926-2.064-2.064
				c0-1.138,0.926-2.064,2.064-2.064c1.138,0,2.064,0.926,2.064,2.064C406.782,259.83,405.856,260.755,404.718,260.755
				L404.718,260.755z M404.718,260.755"/>
		</g>
	</g>
</g>
<g id="DESIGNED_BY_FREEPIK">
	<g>
	</g>
	<g>
	</g>
	<g>
	</g>
	<g>
	</g>
	<g>
	</g>
	<g>
	</g>
</g>
</svg>
