<svg width="605.25" height="479.48" xmlns="http://www.w3.org/2000/svg">
 <defs>
  <linearGradient y2="0" x2="0.49999" y1="1.00003" x1="0.49999" id="c07350d9-0c50-4d35-b63a-3c71f5ac29f1">
   <stop stop-opacity="0.25" stop-color="gray" offset="0"/>
   <stop stop-opacity="0.12" stop-color="gray" offset="0.54"/>
   <stop stop-opacity="0.1" stop-color="gray" offset="1"/>
  </linearGradient>
 </defs>
 <title>broadcast</title>
 <g>
  <title>background</title>
  <rect fill="none" id="canvas_background" height="481.48" width="607.25" y="-1" x="-1"/>
 </g>
 <g>
  <title>Layer 1</title>
  <path id="svg_1" fill="#18aebf" d="m525.14,99.38a84.83,84.83 0 0 1 31.57,57.89a6.66,6.66 0 0 0 6.82,6l10.24,-0.3a6.68,6.68 0 0 0 6.46,-7.31a108.65,108.65 0 0 0 -113.2,-98.3a6.69,6.69 0 0 0 -6.34,7.42l1.14,10.18a6.65,6.65 0 0 0 6.85,5.92a84.79,84.79 0 0 1 56.46,18.5z"/>
  <path id="svg_2" fill="#18aebf" d="m516.97,109.62a84.78,84.78 0 0 0 -55.4,-18.56a6.67,6.67 0 0 0 -6.42,7.42l0.85,7.59a6.66,6.66 0 0 0 6.74,5.92a64.15,64.15 0 0 1 64.79,56.22a6.68,6.68 0 0 0 6.81,5.89l7.63,-0.22a6.66,6.66 0 0 0 6.45,-7.37a84.82,84.82 0 0 0 -31.45,-56.89z"/>
  <path id="svg_3" fill="#18aebf" d="m485.11,149.54a47,47 0 0 1 17.15,29.52a6.73,6.73 0 0 0 6.81,5.77l3.69,-0.11a6.69,6.69 0 0 0 6.41,-7.69a64.15,64.15 0 0 0 -63.32,-54.82a6.64,6.64 0 0 0 -6.52,7.42l0.41,3.68a6.73,6.73 0 0 0 6.67,5.93a46.94,46.94 0 0 1 28.7,10.3z"/>
  <path id="svg_4" fill="#18aebf" d="m85.12,100.38a84.83,84.83 0 0 0 -31.57,57.89a6.66,6.66 0 0 1 -6.82,6l-10.24,-0.3a6.68,6.68 0 0 1 -6.46,-7.31a108.65,108.65 0 0 1 113.2,-98.3a6.69,6.69 0 0 1 6.34,7.42l-1.14,10.16a6.65,6.65 0 0 1 -6.85,5.92a84.79,84.79 0 0 0 -56.46,18.52z"/>
  <path id="svg_5" fill="#18aebf" d="m93.29,110.62a84.78,84.78 0 0 1 55.4,-18.56a6.67,6.67 0 0 1 6.42,7.42l-0.85,7.59a6.66,6.66 0 0 1 -6.74,5.92a64.15,64.15 0 0 0 -64.79,56.22a6.68,6.68 0 0 1 -6.81,5.89l-7.63,-0.22a6.66,6.66 0 0 1 -6.45,-7.37a84.82,84.82 0 0 1 31.45,-56.89z"/>
  <path id="svg_6" fill="#18aebf" d="m125.15,150.54a47,47 0 0 0 -17.15,29.52a6.73,6.73 0 0 1 -6.81,5.77l-3.69,-0.11a6.69,6.69 0 0 1 -6.41,-7.69a64.15,64.15 0 0 1 63.32,-54.82a6.64,6.64 0 0 1 6.52,7.42l-0.41,3.68a6.73,6.73 0 0 1 -6.67,5.93a46.94,46.94 0 0 0 -28.7,10.3z"/>
  <rect id="svg_8" fill="url(#c07350d9-0c50-4d35-b63a-3c71f5ac29f1)" ry="44.36" rx="44.36" height="304.56" width="366.73" y="148.23" x="120.96"/>
  <rect id="svg_9" fill="#fff" ry="44.36" rx="44.36" height="295.61" width="358.31" y="152.71" x="125.44"/>
  <path id="svg_10" fill="#e0e0e0" d="m321.1,275.35a4.76,4.76 0 0 1 4.75,4.75l0,40.83a4.76,4.76 0 0 1 -4.75,4.75l-36.94,0a4.76,4.76 0 0 1 -4.75,-4.75l0,-40.83a4.76,4.76 0 0 1 4.75,-4.75l36.95,0m0,-2l-36.95,0a6.75,6.75 0 0 0 -6.75,6.75l0,40.83a6.75,6.75 0 0 0 6.75,6.75l36.95,0a6.75,6.75 0 0 0 6.75,-6.75l0,-40.83a6.75,6.75 0 0 0 -6.75,-6.75z"/>
  <line id="svg_11" stroke-width="2" stroke-miterlimit="10" stroke-linecap="round" stroke="#18aebf" fill="none" y2="299.88" x2="302.63" y1="288.42" x1="302.63"/>
  <path id="svg_12" stroke-width="2" stroke-miterlimit="10" stroke-linecap="round" stroke="#18aebf" fill="none" d="m307.43,293.44a10.19,10.19 0 1 1 -9.42,-0.09"/>
 </g>
</svg>