<?xml version="1.0" standalone="no"?>
<!DOCTYPE svg PUBLIC "-//W3C//DTD SVG 20010904//EN"
 "http://www.w3.org/TR/2001/REC-SVG-20010904/DTD/svg10.dtd">
<svg version="1.0" xmlns="http://www.w3.org/2000/svg"
 width="688.000000pt" height="511.000000pt" viewBox="0 0 688.000000 511.000000"
 preserveAspectRatio="xMidYMid meet">

<g transform="translate(0.000000,511.000000) scale(0.100000,-0.100000)"
fill="#000000" stroke="none">
<path d="M5482 3959 c-83 -42 -169 -164 -180 -254 -8 -75 1 -92 55 -100 37 -5
48 -4 55 9 11 20 62 21 78 1 8 -10 10 -34 5 -79 -7 -63 -6 -66 23 -96 29 -29
34 -30 116 -30 102 0 122 7 182 62 119 109 128 289 18 342 -24 11 -50 36 -66
62 -40 65 -97 98 -177 102 -52 2 -75 -1 -109 -19z"/>
<path d="M5181 1913 c0 -49 10 -427 23 -842 21 -718 23 -754 42 -768 10 -8 27
-12 37 -9 9 2 17 0 17 -5 0 -5 -27 -9 -60 -9 -87 0 -132 -29 -154 -97 l-7 -23
180 0 181 0 0 60 c0 65 6 61 -95 73 -16 2 -5 5 26 6 99 2 89 -57 117 657 14
346 29 633 33 638 5 5 12 7 16 3 3 -4 37 -289 74 -634 59 -552 69 -628 85
-641 14 -10 43 -13 102 -10 69 2 86 6 98 22 11 16 14 70 14 275 0 328 -27 736
-78 1188 l-17 152 -50 -34 c-125 -86 -267 -98 -405 -34 -41 19 -99 53 -127 77
l-53 42 1 -87z"/>
<path d="M5688 281 c-56 -5 -83 -12 -98 -26 -23 -21 -50 -67 -50 -85 0 -6 59
-10 175 -10 l175 0 0 59 c0 44 -4 60 -16 65 -18 7 -75 6 -186 -3z"/>
</g>
</svg>
