<svg xmlns="http://www.w3.org/2000/svg" width="365" height="181" fill="none"  xmlns:v="https://vecta.io/nano"><g clip-path="url(#A)"><g fill-rule="evenodd"><g fill="#342f2e"><path d="M6.434 147.3c1.758.115 2.675 1.189 2.675 3.107 0 1.879-.917 2.837-2.675 2.991v3.413c4.585-.23 6.764-2.569 6.764-6.404 0-3.874-2.178-6.213-6.764-6.443v3.336zm-2.675-.038h2.255c.153 0 .306 0 .42.038v-3.336c-.267-.039-.573-.039-.841-.039H-.33v21.63h4.089v-8.706h1.834l.841-.038v-3.413h-.42-2.255v-6.136zm24.15 0c1.72 0 2.675.652 2.675 3.029v8.821c0 2.493-.955 3.107-2.675 3.107v3.681c4.05 0 6.84-1.956 6.84-7.325v-7.747c0-5.292-2.79-7.21-6.84-7.21v3.644zm-2.713 3.029c0-2.377 1.108-3.029 2.713-3.029v-3.644c-3.974 0-6.764 1.918-6.764 7.21v7.747c0 5.369 2.79 7.325 6.764 7.325v-3.681c-1.605 0-2.713-.614-2.713-3.107v-8.821zm21.59 15.264h3.974l3.324-14.842 2.981 14.842h3.974l4.815-21.63h-3.859l-2.866 14.113h-.115l-3.019-14.113h-3.974l-2.904 14.113h-.076l-2.904-14.113h-3.859l4.509 21.63zm38.594 0v-3.643h-7.49v-5.715h5.464v-3.643H77.89v-4.947h7.184v-3.682H73.802v21.63H85.38zm15.399-18.255c1.605.115 2.522 1.074 2.522 2.991 0 1.995-.917 2.877-2.522 2.992v4.87l3.057 7.402h4.395l-4.051-9.664c2.331-.882 3.21-2.8 3.21-5.484 0-3.912-2.14-6.252-6.611-6.443v3.336zm-2.522-.038h2.14c.153 0 .268 0 .382.038v-3.336c-.229-.039-.458-.039-.688-.039h-5.999v21.63h4.165v-8.821h1.949l.573 1.419v-4.87h-.382-2.14v-6.021zm38.021 0c1.682.038 2.752.69 2.752 3.029v8.821c0 2.455-1.07 3.107-2.752 3.107v3.681c4.051-.038 6.84-1.956 6.84-7.325v-7.747c0-5.254-2.789-7.21-6.84-7.21v3.644zm-2.713 3.029c0-2.377 1.07-3.029 2.675-3.029h.038v-3.644h-.038c-3.974 0-6.763 1.918-6.763 7.21v7.747c0 5.369 2.789 7.325 6.763 7.325h.038v-3.681h-.038c-1.605 0-2.675-.614-2.675-3.107v-8.821zm22.393 15.264v-9.358h5.158v-3.643h-5.158v-4.947h6.687v-3.682h-10.853v21.63h4.166zm41.078-16.682c-.726-3.107-2.981-5.255-6.649-5.255-4.28 0-6.535 2.378-6.535 6.022 0 6.136 9.248 6.136 9.248 10.239 0 1.611-1.108 2.57-2.484 2.57-1.299 0-2.79-.959-3.21-3.567l-4.089.882c1.07 4.295 3.669 6.136 7.07 6.136 4.318 0 6.878-2.493 6.878-6.251 0-6.788-9.209-6.98-9.209-10.24 0-1.495.726-2.339 2.254-2.339 1.376 0 2.331.844 2.981 2.876l3.745-1.073zm12.686 16.682v-21.63h-4.203v21.63h4.203zm11.884 0v-16.989L226 165.555h3.134l4.394-16.989h.115v16.989h3.515v-21.63h-5.77l-3.783 14.228h-.076l-3.669-14.228h-5.77v21.63h3.516zm30.379-18.255c1.757.115 2.674 1.189 2.674 3.107 0 1.879-.917 2.837-2.674 2.991v3.413c4.547-.23 6.763-2.569 6.763-6.404 0-3.874-2.216-6.213-6.763-6.443v3.336zm-2.675-.038h2.216c.153 0 .306 0 .459.038v-3.336c-.306-.039-.574-.039-.879-.039h-5.885v21.63h4.089v-8.706h1.796l.879-.038v-3.413h-.459-2.216v-6.136zm26.901 18.293v-3.643h-6.534v-17.987h-4.204v21.63h10.738zm11.387 0v-21.63h-4.088v21.63h4.088zm11.884-15.264c0-2.377 1.07-3.029 2.713-3.029 1.682 0 2.752.652 2.752 3.029v.652h4.088v-.115c0-5.292-2.789-7.21-6.84-7.21-3.974 0-6.763 1.918-6.763 7.21v7.747c0 5.369 2.789 7.325 6.763 7.325 4.051 0 6.84-1.956 6.84-7.325v-.843h-4.088v1.38c0 2.493-1.07 3.107-2.752 3.107-1.643 0-2.713-.614-2.713-3.107v-8.821zm22.66 15.264v-21.63h-4.089v21.63h4.089zm7.49-21.63v3.682h4.814v17.948h4.089v-17.948h4.815v-3.682h-13.718zm24.15 0h-4.395l5.885 12.924v8.706h4.203v-8.706l5.885-12.924h-4.394l-3.554 8.744-3.63-8.744z"/></g><path d="M147.666 65.038c2.827-2.071 8.941-9.741 9.247-10.393.458-.767 1.643-2.071.229-3.375s-2.522-.537-4.012.23c-1.223.575-5.77 4.104-8.942 6.635V43.14c2.446-1.265 5.579-3.03 7.719-3.221 2.598-.23 6.19.115 9.782 3.068s5.656 6.213 6.114 7.287c.421 1.227 1.949 5.599-.535 8.514-2.636 2.953-9.897 10.048-9.897 10.048s-2.866 1.764-1.528 3.835c1.299 2.186 6.076-1.304 7.719-2.416 1.528-1.189 9.897-8.59 12.495-11.122l20.329-20.748c1.414-1.534 14.903-15.609 16.89-16.913 1.949-1.304 2.713-2.301 6.305-1.534 3.706.767 5.846 2.071 5.846 2.071s3.821 1.534.764 4.027c-3.018 2.416-13.259 11.39-15.743 14.19l-12.419 13.346c-2.407 2.838-9.018 11.237-10.126 12.886-1.07 1.649-1.605 3.375 0 4.564 1.643 1.112 4.471-.115 7.528-2.723 3.057-2.493 11.845-10.585 15.017-13.768 3.133-3.26 19.985-20.057 21.513-21.476 1.529-1.342 9.362-7.862 9.362-7.862s.994-1.419 3.287-1.419c2.254 0 4.547.422 5.961.959 1.414.652 3.936 2.186 3.936 2.186s1.604.767-1.109 2.838-16.66 13.653-20.443 17.91c-3.821 4.257-11.425 13.001-14.253 17.028-2.828 4.065-4.777 5.791-2.599 8.514 2.178 2.646 4.777 2.071 6.076 1.649 1.299-.537 5.656-3.72 8.827-7.095 3.134-3.375 13.03-14.42 14.024-15.724 1.07-1.304 4.662-5.139 4.662-5.139s.764-1.534 2.828-1.534 3.4.345 5.464.767c2.063.46 6.534 1.419 4.012 4.065-2.598 2.723-8.712 9.281-10.011 10.892-1.3 1.649-6.535 7.67-7.49 9.396-.994 1.841-2.293 3.835-.994 4.717 1.414.844 4.662-.345 8.063-2.301 3.248-1.879 8.139-5.139 12.381-9.166l11.12-10.508s1.184-2.608 6.075-1.534c4.892 1.227 6.076 1.879 6.076 1.879s3.821 1.074 1.338 3.375L274.3 70.484c-3.286 3.26-13.183 13.883-14.902 15.915-1.758 2.109-6.42 6.788-4.471 7.018 1.949.192 16.66 3.145 20.138 4.142s15.017 5.024 15.972 5.561c.917.422 2.981.997 3.172 2.915v.575s-2.178 4.717-2.942 5.024c-.879.46-2.408.46-5.885-.997-3.363-1.381-18.915-5.561-23.157-6.443-4.126-.844-13.718-2.493-13.718-2.493s-1.184-.767-3.171 2.416c-1.949 3.26-8.14 12.541-8.14 12.541s-.458 1.304-1.528 1.304c-1.185 0-6.19-.307-8.063-1.419-1.949-1.074-2.369-.959-1.299-3.03 1.223-2.071 5.541-11.045 7.413-12.886 1.72-1.764-1.223-1.342-2.178-1.534-.879-.23-19.679-1.227-25.258-1.112l-31.945.575c-5.044.307-19.833 1.725-30.15 2.877v-9.511c3.057-.345 5.808-.575 7.948-.69l46.352-2.071c9.858.115 23.691.767 29.576 1.304l10.852.882c1.223.192 1.337-.69 2.407-2.071 1.185-1.419 4.892-6.443 4.892-6.443s1.222-1.994-1.185-.345c-2.293 1.649-6.114 1.764-8.063-.115-1.834-1.956-2.713-3.605-3.592-2.915-.879.537-4.432 2.263-6.305 2.915-1.949.767-10.202 2.723-15.132-.767-4.967-3.605-5.082-4.909-5.732-6.635-.649-1.649-.993-1.534-2.636-.46-1.643 1.112-7.184 3.95-9.248 4.947-2.063.844-3.591 1.726-6.839 1.381-3.172-.192-6.726-1.189-8.254-3.912-1.414-2.723-1.643-4.679-3.401-3.49-1.72 1.304-10.738 6.75-15.552 8.169-4.892 1.534-6.076 2.186-8.789 1.649-2.828-.422-5.77-1.649-6.84-3.375-.191-.269-.344-.499-.459-.729V67.493c1.414-.959 2.675-1.841 3.478-2.454zm-3.478-46.634c3.745.192 9.783.652 12.725.882l14.138.882c3.822.192 2.713-1.764 2.713-1.764s.23-2.493-.84-5.331c-1.108-2.761-2.178-2.416-2.178-2.416-4.28-1.227-18.189-2.186-26.558-2.531v10.278zm0 39.731l-2.178 1.764c-2.484 2.071-8.903 7.977-8.903 7.977s-3.478 3.145-2.293 4.794c1.299 1.534 2.407.997 4.356.422 1.299-.383 5.617-3.221 9.018-5.599v11.659c-.726-1.112-.955-1.304-2.063-.46-1.185 1.074-4.662 3.797-7.299 3.567-2.598-.307-9.362-2.071-13.03-9.166-3.707-7.172-1.108-10.125 2.254-13.73 3.287-3.49 9.171-8.744 9.171-8.744s7.261-5.676 9.783-6.865c.344-.192.764-.384 1.184-.614v14.995zm0-50.009c-2.101-.115-3.859-.192-5.006-.192-5.884 0-27.971 1.304-32.518 1.726-4.586.46-19.03 3.068-21.666 3.605-2.484.652-1.07 2.416-1.07 2.416s2.713 2.953 3.898 4.027c1.108 1.227 3.057 3.95 5.77 2.723 2.828-1.189 17.081-2.723 21.781-3.26 4.662-.537 8.789.115 8.789.115l-14.444 19.751c-2.064 2.838-12.648 18.025-14.712 21.285-2.063 3.298-6.955 11.697-9.133 15.954-2.178 4.142 1.414 3.835 1.414 3.835s8.483.307 10.355.192c1.72-.115 2.064-1.189 2.369-1.841.229-.652.879-2.416 2.407-5.139 1.529-2.838 5.235-8.936 9.133-15.609 4.012-6.673 8.598-13.001 12.19-18.025 3.592-5.139 7.833-10.815 8.789-12.119.993-1.419 5.005-6.75 5.884-8.054.879-1.227 1.299-1.112 2.713-1.227.459-.038 1.567.038 3.057.115V8.126zm0 83.796v9.511c-3.897.422-7.184.844-9.018 1.15-6.763 1.189-33.932 5.216-37.639 5.983l-11.005 2.186s-3.592.882-7.26-.767c-2.522-1.227-6.114-2.761-6.343-4.142v-.268c.076-.499.611-.959 1.872-1.381 5.006-1.611 29.041-6.635 36.531-7.747 5.923-.92 21.59-3.298 32.862-4.525z" fill="#c5262c"/><g fill="#342f2e"><path d="M145.602 61.74c2.828-2.071 8.904-9.703 9.247-10.355.459-.652 1.644-1.956.23-3.375-1.414-1.342-2.522-.575-4.051.192-1.184.614-5.732 4.18-8.903 6.711V39.88c2.407-1.266 5.502-3.068 7.719-3.26 2.483-.077 6.19.115 9.782 3.068s5.541 6.251 6.114 7.44c.42 1.074 1.949 5.446-.65 8.399-2.522 2.953-9.782 10.048-9.782 10.048s-2.981 1.841-1.529 3.912c1.3 2.071 6.076-1.304 7.605-2.493 1.643-1.074 10.011-8.629 12.61-11.122 2.483-2.646 18.8-19.252 20.214-20.633 1.414-1.534 14.903-15.724 17.004-17.066 1.949-1.304 2.713-2.263 6.305-1.496s5.77 2.071 5.77 2.071 3.783 1.534.726 4.027c-2.904 2.493-13.145 11.467-15.667 14.19l-12.38 13.308c-2.408 2.838-9.133 11.275-10.127 12.886-1.069 1.649-1.643 3.49 0 4.602 1.644 1.189 4.471-.115 7.528-2.646 3.019-2.608 11.846-10.585 14.979-13.845 3.057-3.26 20.024-20.096 21.552-21.4 1.529-1.419 9.362-7.977 9.362-7.977s.994-1.419 3.248-1.419c2.293 0 4.586.46 5.999 1.112 1.414.537 3.898 2.186 3.898 2.186s1.643.652-1.07 2.723-16.737 13.653-20.558 17.91c-3.707 4.257-11.311 13.077-14.253 17.028-2.828 4.027-4.662 5.868-2.484 8.514 2.178 2.723 4.777 2.071 6.076 1.611 1.299-.422 5.655-3.682 8.827-7.095 3.133-3.26 13.03-14.266 14.024-15.685 1.07-1.342 4.661-5.139 4.661-5.139s.765-1.534 2.828-1.534 3.401.307 5.465.767c2.063.537 6.496 1.419 4.012 4.142-2.599 2.608-8.713 9.166-10.012 10.815s-6.534 7.632-7.489 9.473c-.994 1.764-2.293 3.835-.994 4.602 1.299.882 4.662-.345 7.948-2.301 3.363-1.841 8.254-5.139 12.496-9.051l11.119-10.47s1.07-2.761 6.076-1.534c4.891 1.074 6.076 1.726 6.076 1.726s3.821 1.112 1.337 3.49l-14.253 13.538c-3.286 3.183-13.183 13.768-14.903 15.839-1.757 2.186-6.419 6.788-4.47 6.98 1.948.23 16.622 3.298 20.137 4.257 3.478.882 14.979 5.024 15.973 5.484.764.461 2.789 1.036 3.057 2.723v.767s-2.063 4.679-2.942 5.101c-.879.345-2.408.345-5.77-1.074s-18.915-5.561-23.157-6.328c-4.165-.882-13.718-2.608-13.718-2.608s-1.185-.767-3.172 2.492l-8.139 12.464s-.458 1.304-1.528 1.304c-1.185 0-6.191-.345-8.063-1.419-1.949-.997-2.369-.882-1.299-3.068 1.184-2.071 5.54-11.007 7.298-12.886 1.834-1.726-1.108-1.304-2.063-1.534-.994-.077-19.68-1.189-25.259-1.074l-31.983.537c-5.006.384-19.794 1.764-30.111 2.953v-9.549c3.057-.345 5.808-.614 7.948-.729 9.782-.537 36.301-2.071 46.313-1.956 9.897.115 23.73.767 29.614 1.227 5.847.422 9.783.729 10.853.959 1.222.23 1.337-.652 2.407-2.071 1.185-1.419 4.891-6.558 4.891-6.558s1.185-1.841-1.184-.192c-2.408 1.496-6.229 1.611-8.063-.23-1.949-1.956-2.713-3.49-3.592-2.953s-4.433 2.416-6.42 3.068c-1.834.652-10.126 2.608-15.017-.882-5.006-3.49-5.082-4.909-5.77-6.558-.65-1.726-.955-1.611-2.599-.537-1.643 1.189-7.183 3.95-9.247 4.909-2.063.997-3.592 1.764-6.84 1.534-3.171-.345-6.763-1.304-8.254-4.027-1.528-2.761-1.643-4.717-3.401-3.413-1.719 1.227-10.737 6.788-15.552 8.207-4.891 1.419-6.076 2.071-8.789 1.649-2.827-.575-5.884-1.764-6.878-3.528-.153-.23-.306-.498-.42-.69V64.194l3.477-2.455zm-3.477-46.634c3.745.192 9.782.652 12.724.882 4.242.345 10.318.575 14.139.882 3.821.345 2.713-1.726 2.713-1.726s.229-2.531-.841-5.254c-1.222-2.838-2.178-2.416-2.178-2.416-4.356-1.304-18.227-2.263-26.557-2.569v10.201zm0 39.808c-.879.652-1.605 1.266-2.178 1.688-2.484 2.109-8.904 7.977-8.904 7.977s-3.515 3.183-2.292 4.832c1.184 1.611 2.369.959 4.241.422 1.376-.383 5.694-3.26 9.133-5.638v11.697c-.726-1.151-1.07-1.304-2.064-.383-1.184.997-4.7 3.835-7.298 3.49-2.713-.307-9.477-1.956-13.145-9.166-3.707-7.095-.994-10.163 2.254-13.653 3.401-3.605 9.248-8.859 9.248-8.859s7.298-5.561 9.82-6.865c.344-.153.764-.383 1.185-.575v15.033zm0-50.009c-2.102-.115-3.86-.153-5.006-.153h-1.796c-7.642.115-26.557 1.266-30.723 1.649-4.585.422-19.029 3.068-21.666 3.72-2.598.652-1.07 2.301-1.07 2.301l3.898 4.142c1.108 1.074 3.057 3.912 5.77 2.723 2.828-1.304 17.081-2.723 21.781-3.375 4.662-.537 8.674.077 8.674.077l-14.33 19.904c-2.101 2.723-12.648 17.986-14.711 21.17-2.064 3.26-6.955 11.774-9.247 15.954-2.178 4.142 1.528 3.912 1.528 3.912l10.317.23c1.758-.115 2.102-1.304 2.293-1.956.344-.69.993-2.416 2.522-5.139 1.528-2.761 5.12-8.859 9.133-15.532 4.012-6.635 8.597-13.077 12.189-18.101l8.789-12.119c.994-1.304 5.006-6.788 5.885-7.977.879-1.304 1.184-1.189 2.713-1.304.458-.038 1.567 0 3.057.077V4.904zm0 83.758v9.549l-9.133 1.189-37.524 6.021c-3.707.767-11.005 2.071-11.005 2.071s-3.707.959-7.299-.767c-2.484-1.227-6.076-2.761-6.305-4.103v-.269c.076-.46.611-.92 1.872-1.304 5.006-1.649 29.042-6.673 36.531-7.862l32.863-4.525z"/><path d="M121.987 15.988s-4.012-.614-8.674-.077c-4.7.652-18.953 2.071-21.781 3.375-2.713 1.189-4.662-1.649-5.77-2.723-1.185-1.189-3.898-4.142-3.898-4.142s-1.528-1.649 1.07-2.301c2.637-.652 17.081-3.298 21.666-3.72 4.166-.384 23.081-1.534 30.723-1.649h1.796c5.77 0 26.099 1.112 31.563 2.723 0 0 .955-.422 2.178 2.416 1.07 2.723.841 5.254.841 5.254s1.108 2.071-2.713 1.726c-3.821-.307-9.897-.537-14.139-.882-4.127-.307-14.253-1.074-15.781-.959s-1.834 0-2.713 1.304l-5.885 7.977-8.789 12.119c-3.592 5.024-8.177 11.467-12.189 18.101l-9.133 15.532c-1.529 2.723-2.178 4.449-2.522 5.139-.191.652-.535 1.841-2.293 1.956-1.834 0-10.317-.23-10.317-.23s-3.707.23-1.528-3.912c2.293-4.18 7.184-12.694 9.247-15.954 2.063-3.183 12.61-18.447 14.711-21.169 1.949-2.838 14.33-19.904 14.33-19.904zm23.615 45.752l-3.477 2.455v11.697l.42.69c.994 1.764 4.051 2.953 6.878 3.528 2.713.422 3.898-.23 8.789-1.649 4.815-1.419 13.833-6.98 15.552-8.207 1.758-1.304 1.873.652 3.401 3.413 1.491 2.723 5.082 3.682 8.254 4.027 3.248.23 4.777-.537 6.84-1.534 2.064-.959 7.604-3.72 9.247-4.909 1.644-1.074 1.949-1.189 2.599.537.688 1.649.764 3.068 5.77 6.558 4.891 3.49 13.183 1.534 15.017.882 1.987-.652 5.541-2.531 6.42-3.068s1.643.997 3.592 2.953c1.834 1.841 5.655 1.726 8.063.23 2.369-1.649 1.184.192 1.184.192s-3.706 5.139-4.891 6.558c-1.07 1.419-1.185 2.301-2.407 2.071-1.07-.23-5.006-.537-10.853-.959-5.884-.46-19.717-1.112-29.614-1.227-10.012-.115-36.531 1.419-46.313 1.956-2.14.115-4.891.383-7.948.729v9.549c10.317-1.189 25.105-2.569 30.111-2.953 6.993-.422 26.443-.422 31.983-.537 5.579-.115 24.265.997 25.259 1.074.955.23 3.897-.192 2.063 1.534-1.758 1.879-6.114 10.815-7.298 12.886-1.07 2.186-.65 2.071 1.299 3.068 1.872 1.074 6.878 1.419 8.063 1.419 1.07 0 1.528-1.304 1.528-1.304l8.139-12.464c1.987-3.26 3.172-2.492 3.172-2.492l13.718 2.608c4.242.767 19.794 4.909 23.157 6.328s4.891 1.419 5.77 1.074c.878-.422 2.942-5.101 2.942-5.101v-.767c-.268-1.687-2.293-2.262-3.057-2.722-.994-.46-12.495-4.602-15.973-5.484-3.515-.959-18.189-4.027-20.138-4.257-1.948-.192 2.714-4.794 4.471-6.98 1.72-2.071 11.617-12.656 14.903-15.839 3.248-3.26 11.731-11.122 14.253-13.538 2.484-2.378-1.337-3.49-1.337-3.49s-1.185-.652-6.076-1.726c-5.006-1.227-6.076 1.534-6.076 1.534l-11.119 10.47c-4.242 3.912-9.133 7.21-12.496 9.051-3.286 1.956-6.649 3.183-7.948 2.301-1.299-.767 0-2.838.994-4.602.955-1.841 6.19-7.824 7.489-9.473s7.413-8.207 10.012-10.815c2.484-2.723-1.949-3.605-4.013-4.142-2.063-.46-3.4-.767-5.464-.767s-2.828 1.534-2.828 1.534-3.592 3.797-4.661 5.139c-.994 1.419-10.891 12.426-14.024 15.685-3.172 3.413-7.528 6.673-8.827 7.095-1.3.46-3.898 1.112-6.076-1.611-2.178-2.646-.344-4.487 2.484-8.514 2.942-3.95 10.546-12.771 14.253-17.028 3.821-4.257 17.845-15.839 20.558-17.91s1.07-2.723 1.07-2.723-2.484-1.649-3.898-2.186c-1.414-.652-3.706-1.112-5.999-1.112-2.255 0-3.248 1.419-3.248 1.419l-9.362 7.977c-1.528 1.304-18.495 18.14-21.552 21.4-3.133 3.26-11.96 11.237-14.979 13.845-3.057 2.531-5.884 3.835-7.528 2.646-1.643-1.112-1.07-2.953 0-4.602.994-1.611 7.719-10.048 10.127-12.886s9.782-10.585 12.38-13.308c2.522-2.723 12.763-11.697 15.667-14.19 3.057-2.493-.726-4.027-.726-4.027s-2.178-1.304-5.77-2.071-4.356.192-6.305 1.496c-2.101 1.342-15.59 15.532-17.004 17.066-1.414 1.381-17.731 17.986-20.214 20.633-2.599 2.493-10.967 10.048-12.61 11.122-1.529 1.189-6.305 4.564-7.605 2.493-1.452-2.071 1.529-3.912 1.529-3.912s7.26-7.095 9.782-10.048c2.599-2.953 1.07-7.325.65-8.399-.573-1.189-2.522-4.487-6.114-7.44s-7.299-3.145-9.782-3.068c-2.217.192-5.312 1.994-7.719 3.26v15.033c3.171-2.531 7.719-6.098 8.903-6.711 1.529-.767 2.637-1.534 4.051-.192 1.414 1.419.229 2.723-.23 3.375-.344.652-6.419 8.284-9.247 10.355zm-3.477 2.455c-3.439 2.378-7.757 5.254-9.133 5.637-1.872.537-3.057 1.189-4.241-.422-1.223-1.649 2.292-4.832 2.292-4.832l8.904-7.977c.573-.422 1.299-1.035 2.178-1.687V39.88c-.421.192-.841.422-1.185.575-2.522 1.304-9.82 6.865-9.82 6.865s-5.847 5.254-9.248 8.859c-3.248 3.49-5.961 6.558-2.254 13.653 3.668 7.21 10.432 8.859 13.145 9.166 2.598.345 6.114-2.493 7.298-3.49.994-.92 1.338-.767 2.064.383V64.195zm0 24.468v9.549l-9.133 1.189-37.524 6.021c-3.706.767-11.005 2.071-11.005 2.071s-3.707.959-7.299-.767c-2.484-1.227-6.076-2.761-6.305-4.103v-.269c.076-.46.611-.92 1.872-1.304 5.006-1.649 29.042-6.673 36.531-7.862l32.863-4.525z"/></g></g><path d="M311.404 37.119c1.835 0 3.592.46 5.35 1.419 1.72.92 3.057 2.263 4.051 4.027.955 1.726 1.452 3.567 1.452 5.446s-.497 3.682-1.452 5.407-2.293 3.068-4.013 4.027-3.515 1.457-5.388 1.457-3.668-.498-5.388-1.457-3.056-2.301-4.012-4.027-1.452-3.528-1.452-5.407.497-3.72 1.452-5.446c.994-1.764 2.331-3.106 4.089-4.027 1.719-.959 3.477-1.419 5.311-1.419zm0 1.803c-1.528 0-3.018.384-4.432 1.189a8.16 8.16 0 0 0-3.401 3.337c-.803 1.457-1.223 2.991-1.223 4.564s.42 3.068 1.223 4.487c.802 1.457 1.911 2.569 3.324 3.375 1.452.805 2.943 1.227 4.509 1.227s3.057-.422 4.509-1.227c1.414-.805 2.561-1.918 3.363-3.375.764-1.419 1.185-2.915 1.185-4.487s-.421-3.106-1.223-4.564-1.949-2.569-3.401-3.337c-1.452-.805-2.904-1.189-4.433-1.189zm-4.738 15.072V42.335h4.012c1.338 0 2.331.077 2.943.307.649.23 1.108.575 1.49 1.151.344.537.535 1.074.535 1.687a3.08 3.08 0 0 1-.917 2.224c-.612.652-1.414.997-2.408 1.074.383.192.727.383.994.614.459.46 1.032 1.227 1.72 2.339l1.413 2.263h-2.292l-1.032-1.841c-.803-1.419-1.49-2.339-1.987-2.723-.344-.268-.841-.383-1.49-.383h-1.109v4.947h-1.872zm1.872-6.558h2.293c1.07 0 1.834-.153 2.217-.499.42-.307.611-.767.611-1.304 0-.345-.115-.652-.306-.92s-.458-.46-.802-.614c-.344-.115-.956-.192-1.873-.192h-2.14v3.528z" fill="#000"/></g><defs><clipPath id="A"><path fill="#fff" d="M0 0h365v181H0z"/></clipPath></defs></svg>