<svg width="624" height="584.73152" xmlns="http://www.w3.org/2000/svg">
 <g>
  <title>background</title>
  <rect x="-1" y="-1" width="626" height="586.73152" id="canvas_background" fill="none"/>
 </g>

 <g>
  <title>Layer 1</title>
  <path d="m590.20889,496.96302l-560.41778,0a18.79111,18.79111 0 0 1 -18.79111,-18.79111l0,0q304.727,-35.41512 598,0l0,0a18.79111,18.79111 0 0 1 -18.79111,18.79111z" fill="#2f2e41" id="svg_3"/>
  <path d="m609,479.27726l-598,-1.10536l69.30611,-116.61553l0.3316,-0.55268l0,-257.00737a23.7522,23.7522 0 0 1 23.75418,-23.75418l407.90011,0a23.7522,23.7522 0 0 1 23.75418,23.75418l0,258.77592l72.95382,116.50502z" fill="#3f3d56" id="svg_4"/>
  <path d="m103.85028,96.82254a7.74623,7.74623 0 0 0 -7.73753,7.73753l0,234.33641a7.74657,7.74657 0 0 0 7.73753,7.73752l412.29944,0a7.74691,7.74691 0 0 0 7.73753,-7.73752l0,-234.33641a7.74657,7.74657 0 0 0 -7.73753,-7.73753l-412.29944,0z" fill="#fff" id="svg_5"/>
  <path d="m105.57794,377.5841a3.32522,3.32522 0 0 0 -3.01275,1.93006l-21.35537,46.42514a3.31594,3.31594 0 0 0 3.01221,4.7021l449.09208,0a3.3157,3.3157 0 0 0 2.96526,-4.79925l-23.21257,-46.42514a3.29926,3.29926 0 0 0 -2.96526,-1.83291l-404.5236,0z" fill="#2f2e41" id="svg_6"/>
  <circle cx="308.34196" cy="87.97967" r="4.97412" fill="#fff" id="svg_7"/>
  <path d="m264.19986,439.48428a3.32114,3.32114 0 0 0 -3.20165,2.4536l-5.35679,19.89649a3.31576,3.31576 0 0 0 3.20166,4.17856l101.874,0a3.31531,3.31531 0 0 0 3.13257,-4.40093l-6.88691,-19.89649a3.31784,3.31784 0 0 0 -3.13366,-2.23123l-89.62922,0z" fill="#2f2e41" id="svg_8"/>
  <polygon points="536.0460205078125,357.135009765625 536.0460205078125,361.5559997558594 80.30599975585938,361.5559997558594 80.64898681640625,361.0039978027344 80.64898681640625,357.135009765625 536.0460205078125,357.135009765625 " fill="#2f2e41" id="svg_9"/>
  <circle cx="523.33457" cy="97.37523" r="77.37523" fill="#18aebf" id="svg_10"/>
  <path d="m555.39,131.08875l-64.11089,0a4.42582,4.42582 0 0 1 -4.42144,-4.42145l0,-38.68764a4.42616,4.42616 0 0 1 4.42144,-4.42144l64.11089,0a4.42616,4.42616 0 0 1 4.42144,4.42144l0,38.68761a4.42582,4.42582 0 0 1 -4.42144,4.42148zm-64.11091,-43.10906l0,38.68761l64.11415,0l-0.00324,-38.68764l-64.11091,0.00003z" fill="#fff" id="svg_11"/>
  <path d="m543.23105,87.97966l-39.793,0l0,-17.68577c0,-12.80987 8.36792,-22.10721 19.89649,-22.10721s19.89648,9.29734 19.89648,22.10721l0.00003,17.68577zm-35.37153,-4.42144l30.95009,0l0,-13.26433c0,-10.413 -6.36338,-17.68576 -15.475,-17.68576s-15.47505,7.27281 -15.47505,17.68576l-0.00004,13.26433z" fill="#fff" id="svg_12"/>
  <circle cx="523.33457" cy="106.21811" r="4.42144" fill="#fff" id="svg_13"/>
  <path d="m469.31994,267.14947l-318.63988,0a5.90767,5.90767 0 0 1 -5.90073,-5.90073l0,-79.04099a5.90767,5.90767 0 0 1 5.90073,-5.90072l318.63988,0a5.90767,5.90767 0 0 1 5.90073,5.90072l0,79.041a5.90767,5.90767 0 0 1 -5.90073,5.90072zm-318.63988,-88.4821a3.5443,3.5443 0 0 0 -3.54043,3.54043l0,79.04095a3.54431,3.54431 0 0 0 3.54043,3.54044l318.63988,0a3.54431,3.54431 0 0 0 3.54043,-3.54044l0,-79.041a3.5443,3.5443 0 0 0 -3.54043,-3.54043l-318.63988,0.00005z" fill="#e6e6e6" id="svg_14"/>
  <circle cx="200.19021" cy="218.69546" r="24.03645" fill="#e6e6e6" id="svg_15"/>
  <path d="m255.703,202.67116a4.00608,4.00608 0 1 0 0,8.01215l188.85774,0a4.00607,4.00607 0 0 0 0,-8.01215l-188.85774,0z" fill="#e6e6e6" id="svg_16"/>
  <path d="m255.703,226.70761a4.00607,4.00607 0 1 0 0,8.01214l81.266,0a4.00607,4.00607 0 1 0 0,-8.01214l-81.266,0z" fill="#e6e6e6" id="svg_17"/>
 </g>
</svg>