<svg width="919.86663" height="651.50661" xmlns="http://www.w3.org/2000/svg">
 <title>certificate</title>

 <g>
  <title>background</title>
  <rect fill="none" id="canvas_background" height="653.50661" width="921.86663" y="-1" x="-1"/>
 </g>
 <g>
  <title>Layer 1</title>
  <path id="svg_16" fill="#2f2e41" d="m593.73981,517.67731l-17.5325,161.29909l120.97432,0l5.25976,-12.27276l7.013,12.27276l113.96133,0s-8.76625,-166.55887 -24.54551,-171.81863s-205.1304,10.51954 -205.1304,10.51954z"/>
  <circle id="svg_17" fill="#ffb8b8" r="61.36379" cy="102.15673" cx="697.18164"/>
  <path id="svg_18" fill="#ffb8b8" d="m662.11661,140.72831s5.25975,56.104 0,59.61054s84.15606,1.75326 84.15606,1.75326s-12.27276,-50.84429 0,-75.38981l-84.15606,14.02601z"/>
  <path id="svg_19" fill="#18aebf" d="m693.67513,188.06604s45.11322,7.02643 48.85538,-7.00629l23.02792,31.55181l1.75325,315.58523s-187.59788,22.79227 -194.61089,-14.026s71.88331,-327.858 71.88331,-327.858l19.86216,-1.28572s25.72237,3.03897 29.22887,3.03897z"/>
  <path id="svg_20" fill="#3f3d56" d="m664.1477,170.62864l-30.08311,10.4244l-85.90931,21.039l3.5065,210.39015s-73.63655,210.39015 -40.32478,226.16941s80.64956,-21.039 94.67557,-47.33779s63.117,-390.975 63.117,-397.988s-4.98187,-22.69717 -4.98187,-22.69717z"/>
  <path id="svg_21" fill="#3f3d56" d="m741.40356,170.62864l11.88211,10.4244l84.15606,38.57153l-42.078,212.1434s56.104,192.85764 35.065,203.37715s-52.59754,40.32478 -59.61054,22.79226s-48.30975,-467.92787 -29.41463,-487.30874z"/>
  <path id="svg_22" fill="#ffb8b8" d="m790.10395,451.05373s-78.89631,-33.31177 -80.64956,-3.5065s89.41582,50.84429 89.41582,42.078s-8.76626,-38.5715 -8.76626,-38.5715z"/>
  <path id="svg_23" fill="#ffb8b8" d="m597.24631,438.78098s91.16907,68.37679 56.104,85.90931s-80.64956,-61.3638 -80.64956,-61.3638l24.54556,-24.54551z"/>
  <path id="svg_24" fill="#2f2e41" d="m724.42463,12.26844a3.38451,3.38451 0 0 1 3.25676,-1.93273c-28.09345,-1.68046 -57.68462,1.59391 -81.18765,17.0753c-6.58229,4.33573 -12.72923,9.6376 -20.22289,12.081l6.08267,4.77011l-7.26763,2.21543l10.69544,6.91263a9.27045,9.27045 0 0 1 -8.82861,2.95773c4.64818,1.358 8.07046,5.49439 9.80869,10.01416s2.05052,9.44217 2.34418,14.27575c1.79656,-6.9743 9.408,-11.07972 16.59785,-11.49687s14.2019,1.95512 21.19907,3.66045a117.27154,117.27154 0 0 0 46.548,1.79065c-5.25649,10.54877 -0.82242,23.13119 3.63955,34.03981l8.90925,21.78125c4.94626,0.49749 8.44239,-4.42141 12.16886,-7.71176c3.39641,-2.99892 -10.12543,23.37638 -8.03185,22.41c2.71982,-1.25539 31.42131,-32.94373 32.76537,-35.62084c6.13213,-12.21409 9.81123,-25.8377 9.25789,-39.4935s-5.55,-27.31832 -14.96291,-37.2275c-6.39033,-6.72714 -15.23132,-7.90529 -21.746,-13.49635c-2.56408,-2.20055 -2.57349,-3.91969 -6.09717,-5.20273c-1.1704,-0.42612 -14.73533,-2.23149 -14.92887,-1.80199z"/>
  <path id="svg_26" fill="#3f3d56" d="m814.64947,216.11807l22.79226,3.5065s94.67557,185.84463 71.88331,220.90966s-115.71459,84.15608 -115.71459,84.15608s-1.75325,-57.85729 -17.53251,-78.89631l54.35079,-21.039l-29.80527,-115.71459l14.02601,-92.92234z"/>
  <path stroke="null" id="svg_4" fill="#3f3d56" d="m568.00001,594.27726l-559.00001,-1.10536l64.78615,-116.61553l0.30997,-0.55268l0,-257.00737a22.20314,23.7522 0 0 1 22.20499,-23.75418l381.29794,0a22.20314,23.7522 0 0 1 22.20499,23.75418l0,258.77592l68.19596,116.50502z"/>
  <path stroke="null" id="svg_5" fill="#fff" d="m99.12676,212.82254a7.0219,7.74623 0 0 0 -7.01401,7.73753l0,234.33641a7.02221,7.74657 0 0 0 7.01401,7.73752l373.74647,0a7.02252,7.74691 0 0 0 7.01401,-7.73752l0,-234.33641a7.02221,7.74657 0 0 0 -7.01401,-7.73753l-373.74647,0z"/>
  <circle id="svg_29" fill="#f99b36" r="77.37523" cy="194.37523" cx="100.33457"/>
  <path id="svg_30" fill="#fff" d="m133.39,231.08875l-64.11089,0a4.42582,4.42582 0 0 1 -4.42144,-4.42145l0,-38.68764a4.42616,4.42616 0 0 1 4.42144,-4.42144l64.11089,0a4.42616,4.42616 0 0 1 4.42144,4.42144l0,38.68761a4.42582,4.42582 0 0 1 -4.42144,4.42148zm-64.11091,-43.10906l0,38.68761l64.11415,0l-0.00324,-38.68764l-64.11091,0.00003z"/>
  <path id="svg_31" fill="#fff" d="m121.23105,187.97966l-39.793,0l0,-17.68577c0,-12.80987 8.36792,-22.10721 19.89649,-22.10721s19.89648,9.29734 19.89648,22.10721l0.00003,17.68577zm-35.37153,-4.42144l30.95009,0l0,-13.26433c0,-10.413 -6.36338,-17.68576 -15.475,-17.68576s-15.47505,7.27281 -15.47505,17.68576l-0.00004,13.26433z"/>
  <circle id="svg_32" fill="#ffffff" r="4.42144" cy="205.21811" cx="101.33457"/>
  <path stroke="null" id="svg_33" fill="#e6e6e6" d="m431.96279,370.14947l-283.92559,0a5.26406,5.90767 0 0 1 -5.25787,-5.90073l0,-79.04099a5.26406,5.90767 0 0 1 5.25787,-5.90072l283.92559,0a5.26406,5.90767 0 0 1 5.25787,5.90072l0,79.041a5.26406,5.90767 0 0 1 -5.25787,5.90072zm-283.92559,-88.4821a3.15817,3.5443 0 0 0 -3.15472,3.54043l0,79.04095a3.15817,3.54431 0 0 0 3.15472,3.54044l283.92559,0a3.15817,3.54431 0 0 0 3.15472,-3.54044l0,-79.041a3.15817,3.5443 0 0 0 -3.15472,-3.54043l-283.92559,0.00005z"/>
  <ellipse ry="23.5" rx="23" id="svg_35" cy="325.5" cx="182.93332" stroke-opacity="null" stroke-width="null" stroke="null" fill="#275770"/>
  <path id="svg_25" fill="#3f3d56" d="m559.42803,208.35181l-12.27272,-5.25975l-98.1821,161.29911s-17.53252,42.078 14.026,61.3638s105.1951,77.14305 105.1951,77.14305l42.078,-64.8703s-85.90931,-40.32478 -80.64956,-56.104s33.31178,-57.85729 33.31178,-57.85729l-3.5065,-115.71462z"/>
 </g>
</svg>