<svg width="608" height="541.91263" xmlns="http://www.w3.org/2000/svg">
 <title>active_options</title>

 <g>
  <title>background</title>
  <rect x="-1" y="-1" width="610" height="543.91263" id="canvas_background" fill="none"/>
 </g>
 <g>
  <title>Layer 1</title>
  <path d="m86.323,360.84093l-11.41944,-18.452a273.13431,273.13431 0 0 1 12.6615,-28.06228l7.49735,6.309l-5.84681,-9.44746c5.97881,-11.20478 10.64756,-18.24624 10.64756,-18.24624s22.88762,37.7244 29.99091,77.32119l-15.59472,23.06949l17.01541,-13.18641a110.50312,110.50312 0 0 1 0.63974,13.87219c-0.94012,46.70757 -16.95677,84.2645 -35.77423,83.88574s-33.30986,-38.54976 -32.36974,-85.25733c0.29145,-14.4798 3.87216,-29.56293 8.673,-43.48536l13.87947,11.67947z" fill="#275770" id="svg_1"/>
  <path d="m34.65017,381.43958l-19.31345,-9.893a273.13311,273.13311 0 0 1 -3.66662,-30.56732l9.67919,1.52538l-9.88853,-5.06522c-0.67364,-12.68225 -0.31672,-21.12335 -0.31672,-21.12335s39.09262,20.46315 65.641,50.68808l-1.42513,27.80946l7.74988,-20.08346a110.50062,110.50062 0 0 1 7.7182,11.54454c23.33842,40.46973 29.04068,80.89917 12.73631,90.30171s-48.44116,-15.78241 -71.77958,-56.25214c-7.23514,-12.546 -11.96638,-27.30873 -15.05315,-41.70852l17.9186,2.82384z" fill="#18aebf" id="svg_2"/>
  <path d="m131.62561,530.80731c-22.25416,1.42351 -46.50238,-0.08279 -72.29843,0l0,-59.06065c22.73062,3.53858 46.97076,3.17518 72.29843,0l0,59.06065z" fill="#f99b36" id="svg_3"/>
  <polygon points="595.1929931640625,356.6679992675781 359.0190124511719,394.6960144042969 358.01800537109375,165.09500122070312 594.1920166015625,14 595.1929931640625,356.6679992675781 " fill="#e6e6e6" id="svg_4"/>
  <polygon points="573.176025390625,322.64300537109375 369.0260009765625,366.67498779296875 369.0260009765625,174.53399658203125 573.176025390625,63.72999572753906 573.176025390625,322.64300537109375 " fill="#fff" id="svg_5"/>
  <polygon points="553.1619873046875,146.51400756835938 381.0350036621094,223.59500122070312 381.0350036621094,196.54998779296875 553.1619873046875,111.51699829101562 553.1619873046875,146.51400756835938 " fill="#275770" id="svg_6"/>
  <polygon points="553.1619873046875,218.5670166015625 381.0350036621094,279.2770080566406 381.0350036621094,252.59197998046875 553.1619873046875,184.03500366210938 553.1619873046875,218.5670166015625 " fill="#18aebf" id="svg_7"/>
  <path d="m449.53648,187.13187a0.645,0.645 0 0 1 1.24118,-0.04088l2.7869,8.78335l3.33872,10.52249a0.645,0.645 0 0 1 -0.36673,0.7905l-6.4521,2.68854l-5.67052,2.36286a0.645,0.645 0 0 1 -0.87445,-0.74964l3.10159,-12.59732l2.89541,-11.7599z" fill="#e6e6e6" id="svg_8"/>
  <path d="m445.18454,251.62331a1.06452,1.06452 0 0 1 2.04832,-0.06745l2.33611,7.36258l3.22251,10.15622a1.06454,1.06454 0 0 1 -0.60522,1.30458l-6.0974,2.54073l-4.9031,2.04308a1.06452,1.06452 0 0 1 -1.44311,-1.23712l2.90283,-11.79l2.53906,-10.31262z" fill="#e6e6e6" id="svg_9"/>
  <polygon points="553.1619873046875,290.6199951171875 381.0350036621094,334.9590148925781 381.0350036621094,306.6310119628906 553.1619873046875,253.9639892578125 553.1619873046875,290.6199951171875 " fill="#f2f2f2" id="svg_10"/>
  <path d="m549.15869,165.98182c0,6.027 -2.70015,12.01954 -6.00441,13.37389c-3.27531,1.3425 -5.90948,-2.38638 -5.90948,-8.31806s2.63417,-11.89626 5.90948,-13.33362c3.30426,-1.45006 6.00441,2.25082 6.00441,8.27779z" fill="#275770" id="svg_11"/>
  <path d="m545.15575,167.68052c0,2.009 -0.89741,4.01407 -2.00147,4.47724c-1.10081,0.4618 -1.99081,-0.78477 -1.99081,-2.78306s0.89,-4.00023 1.99081,-4.47271c1.10406,-0.47388 2.00147,0.76954 2.00147,2.77853z" fill="#fff" id="svg_12"/>
  <path d="m549.15869,236.03331c0,6.027 -2.70015,12.01954 -6.00441,13.3739c-3.27531,1.34249 -5.90948,-2.38639 -5.90948,-8.31807s2.63417,-11.89626 5.90948,-13.33361c3.30426,-1.4501 6.00441,2.25078 6.00441,8.27778z" fill="#18aebf" id="svg_13"/>
  <path d="m545.15575,237.73198c0,2.009 -0.89741,4.01407 -2.00147,4.47723c-1.10081,0.46181 -1.99081,-0.78476 -1.99081,-2.78305s0.89,-4.00023 1.99081,-4.47272c1.10406,-0.47388 2.00147,0.76955 2.00147,2.77854z" fill="#fff" id="svg_14"/>
  <path d="m549.15869,306.08473c0,6.027 -2.70015,12.01954 -6.00441,13.3739c-3.27531,1.34249 -5.90948,-2.38639 -5.90948,-8.31807s2.63417,-11.89626 5.90948,-13.33362c3.30426,-1.45006 6.00441,2.25082 6.00441,8.27779z" fill="#f2f2f2" id="svg_15"/>
  <path d="m545.15575,307.78343c0,2.009 -0.89741,4.01408 -2.00147,4.47724c-1.10081,0.4618 -1.99081,-0.78477 -1.99081,-2.78306s0.89,-4.00023 1.99081,-4.47271c1.10406,-0.47388 2.00147,0.76954 2.00147,2.77853z" fill="#fff" id="svg_16"/>
  <path d="m447.18454,317.66889a1.06452,1.06452 0 0 1 2.04832,-0.06746l2.33611,7.36259l3.22251,10.15622a1.06452,1.06452 0 0 1 -0.60522,1.30457l-6.0974,2.54074l-4.9031,2.04308a1.06453,1.06453 0 0 1 -1.44311,-1.23713l2.90283,-11.79l2.53906,-10.31261z" fill="#e6e6e6" id="svg_17"/>
  <path d="m414.558,200.35565l9.31146,-8.58908s21.077,-14.51772 13.71488,-22.499s-22.20075,10.6303 -22.20075,10.6303l-9.20827,6.03186l8.38268,14.42592z" fill="#a0616a" id="svg_18"/>
  <path d="m291.45024,204.35239l-5.424,7.46526s-7.57983,29.15 30.77846,30.698c0,0 48.98859,23.74873 61.11527,8.86981s45.5883,-50.66863 45.5883,-50.66863l-19.6838,-20.00472l-40.11266,41.92475l-38.91452,-19.50011s-20.04496,-11.05444 -33.34705,1.21564z" fill="#2f2e41" id="svg_19"/>
  <polygon points="265.9230041503906,342.6789855957031 215.135009765625,529.7960205078125 221.53298950195312,531.0759887695312 274.8800048828125,342.6789855957031 265.9230041503906,342.6789855957031 " fill="#e6e6e6" id="svg_20"/>
  <polygon points="327.4939880371094,342.6789855957031 378.281005859375,529.7960205078125 371.88299560546875,531.0759887695312 318.5360107421875,342.6789855957031 327.4939880371094,342.6789855957031 " fill="#e6e6e6" id="svg_21"/>
  <polygon points="292.7950134277344,338.8399963378906 301.31201171875,530.1090087890625 308.7080078125,530.43798828125 299.1940002441406,336.2799987792969 292.7950134277344,338.8399963378906 " fill="#e6e6e6" id="svg_22"/>
  <path d="m316.469,335.81363c0,4.85147 -13.28064,10.05931 -30.71161,11.73268c-18.70837,1.796 -34.91149,-1.11922 -34.91149,-6.63414s16.20312,-10.94793 34.91149,-12.059c17.43095,-1.03519 30.71161,2.10899 30.71161,6.96046z" fill="#e6e6e6" id="svg_23"/>
  <path d="m335.02391,303.00936l12.7965,8.95755s55.025,39.66917 49.90637,55.025s-33.27091,76.779 -33.27091,76.779l-35.83021,-11.51686l40.94881,-65.26217l-21.75406,-20.47441l-11.51685,-28.15231l-1.27965,-15.3558z" fill="#275770" id="svg_24"/>
  <path d="m285.11754,279.97565s-25.593,39.66917 -10.2372,51.186s58.86392,56.30466 58.86392,56.30466l8.95755,20.47441l31.99126,103.65168l39.66917,-20.47441l-35.83022,-80.618s-3.83895,-29.432 -16.63545,-46.06742s-17.91511,-40.94881 -17.91511,-40.94881l3.839,-11.51686l-22.91252,-36.66148l-39.7904,4.67023z" fill="#275770" id="svg_25"/>
  <path d="m354.7082,436.43812l-23,-7s-24.8366,-1.023 -23.557,7.93454s21.75406,67.82147 28.15231,63.98252s1.27965,-21.75406 1.27965,-21.75406l17.12504,-43.163z" fill="#2f2e41" id="svg_26"/>
  <polygon points="303.6719970703125,155.2100067138672 290.8760070800781,169.2860107421875 311.3500061035156,202.5570068359375 320.3080139160156,176.9639892578125 303.6719970703125,155.2100067138672 " fill="#a0616a" id="svg_27"/>
  <path d="m315.82915,204.47631l-22.72826,-37.63781l-7.98335,1.80759l0,12.79651l-2.5593,107.49063l42.22847,-6.39825s2.55929,-69.10115 -8.95756,-78.05867z" fill="#18aebf" id="svg_28"/>
  <path d="m304.3123,203.19663l-19.19476,-34.55057l-16.63545,7.67791l-29.432,120.28714l-17.91509,34.55056s58.86392,29.432 72.94007,0s15.35581,-94.69413 15.35581,-94.69413l-5.11858,-33.27091z" fill="#2f2e41" id="svg_29"/>
  <path d="m276.16,181.44257l-7.6779,-5.1186s-29.432,-6.39826 -29.432,31.99126c0,0 -21.75406,49.90636 -6.39826,61.42322s52.46567,43.50811 52.46567,43.50811l19.19476,-20.4744l-43.50812,-38.38952l17.91511,-39.66916s10.23723,-20.47441 -2.55926,-33.27091z" fill="#2f2e41" id="svg_30"/>
  <path d="m285.11754,304.28901l8.95755,8.95755s15.35581,20.47441 23.03371,12.79651s-11.5168,-21.75406 -11.5168,-21.75406l-6.39825,-8.95755l-14.07621,8.95755z" fill="#a0616a" id="svg_31"/>
  <path d="m314.34557,192.86342l21.958,53.84132s8.95755,26.87266 8.95755,37.10986l0,28.15231l-24.31336,-31.99126s-13.20438,-83.36927 -6.60219,-87.11223z" fill="#2f2e41" id="svg_32"/>
  <path d="m384.25769,501.38696s-6.3392,24.96005 1.98081,27.07312s78.129,3.9007 78.17309,-7.897s-45.30659,-21.54428 -45.30659,-21.54428l-16.75448,-10.75009l-18.09283,13.11825z" fill="#2f2e41" id="svg_33"/>
  <circle cx="319.6681" cy="155.84956" r="23.03371" fill="#a0616a" id="svg_34"/>
  <path d="m344.22968,151.71375s4.49919,-19.49652 0,-23.99572l0,2.99947s-2.99947,-10.49813 -8.9984,-7.49866c0,0 -7.49866,-5.99892 -8.99841,-2.99947c-8.82431,-7.978 -47.95252,-0.49854 -28.95865,41.38862c0,0 3.46322,-12.89371 3.46322,-8.39451c0,0 8.9984,-8.99839 10.49813,-11.99786s26.99518,16.49706 32.99411,10.49813z" fill="#2f2e41" id="svg_35"/>
 </g>
</svg>