<svg width="655.61961" height="448" xmlns="http://www.w3.org/2000/svg">
 <g>
  <title>background</title>
  <rect x="-1" y="-1" width="657.61961" height="450" id="canvas_background" fill="none"/>
 </g>

 <g>
  <title>Layer 1</title>
  <path d="m501.87389,353.82677l-473.19359,0a16.69927,16.69927 0 0 1 -16.6803,-16.68029l0,-50.91879a16.69928,16.69928 0 0 1 16.6803,-16.6803l473.19359,0a16.69928,16.69928 0 0 1 16.6803,16.6803l0,50.91879a16.69927,16.69927 0 0 1 -16.6803,16.68029zm-473.19359,-82.52356a14.94123,14.94123 0 0 0 -14.92449,14.92448l0,50.91879a14.94122,14.94122 0 0 0 14.92449,14.92452l473.19359,0a14.9413,14.9413 0 0 0 14.92448,-14.92447l0,-50.91884a14.94131,14.94131 0 0 0 -14.92448,-14.92448l-473.19359,0z" fill="#ccc" id="svg_17"/>
  <path d="m501.87389,233.55308l-473.19359,0a16.69928,16.69928 0 0 1 -16.6803,-16.6803l0,-50.91878a16.69927,16.69927 0 0 1 16.6803,-16.68029l473.19359,0a16.69927,16.69927 0 0 1 16.6803,16.68029l0,50.91879a16.69928,16.69928 0 0 1 -16.6803,16.68029zm-473.19359,-82.52356a14.94122,14.94122 0 0 0 -14.92449,14.92448l0,50.91879a14.94122,14.94122 0 0 0 14.92447,14.92447l473.19361,0a14.9413,14.9413 0 0 0 14.92448,-14.92447l0,-50.91879a14.9413,14.9413 0 0 0 -14.92448,-14.92447l-473.19359,-0.00001z" fill="#ccc" id="svg_16"/>
  <path d="m501.87389,29l-473.19359,0a16.69542,16.69542 0 0 0 -16.6803,16.68029l0,50.91879a16.69542,16.69542 0 0 0 16.6803,16.6803l473.19359,0a16.69542,16.69542 0 0 0 16.6803,-16.6803l0,-50.91879a16.69542,16.69542 0 0 0 -16.6803,-16.68029zm14.92448,67.59908a14.94565,14.94565 0 0 1 -14.92448,14.92448l-473.19359,0a14.94564,14.94564 0 0 1 -14.92449,-14.92448l0,-50.91879a14.94564,14.94564 0 0 1 14.92447,-14.92447l473.19361,0a14.94565,14.94565 0 0 1 14.92448,14.92447l0,50.91879z" fill="#275770" id="svg_15"/>
  <path d="m505.43708,250.1876a9.37694,9.37694 0 0 0 -3.0996,-14.04039l1.85337,-21.34769l-12.69824,-4.29036l-2.1939,30.18384a9.42779,9.42779 0 0 0 16.13837,9.49461l0,-0.00001z" fill="#ffb8b8" id="svg_1"/>
  <polygon points="568.8049926757812,416.1619873046875 557.3729858398438,416.1610107421875 551.9359741210938,372.06500244140625 568.8090209960938,372.0660095214844 568.8049926757812,416.1619873046875 " fill="#ffb8b8" id="svg_2"/>
  <path d="m549.20671,412.894l22.04781,0a0,0 0 0 1 0,0l0,13.882a0,0 0 0 1 0,0l-35.92974,0a0,0 0 0 1 0,0l0,0a13.88193,13.88193 0 0 1 13.88193,-13.882z" fill="#2f2e41" id="svg_3"/>
  <polygon points="542.85498046875,386.9020080566406 531.7529907226562,389.6300048828125 515.947021484375,348.10699462890625 532.3319702148438,344.0799865722656 542.85498046875,386.9020080566406 " fill="#ffb8b8" id="svg_4"/>
  <path d="m387.32555,611.79438l22.04781,0a0,0 0 0 1 0,0l0,13.88195a0,0 0 0 1 0,0l-35.92974,0a0,0 0 0 1 0,0l0,0a13.88193,13.88193 0 0 1 13.88193,-13.88195z" transform="rotate(-13.805290222167969 -467.44619750976557,-60.43756866455067) " fill="#2f2e41" id="svg_5"/>
  <path d="m555.42497,402.104a4.2101,4.2101 0 0 1 -4.19653,-3.77929l-13.15552,-122.55323l-11.44726,37.47559l16.21338,58.5332a4.2251,4.2251 0 0 1 -2.50537,5.05616l-12.88965,5.15625a4.23,4.23 0 0 1 -5.56543,-2.53565l-19.87061,-57.00928a51.61168,51.61168 0 0 1 -2.8352,-19.395l2.77343,-61.52343l73.04273,3.09277l-1.14038,152.21484a4.25422,4.25422 0 0 1 -3.91211,4.186l-14.18457,1.06885q-0.16443,0.01247 -0.32691,0.01222z" fill="#275770" id="svg_6"/>
  <circle cx="543.32766" cy="92.81309" r="24.56103" fill="#ffb8b8" id="svg_7"/>
  <path d="m561.38933,248.62451c-6.468,0 -14.5044,-0.5293 -22.81714,-1.07617c-11.35962,-0.74756 -23.106,-1.52051 -31.87476,-1.0127a6.96638,6.96638 0 0 1 -6.23168,-2.71386c-9.03931,-11.57373 4.90307,-56.70752 5.501,-58.623l11.34644,-50.46826l0.48779,0.10986l-0.48779,-0.10986c2.49585,-11.09961 10.47094,-19.2876 20.813,-21.36817c9.68017,-1.94433 19.043,1.93116 25.04785,10.375q0.4779,0.67164 0.95532,1.37891c19.552,28.95654 8.49341,100.896 7.7522,105.53906c1.03271,1.23682 6.61792,8.23194 5.08252,13.09082c-0.62452,1.97657 -2.3208,3.32373 -5.04224,4.00391a47.00681,47.00681 0 0 1 -10.53251,0.87446z" fill="#f99b36" id="svg_8"/>
  <path d="m507.09392,248.64746c-2.22461,0 -5.22559,-0.8208 -9.27246,-2.50488c-1.739,-0.72363 -7.031,-2.92529 -0.60645,-59.07178c3.15576,-27.58008 7.67652,-54.96777 7.72193,-55.24121l0.04345,-0.26367l0.24366,-0.11035c0.11645,-0.05274 11.66186,-5.34522 13.66967,-12.146q0.10437,-0.353 0.23389,-0.68457a6.244,6.244 0 0 1 7.75391,-3.80811a6.56063,6.56063 0 0 1 4.94214,7.4878a46.024,46.024 0 0 1 -3.99073,12.7915c-5.43286,11.21 -9.11352,40.92774 -9.15014,41.22656c-0.20752,2.53809 -5.13843,62.67188 -6.08838,67.23536c-0.33179,1.59375 -0.94214,3.54443 -2.7334,4.49023a5.84185,5.84185 0 0 1 -2.76709,0.59912z" fill="#2f2e41" id="svg_9"/>
  <path d="m533.92522,246.34277a2.01837,2.01837 0 0 1 -1.23877,-0.42529c-7.22559,-5.49072 4.46826,-72.05127 11.40454,-95.01611c1.38892,-4.59815 2.62549,-8.53662 3.676,-11.70606l0,0a89.26182,89.26182 0 0 0 3.98926,-17.50586c0.38159,-3.22558 1.21143,-5.06836 2.53711,-5.63281c0.9209,-0.39307 2.00464,-0.12646 3.21973,0.79346c6.40674,-0.31641 12.63183,2.30176 18.40185,5.18115l5.19165,2.59033l5.82622,103.14893c-0.16455,6.58349 -13.14112,11.23047 -18.804,11.52734c-9.08887,0.47656 -25.41016,1.95654 -32.6001,6.50879a3.006,3.006 0 0 1 -1.60349,0.53613z" fill="#2f2e41" id="svg_10"/>
  <path d="m501.46843,226.98926c-0.08618,0 -0.17212,-0.00244 -0.259,-0.00781l-11.76758,-0.72413a4.22923,4.22923 0 0 1 -3.92261,-4.853l5.325,-35.27881l10.02442,-49.49756a8.8792,8.8792 0 0 1 11.36157,-6.70947l0,0a8.92781,8.92781 0 0 1 6.10767,9.87939l-7.96412,49.59668l-4.7146,33.94727a4.25086,4.25086 0 0 1 -4.19075,3.64744z" fill="#2f2e41" id="svg_11"/>
  <path d="m541.67009,188.37413a9.377,9.377 0 0 1 14.22529,-2.09316l19.295,-9.32l8.52354,10.34416l-27.43311,12.77892a9.42779,9.42779 0 0 1 -14.6107,-11.70992l-0.00002,0z" fill="#ffb8b8" id="svg_12"/>
  <path d="m568.47331,198.3833a4.23218,4.23218 0 0 1 -4.11425,-3.2417l-2.803,-11.64941a4.21136,4.21136 0 0 1 1.94043,-4.61914l16.90161,-10.11573l-8.63965,-31.63378a10.81908,10.81908 0 0 1 0.37915,-6.80127a10.75315,10.75315 0 0 1 20.21362,0.6206l9.53882,29.12549a17.57551,17.57551 0 0 1 -6.4209,19.773l-24.51833,17.73872a4.22422,4.22422 0 0 1 -2.4775,0.80322z" fill="#2f2e41" id="svg_13"/>
  <path d="m547.8145,116.77021a26.205,26.205 0 1 0 -4.91018,-51.82531c-5.40118,-3.27952 -11.6809,-5.48627 -17.97478,-4.925s-12.51835,4.29789 -14.87192,10.16208s0.17487,13.59411 6.02708,15.97731c3.75184,1.52786 7.98866,0.78691 11.99255,0.1708s8.37171,-1.01817 11.85634,1.04773s5.05107,7.60549 1.93026,10.18836a10.73847,10.73847 0 0 0 -3.0842,11.82027c1.56846,4.05629 5.84936,7.31494 9.03485,7.38376z" fill="#2f2e41" id="svg_14"/>
  <path d="m92.61919,100.17188a29.03223,29.03223 0 1 1 29.032,-29.03223a29.06519,29.06519 0 0 1 -29.032,29.03223z" fill="#275770" id="svg_18"/>
  <path d="m459.00494,94.84326l-309.9023,0a7.02328,7.02328 0 1 1 0,-14.04656l309.9023,0a7.02328,7.02328 0 1 1 0,14.04656z" fill="#ccc" id="svg_19"/>
  <path d="m358.04527,64.99432l-208.94263,0a7.02329,7.02329 0 1 1 0,-14.04657l208.94263,0a7.02328,7.02328 0 0 1 0,14.04657z" fill="#ccc" id="svg_20"/>
  <path d="m92.61919,220.44531a29.032,29.032 0 1 1 29.032,-29.03174a29.06476,29.06476 0 0 1 -29.032,29.03174z" fill="#e6e6e6" id="svg_21"/>
  <path d="m459.00494,215.117l-309.9023,0a7.02328,7.02328 0 1 1 0,-14.04656l309.9023,0a7.02328,7.02328 0 1 1 0,14.04656z" fill="#e6e6e6" id="svg_22"/>
  <path d="m358.04527,185.268l-208.94263,0a7.02328,7.02328 0 1 1 0,-14.04656l208.94263,0a7.02328,7.02328 0 0 1 0,14.04656z" fill="#e6e6e6" id="svg_23"/>
  <path d="m92.61919,340.71924a29.03223,29.03223 0 1 1 29.032,-29.03223a29.06519,29.06519 0 0 1 -29.032,29.03223z" fill="#e6e6e6" id="svg_24"/>
  <path d="m459.00494,335.39066l-309.9023,0a7.02329,7.02329 0 1 1 0,-14.04657l309.9023,0a7.02329,7.02329 0 0 1 0,14.04657z" fill="#e6e6e6" id="svg_25"/>
  <path d="m358.04527,305.54171l-208.94263,0a7.02328,7.02328 0 1 1 0,-14.04656l208.94263,0a7.02328,7.02328 0 0 1 0,14.04656z" fill="#e6e6e6" id="svg_26"/>
  <path id="a0cfb668-db22-436f-bdef-92b50d362156" d="m91.13635,81.35175a3.32083,3.32083 0 0 1 -1.99781,-0.664l-0.03574,-0.0268l-7.52475,-5.7562a3.34395,3.34395 0 1 1 4.06905,-5.30762l4.87393,3.73756l11.51737,-15.02568a3.34253,3.34253 0 0 1 4.68639,-0.619l0.001,0.00073l-0.07148,0.09925l0.07342,-0.09925a3.34656,3.34656 0 0 1 0.61828,4.68733l-13.54694,17.66561a3.34455,3.34455 0 0 1 -2.65976,1.30407l-0.00296,0.004z" fill="#fff"/>
  <path d="m642.61962,428l-198,0a1,1 0 0 1 0,-2l198,0a1,1 0 0 1 0,2z" fill="#ccc" id="svg_27"/>
 </g>
</svg>