<svg width="784.39764" height="733.6066" xmlns="http://www.w3.org/2000/svg">
 <title>personal_finance</title>

 <g>
  <title>background</title>
  <rect fill="none" id="canvas_background" height="602" width="802" y="-1" x="-1"/>
 </g>
 <g>
  <title>Layer 1</title>
  <path id="svg_1" fill="#ffb8b8" d="m624.74465,521.21782s97.0406,5.017 74.43777,35.56514s-81.99491,-17.91975 -81.99491,-17.91975l7.55714,-17.64539z"/>
  <path id="svg_2" fill="#275770" d="m445.91559,230.25142l19.75208,4.938s11.52205,34.56615 19.75209,65.84028s24.69011,125.0966 24.69011,125.0966l127.61025,89.43263l-15.22012,34.04767l-170,-67l-37.85855,-148.65673l31.27414,-103.69845z"/>
  <polygon id="svg_3" opacity="0.2" points="464.5 291.607 457.138 445.772 472.5 491.607 427.5 458.607 464.5 291.607"/>
  <path id="svg_4" fill="#2f2e41" d="m491.18082,565.21387s21.3981,57.61025 24.69011,97.11442s6.584,70.77831 6.584,70.77831l-100.40645,0l-19.75208,-29.62813l0,29.62813l-116.86651,0s-32.92014,-106.99046 -19.75207,-120.15852s138.26461,-69.1323 138.26461,-69.1323l87.23839,21.39809z"/>
  <rect id="svg_5" fill="#3f3d56" height="2" width="581" y="731.6066" x="101.5"/>
  <circle id="svg_6" fill="#ffb8b8" r="62.54827" cy="105.15487" cx="365.26124"/>
  <path id="svg_7" fill="#ffb8b8" d="m317.52703,131.49099l-4.938,72.42431l62.54827,83.94637l31.27412,-79.00837s-27.98213,-18.10608 -11.522,-55.96424l-77.36239,-21.39807z"/>
  <path id="svg_8" fill="#275770" d="m500.22998,579.2033c0,14.82 -41.15,37.86005 -41.15,37.86005l0,8.23l-16.46,8.23l-36.21,-72.42l-9.87,79s-72.43,11.53 -95.47,0c-23.05,-11.52 -34.57,-6.58 -67.49,-18.1s13.17,-166.25 13.17,-166.25l-32.92,-238.67l71.92,-35.96l3.79,-1.9l9.89,-1.82l15.16,-2.8l50.67,34.25l4.08,21.4l2.51,13.17l13.16,-14.82l9.94,-32.69l70.72,39.28l-19.75,158.01s54.31,171.18995 54.31,185.99995z"/>
  <path id="svg_9" fill="#ffb8b8" d="m258.27082,630.23115s75.71633,60.90227 39.50417,72.42432s-55.96424,-62.54827 -55.96424,-62.54827l16.46007,-9.87605z"/>
  <path id="svg_10" fill="#275770" d="m230.28865,220.37537l-16.46007,-3.292s-24.69011,13.16806 -26.33612,39.50417s-23.0441,210.68892 -23.0441,210.68892l69.1323,185.9988l55.96425,-21.39809l-54.31824,-174.47677l41.15015,-151.43265l-46.08817,-85.59238z"/>
  <circle id="svg_11" fill="#2f2e41" r="6" cy="264.6066" cx="372.5"/>
  <circle id="svg_12" fill="#2f2e41" r="6" cy="303.6066" cx="372.5"/>
  <circle id="svg_13" fill="#2f2e41" r="6" cy="560.6066" cx="406.5"/>
  <path id="svg_14" fill="#2f2e41" d="m312.45242,41.07701l-11.56241,-4.62895s24.17588,-26.61628 57.81217,-24.30176l-9.46036,-10.41513s23.1248,-9.25775 44.14733,15.044c11.05115,12.77485 23.83743,27.7911 31.80833,44.70667l12.38253,0l-5.168,11.37937l18.088,11.37937l-18.5656,-2.044a63.589,63.589 0 0 1 0.50381,18.8748a24.42141,24.42141 0 0 1 -8.94287,15.976l0,0s-14.33953,-29.68132 -14.33953,-34.31026l0,11.57231s-11.5624,-10.415 -11.5624,-17.35836l-6.3067,8.10061l-42.0449,0l6.3067,-10.415l-24.17593,3.47162l9.46041,-12.72959l-37.431,52.56492s-21.43218,-59.50827 9.05042,-76.86662z"/>
  <circle id="svg_15" fill="#3f3d56" r="100" cy="383.54509" cx="684.39764"/>
  <circle id="svg_16" opacity="0.1" r="86" cy="383.54509" cx="684.39764"/>
  <polygon id="svg_18" opacity="0.2" points="250.005 504.87 290 629.803 258 499.803 250.005 504.87"/>
  <path id="svg_19" fill="#3f3d56" d="m45.09326,260.8033l-25.38672,0a4.178,4.178 0 0 1 -4.17334,-4.17334l0,-36.49316a4.178,4.178 0 0 1 4.17334,-4.17334l25.38672,0a4.178,4.178 0 0 1 4.17334,4.17334l0,36.49316a4.178,4.178 0 0 1 -4.17334,4.17334zm-25.38672,-42.83984a2.176,2.176 0 0 0 -2.17334,2.17334l0,36.49316a2.176,2.176 0 0 0 2.17334,2.17334l25.38672,0a2.176,2.176 0 0 0 2.17334,-2.17334l0,-36.49316a2.176,2.176 0 0 0 -2.17334,-2.17334l-25.38672,0z"/>
  <path id="svg_20" fill="#3f3d56" d="m91.46289,260.8033l-22.92578,0a5.41016,5.41016 0 0 1 -5.40381,-5.40381l0,-73.69919a5.41016,5.41016 0 0 1 5.40381,-5.40381l22.92578,0a5.41016,5.41016 0 0 1 5.40381,5.40381l0,73.69922a5.41016,5.41016 0 0 1 -5.40381,5.40378zm-22.92578,-82.50684a3.40756,3.40756 0 0 0 -3.40381,3.40381l0,73.69922a3.40756,3.40756 0 0 0 3.40381,3.40381l22.92578,0a3.40756,3.40756 0 0 0 3.40381,-3.40381l0,-73.69919a3.40756,3.40756 0 0 0 -3.40381,-3.40381l-22.92578,-0.00003z"/>
  <path id="svg_21" fill="#3f3d56" d="m139.17774,260.8033l-21.15528,0a6.29622,6.29622 0 0 1 -6.28906,-6.28906l0,-108.42188a6.29622,6.29622 0 0 1 6.28906,-6.28906l21.15528,0a6.29622,6.29622 0 0 1 6.28906,6.28906l0,108.42188a6.29622,6.29622 0 0 1 -6.28906,6.28906zm-21.15528,-119a4.29393,4.29393 0 0 0 -4.28906,4.28906l0,108.42188a4.29393,4.29393 0 0 0 4.28906,4.28906l21.15528,0a4.29393,4.29393 0 0 0 4.28906,-4.28906l0,-108.42188a4.29393,4.29393 0 0 0 -4.28906,-4.28906l-21.15528,0z"/>
  <rect id="svg_22" fill="#f99b36" height="30.94" width="19.04" y="222.9133" x="22.88"/>
  <rect id="svg_23" fill="#f99b36" height="70.21" width="19.04" y="183.6433" x="70.48"/>
  <rect id="svg_24" fill="#f99b36" height="106.70333" width="19.04" y="147.14997" x="119.08"/>
  <path id="svg_25" fill="#3f3d56" d="m723,145.8033l-133,0a0.99974,0.99974 0 0 1 -1,-1l0,-135a1,1 0 0 1 2,0l0,134l132,0a1,1 0 0 1 0,2z"/>
  <path id="svg_26" fill="#3f3d56" d="m162,274.8033l-158,0a0.99974,0.99974 0 0 1 -1,-1l0,-157a1,1 0 0 1 2,0l0,156l157,0a1,1 0 0 1 0,2z"/>
  <path id="svg_27" fill="#3f3d56" d="m635.89844,133.27059l-25.38672,0a4.17807,4.17807 0 0 1 -4.17383,-4.17334l0,-36.49317a4.17806,4.17806 0 0 1 4.17383,-4.17334l25.38672,0a4.17786,4.17786 0 0 1 4.17285,4.17334l0,36.49322a4.17786,4.17786 0 0 1 -4.17285,4.17329zm-25.38672,-42.83985a2.17641,2.17641 0 0 0 -2.17383,2.17334l0,36.49322a2.17641,2.17641 0 0 0 2.17383,2.17334l25.38672,0a2.17557,2.17557 0 0 0 2.17285,-2.17334l0,-36.49322a2.17557,2.17557 0 0 0 -2.17285,-2.17334l-25.38672,0z"/>
  <path id="svg_28" fill="#3f3d56" d="m687.8877,133.27059l-23.36621,0a5.18969,5.18969 0 0 1 -5.1836,-5.18409l0,-66.09961a5.18927,5.18927 0 0 1 5.1836,-5.18359l23.36621,0a5.18927,5.18927 0 0 1 5.18359,5.18359l0,66.09961a5.18969,5.18969 0 0 1 -5.18359,5.18409zm-23.36621,-74.46729a3.187,3.187 0 0 0 -3.1836,3.18359l0,66.09961a3.18709,3.18709 0 0 0 3.1836,3.18409l23.36621,0a3.18708,3.18708 0 0 0 3.18359,-3.18409l0,-66.09961a3.187,3.187 0 0 0 -3.18359,-3.18359l-23.36621,0z"/>
  <rect id="svg_29" fill="#f99b36" height="30.94" width="19.04" y="95.727" x="613.22803"/>
  <rect id="svg_30" fill="#f99b36" height="59.8637" width="19.04" y="65.10507" x="666.68472"/>
  <circle id="svg_31" fill="#f99b36" r="9" cy="68.8033" cx="623"/>
  <circle id="svg_32" fill="#f99b36" r="9" cy="34.8033" cx="676"/>
  <text stroke="null" transform="matrix(7.713534850182167,0,0,4.168629418523635,-4605.7365005471665,-1185.415127990399) " xml:space="preserve" text-anchor="start" font-family="Helvetica, Arial, sans-serif" font-size="24" id="svg_33" y="384.25642" x="678.69882" stroke-opacity="null" stroke-width="0" fill="#18aebf"/>
  <text stroke="null" transform="matrix(7.214012832074445,0,0,3.6684476222092144,-4188.740369387626,-1006.2503581498001) " xml:space="preserve" text-anchor="start" font-family="Helvetica, Arial, sans-serif" font-size="24" id="svg_34" y="385.25642" x="668.69882" fill-opacity="null" stroke-opacity="null" stroke-width="0" fill="#000000"/>
  <text stroke="null" transform="matrix(5.205879933703456,0,0,4.622302024733533,-2603.799629658374,-1000.519743586601) " xml:space="preserve" text-anchor="start" font-family="Helvetica, Arial, sans-serif" font-size="24" id="svg_35" y="307.775" x="624.9046" stroke-opacity="null" stroke-width="0" fill="#f99b36">₹</text>
 </g>
</svg>