<svg width="769.92356" height="727.77804" xmlns="http://www.w3.org/2000/svg">

 <g>
  <title>background</title>
  <rect fill="none" id="canvas_background" height="602" width="802" y="-1" x="-1"/>
 </g>
 <g>
  <title>Layer 1</title>
  <rect id="svg_1" fill="#3f3d56" height="2.24072" width="519.55666" y="723.94159" x="250.3669"/>
  <path id="svg_2" fill="#a0616a" d="m672.96189,342.88159a11.01956,11.01956 0 0 1 -2.15469,16.2265l-53.77008,36.91677l-23.677,15.78467a6.50932,6.50932 0 0 1 -8.64865,-1.29413l0,0a6.50932,6.50932 0 0 1 1.76937,-9.75113l22.93281,-13.31582l40.02328,-38.11743l-25.72926,-27.63513l19.05871,-14.294l30.19551,35.4797z"/>
  <polygon id="svg_3" fill="#a0616a" points="546.52 690.482 533.367 690.482 525.555 581.847 558.908 580.894 546.52 690.482"/>
  <path id="svg_4" fill="#2f2e41" d="m547.47284,725.74049c-3.5071,1.60062 -6.44475,-11.36747 -9.403,-8.4603c-8.27476,8.13174 -20.94589,9.90248 -31.99089,6.35216l3.86555,-0.04321a5.17261,5.17261 0 0 1 -3.26034,-6.74068l0,0a5.17263,5.17263 0 0 1 3.58872,-3.20194l8.8002,-2.2l13.81756,-24.29985l14.10577,-0.95294l0,0a33.70033,33.70033 0 0 1 6.23289,28.749c-1.28005,5.22455 -3.25617,9.65665 -5.75646,10.79776z"/>
  <polygon id="svg_5" fill="#a0616a" points="634.096 690.482 620.943 690.482 613.131 581.847 647.437 575.177 634.096 690.482"/>
  <path id="svg_6" fill="#2f2e41" d="m635.04878,725.74049c-3.5071,1.60062 -6.44476,-11.36747 -9.40305,-8.4603c-8.27475,8.13174 -20.94589,9.90248 -31.99089,6.35216l3.86555,-0.04321a5.17261,5.17261 0 0 1 -3.26034,-6.74068l0,0a5.17264,5.17264 0 0 1 3.58873,-3.20194l8.80019,-2.2l13.81757,-24.29985l15.0587,-1.90587l0.38035,0.622a38.82707,38.82707 0 0 1 4.1608,31.74873c-1.25233,4.01256 -2.95695,7.18849 -5.01761,8.12896z"/>
  <path id="svg_7" fill="#18aebf" d="m649.00932,309.8592c-12.09554,1.68292 -20.4694,8.307 -23.8799,21.521l-22.23309,-41.05a12.15492,12.15492 0 0 1 3.87324,-15.43663l0,0a12.15493,12.15493 0 0 1 16.51068,2.41678l25.72907,32.54885z"/>
  <path id="svg_8" fill="#2f2e41" d="m672.30737,570.41202c-54.05791,23.9182 -109.38059,26.86134 -165.81075,11.43523c20.60644,-79.92158 44.93779,-152.18824 44.788,-211.55165l55.27025,-4.76467l8.50989,13.49128a299.3077,299.3077 0 0 1 41.07162,104.75947l16.17099,86.63034z"/>
  <circle id="svg_9" fill="#a0616a" r="28.58806" cy="218.77888" cx="581.77851"/>
  <polygon id="svg_10" fill="#a0616a" points="613.225 269.284 577.967 271.19 572.249 239.743 600.837 234.979 613.225 269.284"/>
  <path id="svg_11" fill="#18aebf" d="m609.41364,370.2956l-38.62727,1.0881l-19.50179,2.72364c-9.57274,-31.62118 -17.63171,-63.16988 1.90587,-89.57592l22.87045,-22.8704l34.30568,-0.95293l0.45443,0.25967a27.62567,27.62567 0 0 1 12.657,32.13956c-8.51323,27.66455 -13.98155,53.7887 -14.06437,77.18828z"/>
  <path id="svg_12" fill="#a0616a" d="m550.33165,458.91859l-2.39609,32.74648a7.29408,7.29408 0 0 1 -6.78945,6.74565l0,0a7.29408,7.29408 0 0 1 -7.77722,-7.45156l0.76287,-32.04057l23.82338,-90.52886l0.95294,-55.27025l26.68219,-0.95293l-1.90587,63.84667l-33.35275,82.90537z"/>
  <path id="svg_13" fill="#18aebf" d="m588.44906,316.93122c-11.31253,-4.6001 -21.8779,-3.05952 -31.44686,6.67055l1.31094,-46.66577a12.15493,12.15493 0 0 1 11.08252,-11.42232l0,0a12.15493,12.15493 0 0 1 13.08133,10.35965l5.97207,41.05789z"/>
  <path id="svg_14" fill="#2f2e41" d="m642.28991,345.99575l-87.67,0c20.45167,-54.1569 27.04681,-104.53868 0,-147.705c0.46431,-12.96516 17.09344,-24.20477 30.00735,-22.96305l0,0c15.25177,1.46651 35.74679,12.67435 38.60394,27.72772l19.05871,142.94033z"/>
  <path id="svg_15" fill="#3f3d56" d="m362.88932,172.94725l-3.99878,0l0,-109.54532a63.40186,63.40186 0 0 0 -63.40205,-63.40191l-232.08644,0a63.40186,63.40186 0 0 0 -63.402,63.40193l0,600.97416a63.40186,63.40186 0 0 0 63.402,63.40191l232.08644,0a63.40186,63.40186 0 0 0 63.40205,-63.40193l0,-413.45262l3.99878,0l0,-77.97622z"/>
  <path id="svg_16" fill="#fff" d="m298.04678,16.49502l-30.295,0a22.49485,22.49485 0 0 1 -20.82715,30.99055l-132.9594,0a22.49483,22.49483 0 0 1 -20.82715,-30.99055l-28.29557,0a47.3478,47.3478 0 0 0 -47.34786,47.34774l0,600.09249a47.34781,47.34781 0 0 0 47.34786,47.3478l233.20427,0a47.34781,47.34781 0 0 0 47.34787,-47.3478l0,-600.09252a47.3478,47.3478 0 0 0 -47.34787,-47.34771z"/>
  <rect id="svg_17" fill="#e6e6e6" height="211" width="246" y="110.2337" x="58.44466"/>
  <circle id="svg_18" fill="#18aebf" r="18" cy="347.2337" cx="131.44466"/>
  <polygon id="svg_19" fill="#fff" points="140.445 345.734 132.945 345.734 132.945 338.234 129.945 338.234 129.945 345.734 122.445 345.734 122.445 348.734 129.945 348.734 129.945 356.234 132.945 356.234 132.945 348.734 140.445 348.734 140.445 345.734"/>
  <circle id="svg_20" fill="#18aebf" r="18" cy="347.2337" cx="226.44466"/>
  <rect id="svg_21" fill="#fff" transform="rotate(90 659.7893676757814,-94.24918365478511) " height="18" width="3" y="330.0955" x="1099.77225"/>
  <path id="svg_22" fill="#18aebf" d="m190.61948,136.54855l-19.4402,0a2.57738,2.57738 0 0 0 -2.57738,2.57738l0,8.53288a2.57738,2.57738 0 0 0 2.57738,2.57738l3.2215,0l0,12.78518l12.99715,0l0,-12.78518l3.22152,0a2.57738,2.57738 0 0 0 2.57738,-2.57738l0,-8.53288a2.57738,2.57738 0 0 0 -2.57735,-2.57738z"/>
  <path id="svg_23" fill="#3f3d56" d="m210.09093,214.64148a99.945,99.945 0 0 1 -17.38745,-59.25632a2.10788,2.10788 0 0 0 -1.64531,-2.10349l0,-3.687l-20.53145,0l0,3.63579l-0.2829,0a2.1067,2.1067 0 0 0 -2.104,2.10944q0.00009,0.07676 0.00578,0.15334q2.42627,33.82122 -16.3857,60.66044a5.80592,5.80592 0 0 0 -1.05076,3.51846l2.245,69.4446a6.01162,6.01162 0 0 0 5.96021,5.80216l46.439,0a6.01372,6.01372 0 0 0 5.9638,-5.90449l0.86514,-67.425a12.16847,12.16847 0 0 0 -2.09136,-6.94793z"/>
  <path id="svg_24" opacity="0.2" d="m186.56691,139.32888a5.5606,5.5606 0 1 1 -11.1212,0"/>
  <path id="svg_25" fill="#18aebf" d="m202.73953,237.70878l-5.62341,0a14.75938,14.75938 0 0 0 -29.17437,0l-5.62378,0a4.15,4.15 0 0 0 -4.10174,4.781l6.10828,39.70382l35.07457,0l7.41937,-39.57005a4.15007,4.15007 0 0 0 -4.07892,-4.9148l0,0.00003z"/>
  <rect id="svg_26" fill="#e6e6e6" height="211" width="246" y="407.2337" x="58.44466"/>
  <circle id="svg_27" fill="#18aebf" r="18" cy="644.2337" cx="131.44466"/>
  <polygon id="svg_28" fill="#fff" points="140.445 642.734 132.945 642.734 132.945 635.234 129.945 635.234 129.945 642.734 122.445 642.734 122.445 645.734 129.945 645.734 129.945 653.234 132.945 653.234 132.945 645.734 140.445 645.734 140.445 642.734"/>
  <circle id="svg_29" fill="#18aebf" r="18" cy="644.2337" cx="226.44466"/>
  <rect id="svg_30" fill="#fff" transform="rotate(90 956.7893676757812,202.75082397460946) " height="18" width="3" y="924.0955" x="1396.77225"/>
  <path id="svg_31" fill="#fff" d="m229.87266,557.13145l0.1358,0.0001a23.0403,23.0403 0 0 0 21.57285,-14.45016a75.41617,75.41617 0 1 0 -100.46553,41.31009a22.84324,22.84324 0 0 0 25.37,-4.7044a75.16747,75.16747 0 0 1 53.38688,-22.15563z"/>
  <circle id="svg_32" fill="#f99b36" r="24.906" cy="509.39493" cx="191.13"/>
 </g>
</svg>