<?xml version="1.0" encoding="utf-8"?>
<svg viewBox="0 84.563 554.996 579.664" xmlns="http://www.w3.org/2000/svg">
  <path d="M 226.304 235.017 C 222.198 236.582 218.006 237.908 213.747 238.989 C 208.121 240.36 204.945 240.995 199.515 238.888 C 199.325 238.814 199.143 238.741 198.971 238.669 C 177.943 229.728 164.176 209.217 163.866 186.37 C 163.839 185.986 163.839 185.583 163.839 185.189 C 163.834 183.294 163.924 181.4 164.111 179.514 C 164.348 176.945 164.759 174.395 165.341 171.881 L 165.286 171.871 C 160.89 167.376 159.199 161.219 159.76 155.032 C 160.538 146.533 165.172 138.862 172.333 134.218 C 177.871 130.736 184.116 128.532 190.613 127.766 C 192.358 127.565 194.112 127.463 195.869 127.461 L 212.367 127.461 C 215.775 126.663 219.236 126.117 222.724 125.828 L 222.751 125.828 C 255.956 123.074 282.142 145.087 279.7 171.871 C 279.682 171.901 279.655 171.93 279.637 171.96 C 278.931 173.111 278.307 174.202 277.755 175.245 C 277.222 176.219 276.77 177.153 276.381 178.039 C 273.35 184.885 287.75 291.1 282.586 292.713 C 279.646 293.628 267.797 214.59 269.922 229.619 C 272.6 248.475 241.602 229.363 226.304 235.017 Z" fill="#2f2e41"/>
  <polygon points="276.326 427.024 322.355 525.084 145.292 507.151 182.253 413.015 276.326 427.024" fill="#ffb6b6"/>
  <path d="M 368.726 623.63 C 337.936 633.879 305.488 638.225 273.086 636.44 L 258.996 613.59 C 258.996 613.59 258.406 622.1 257.526 635.11 C 242.102 633.323 226.879 630.095 212.056 625.47 C 183.946 616.68 157.596 603.06 130.886 590.5 C 125.476 558.25 123.446 508.52 153.356 479.57 L 314.346 509.07 C 314.346 509.07 340.176 528.39 333.266 535.31 C 326.356 542.22 325.286 541.15 329.826 545.69 C 334.366 550.23 344.176 556.3 344.276 560.27 C 344.316 561.82 355.326 589.93 368.726 623.63 Z" fill="#2f2e41"/>
  <path d="M 248.214 237.537 L 209.319 240.25 L 184.18 264.542 L 175.375 266.114 C 158.995 269.034 147.391 283.749 148.369 300.359 C 150.18 331.042 154.235 376.887 162.71 391.761 C 175.851 414.824 186.706 407.588 175.851 414.824 C 164.997 422.06 157.71 416.374 162.71 427.81 C 167.711 439.246 155.952 453.915 155.952 453.915 L 151.271 458.596 L 156.235 460.631 L 314.432 481.215 C 314.432 481.215 300.753 419.714 309.308 404.605 C 317.862 389.497 338.604 343.829 320.092 325.959 L 301.992 262.265 L 270.859 253.083 L 248.214 237.537 Z" fill="#18aebf"/>
  <path d="M 483.661 489.959 C 472.59 489.608 464.466 479.426 466.581 468.553 L 392.375 418.298 L 401.229 394.355 L 488.929 454.688 C 502.263 458.327 506.659 475.036 496.84 484.766 C 493.345 488.23 488.58 490.107 483.661 489.959 Z" fill="#ffb6b6"/>
  <path d="M 274.064 259.257 L 263.281 263.527 L 320.803 375.87 L 439.882 457.039 L 457.047 428.028 L 366.403 349.733 L 330.113 280.135 C 319.535 259.847 295.337 250.834 274.064 259.257 Z" fill="#18aebf"/>
  <circle cx="226.742" cy="188.601" r="39.056" fill="#ffb6b6"/>
  <path d="M 260.705 172.085 C 260.054 172.429 259.412 172.745 258.76 173.062 C 258.082 173.387 257.404 173.713 256.716 174.021 C 243.646 179.945 232.999 180.606 226.541 172.085 C 226.364 167.602 225.355 163.191 223.565 159.078 C 223.881 163.675 222.67 168.248 220.119 172.085 L 207.112 172.085 C 193.716 180.976 186.841 189.144 196.14 218.333 C 196.746 220.251 200.898 288.38 202.083 293.617 C 181.803 285.838 164.31 203.246 163.866 181.483 C 163.839 181.13 163.839 180.759 163.839 180.398 C 163.834 178.654 163.924 176.912 164.111 175.178 C 164.349 172.812 164.76 170.466 165.341 168.159 L 165.286 168.15 C 161.103 164.15 159.054 158.41 159.76 152.665 C 163.162 148.21 167.372 144.436 172.17 141.539 C 176.533 139.426 181.081 137.719 185.756 136.437 C 185.873 136.41 185.973 136.383 186.091 136.356 C 187.52 135.967 188.985 135.614 190.45 135.307 C 193.47 134.674 196.523 134.212 199.595 133.923 C 199.821 133.914 200.038 133.896 200.237 133.896 C 201.466 133.897 202.672 134.228 203.729 134.855 C 203.738 134.855 203.738 134.864 203.756 134.864 C 205.821 136.098 207.093 138.319 207.112 140.725 L 221.602 140.725 C 222.136 140.725 222.67 140.743 223.203 140.77 C 243.383 141.575 259.602 150.204 260.642 170.041 C 260.687 170.728 260.705 171.398 260.705 172.085 Z" fill="#2f2e41"/>
  <circle cx="175.034" cy="147.925" r="25.73" fill="#2f2e41"/>
  <path d="M 210.359 136.024 C 207.436 149.93 193.014 158.248 179.217 154.845 C 165.42 151.443 156.993 137.5 160.395 123.703 C 163.798 109.906 180.542 113.884 191.538 104.882 C 207.092 92.147 214.301 117.27 210.359 136.024 Z" fill="#2f2e41"/>
  <path d="M 153.19 523.126 C 175.12 433.699 218.571 356.835 290.531 296.612 C 296.33 287.073 308.756 284.028 318.308 289.805 L 489.377 393.527 C 498.916 399.326 501.962 411.752 496.184 421.304 C 468.718 513.067 427.58 592.692 358.844 647.819 C 353.045 657.358 340.619 660.403 331.067 654.626 L 159.998 550.904 C 150.459 545.105 147.413 532.679 153.19 523.126 Z" fill="#f2f2f2"/>
  <path d="M 183.596 553.265 C 174.057 547.466 171.012 535.04 176.789 525.488 C 198.718 436.06 242.169 359.195 314.129 298.973 C 315.973 295.974 318.576 293.515 321.675 291.846 L 318.309 289.804 C 308.756 284.027 296.33 287.073 290.531 296.612 C 218.571 356.834 175.12 433.698 153.191 523.126 C 147.414 532.678 150.459 545.105 159.998 550.903 L 331.067 654.626 C 337.264 658.355 344.985 658.478 351.298 654.946 L 183.596 553.265 Z" opacity="0.2" style="isolation:isolate"/>
  <path d="M 384.216 503.301 L 269.387 434.113 C 264.087 430.91 264.242 423.172 269.665 420.183 C 272.175 418.8 275.232 418.857 277.689 420.333 L 392.518 489.522 C 397.812 492.735 397.642 500.473 392.213 503.451 C 389.71 504.824 386.666 504.767 384.216 503.301 Z" fill="#fff"/>
  <path d="M 317.415 411.55 L 292.153 396.329 C 286.839 393.15 286.96 385.411 292.37 382.398 C 294.88 381 297.946 381.048 300.412 382.523 L 300.456 382.549 L 325.718 397.771 C 331.012 400.982 330.844 408.721 325.416 411.7 C 322.912 413.074 319.867 413.017 317.415 411.55 Z" fill="#fff"/>
  <path d="M 365.965 533.59 L 251.136 464.402 C 245.832 461.207 245.975 453.468 251.394 450.472 C 253.904 449.084 256.963 449.137 259.423 450.612 L 259.439 450.622 L 374.268 519.811 C 379.561 523.024 379.392 530.762 373.963 533.74 C 371.459 535.113 368.416 535.056 365.965 533.59 Z" fill="#fff"/>
  <circle cx="398.798" cy="339.305" r="33.539" fill="#3f3d56"/>
  <circle cx="259.151" cy="584.722" r="71.685" fill="#fff"/>
  <path d="M 255.059 656.043 C 199.106 656.043 164.135 595.472 192.112 547.015 C 220.088 498.559 290.03 498.559 318.006 547.015 C 324.385 558.065 327.744 570.599 327.744 583.357 C 327.699 623.482 295.183 655.997 255.059 656.043 Z M 255.059 512.673 C 200.646 512.673 166.637 571.577 193.844 618.7 C 221.051 665.824 289.067 665.824 316.274 618.7 C 322.478 607.955 325.744 595.765 325.744 583.357 C 325.7 544.338 294.079 512.717 255.059 512.673 Z" fill="#3f3d56"/>
  <path d="M 241.188 623.394 C 238.678 623.394 236.315 622.212 234.809 620.204 L 215.253 594.128 C 211.565 589.22 214.574 582.162 220.667 581.423 C 223.5 581.079 226.301 582.275 228.011 584.56 L 240.806 601.618 L 273.667 552.326 C 277.072 547.219 284.729 547.713 287.45 553.215 C 288.713 555.769 288.517 558.802 286.937 561.173 L 247.823 619.843 C 246.388 621.996 243.997 623.319 241.41 623.392 C 241.336 623.393 241.262 623.394 241.188 623.394 Z" fill="#18aebf"/>
  <path d="M 163.857 524.074 C 152.985 519.619 148.688 506.488 154.822 496.468 L 99.717 419.007 L 117.395 398.497 L 182.172 490.977 C 194.074 499.538 192.245 517.773 178.88 523.801 C 174.121 525.946 168.691 526.045 163.857 524.074 Z" fill="#ffb6b6"/>
  <path d="M 165.123 278.602 C 159.364 275.214 151.997 276.511 147.742 281.662 L 73.287 385.791 L 142.287 483.791 L 169.287 454.791 L 127.287 388.791 L 183.105 335.646 C 192.606 314.832 184.843 290.205 165.123 278.602 Z" fill="#18aebf"/>
</svg>