<svg width="926.62165" height="600.08495" xmlns="http://www.w3.org/2000/svg" data-name="Layer 1">
 <g>
  <title>Layer 1</title>
  <circle cx="150.53395" cy="254.87249" r="24.56103" fill="#ffb8b8" id="svg_1"/>
  <polygon points="67.543 549.197 73.762 559.763 117.474 540.803 108.295 525.21 67.543 549.197" fill="#ffb8b8" id="svg_2"/>
  <path d="m69.40648,544.47217l12.24734,20.80688l0.0005,0.00084a15.38605,15.38605 0 0 1 -5.4555,21.06458l-0.43091,0.25362l-20.05239,-34.06705l13.69096,-8.05887z" fill="#2f2e41" id="svg_3"/>
  <polygon points="139.6 587.26 151.86 587.259 157.692 539.971 139.598 539.972 139.6 587.26" fill="#ffb8b8" id="svg_4"/>
  <path d="m136.47305,583.25713l24.14379,-0.001l0.001,0a15.38605,15.38605 0 0 1 15.38648,15.38623l0,0.5l-39.53052,0.00146l-0.00075,-15.88669z" fill="#2f2e41" id="svg_5"/>
  <path d="m90.31145,558.6097a4.49318,4.49318 0 0 1 -3.624,-1.833l-11.82373,-16.05859a4.49961,4.49961 0 0 1 1.12451,-6.41016l52.614,-35.1416l-31.74659,-83.47461l67.88918,5.60253l2.28662,71.7334a36.04579,36.04579 0 0 1 -18.04518,32.4238l-56.42652,32.55371a4.486,4.486 0 0 1 -2.24829,0.60452z" fill="#2f2e41" id="svg_6"/>
  <path d="m139.97015,577.65947a4.49986,4.49986 0 0 1 -4.48877,-4.33984l-2.488,-69.88184l30.80835,-1.623l-2.45313,70.38379a4.48729,4.48729 0 0 1 -4.1997,4.333l-16.87281,1.11817c-0.10233,0.00682 -0.20438,0.00972 -0.30594,0.00972z" fill="#2f2e41" id="svg_7"/>
  <path d="m172.60174,435.17122c-7.83838,0 -35.21656,-8.8164 -44.72119,-11.959c-1.42188,1.13769 -9.23316,6.97851 -18.35108,5.91113c-5.626,-0.66016 -10.57886,-3.84473 -14.72095,-9.46582c-9.147,-12.41406 2.15064,-65.65137 13.239,-108.126a34.26782,34.26782 0 0 1 40.52856,-24.87988l0,0a34.57137,34.57137 0 0 1 26.08765,25.37793c2.08765,8.49805 0.29175,18.49414 -1.01953,25.79395c-0.61646,3.43164 -1.10352,6.14257 -0.937,7.47461c0.64355,5.14843 4.21875,85.8916 1.91992,89.33984c-0.24487,0.36723 -0.95287,0.53324 -2.02538,0.53324z" fill="#18aebf" id="svg_8"/>
  <path d="m143.92682,435.31424a10.74269,10.74269 0 0 0 0.9416,-16.44569l0.48534,-97.84356l-23.04478,3.8374l6.76925,94.97037a10.80091,10.80091 0 0 0 14.84859,15.48148z" fill="#ffb8b8" id="svg_9"/>
  <path d="m149.25682,383.86068l-24.82183,0a4.51352,4.51352 0 0 1 -4.5,-4.459l-0.60938,-67.292a17.603,17.603 0 1 1 35.20411,0.043l-0.7732,67.25979a4.51547,4.51547 0 0 1 -4.4997,4.44821z" fill="#18aebf" id="svg_10"/>
  <path d="m144.28008,279.3312c-11.24529,0.02059 -21.85416,-8.868 -23.80286,-19.94323a28.67148,28.67148 0 0 1 0.91927,-13.01372a34.95394,34.95394 0 0 1 47.93533,-21.95278c3.00831,1.36131 5.97145,3.31645 7.3489,6.31741s0.51535,7.19528 -2.49791,8.54561c-1.96916,0.88242 -4.44023,0.4491 -6.18719,1.71573c-2.50928,1.81937 -1.86334,5.69129 -0.74286,8.58112s2.38776,6.38691 0.50947,8.85239c-1.75023,2.29739 -5.24872,2.22609 -8.00436,1.36137s-5.47557,-2.31277 -8.34864,-2.01822c-4.1904,0.42961 -7.20172,4.59773 -7.7591,8.77306s0.75474,8.34892 2.05018,12.35714l-1.42023,0.42412z" fill="#2f2e41" id="svg_11"/>
  <path d="m259,600.08494l-258,0a1,1 0 1 1 0,-2l258,0a1,1 0 0 1 0,2z" fill="#ccc" id="svg_12"/>
  <path d="m910.12164,434.54785l-640.8385,0a16.51868,16.51868 0 0 1 -16.5,-16.5l0,-395.15381a12.10185,12.10185 0 0 1 12.08789,-12.08838l649.4535,0a12.31111,12.31111 0 0 1 12.29711,12.29736l0,394.94483a16.51867,16.51867 0 0 1 -16.5,16.5z" fill="#f2f2f2" id="svg_13"/>
  <path d="m889.40182,413.71553l-597.24473,0c-8.755,0 -15.87757,-6.66993 -15.87757,-14.86817l0,-344.105c0,-6.08008 5.278,-11.02685 11.76563,-11.02685l605.27367,0c6.59521,0 11.96069,5.02832 11.96069,11.20849l0,343.92336c0.00001,8.19824 -7.12279,14.86817 -15.87769,14.86817z" fill="#fff" id="svg_14"/>
  <path d="m926.39191,24.95019l-673.84033,0l0,-8.40039a16.57376,16.57376 0 0 1 16.56,-16.5498l640.72024,0a16.57368,16.57368 0 0 1 16.56006,16.5498l0.00003,8.40039z" fill="#3f3d56" id="svg_15"/>
  <circle cx="282.64694" cy="12.5" r="4.28342" fill="#fff" id="svg_16"/>
  <circle cx="298.90575" cy="12.5" r="4.28342" fill="#fff" id="svg_17"/>
  <circle cx="315.16455" cy="12.5" r="4.28342" fill="#fff" id="svg_18"/>
  <path d="m576.61049,118.95447l-116.80814,0a6.56614,6.56614 0 0 1 0,-13.13228l116.80814,0a6.56614,6.56614 0 1 1 0,13.13228z" fill="#ccc" id="svg_19"/>
  <path d="m721.75669,118.95447l-116.80813,0a6.56614,6.56614 0 0 1 0,-13.13228l116.80813,0a6.56614,6.56614 0 1 1 0,13.13228z" fill="#ccc" id="svg_20"/>
  <path d="m721.75669,143.83666l-203.20468,0a6.56613,6.56613 0 1 1 0,-13.13227l203.20468,0a6.56613,6.56613 0 1 1 0,13.13227z" fill="#ccc" id="svg_21"/>
  <path d="m576.61049,93.72666l-116.80814,0a6.56614,6.56614 0 0 1 0,-13.13227l116.80814,0a6.56614,6.56614 0 1 1 0,13.13227z" fill="#ccc" id="svg_22"/>
  <path d="m640.88952,94.07225l-33.17627,0a6.56614,6.56614 0 0 1 0,-13.13228l33.17627,0a6.56614,6.56614 0 1 1 0,13.13228z" fill="#ccc" id="svg_23"/>
  <path d="m492.97863,143.83666l-33.17628,0a6.56614,6.56614 0 0 1 0,-13.13227l33.17628,0a6.56614,6.56614 0 1 1 0,13.13227z" fill="#ccc" id="svg_24"/>
  <path d="m576.61049,351.95447l-116.80814,0a6.56614,6.56614 0 0 1 0,-13.13228l116.80814,0a6.56614,6.56614 0 1 1 0,13.13228z" fill="#ccc" id="svg_25"/>
  <path d="m721.75669,351.95447l-116.80813,0a6.56614,6.56614 0 0 1 0,-13.13228l116.80813,0a6.56614,6.56614 0 1 1 0,13.13228z" fill="#ccc" id="svg_26"/>
  <path d="m721.75669,376.83666l-203.20468,0a6.56613,6.56613 0 1 1 0,-13.13227l203.20468,0a6.56614,6.56614 0 1 1 0,13.13227z" fill="#ccc" id="svg_27"/>
  <path d="m576.61049,326.72666l-116.80814,0a6.56613,6.56613 0 0 1 0,-13.13227l116.80814,0a6.56613,6.56613 0 1 1 0,13.13227z" fill="#ccc" id="svg_28"/>
  <path d="m640.88952,327.07225l-33.17627,0a6.56614,6.56614 0 0 1 0,-13.13228l33.17627,0a6.56614,6.56614 0 0 1 0,13.13228z" fill="#ccc" id="svg_29"/>
  <path d="m492.97863,376.83666l-33.17628,0a6.56613,6.56613 0 0 1 0,-13.13227l33.17628,0a6.56614,6.56614 0 1 1 0,13.13227z" fill="#ccc" id="svg_30"/>
  <g id="svg_31" stroke="null">
   <g id="svg_32" stroke="null">
    <rect fill="#84D3DB" id="svg_33" x="610.99831" y="212.85498" width="3.5625" height="8.4375" stroke="null"/>
    <rect fill="#84D3DB" id="svg_34" x="618.12331" y="212.85498" width="3.5625" height="8.4375" stroke="null"/>
    <rect fill="#84D3DB" id="svg_35" x="610.99831" y="224.66748" width="3.5625" height="3.375" stroke="null"/>
    <rect fill="#84D3DB" id="svg_36" x="618.12331" y="224.66748" width="3.5625" height="3.375" stroke="null"/>
    <rect fill="#84D3DB" id="svg_37" x="598.52956" y="231.41748" width="3.5625" height="3.375" stroke="null"/>
    <rect fill="#84D3DB" id="svg_38" x="589.62331" y="265.16748" width="3.5625" height="3.375" stroke="null"/>
    <rect fill="#84D3DB" id="svg_39" x="618.12331" y="231.41748" width="3.5625" height="3.375" stroke="null"/>
    <rect fill="#84D3DB" id="svg_40" x="610.99831" y="238.16748" width="3.5625" height="3.375" stroke="null"/>
    <rect fill="#84D3DB" id="svg_41" x="618.12331" y="238.16748" width="3.5625" height="3.375" stroke="null"/>
    <path fill="#84D3DB" id="svg_42" d="m546.87331,177.41748l5.34375,0l0,-3.375l-7.125,0c-0.98325,0 -1.78125,0.756 -1.78125,1.6875l0,6.75l3.5625,0l0,-5.0625z" stroke="null"/>
    <path fill="#84D3DB" id="svg_43" d="m655.52956,174.04248l-7.125,0l0,3.375l5.34375,0l0,5.0625l3.5625,0l0,-6.75c0,-0.9315 -0.798,-1.6875 -1.78125,-1.6875z" stroke="null"/>
    <path fill="#84D3DB" id="svg_44" d="m546.87331,273.60498l-3.5625,0l0,6.75c0,0.9315 0.798,1.6875 1.78125,1.6875l7.125,0l0,-3.375l-5.34375,0l0,-5.0625z" stroke="null"/>
    <path fill="#84D3DB" id="svg_45" d="m653.74831,278.66748l-5.34375,0l0,3.375l7.125,0c0.98325,0 1.78125,-0.756 1.78125,-1.6875l0,-6.75l-3.5625,0l0,5.0625z" stroke="null"/>
    <path fill="#84D3DB" id="svg_46" d="m550.43581,182.47998l0,20.25c0,0.9315 0.798,1.6875 1.78125,1.6875l21.375,0c0.98325,0 1.78125,-0.756 1.78125,-1.6875l0,-20.25c0,-0.9315 -0.798,-1.6875 -1.78125,-1.6875l-21.375,0c-0.98325,0 -1.78125,0.756 -1.78125,1.6875zm3.5625,1.6875l17.8125,0l0,16.875l-17.8125,0l0,-16.875z" stroke="null"/>
    <path fill="#84D3DB" id="svg_47" d="m566.46706,187.54248l-7.125,0c-0.98325,0 -1.78125,0.756 -1.78125,1.6875l0,6.75c0,0.9315 0.798,1.6875 1.78125,1.6875l7.125,0c0.98325,0 1.78125,-0.756 1.78125,-1.6875l0,-6.75c0,-0.9315 -0.798,-1.6875 -1.78125,-1.6875zm-1.78125,6.75l-3.5625,0l0,-3.375l3.5625,0l0,3.375z" stroke="null"/>
    <path fill="#84D3DB" id="svg_48" d="m627.02956,204.41748l21.375,0c0.98325,0 1.78125,-0.756 1.78125,-1.6875l0,-20.25c0,-0.9315 -0.798,-1.6875 -1.78125,-1.6875l-21.375,0c-0.98325,0 -1.78125,0.756 -1.78125,1.6875l0,20.25c0,0.9315 0.798,1.6875 1.78125,1.6875zm1.78125,-20.25l17.8125,0l0,16.875l-17.8125,0l0,-16.875z" stroke="null"/>
    <path fill="#84D3DB" id="svg_49" d="m641.27956,187.54248l-7.125,0c-0.98325,0 -1.78125,0.756 -1.78125,1.6875l0,6.75c0,0.9315 0.798,1.6875 1.78125,1.6875l7.125,0c0.98325,0 1.78125,-0.756 1.78125,-1.6875l0,-6.75c0,-0.9315 -0.798,-1.6875 -1.78125,-1.6875zm-1.78125,6.75l-3.5625,0l0,-3.375l3.5625,0l0,3.375z" stroke="null"/>
    <path fill="#84D3DB" id="svg_50" d="m573.59206,251.66748l-21.375,0c-0.98325,0 -1.78125,0.756 -1.78125,1.6875l0,20.25c0,0.9315 0.798,1.6875 1.78125,1.6875l21.375,0c0.98325,0 1.78125,-0.756 1.78125,-1.6875l0,-20.25c0,-0.9315 -0.798,-1.6875 -1.78125,-1.6875zm-1.78125,20.25l-17.8125,0l0,-16.875l17.8125,0l0,16.875z" stroke="null"/>
    <path fill="#84D3DB" id="svg_51" d="m559.34206,268.54248l7.125,0c0.98325,0 1.78125,-0.756 1.78125,-1.6875l0,-6.75c0,-0.9315 -0.798,-1.6875 -1.78125,-1.6875l-7.125,0c-0.98325,0 -1.78125,0.756 -1.78125,1.6875l0,6.75c0,0.9315 0.798,1.6875 1.78125,1.6875zm1.78125,-6.75l3.5625,0l0,3.375l-3.5625,0l0,-3.375z" stroke="null"/>
    <path fill="#84D3DB" id="svg_52" d="m621.68581,206.10498l-12.46875,0l0,-20.25l-3.5625,0l0,21.9375c0,0.9315 0.798,1.6875 1.78125,1.6875l14.25,0l0,-3.375z" stroke="null"/>
    <rect fill="#84D3DB" id="svg_53" x="582.49831" y="194.29248" width="12.46875" height="3.375" stroke="null"/>
    <rect fill="#84D3DB" id="svg_54" x="589.62331" y="187.54248" width="12.46875" height="3.375" stroke="null"/>
    <rect fill="#84D3DB" id="svg_55" x="550.43581" y="206.10498" width="3.5625" height="15.1875" stroke="null"/>
    <path fill="#84D3DB" id="svg_56" d="m575.37331,216.22998l-17.8125,0l0,3.375l16.03125,0l0,6.75l3.5625,0l0,-8.4375c0,-0.9315 -0.798,-1.6875 -1.78125,-1.6875z" stroke="null"/>
    <rect fill="#84D3DB" id="svg_57" x="559.34206" y="207.79248" width="3.5625" height="3.375" stroke="null"/>
    <rect fill="#84D3DB" id="svg_58" x="580.71706" y="204.41748" width="3.5625" height="13.5" stroke="null"/>
    <rect fill="#84D3DB" id="svg_59" x="580.71706" y="221.29248" width="16.03125" height="3.375" stroke="null"/>
    <path fill="#84D3DB" id="svg_60" d="m651.96706,222.97998l-3.5625,0l0,16.875l-5.34375,0l0,3.375l7.125,0c0.98325,0 1.78125,-0.756 1.78125,-1.6875l0,-18.5625z" stroke="null"/>
    <rect fill="#84D3DB" id="svg_61" x="589.62331" y="204.41748" width="3.5625" height="3.375" stroke="null"/>
    <rect fill="#84D3DB" id="svg_62" x="550.43581" y="229.72998" width="3.5625" height="13.5" stroke="null"/>
    <rect fill="#84D3DB" id="svg_63" x="550.43581" y="244.91748" width="16.03125" height="3.375" stroke="null"/>
    <path fill="#84D3DB" id="svg_64" d="m632.37331,221.29248l3.5625,0l0,-6.75c0,-0.9315 -0.798,-1.6875 -1.78125,-1.6875l-8.90625,0l0,3.375l7.125,0l0,5.0625z" stroke="null"/>
    <rect fill="#84D3DB" id="svg_65" x="559.34206" y="229.72998" width="3.5625" height="3.375" stroke="null"/>
    <rect fill="#84D3DB" id="svg_66" x="578.93581" y="228.04248" width="3.5625" height="13.5" stroke="null"/>
    <rect fill="#84D3DB" id="svg_67" x="578.93581" y="244.91748" width="16.03125" height="3.375" stroke="null"/>
    <rect fill="#84D3DB" id="svg_68" x="557.56081" y="238.16748" width="16.03125" height="3.375" stroke="null"/>
    <rect fill="#84D3DB" id="svg_69" x="580.71706" y="261.79248" width="3.5625" height="6.75" stroke="null"/>
    <rect fill="#84D3DB" id="svg_70" x="578.93581" y="255.04248" width="16.03125" height="3.375" stroke="null"/>
    <path fill="#84D3DB" id="svg_71" d="m607.43581,248.29248l0,-8.4375c0,-0.9315 -0.798,-1.6875 -1.78125,-1.6875l-17.8125,0l0,3.375l16.03125,0l0,6.75l3.5625,0z" stroke="null"/>
    <rect fill="#84D3DB" id="svg_72" x="589.62331" y="228.04248" width="3.5625" height="3.375" stroke="null"/>
    <rect fill="#84D3DB" id="svg_73" x="570.02956" y="231.41748" width="3.5625" height="3.375" stroke="null"/>
    <rect fill="#84D3DB" id="svg_74" x="648.40456" y="263.47998" width="3.5625" height="11.8125" stroke="null"/>
    <rect fill="#84D3DB" id="svg_75" x="639.49831" y="271.91748" width="5.34375" height="3.375" stroke="null"/>
    <rect fill="#84D3DB" id="svg_76" x="639.49831" y="261.79248" width="3.5625" height="6.75" stroke="null"/>
    <path fill="#84D3DB" id="svg_77" d="m651.96706,248.29248c0,-0.9315 -0.798,-1.6875 -1.78125,-1.6875l-19.59375,0l0,3.375l17.8125,0l0,10.125l3.5625,0l0,-11.8125z" stroke="null"/>
    <path fill="#84D3DB" id="svg_78" d="m628.81081,268.54248l0,-8.4375c0,-0.9315 -0.798,-1.6875 -1.78125,-1.6875l-19.59375,0l0,3.375l17.8125,0l0,6.75l3.5625,0z" stroke="null"/>
    <rect fill="#84D3DB" id="svg_79" x="632.37331" y="253.35498" width="12.46875" height="3.375" stroke="null"/>
    <rect fill="#84D3DB" id="svg_80" x="578.93581" y="271.91748" width="12.46875" height="3.375" stroke="null"/>
    <rect fill="#84D3DB" id="svg_81" x="596.74831" y="260.10498" width="3.5625" height="15.1875" stroke="null"/>
    <rect fill="#84D3DB" id="svg_82" x="600.31081" y="251.66748" width="7.125" height="3.375" stroke="null"/>
    <path fill="#84D3DB" id="svg_83" d="m627.02956,234.79248l8.90625,0l0,-3.375l-7.125,0l0,-10.125l-3.5625,0l0,11.8125c0,0.9315 0.798,1.6875 1.78125,1.6875z" stroke="null"/>
    <rect fill="#84D3DB" id="svg_84" x="632.37331" y="224.66748" width="8.90625" height="3.375" stroke="null"/>
    <rect fill="#84D3DB" id="svg_85" x="639.49831" y="207.79248" width="5.34375" height="3.375" stroke="null"/>
    <rect fill="#84D3DB" id="svg_86" x="648.40456" y="207.79248" width="3.5625" height="8.4375" stroke="null"/>
    <rect fill="#84D3DB" id="svg_87" x="639.49831" y="216.22998" width="3.5625" height="3.375" stroke="null"/>
    <path fill="#84D3DB" id="svg_88" d="m612.77956,202.72998l7.125,0c0.98325,0 1.78125,-0.756 1.78125,-1.6875l0,-21.9375l-3.5625,0l0,20.25l-5.34375,0l0,3.375z" stroke="null"/>
    <path fill="#84D3DB" id="svg_89" d="m586.06081,182.47998l26.71875,0l0,-3.375l-28.5,0c-0.98325,0 -1.78125,0.756 -1.78125,1.6875l0,8.4375l3.5625,0l0,-6.75z" stroke="null"/>
    <path fill="#84D3DB" id="svg_90" d="m587.84206,214.54248l12.46875,0c0.98325,0 1.78125,-0.756 1.78125,-1.6875l0,-13.5l-3.5625,0l0,11.8125l-10.6875,0l0,3.375z" stroke="null"/>
    <rect fill="#84D3DB" id="svg_91" x="603.87331" y="212.85498" width="3.5625" height="6.75" stroke="null"/>
    <rect fill="#84D3DB" id="svg_92" x="607.43581" y="265.16748" width="12.46875" height="3.375" stroke="null"/>
    <rect fill="#84D3DB" id="svg_93" x="607.43581" y="271.91748" width="16.03125" height="3.375" stroke="null"/>
    <path fill="#84D3DB" id="svg_94" d="m632.37331,271.91748l-3.5625,0l0,3.375l5.34375,0c0.98325,0 1.78125,-0.756 1.78125,-1.6875l0,-13.5l-3.5625,0l0,11.8125z" stroke="null"/>
    <rect fill="#84D3DB" id="svg_95" x="571.81081" y="244.91748" width="3.5625" height="3.375" stroke="null"/>
    <rect fill="#84D3DB" id="svg_96" x="612.77956" y="244.91748" width="7.125" height="3.375" stroke="null"/>
    <rect fill="#84D3DB" id="svg_97" x="625.24831" y="238.16748" width="3.5625" height="5.0625" stroke="null"/>
    <rect fill="#84D3DB" id="svg_98" x="623.46706" y="246.60498" width="3.5625" height="3.375" stroke="null"/>
    <rect fill="#84D3DB" id="svg_99" x="612.77956" y="251.66748" width="5.34375" height="3.375" stroke="null"/>
    <rect fill="#84D3DB" id="svg_100" x="632.37331" y="238.16748" width="3.5625" height="3.375" stroke="null"/>
    <rect fill="#84D3DB" id="svg_101" x="639.49831" y="231.41748" width="5.34375" height="3.375" stroke="null"/>
    <rect fill="#84D3DB" id="svg_102" x="605.65456" y="231.41748" width="8.90625" height="3.375" stroke="null"/>
    <rect fill="#84D3DB" id="svg_103" x="603.87331" y="222.97998" width="3.5625" height="5.0625" stroke="null"/>
   </g>
   <g id="svg_104" stroke="null"/>
   <g id="svg_105" stroke="null"/>
   <g id="svg_106" stroke="null"/>
   <g id="svg_107" stroke="null"/>
   <g id="svg_108" stroke="null"/>
   <g id="svg_109" stroke="null"/>
   <g id="svg_110" stroke="null"/>
   <g id="svg_111" stroke="null"/>
   <g id="svg_112" stroke="null"/>
   <g id="svg_113" stroke="null"/>
   <g id="svg_114" stroke="null"/>
   <g id="svg_115" stroke="null"/>
   <g id="svg_116" stroke="null"/>
   <g id="svg_117" stroke="null"/>
   <g id="svg_118" stroke="null"/>
  </g>
 </g>

</svg>