<svg width="782.70798" height="569.22538" xmlns="http://www.w3.org/2000/svg" data-name="Layer 1">

 <g>
  <title>Layer 1</title>
  <path id="svg_3" fill="#e6e6e6" d="m316.5,303.14492l-274,0a16.51867,16.51867 0 0 1 -16.5,-16.5l0,-197a16.51866,16.51866 0 0 1 16.5,-16.5l274,0a16.51867,16.51867 0 0 1 16.5,16.5l0,197a16.51868,16.51868 0 0 1 -16.5,16.5z"/>
  <path id="svg_4" fill="#fff" d="m46.56472,289.99202l263.87061,0a8,8 0 0 0 8,-8l0,-187.69433a8,8 0 0 0 -8,-8l-263.87061,0a8,8 0 0 0 -8,8l0,187.69433a8,8 0 0 0 8,8z"/>
  <path id="svg_1" fill="#e6e6e6" d="m520.5415,387.6205l-274.0005,0a16.519,16.519 0 0 1 -16.5,-16.5l0,-197.00049a16.51868,16.51868 0 0 1 16.5,-16.5l274.0005,0a16.519,16.519 0 0 1 16.5,16.5l0,197.00049a16.51929,16.51929 0 0 1 -16.5,16.5z"/>
  <path id="svg_15" fill="#e6e6e6" d="m66.0708,219.13658a5.96564,5.96564 0 1 0 0,11.93128l224.85844,0a5.96564,5.96564 0 0 0 0,-11.93128l-224.85844,0z"/>
  <path id="svg_14" fill="#e6e6e6" d="m66.0708,182.425a5.96564,5.96564 0 1 0 0,11.93128l224.85844,0a5.96564,5.96564 0 1 0 0,-11.93128l-224.85844,0z"/>
  <path id="svg_2" fill="#fff" d="m252.60582,374.46724l263.8706,0a8,8 0 0 0 8,-8l0,-187.69434a8,8 0 0 0 -8,-8l-263.8706,0a8,8 0 0 0 -8,8l0,187.69434a8,8 0 0 0 8,8z"/>
  <path id="svg_5" fill="#e6e6e6" d="m484.02336,229.09322l-168.55084,0a6.01968,6.01968 0 1 0 0,12.03936l168.55084,0a6.01968,6.01968 0 0 0 0,-12.03936z"/>
  <path id="svg_6" fill="#e6e6e6" d="m316.47252,265.13735a6.01968,6.01968 0 1 0 0,12.03936l168.55084,0a6.01968,6.01968 0 0 0 0,-12.03936l-168.55084,0z"/>
  <path stroke="null" id="svg_7" fill="#e6e6e6" d="m315.57252,293.18151a6.11968,19.51967 0 1 0 0,39.03934l171.35084,0a6.11968,19.51967 0 0 0 0,-39.03934l-171.35084,0z"/>
  <circle id="svg_8" fill="#18aebf" r="7.40884" cy="234.57596" cx="288.52193"/>
  <circle id="svg_9" fill="#e6e6e6" r="7.40884" cy="273.62009" cx="287.52193"/>
  <circle id="svg_10" fill="#e6e6e6" r="7.40884" cy="312.66422" cx="287.52193"/>
  <path id="svg_11" fill="#18aebf" d="m416.88084,235.11287l0,0a6.01961,6.01961 0 0 1 -6.01965,6.01965l-95.17181,0a6.167,6.167 0 0 1 -6.18439,-5.21972a6.03031,6.03031 0 0 1 5.96753,-6.81964l95.38867,0a6.01966,6.01966 0 0 1 6.01965,6.01965l0,0.00006z"/>
  <path id="svg_16" fill="#18aebf" d="m166.56877,257.68376a5.96564,5.96564 0 0 0 0,11.93128l23.86249,0a5.96564,5.96564 0 0 0 0,-11.93128l-23.86249,0z"/>
  <path id="svg_17" fill="#18aebf" d="m146.52437,106.67469a1.83739,1.83739 0 0 0 -1.83557,1.83557l0,46.59619a1.83739,1.83739 0 0 0 1.83557,1.83557l63.95129,0a1.83739,1.83739 0 0 0 1.83557,-1.83557l0,-46.59621a1.83739,1.83739 0 0 0 -1.83557,-1.83557l-63.95129,0.00002z"/>
  <circle id="svg_18" fill="#fff" r="10.09569" cy="126.65496" cx="178.50003"/>
  <path id="svg_19" fill="#fff" d="m195.02025,152.35307a10.01783,10.01783 0 0 1 -1.10135,4.589l-30.83774,0a10.09444,10.09444 0 0 1 8.99432,-14.68463l12.84906,0a10.09,10.09 0 0 1 10.09571,10.08425l0,0.01138z"/>
  <circle id="svg_20" fill="#fff" r="10.09569" cy="126.65496" cx="178.50003"/>
  <path id="svg_21" fill="#fff" d="m195.02025,152.35307a10.01783,10.01783 0 0 1 -1.10135,4.589l-30.83774,0a10.09444,10.09444 0 0 1 8.99432,-14.68463l12.84906,0a10.09,10.09 0 0 1 10.09571,10.08425l0,0.01138z"/>
  <circle id="svg_22" fill="#e6e6e6" r="23.86253" cy="47.86253" cx="179.50003"/>
  <circle id="svg_23" fill="#18aebf" r="11.93126" cy="47.86253" cx="179.50003"/>
  <polygon id="svg_24" fill="#ffb8b8" points="621.1190185546875,552.239990234375 609.68701171875,552.239013671875 604.25,508.14300537109375 621.1229858398438,508.14501953125 621.1190185546875,552.239990234375 "/>
  <path id="svg_25" fill="#2f2e41" d="m601.52095,548.97276l22.04782,0a0,0 0 0 1 0,0l0,13.88195a0,0 0 0 1 0,0l-35.92977,0a0,0 0 0 1 0,0l0,0a13.88193,13.88193 0 0 1 13.88195,-13.88195z"/>
  <polygon id="svg_26" fill="#ffb8b8" points="682.7410278320312,552.239990234375 671.3079833984375,552.239013671875 665.8720092773438,508.14300537109375 682.7449951171875,508.14501953125 682.7410278320312,552.239990234375 "/>
  <path id="svg_27" fill="#2f2e41" d="m663.14219,548.97276l22.04781,0a0,0 0 0 1 0,0l0,13.88195a0,0 0 0 1 0,0l-35.92974,0a0,0 0 0 1 0,0l0,0a13.88193,13.88193 0 0 1 13.88193,-13.88195z"/>
  <circle id="svg_28" fill="#ffb8b8" r="24.56103" cy="214.20424" cx="649.25964"/>
  <path id="svg_29" fill="#ffb8b8" d="m565.27713,374.3823a9.377,9.377 0 0 1 12.09227,-7.77928l13.72625,-16.45445l12.03377,5.9026l-19.71048,22.96461a9.42779,9.42779 0 0 1 -18.14181,-4.63348z"/>
  <path id="svg_30" fill="#ffb8b8" d="m683.41084,391.02394a9.37694,9.37694 0 0 1 6.03109,-13.05243l2.75577,-21.25l13.322,-1.47493l-4.31317,29.95453a9.42778,9.42778 0 0 1 -17.79574,5.82288l0.00005,-0.00005z"/>
  <path id="svg_31" fill="#18aebf" d="m669.78563,260.59491l0,0a12.08366,12.08366 0 0 1 20.75013,2.93029l20.13136,50.24026a31.21152,31.21152 0 0 1 1.90082,16.1937l-6.5574,44.15842a4,4 0 0 1 -5.13083,3.23622l-8.63923,-2.653a4,4 0 0 1 -2.79855,-4.28974l0,0a145.305,145.305 0 0 0 -11.66387,-76.2314l-9.49042,-21.22808a12.08366,12.08366 0 0 1 1.49799,-12.35667z"/>
  <path id="svg_32" fill="#2f2e41" d="m655.23982,238.76428a26.205,26.205 0 1 0 -4.91018,-51.82531c-5.40118,-3.27952 -11.6809,-5.48627 -17.97478,-4.925s-12.51835,4.29789 -14.87192,10.16208s0.17487,13.59411 6.02708,15.97731c3.75184,1.52786 7.98866,0.78691 11.99255,0.1708s8.37171,-1.01818 11.85635,1.04773s5.05106,7.60548 1.93025,10.18835a10.73849,10.73849 0 0 0 -3.0842,11.82028c1.56846,4.05629 5.84936,7.31494 9.03485,7.38376z"/>
  <path id="svg_33" fill="#2f2e41" d="m685.71272,373.4112l4.35677,165.33965a4,4 0 0 1 -4.20243,4.10017l-14.35213,-0.73225a4,4 0 0 1 -3.74658,-3.36683l-17.07109,-107.38906a2,2 0 0 0 -3.92705,-0.12223l-23.10757,103.3966a4,4 0 0 1 -5.24374,2.89644l-14.24375,-0.87a4,4 0 0 1 -2.64985,-4.05305l12.434,-160.76415l71.75342,1.56471z"/>
  <path id="svg_34" fill="#18aebf" d="m692.70463,294.88048c2.403,-25.05536 -16.01923,-47.71792 -41.12634,-49.5007c-10.81772,-0.76813 -27.61219,-1.04272 -33.14841,13.13649c-16.6774,42.71374 12.51774,41.67582 2.45885,78.68291s-18.94295,39.128 -5.14122,41.8003s75.86672,18.447 73.31817,-7.60005c-1.56653,-16.01055 1.24199,-51.52613 3.63895,-76.51895z"/>
  <path id="svg_35" fill="#18aebf" d="m621.38314,254.17169l0,0a12.08365,12.08365 0 0 1 16.29393,13.17809l-7.8391,48.991a47.876,47.876 0 0 1 -10.26518,22.80676l-25.45945,31.02415a4,4 0 0 1 -6.06459,0.13914l-6.04745,-6.71587a4,4 0 0 1 -0.196,-5.11814l1.7811,-2.31141a134.70322,134.70322 0 0 0 27.04466,-66.179l3.11643,-25.98472a12.08364,12.08364 0 0 1 7.63565,-9.83z"/>
  <path id="svg_36" fill="#ccc" d="m755.708,565.22538l-258,0a1,1 0 0 1 0,-2l258,0a1,1 0 0 1 0,2z"/>
  <circle id="svg_39" fill="#e6e6e6" r="23.86253" cy="130.86253" cx="387.50003"/>
  <circle id="svg_37" fill="#18aebf" r="11.93126" cy="130.86253" cx="387.50003"/>
  <path id="svg_38" fill="#18aebf" d="m379.56877,349.68376a5.96564,5.96564 0 0 0 0,11.93128l23.86249,0a5.96564,5.96564 0 0 0 0,-11.93128l-23.86249,0z"/>
 </g>
</svg>