<?xml version="1.0" encoding="utf-8"?>
<!-- Generator: Adobe Illustrator 23.0.6, SVG Export Plug-In . SVG Version: 6.00 Build 0)  -->
<svg version="1.1" id="a5349118-8809-40c5-ab34-fa23ee5ede74"
	 xmlns="http://www.w3.org/2000/svg" xmlns:xlink="http://www.w3.org/1999/xlink" x="0px" y="0px" viewBox="0 0 761 700.7"
	 style="enable-background:new 0 0 761 700.7;" xml:space="preserve">
<style type="text/css">
	.st0{fill:#2F2E41;}
	.st1{fill:#19AEBF;}
	.st2{fill:#3F3D56;}
	.st3{opacity:0.1;enable-background:new    ;}
	.st4{fill:#F1F1F1;}
	.st5{fill:#FFB8B8;}
	.st6{fill:#F99B36;}
</style>
<title>link</title>
<path class="st0" d="M41.6,248.9c12.4,23,38.8,32.9,38.8,32.9s6.2-27.5-6.2-50.5s-38.8-32.9-38.8-32.9S29.2,225.9,41.6,248.9z"/>
<path class="st1" d="M50.2,241.3c22.4,13.5,31.1,40.3,31.1,40.3s-27.7,4.9-50.2-8.6S0,232.8,0,232.8S27.7,227.8,50.2,241.3z"/>
<path class="st2" d="M761,623.7c0,24.3-57.8,77-129,77s-129-52.7-129-77s57.8-11,129-11S761,599.4,761,623.7z"/>
<path class="st3" d="M761,623.7c0,24.3-57.8,77-129,77s-129-52.7-129-77s57.8-11,129-11S761,599.4,761,623.7z"/>
<ellipse class="st2" cx="632" cy="623.7" rx="129" ry="44"/>
<rect x="76" y="301.7" class="st4" width="410" height="234"/>
<ellipse class="st0" cx="677.5" cy="40.7" rx="39.5" ry="37"/>
<path class="st5" d="M562.5,271.2l-10,14c0,0-48,10-30,25s44-14,44-14l14-18L562.5,271.2z"/>
<path class="st6" d="M614.5,112.2c0,0-13,0-16,18s-6,78-6,78s-42,55-35,62s15,20,20,18s48-61,48-61L614.5,112.2z"/>
<path class="st3" d="M614.5,112.2c0,0-13,0-16,18s-6,78-6,78s-42,55-35,62s15,20,20,18s48-61,48-61L614.5,112.2z"/>
<path class="st5" d="M654.5,61.2c0,0-1,39-13,41s-8,15-8,15s39,23,65,0l5-12c0,0-18-13-10-31L654.5,61.2z"/>
<path class="st0" d="M587.5,301.2c0,0-59,110-37,144s55,104,60,104s33-14,31-23s-32-76-40-82s-4-22-3-23s34-54,34-54s-1,84,3,97
	s-1,106,4,110s28,11,32,5s16-97,8-118l15-144L587.5,301.2z"/>
<path class="st0" d="M641.5,568.2l-25,46c0,0-36,26-11,30s40-6,40-6l22-16v-46L641.5,568.2z"/>
<path class="st0" d="M607.5,542.2l13,31c0,0,5,13,0,16s-19,21-10,23c1.8,0.4,3.7,0.5,5.5,0.5c15.1,0.3,29.7-5.7,40.4-16.4l8.1-8.1
	c0,0-27.8-63.9-27.4-63.5S607.5,542.2,607.5,542.2z"/>
<circle class="st5" cx="679.5" cy="51.2" r="34"/>
<path class="st6" d="M699,98.7l-10.5,10.5c0,0-32,12-47,0c0,0,5.5-11.5,5.5-10.5s-43.5,7.5-47.5,25.5s3,49,3,49s-28,132-17,135
	s114,28,113,9s8-97,8-97l35-67c0,0-5-22-17-29C712.5,117.2,699,98.7,699,98.7z"/>
<path class="st5" d="M654.5,294.2l-13,8c0,0-50,34-24,40s41-24,41-24l10-12L654.5,294.2z"/>
<path class="st3" d="M728.5,147.2l9,9c0,0,6,84-6,101s-67,63-70,60s-22-18-18-20s57.2-57.6,57.2-57.6l-4.2-77.4L728.5,147.2z"/>
<path class="st6" d="M732.5,144.2l9,9c0,0,6,84-6,101s-67,63-70,60s-22-18-18-20s57.2-57.6,57.2-57.6l-4.2-77.4L732.5,144.2z"/>
<path class="st0" d="M665.4,2.9c0,0-11.6-4.2-27.3,4.7l8.4,2.1c0,0-12.6,1.1-14.2,17.9h5.8c0,0-3.7,14.7,0,18.9l2.4-4.5l6.8,13.7
	l1.6-6.8l3.2,1.1l2.1-11c0,0,5.3,7.9,9.5,8.4v-6.8c0,0,11.6,13.1,15.2,12.6l-5.3-7.4l7.4,1.6l-3.2-5.3l18.9,5.3l-4.2-5.3l13.1,4.2
	l6.3,2.6c0,0,8.9-20.5-3.7-34.7S677.3-3.1,665.4,2.9z"/>
<path class="st2" d="M335.1,428.8c-0.8,0.5-1.7,1-2.6,1.5c-15.2,7.6-33.7,1.5-41.4-13.6l-6.7-13.2l4.5-2.3l6.7,13.2
	c6.4,12.7,22,17.9,34.7,11.4c12.7-6.4,17.9-22,11.4-34.7l-27.9-55.4c-6.4-12.7-22-17.9-34.7-11.4c-12.7,6.4-17.9,22-11.4,34.7
	l9.9,19.6l-4.5,2.3l-9.9-19.6c-7.7-15.2-1.6-33.8,13.7-41.4s33.8-1.6,41.4,13.7l27.9,55.4C353.3,403,348.5,420.3,335.1,428.8
	L335.1,428.8z"/>
<path class="st2" d="M337.8,497.2c-0.8,0.5-1.7,1-2.6,1.5c-15.2,7.6-33.7,1.5-41.4-13.6l-27.9-55.4c-7.7-15.2-1.5-33.8,13.7-41.4
	c15.2-7.7,33.7-1.5,41.4,13.6l7.3,14.6l-4.5,2.3l-7.3-14.6c-6.4-12.7-22-17.9-34.7-11.5c-12.7,6.4-17.9,22-11.5,34.7c0,0,0,0,0,0
	l27.9,55.4c6.4,12.7,22,17.9,34.7,11.4c12.7-6.4,17.9-22,11.4-34.7c0,0,0,0,0,0l-9.6-19.1l4.5-2.3l9.6,19.1
	C356,471.4,351.2,488.7,337.8,497.2z"/>
<path class="st0" d="M537,537.7H75v-257h462V537.7z M77,535.7h458v-253H77V535.7z"/>
</svg>
