<?xml version="1.0" encoding="utf-8"?>
<!-- Generator: Adobe Illustrator 23.0.6, SVG Export Plug-In . SVG Version: 6.00 Build 0)  -->
<svg version="1.1" id="Layer_1" xmlns="http://www.w3.org/2000/svg" xmlns:xlink="http://www.w3.org/1999/xlink" x="0px" y="0px"
	 viewBox="0 0 954 549.9" style="enable-background:new 0 0 954 549.9;" xml:space="preserve">
<style type="text/css">
	.st0{opacity:0.5;fill:#C7C8CC;enable-background:new    ;}
	.st1{fill:#19AEBF;}
	.st2{fill:none;stroke:#535461;stroke-miterlimit:10;}
	.st3{opacity:0.1;enable-background:new    ;}
	.st4{fill:url(#SVGID_1_);}
	.st5{fill:#535461;}
	.st6{fill:#FFFFFF;}
	.st7{fill:none;stroke:#535461;stroke-width:2;stroke-miterlimit:10;}
	.st8{opacity:0.5;fill:#F99B36;enable-background:new    ;}
	.st9{opacity:0.7;fill:#F99B36;enable-background:new    ;}
	.st10{opacity:0.5;fill:#F89B37;enable-background:new    ;}
	.st11{opacity:0.8;fill:#F99B36;enable-background:new    ;}
	.st12{fill:#F99B36;}
	.st13{fill:url(#SVGID_2_);}
	.st14{fill:#FEC3BE;}
	.st15{fill:#F89B37;}
	.st16{fill:#4D4981;}
	.st17{opacity:5.000000e-02;enable-background:new    ;}
	.st18{fill:#F7FBFE;}
	.st19{fill:#FBBEBE;}
	.st20{fill:#454154;}
</style>
<title>finance</title>
<path class="st0" d="M236.7,360.1c-57.7-19.9-123.6-36.8-177.5-8.2c-6.8,3.6-13.6,8.2-17.2,15c-9.7,17.9,5.7,41.1-1.8,60
	S4.3,455.4,6.6,475.6c0.6,5.3,3.5,10.1,6.8,14.2c21.1,25.8,59.8,28.4,92.5,22s64.7-19.7,98-18c32,1.7,61.4,17,90.8,29.9
	c49.4,21.8,107.2,37.5,156.6,15.6c22.6-10.1,41.3-27.2,63-39.2c29.2-16,62.7-22.1,95.7-17.6c22,3.1,43,10.9,64.5,16.3
	c48.9,12.2,99.9,11.8,150.3,11.3c9.4-0.1,18.9-0.2,27.9-2.9c13.3-4,24.3-13.2,34.9-22.2c13.9-11.8,28.5-24.8,33-42.5
	c5.3-21-5.7-43.3-21.9-57.6s-37-22.1-57.3-29.6c-5-1.8-10.3-3.7-15.5-2.3c-3.4,0.9-6.2,3.2-8.7,5.6c-14.4,13.8-26.5,37.2-46.1,33.5
	c-7-1.3-12.7-6.2-18.3-10.7c-29.6-24-69.4-42.5-105.1-29.3c-26.1,9.7-44.5,34.6-71,43.4c-18.8,6.3-39.3,3.5-59.1,4.8
	c-28.8,1.8-56.8,11.9-85.7,11.3c-73.5-1.6-134.8-71.9-208-65.2c-5.7,0.5-12,1.8-15.5,6.4"/>
<path class="st1" d="M144,293.2c0,0-61.1,36.9,51.6,93.7c0,0,24.8-46.1-2.6-83.7c-11-15.2-31.6-19.7-48-10.5L144,293.2z"/>
<path class="st2" d="M144.7,292.4c0,0,52.3,40,50.9,94.4"/>
<path class="st1" d="M917.2,262.5c12.4,45.3-40.4,174.2-40.4,174.2s-111.1-84.1-123.5-129.4c-13.4-45,12.1-92.3,57.1-105.8
	c45-13.4,92.3,12.1,105.8,57.1C916.5,259.9,916.8,261.2,917.2,262.5L917.2,262.5z"/>
<path class="st3" d="M917.2,262.5c12.4,45.3-40.4,174.2-40.4,174.2s-111.1-84.1-123.5-129.4c-13.4-45,12.1-92.3,57.1-105.8
	c45-13.4,92.3,12.1,105.8,57.1C916.5,259.9,916.8,261.2,917.2,262.5L917.2,262.5z"/>
<path class="st2" d="M813.2,203.2c0,0,69.2,104.4,64,233.8"/>
<path class="st1" d="M934.8,345.2c0,0-62.7-34.1-54.8,91.8c0,0,52.3-1.9,70.9-44.5c7.5-17.2,1-37.3-15.2-46.8L934.8,345.2z"/>
<path class="st2" d="M935.8,345.5c0,0-8.1,65.4-55.8,91.6"/>
<path class="st1" d="M16.6,331.2c0,0-61.1,36.9,51.6,93.7c0,0,24.8-46.1-2.6-83.7c-11-15.2-31.6-19.7-48-10.5L16.6,331.2z"/>
<path class="st2" d="M17.3,330.4c0,0,52.3,40,50.9,94.5"/>
<linearGradient id="SVGID_1_" gradientUnits="userSpaceOnUse" x1="569.11" y1="-44.41" x2="569.11" y2="321.37" gradientTransform="matrix(1 0 0 -1 -123 376.93)">
	<stop  offset="0" style="stop-color:#808080;stop-opacity:0.25"/>
	<stop  offset="0.54" style="stop-color:#808080;stop-opacity:0.12"/>
	<stop  offset="1" style="stop-color:#808080;stop-opacity:0.1"/>
</linearGradient>
<path class="st4" d="M779.4,379.2h-64.2c1.5-3,2.2-6.2,2.2-9.6V77.1c0-11.9-9.6-21.5-21.5-21.5l0,0H198.6
	c-11.9,0-21.5,9.6-21.5,21.5l0,0v292.6c0,3.3,0.8,6.6,2.2,9.6h-66.5c-3.1,0-5.7,2.5-5.7,5.7c0,0,0,0,0,0v4.6
	c0,17.6,14.2,31.8,31.8,31.8l0,0h614.4c17.6,0,31.8-14.2,31.8-31.8l0,0v-4.6C785.1,381.8,782.6,379.2,779.4,379.2
	C779.5,379.2,779.4,379.2,779.4,379.2z M383.5,397.4l-5.5-6.3h136.8l-6.1,6.3L383.5,397.4z"/>
<path class="st5" d="M206.4,59.7H688c12.8,0,23.3,10.4,23.3,23.3v281.5c0,12.8-10.4,23.3-23.3,23.3H206.4
	c-12.8,0-23.3-10.4-23.3-23.3V83C183.2,70.1,193.6,59.7,206.4,59.7z"/>
<rect x="194.3" y="107.5" class="st6" width="504.8" height="268"/>
<circle class="st6" cx="446.7" cy="84.2" r="4.5"/>
<path class="st5" d="M524.6,376l-17.3,17.8H385L369.3,376h-249c-3.1,0-5.6,2.5-5.6,5.6v4.5c0,17.2,13.9,31.1,31.1,31.1h600.5
	c17.2,0,31.1-13.9,31.1-31.1v-4.5c0-3.1-2.5-5.6-5.6-5.6H524.6z"/>
<polyline class="st7" points="258.8,124.2 258.8,352.1 635.7,352.1 "/>
<rect x="292.1" y="283.2" class="st8" width="38.9" height="60"/>
<rect x="358.8" y="229.8" class="st9" width="38.9" height="113.4"/>
<rect x="425.5" y="262" class="st10" width="38.9" height="81.2"/>
<rect x="492.2" y="212" class="st11" width="38.9" height="131.2"/>
<rect x="559" y="165.3" class="st12" width="38.9" height="177.9"/>
<polyline class="st7" points="311,246.5 378.8,185.3 445.5,243.1 511.1,173.1 577.9,145.3 "/>
<circle class="st1" cx="311" cy="246.5" r="7.8"/>
<circle class="st1" cx="444.4" cy="242" r="7.8"/>
<ellipse transform="matrix(0.1602 -0.9871 0.9871 0.1602 259.3304 651.0263)" class="st1" cx="512.3" cy="173.1" rx="7.8" ry="7.8"/>
<circle class="st1" cx="378.8" cy="184.2" r="7.8"/>
<circle class="st1" cx="577.9" cy="145.3" r="7.8"/>
<linearGradient id="SVGID_2_" gradientUnits="userSpaceOnUse" x1="878.2814" y1="-91.8207" x2="878.2814" y2="376.8699" gradientTransform="matrix(1 0 0 -1 -123 376.93)">
	<stop  offset="0" style="stop-color:#808080;stop-opacity:0.25"/>
	<stop  offset="0.54" style="stop-color:#808080;stop-opacity:0.12"/>
	<stop  offset="1" style="stop-color:#808080;stop-opacity:0.1"/>
</linearGradient>
<path class="st13" d="M867.3,385.8c-4.1-1.3-10.2-2.9-15-2.4c-4.6-1.7-15.4-6-22.8-12.5c0.2-6.4,0-12.8-0.5-19.2
	c-3.8-42.9,4.7-71.1,4.7-71.1s6.7-21.6,5.9-39.5c0.4,0.8,0.7,1.3,0.7,1.3c0.6-15.4,5.8-31.4,9.8-41.4c0.2,0,0.3-0.1,0.4-0.2
	l4.4-10.4c0.4-0.6,0.6-1.3,0.8-1.9l0.7-1.6l-0.2-0.1c0.1-0.3,0.1-0.6,0.2-0.9l0,0c2.8-11.9,5-40.1,5-40.1c7.5-29.7-10.4-48-10.4-48
	l-30.4-26.1c0.2,0.3,0.3,0.7,0.3,1.1l-0.2-0.2c-0.4-1.2-0.9-2.7-1.4-4.4c1.1-0.8,2.1-1.6,3-2.6c3.5-3.3,5.8-7.5,6.8-12.1
	c0.6-3.6,0.7-7.3,0.5-11l-0.5-12.6c0-2.5-0.3-4.9-0.8-7.4c-2.3-10-12.5-17-22.8-17.5c-3.3,0-6.5,0.2-9.8,0.5c-2.7,0.2-5.3,0.3-8,0.2
	c-0.3,0-0.6-0.1-0.9-0.2c-0.2-0.2-0.4-0.5-0.4-0.9c-0.1-1.2,0.3-2.4,1.1-3.2c0.4-0.4,0.9-0.6,1.4-0.8l-0.7,0.2
	c0.4-0.3,0.8-0.5,1.2-0.6c-2.7,0.5-5.2,1.4-7.6,2.8c-0.6,0.4-1.2,0.9-1.8,1.5c-1.4,1.2-2.3,2.9-2.6,4.8c-1.3-1.1-2.2-2.4-2.7-4
	c-0.2-0.6-0.2-1.3,0-1.9c-0.2,0.2-0.4,0.4-0.5,0.7c0-0.1,0-0.1,0-0.2c-1.9,2.4-3.3,5.2-4,8.1c-0.5-0.7-0.8-1.5-0.7-2.3
	c-0.2,0.5-0.3,0.9-0.4,1.4c0-0.3,0-0.6,0-0.9c-1.2,3.6-1.7,7.4-1.6,11.2c0,3.8,1.7,9.7,5.7,11c0.2,0.1,0.4,0.1,0.6,0.2
	c-7.6,11.8-4.2,27.5,7.6,35.1c2.9,1.9,6.1,3.1,9.5,3.7c0.1,0.5,0.1,0.9,0.2,1.4h0.2c0.1,1,0.2,2.1,0.3,3.2c-1,1-2.1,1.9-3.3,2.7
	c-3.4,2-7.2,3.3-11.1,3.7c-4.7,0.4-9.2,1.7-13.4,4c-4.8,2.7-10.2,6.7-11.9,11.5c-2.8,8-18.2,20.5-28.6,22l-3.7-0.2l-0.3-0.1v0.1
	l-0.9,0h0h-0.2v0l-0.9,0c0,0-0.1,0.4-0.2,1.2c-5.2-1.8-16.2-6.8-30.6-19.8c-16-14.5-37.7-11.7-46-9.8c-0.8,0.2-1.3,0.9-1.1,1.7
	c0.1,0.4,0.3,0.7,0.7,0.9c3.4,1.9,8.6,4.5,11,4.8c0,0-5,5.2,0.3,8c1.3,0.6,2.8,0.5,4-0.4c2.6-1.9,9.8,2.4,20.1,4.6
	c0,0,29.3,30.3,43.9,35c0.3,0.7,0.7,1.3,1.1,1.9l0.9-0.1v0.1h0.4l0.1,1c0,0,22.6-1.2,30-9.4c0.5-0.5,1-1,1.4-1.5l-7.9,99h0.1
	l-0.1,0.9h5.8c0.5,12.2,0,24.4-1.6,36.5v64.5c0,0-0.3,5.7,11.5,14c12.4,8.6,24.3,17.9,35.7,27.7l1.4,1.2
	c-2.2,19.8-6.7,56.6-10.5,57.9l2.3,0.4c-4,5.1-15.4,19-18.8,19.4c-4.2,0.5-7.1,7.1,0,8.5c14.1,2.4,28.6,1,42-4.1
	c2.7-1.1,4.4-3.9,4-6.8l-1.4-10.4c0.3,0.1,0.5,0.4,0.6,0.6c0.9,2.8,0-3.8,0-3.8c3.9-12.5,6.9-25.1,9.1-38l14,12.1c0,0,0.3-0.3,0.8-1
	c3.4,7.8,9.5,23.7,8.2,35.4c-1.9,16,16,1.9,14.1-7.5c-1.5-7.6,5.3-39.9,7.9-52C871.5,389.3,869.9,386.6,867.3,385.8z"/>
<path class="st14" d="M721,124.4c0,0-13.3-2.3-33.1-20.2C672.2,90,651.1,92.8,643,94.6c-0.8,0.2-1.2,0.9-1.1,1.7
	c0.1,0.4,0.3,0.7,0.7,0.9c3.3,1.8,8.4,4.4,10.8,4.7c0,0-4.9,5.1,0.3,7.8c1.3,0.6,2.8,0.5,3.9-0.4c2.5-1.8,9.5,2.3,19.7,4.5
	c0,0,39.6,40.9,48.8,34L721,124.4z"/>
<path class="st14" d="M789.1,68.8c0,0,3.7,15.6,0,26.7l16.6,2.3l14.7-7.4v-9.7c0,0-6.9-14.7-5.1-31.7L789.1,68.8z"/>
<path class="st15" d="M836,407.8c0,0,12,23.5,10.1,39.1s15.6,1.8,13.8-7.4c-1.5-7.4,5.2-39,7.7-50.7c0.6-2.6-0.9-5.3-3.5-6.1
	c-5.5-1.8-14.8-4-19.4-0.6C837.9,387.1,836,407.8,836,407.8z"/>
<path class="st15" d="M790.5,433.5c0,0-15.6,20.2-19.8,20.7s-6.9,6.9,0,8.3c13.8,2.4,27.9,1,41-4c2.7-1,4.3-3.8,3.9-6.7l-2.6-19.7
	L790.5,433.5z"/>
<path class="st16" d="M764.7,218.7l-15,2c2.1,17.5,2,35.2-0.2,52.7v63c0,0-0.3,5.5,11.2,13.6c12.1,8.4,23.7,17.4,34.9,27l41.7,36.2
	c0,0,16.6-20.2,14.3-32.2c0,0-27.6-8.7-31.3-23c-2.1-8.2-12.8-15-21.6-19.3c-11.3-5.5-17.3-18.2-14.3-30.4c0.5-2.1,1.3-4.1,2.3-5.9
	c7.4-12.9,17.9-41.9,17.9-41.9l-20.2-38.6L764.7,218.7z"/>
<path class="st17" d="M764.7,218.7l-15,2c2.1,17.5,2,35.2-0.2,52.7v63c0,0-0.3,5.5,11.2,13.6c12.1,8.4,23.7,17.4,34.9,27l41.7,36.2
	c0,0,16.6-20.2,14.3-32.2c0,0-27.6-8.7-31.3-23c-2.1-8.2-12.8-15-21.6-19.3c-11.3-5.5-17.3-18.2-14.3-30.4c0.5-2.1,1.3-4.1,2.3-5.9
	c7.4-12.9,17.9-41.9,17.9-41.9l-20.2-38.6L764.7,218.7z"/>
<path class="st16" d="M786.8,434.9c0,0,27.1,4.6,28.1,7.4s0-3.7,0-3.7s15.6-47.4,12-89.2s4.6-69.5,4.6-69.5s9.7-31.3,4.1-49.2
	s-63.5-10.1-63.5-10.1s20.2,47.4,19.8,69.9c0,0,2.3,68.1,6.4,75.9C798.3,366.4,791.9,433.1,786.8,434.9z"/>
<path class="st18" d="M790,80.7c0,0,2.8,17,30.4,9.7L802,230.2c0,0-53.4,1.8-52.9-4.6l11-84.6L790,80.7z"/>
<path class="st3" d="M790.7,79.8c-3.6,3.5-8.3,5.8-13.3,6.3c-4.6,0.4-9,1.7-13.1,3.9c-4.7,2.6-10,6.5-11.6,11.2
	c-3.2,9.2-23.5,24.4-32.7,21.2l3.2,27.6c0,0,26.2-1.4,30.8-11.5l-7.8,98.5h6.9c0,0,3.7-26.7,6.4-32.2s8.3-35.9,8.7-43.2
	s7.4-49.7,13.3-57l9-21.9L790.7,79.8z"/>
<path class="st3" d="M790.7,81.2c-4.1,3.2-9,5.2-14.2,5.9c-4.6,0.4-9,1.7-13,3.9c-4.7,2.6-10,6.5-11.6,11.2
	c-3.2,9.2-23.5,24.4-32.7,21.2l3.2,27.6c0,0,26.2-1.4,30.8-11.5l-7.8,98.4h6.9c0,0,3.7-26.7,6.4-32.2s8.3-35.9,8.7-43.2
	s7.4-49.7,13.3-57l9.9-21.4V81.2z"/>
<path class="st15" d="M790.7,80.3c-4.1,3.2-9,5.2-14.2,5.8c-4.6,0.4-9,1.7-13.1,3.9c-4.7,2.6-10,6.5-11.6,11.2
	c-3.2,9.2-23.5,24.4-32.7,21.2l3.2,27.6c0,0,26.2-1.4,30.8-11.5l-7.8,98.5h6.9c0,0,3.7-26.7,6.4-32.2s8.3-35.9,8.7-43.2
	s7.4-49.7,13.3-57l9.9-21.4L790.7,80.3z"/>
<path class="st3" d="M814.2,62.5c-0.6-4.4,0.6-7.1,1.2-12.2l-26.2,19.8c0,0,0.6,2.7,1.1,6.6c1.3,0.2,2.7,0.3,4,0.3
	C803.3,77,809.9,69.9,814.2,62.5z"/>
<circle class="st19" cx="794.2" cy="50.8" r="24.8"/>
<path class="st3" d="M767.1,26.5c-0.2-4.2,0.5-8.4,2-12.3c-0.8,1.3-0.6,3,0.5,4c0.8-4.3,3-8.2,6.2-11.1c-1.8,0.3-2.7,2.5-2.2,4.2
	c0.6,1.7,1.7,3.2,3.1,4.3c-0.2-2.6,1.6-5.1,3.8-6.5c2.3-1.3,4.8-2.2,7.4-2.7c-1.8,0.7-3,2.5-2.8,4.4c0,0.3,0.1,0.6,0.4,0.9
	c0.2,0.2,0.5,0.2,0.8,0.2c2.6,0.1,5.2,0,7.8-0.2c3.2-0.4,6.4-0.5,9.6-0.5c10,0.4,20,7.2,22.3,17c0.5,2.4,0.7,4.8,0.7,7.2l0.5,12.3
	c0.3,3.6,0.1,7.2-0.4,10.8c-1.4,6.6-5.7,12.3-11.7,15.5c-3.6-5.2-3.9-11.9-5.2-18.2c-0.2-1.4-0.7-2.8-1.6-4
	c-0.9-1.2-2.4-1.7-3.8-1.3c-1.3,0.5-1.9,2.6-0.8,3.5c-1,1.2-2.9,0.3-4-0.8c-3.2-3-5.3-6.9-6.2-11.1c-0.5-2.1-0.9-4.8-3-5.5
	c-0.7-0.2-1.5-0.2-2.2-0.1c-4.4,0.3-11.2,2.1-15.5,0.7C768.7,35.9,767.1,30.2,767.1,26.5z"/>
<path class="st20" d="M767.5,26c-0.2-4.2,0.5-8.4,2-12.3c-0.8,1.3-0.6,3,0.5,4c0.8-4.3,3-8.2,6.2-11.1c-1.8,0.3-2.7,2.5-2.2,4.2
	c0.6,1.7,1.7,3.2,3.1,4.3c-0.2-2.6,1.6-5.1,3.8-6.5c2.3-1.3,4.8-2.2,7.4-2.7c-1.8,0.7-3,2.5-2.8,4.4c0,0.3,0.1,0.6,0.4,0.9
	c0.2,0.2,0.5,0.2,0.8,0.2c2.6,0.1,5.2,0,7.8-0.2c3.2-0.4,6.4-0.5,9.6-0.5c10,0.4,20,7.2,22.3,17c0.5,2.4,0.7,4.8,0.7,7.2l0.5,12.3
	c0.3,3.6,0.1,7.2-0.4,10.8c-1.4,6.6-5.7,12.3-11.7,15.5c-3.6-5.2-3.9-11.9-5.2-18.2c-0.2-1.4-0.7-2.8-1.6-4
	c-0.9-1.2-2.4-1.7-3.8-1.3c-1.3,0.5-1.9,2.6-0.8,3.5c-1,1.2-2.9,0.3-4-0.8c-3.2-3-5.3-6.9-6.2-11.1c-0.5-2.1-0.9-4.8-3-5.5
	c-0.7-0.2-1.5-0.2-2.2-0.1c-4.4,0.3-11.2,2.1-15.5,0.7C769.2,35.5,767.5,29.7,767.5,26z"/>
<path class="st3" d="M718,122.4c0,0-3.7,17,3.2,27.6l3.9-0.3l-2.1-27L718,122.4z"/>
<path class="st15" d="M719,122.4c0,0-3.7,17,3.2,27.6l3.9-0.3l-2.1-27L719,122.4z"/>
<path class="st3" d="M817.9,75.9l29.7,25.5c0,0,17.5,17.9,10.1,46.9c0,0-3.2,42.3-6.9,44.2c0,0-12.9,25.8-13.8,50.1
	c0,0-17.2-34.7-25.1-13.6s-26,24.1-26,24.1L796,128.1C796,128.1,821.5,83.7,817.9,75.9z"/>
<path class="st15" d="M818.8,75.9l29.7,25.5c0,0,17.5,17.9,10.1,46.9c0,0-3.2,42.3-6.9,44.2c0,0-12.9,25.8-13.8,50.1
	c0,0-18.2-36.6-26-15.4s-25.1,26-25.1,26l10.1-125.1C796.9,128.2,822.5,83.7,818.8,75.9z"/>
<path class="st14" d="M832.3,183.8c0,0,7.4-5.1,19.3,8.7l-29.4,53.4l-9.9-14.9C812.3,230.9,833.3,189.7,832.3,183.8z"/>
<path class="st3" d="M825.2,186.8c0,0,16.3,18.3,22.6,15.4l5.9-13.7l-22.1-9.5L825.2,186.8z"/>
<path class="st15" d="M825.2,185.8c0,0,16.3,18.3,22.6,15.4l5.9-13.7l-22.1-9.5L825.2,185.8z"/>
<path class="st3" d="M813.3,227.4c0,0,7.8,15.9,11.9,16.8l-6,6.9l-8.7-16.6L813.3,227.4z"/>
<path class="st16" d="M812.9,227.9c0,0,7.8,15.9,11.9,16.8l-6,6.9L810,235L812.9,227.9z"/>
<path class="st3" d="M827.5,129.7c0,0,0.9,33.1-2.8,45.5"/>
<path class="st3" d="M753,136.1c0,0,5.5-1.8,5.5-6.4"/>
<path class="st7" d="M82.7,141.7c0,0-26.2,54.2-9,118.4s11.8,141-5.4,160"/>
<circle class="st12" cx="82.7" cy="141.7" r="7.2"/>
<path class="st7" d="M71.8,176.6c0,0,27.2,4.9,34.4-5"/>
<path class="st7" d="M69.2,192.3c0,0-16.4-18.1-15.4-28.9"/>
<path class="st7" d="M67.8,225.5c0,0,14.9,3.9,28.4-25"/>
<path class="st7" d="M71.8,249.6c0,0-37-23.8-32.5-39.2"/>
<path class="st7" d="M77.6,276.8c0,0,25.9-23,23.2-45.6"/>
<path class="st7" d="M80.4,292.8c0,0-33-9.2-32-23.7"/>
<path class="st7" d="M82.7,311.9c0,0,20.8-19.3,23.5-31"/>
<path class="st7" d="M84.1,344.7c0,0-21.3-24.9-22.2-37.5"/>
<path class="st7" d="M84.1,365.3c0,0,23.9-26.5,25.7-39.2"/>
<circle class="st12" cx="53.8" cy="165.2" r="7.2"/>
<circle class="st12" cx="45.6" cy="269.2" r="7.2"/>
<circle class="st12" cx="39.3" cy="210.4" r="7.2"/>
<circle class="st12" cx="106.2" cy="171.5" r="7.2"/>
<circle class="st12" cx="106.2" cy="282.7" r="7.2"/>
<circle class="st12" cx="94.4" cy="200.5" r="7.2"/>
<circle class="st12" cx="108.9" cy="330.6" r="7.2"/>
<circle class="st12" cx="60.1" cy="311.6" r="7.2"/>
<circle class="st12" cx="101.7" cy="231.2" r="7.2"/>
</svg>
