<?xml version="1.0" encoding="utf-8"?>
<!-- Generator: Adobe Illustrator 23.0.6, SVG Export Plug-In . SVG Version: 6.00 Build 0)  -->
<svg version="1.1" id="Layer_1" xmlns="http://www.w3.org/2000/svg" xmlns:xlink="http://www.w3.org/1999/xlink" x="0px" y="0px"
	 viewBox="0 0 951.8 610.2" style="enable-background:new 0 0 951.8 610.2;" xml:space="preserve">
<style type="text/css">
	.st0{opacity:0.5;fill:url(#SVGID_1_);enable-background:new    ;}
	.st1{fill:#C7C8CC;}
	.st2{opacity:0.6;fill:#19AEBF;enable-background:new    ;}
	.st3{opacity:0.6;fill:none;stroke:#535461;stroke-miterlimit:10;enable-background:new    ;}
	.st4{fill:url(#SVGID_2_);}
	.st5{fill:#FFFFFF;}
	.st6{fill:#EEEEEE;}
	.st7{fill:#FF5252;}
	.st8{fill:#FFFF00;}
	.st9{fill:#69F0AE;}
	.st10{opacity:0.5;fill:#F99B36;enable-background:new    ;}
	.st11{opacity:0.5;fill:#F89B37;enable-background:new    ;}
	.st12{fill:#F7FBFE;}
	.st13{opacity:0.5;fill:url(#SVGID_3_);enable-background:new    ;}
	.st14{fill:#FBBEBE;}
	.st15{opacity:5.000000e-02;}
	.st16{fill:#F9CE43;}
	.st17{fill:#FDB797;}
	.st18{fill:#0D134D;}
	.st19{opacity:0.1;}
	.st20{fill:#454154;}
	.st21{fill:#F89B37;}
	.st22{opacity:0.1;fill:none;stroke:#000000;stroke-miterlimit:10;enable-background:new    ;}
	.st23{fill:#F99B36;}
	.st24{fill:#F4F4F4;}
	.st25{fill:#19AEBF;}
	.st26{fill:url(#SVGID_4_);}
	.st27{fill:#72351C;}
	.st28{fill:#333333;}
	.st29{fill:#4D8AF0;}
	.st30{fill:#F55F44;}
	.st31{opacity:0.1;enable-background:new    ;}
	.st32{fill:#F0E4E4;}
</style>
<title>website setup</title>
<linearGradient id="SVGID_1_" gradientUnits="userSpaceOnUse" x1="572.9163" y1="-143.0862" x2="572.9163" y2="86.6914" gradientTransform="matrix(1 0 0 -1 -124.06 467.08)">
	<stop  offset="0" style="stop-color:#808080;stop-opacity:0.25"/>
	<stop  offset="0.54" style="stop-color:#808080;stop-opacity:0.12"/>
	<stop  offset="1" style="stop-color:#808080;stop-opacity:0.1"/>
</linearGradient>
<path class="st0" d="M894.3,522.2c-1.7-7.1-7.4-12.5-11.5-18.5c-10.2-15.1-11.4-34.5-3.1-50.7c4-7.6,10.3-15.5,8-23.8
	c-1.5-5.6-6.6-9.4-11.5-12.4c-18.8-11.3-40.6-16.9-62.6-16.1c-26.9,1.1-53.8,11.9-80.2,6.5c-25.7-5.2-47.5-18.1-74.4-19.6
	c-20.1-1.1-40,0.1-60.2-2.1c-49.8-5.4-99.9-6.6-149.9-3.6c-50-3-100.1-1.8-149.9,3.6c-20.1,2.2-40,0.9-60.1,2.1
	c-27,1.5-48.8,14.4-74.5,19.6c-26.4,5.3-53.3-5.4-80.2-6.5c-22-0.9-43.7,4.7-62.6,16.1c-5,3-10,6.8-11.5,12.4
	c-2.3,8.3,4,16.2,8,23.8c8.3,16.2,7.1,35.6-3.1,50.7c-4.2,6-9.8,11.4-11.5,18.5c-3.5,14.3,10.4,26.9,24,32.5
	c37.1,15.5,82.1,8,116,29.6c15.2,9.7,28.5,25.2,46.5,25.8c12.2,0.4,23.2-6.4,33.9-12.3c15.9-8.9,32.5-16.5,49.7-22.6
	c15-5.3,30.9-9.6,46.7-7.8c24.2,2.7,128.7,53.1,175.8,23.3c32.3-20.5,57.4-20.6,81.7-23.3c15.8-1.8,31.7,2.5,46.7,7.8
	c17.2,6.1,33.8,13.7,49.7,22.6c10.6,6,21.7,12.7,33.9,12.3c18-0.6,31.3-16.1,46.5-25.8c33.9-21.6,78.9-14.1,116-29.6
	C883.9,549.1,897.8,536.5,894.3,522.2z"/>
<path class="st1" d="M889.4,522c-1.7-7-7.3-12.3-11.4-18.3c-10-14.9-11.2-34.1-3-50.2c4-7.5,10.2-15.3,7.9-23.5
	c-1.5-5.5-6.5-9.3-11.4-12.3c-18.6-11.2-40.1-16.8-61.9-15.9c-26.6,1.1-53.2,11.7-79.3,6.5c-25.5-5.1-47-17.9-73.7-19.4
	c-19.9-1.1-39.6,0.1-59.5-2c-49.2-5.3-98.8-6.5-148.3-3.5c-49.4-3-99-1.8-148.3,3.5c-19.9,2.2-39.6,0.9-59.5,2
	c-26.7,1.5-48.2,14.3-73.7,19.4c-26.1,5.3-52.7-5.4-79.3-6.5c-21.7-0.8-43.2,4.7-61.9,15.9c-4.9,3-9.9,6.8-11.4,12.3
	c-2.2,8.2,4,16,7.9,23.5c8.2,16,7,35.2-3,50.2c-4.1,5.9-9.7,11.2-11.4,18.3c-3.5,14.1,10.2,26.6,23.6,32.1
	c36.7,15.3,81.2,7.9,114.7,29.2c15,9.6,28.2,25,46,25.5c12,0.4,23-6.3,33.5-12.2c15.7-8.8,32.2-16.3,49.2-22.3
	c14.9-5.3,30.5-9.5,46.2-7.8c24,2.7,127.3,52.6,173.8,23.1c31.9-20.2,56.8-20.4,80.8-23.1c15.7-1.8,31.4,2.5,46.2,7.8
	c17,6,33.4,13.5,49.2,22.3c10.5,5.9,21.5,12.6,33.5,12.2c17.8-0.6,31-15.9,46-25.5c33.5-21.3,78.1-13.9,114.7-29.2
	C879.1,548.5,892.8,536.1,889.4,522z"/>
<path class="st2" d="M34.9,219.2c2.9-1,5.9-2,8.9-1.4c5,0.9,8.5,5.6,10,10.5s1.4,10,2.4,15s3.2,10.2,7.7,12.6
	c4.5,2.4,9.8,1.4,14.7,0.9c6.5-0.8,13.1-0.8,19.6-0.2c5.5,0.5,11.9,2.4,13.5,7.7c1.3,4.3-1.3,8.7-3,12.8c-3.3,7.8-3.5,16.9,0.2,24.5
	c3.7,7.5,11.3,13.2,14.4,21.1c0.9,2,1.2,4.2,0.8,6.4c-0.5,1.5-1.2,2.9-2.3,4.1c-2.5,3.2-5.4,6-7.7,9.4c-4.7,7-6,15.7-6.5,24.1
	c-0.5,8.3-0.5,16.6,0.1,24.8c-6.1-2-12.9-0.2-19.2-1.5c-13.5-2.8-21.9-18.7-35.6-19.7c-6.5-0.5-13.5,2.6-19.3-0.4
	c-2.8-1.6-4.9-4.1-6.2-7c-2.4-5.2-3-11.1-1.6-16.7c1-3.9,3-7.6,2.6-11.6c-0.3-3.4-2.4-6.4-4.7-8.9c-6.7-7.1-16.4-11.4-21.1-19.9
	c-4.5-8.2-3.4-18.4,2.7-25.5c1.7-1.7,3.3-3.4,4.9-5.3c2.3-3.2,3-7.3,3.3-11.3c0.7-9.5-1-19.6,2.1-28.8
	C18.5,226.5,27.1,222,34.9,219.2z"/>
<path class="st3" d="M35.1,219.5c0,0,27.3,151.7,62.8,169.8"/>
<path class="st3" d="M111.1,261.5c0,0-29.2,4-58.5,34"/>
<path class="st3" d="M57.7,313.2c0,0-22.5-22-57.7-18.3"/>
<path class="st3" d="M123.9,322.7c0,0-41.1,3.5-56.3,19.3"/>
<path class="st3" d="M73.8,356.7c0,0-23-4-44.2,9.5"/>
<path class="st2" d="M880.4,100.1c-4.6-1.6-9.5-3.1-14.2-2.3c-8,1.4-13.6,9-16,16.8c-2.4,7.8-2.3,16.1-3.8,24.1s-5.2,16.3-12.3,20.1
	s-15.7,2.3-23.6,1.4c-10.4-1.2-21-1.3-31.4-0.3c-8.8,0.9-19.1,3.8-21.7,12.3c-2.1,6.9,2.1,13.9,4.9,20.6c5.2,12.4,5.7,27.1-0.3,39.2
	c-6.1,12.3-18.1,21.1-23.2,33.9c-1.3,3.2-2.1,6.8-1.2,10.2c0.8,2.4,2,4.7,3.6,6.6c4,5.1,8.7,9.6,12.3,15
	c7.5,11.2,9.6,25.2,10.5,38.6c0.9,13.3,0.8,26.5-0.2,39.8c9.8-3.2,20.7-0.3,30.9-2.4c21.6-4.5,35.1-30,57.1-31.6
	c10.4-0.7,21.6,4.2,30.9-0.6c4.5-2.3,7.7-6.6,9.9-11.3c3.9-8.4,4.7-17.8,2.4-26.7c-1.6-6.2-4.8-12.2-4.2-18.6
	c0.5-5.5,3.8-10.3,7.5-14.2c10.7-11.4,26.2-18.3,33.9-31.9c7.2-12.7,5.4-29.9-4.3-40.9c-2.5-2.9-5.6-5.3-7.8-8.5
	c-3.7-5.2-4.9-11.8-5.3-18.1c-1.1-15.2,1.5-31.4-3.4-46.2C906.7,111.6,893,104.5,880.4,100.1z"/>
<path class="st3" d="M880.2,100.5c0,0-43.8,243.1-100.6,272.1"/>
<path class="st3" d="M758.4,167.8c0,0,46.9,6.4,93.7,54.6"/>
<path class="st3" d="M843.9,250.6c0,0,36.1-35.3,92.5-29.3"/>
<path class="st3" d="M737.8,265.9c0,0,65.8,5.6,90.2,30.9"/>
<path class="st3" d="M818.1,320.3c0,0,36.9-6.5,70.9,15.3"/>
<linearGradient id="SVGID_2_" gradientUnits="userSpaceOnUse" x1="438.375" y1="116.8" x2="438.375" y2="612" gradientTransform="matrix(1 0 0 -1 0 612)">
	<stop  offset="0" style="stop-color:#808080;stop-opacity:0.25"/>
	<stop  offset="0.54" style="stop-color:#808080;stop-opacity:0.12"/>
	<stop  offset="1" style="stop-color:#808080;stop-opacity:0.1"/>
</linearGradient>
<polygon class="st4" points="74.9,0 74.9,25 74.9,495.2 801.8,495.2 801.8,25 801.8,0 "/>
<rect x="85.7" y="22.5" class="st5" width="708.5" height="463.8"/>
<rect x="85.7" y="0.4" class="st6" width="708.5" height="34.1"/>
<circle class="st7" cx="112.7" cy="17" r="8.3"/>
<circle class="st8" cx="135.4" cy="17" r="8.3"/>
<circle class="st9" cx="158.1" cy="17" r="8.3"/>
<rect x="112.8" y="89.2" class="st10" width="264" height="11"/>
<rect x="112.8" y="111.2" class="st10" width="264" height="11"/>
<rect x="112.8" y="133.2" class="st10" width="264" height="11"/>
<rect x="203.8" y="155.2" class="st10" width="173" height="11"/>
<rect x="112.8" y="177.2" class="st10" width="139" height="11"/>
<rect x="187.8" y="199.2" class="st10" width="107" height="11"/>
<rect x="411.8" y="166.2" class="st11" width="311" height="179"/>
<rect x="448.8" y="183.2" class="st12" width="311" height="179"/>
<linearGradient id="SVGID_3_" gradientUnits="userSpaceOnUse" x1="976.1577" y1="-97.0672" x2="976.1577" y2="306.8258" gradientTransform="matrix(1 0 0 -1 -124.06 467.08)">
	<stop  offset="0" style="stop-color:#808080;stop-opacity:0.25"/>
	<stop  offset="0.54" style="stop-color:#808080;stop-opacity:0.12"/>
	<stop  offset="1" style="stop-color:#808080;stop-opacity:0.1"/>
</linearGradient>
<path class="st13" d="M946.8,348.3c0.6-0.8,1-1.8,1-2.9c0,0,0-0.1,0-0.1c0,0,0.1-0.2,0.1-0.3v-0.1c0-0.1,0-0.2,0-0.3
	c0,0,0-0.1,0-0.1c0-0.1,0-0.2,0-0.4c-0.6-4-24.4-30.1-30.3-61.9c-0.7-3.5-1.6-6.9-2.9-10.1c0.2-1.6,0.1-3.3-0.3-4.9
	c-1-4.1-3-8.2-2-12.3c0.1-0.5,0.3-1,0.6-1.5c1.2-1.8,2.4-3.7,3.4-5.7c0.4-0.6,0.7-1.3,1-2c3.7-9.6-7.7-19.5-5.6-29.6
	c0.9-4.4,4.3-8.1,4.2-12.6c-0.1-5.1-4.8-9-9.6-10.9s-10.2-2.4-14.9-4.5c-10.4-4.6-16.1-15.7-25.6-21.9c-12.1-7.9-27.8-6.5-42.3-4.4
	c-1,0.1-1.8,0.8-2.2,1.6l0,0h-0.1c-0.1,0.3-0.2,0.6-0.4,0.9c-2,3.4-5.4,6-8.7,8.4c-4.1,2.9-8.4,5.7-10.9,9.9c-0.4,0.6-0.7,1.2-1,1.8
	c-5.4,9.6,1.1,13.8,9,16.1c-0.2,1.4-0.4,2.8-0.4,4.2c0,14,11.7,25.4,26.1,25.4c1.1,0,2.3-0.1,3.4-0.2l0.8,0.5h0.2
	c2.7,1.9,5,4.4,6,7.2l-8.4,6.4c0,0,0.3,0.9,0.8,2.3L805,261.7c-12.5,0.6-32.7-38.7-32.7-38.7s-3-22.5-13.7-26.6
	c-3.2-1.2-4.5,1.3-4.7,5.5c-4.8,5,3.2,33.1,3.2,33.1l25.5,45.1c2.4,4.6,3,7.5,14.3,9.2c9.3,1.4,38.2-8.8,48.2-12.6l0.5,4
	c-1.2,3-1.7,6.3-1.5,9.6c0,7.4,3.3,18.1,19.3,26.6c0,0,16.6,21.4,14.7,41.7c0,0,0.8,0.8,2.1,1.9c-0.2,5.7-1,12.7-3.9,15.5
	c-0.4,0.4-0.6,0.9-0.5,1.4c-0.1,0.6,0.2,1.2,0.7,1.5l-20.9,36.7c-0.8,1-1.6,2-2.4,3c-3.9,5-8.2,9.6-12.9,13.8
	c-3.5,3.1-7.1,6.5-7.8,7.8c-1.1,2-3.9,8.5-2.7,13.8c1.5,6.5,2.2,13.1,1.9,19.7l-2.7,47.4c-0.9,5.3-2.2,10.5-3.8,15.7h-0.4
	c0,0-10.1,12.1-26.1,15s-15.5,11-10.7,12.1s62.4-1.2,62.4-1.2s2.2-4.2,1.6-8.1c18.4-1.8,43.9-4.8,43.9-4.8s3.5-8.4-1.6-12
	c-1.9-1.5-3.3-3.5-4.1-5.8c-0.3-1.3-0.6-2.7-1-4.3c-0.1-0.8-0.1-1.2-0.1-1.2h-0.2c-0.9-4.5-1.6-9.3-1.2-11.8
	c1.5-6.7,5.3-45.1-4.2-56.1c-4.3-5-3.7-10.7-1.8-15.4c11.4-7.5,27.4-23.5,36.6-33.3c0.5,0.4,1,0.9,1.4,1.3l0.3,0.3
	c0,0,31.4-15.5,31.5-43C951.8,361.5,950.1,354.5,946.8,348.3z M846.2,542c-0.1-1,0-2,0.1-3l-1-0.1c0.6-4.4,2-9.2,5.2-12.6
	c5.5-9.9,9.3-20.6,11.4-31.7l5.8,21.8c0,0,0.6,4.5,0.7,9.3h-0.1C868.4,525.7,860.3,537.2,846.2,542z"/>
<path class="st14" d="M872.3,259.2c0,0-14.1,5.1-22,13.5c0,0-38.4,15.2-49.1,13.5s-11.3-4.5-13.5-9l-24.3-44c0,0-10.2-36.7,0-32.8
	s13,26,13,26s19.2,38.4,31,37.8l32.2-15.3c0,0,7.3-10.7,10.7-10.2S872.3,259.2,872.3,259.2z"/>
<g class="st15">
	<path d="M872.3,259.2c0,0-14.1,5.1-22,13.5c0,0-38.4,15.2-49.1,13.5s-11.3-4.5-13.5-9l-24.3-44c0,0-10.2-36.7,0-32.8s13,26,13,26
		s19.2,38.4,31,37.8l32.2-15.3c0,0,7.3-10.7,10.7-10.2S872.3,259.2,872.3,259.2z"/>
</g>
<path class="st16" d="M849.1,238.4l-11.3,8.8c0,0,5.6,14.7,4.2,19.9c-1.4,5.2,22.5-8.1,22.5-8.1l-9.8-22.1L849.1,238.4z"/>
<g class="st15">
	<path d="M849.1,238.4l-11.3,8.8c0,0,5.6,14.7,4.2,19.9c-1.4,5.2,22.5-8.1,22.5-8.1l-9.8-22.1L849.1,238.4z"/>
</g>
<path class="st17" d="M829.7,228.6c0,0,25.1,8.2,13.5,22.6l36.1-17.5c0,0-15.2,1.1-24.8-22L829.7,228.6z"/>
<path class="st14" d="M877.1,375.9L846,431.8l20.9,81.3c0,0,2.3,18.1-1.1,19.8h23.7c0,0-4.6-16-3.4-21.5c1.4-6.5,5.1-44-4-54.8
	s4.5-24.8,4.5-24.8l27.1-42.9L877.1,375.9z"/>
<g class="st15">
	<path d="M877.1,375.9L846,431.8l20.9,81.3c0,0,2.3,18.1-1.1,19.8h23.7c0,0-4.2-16.1-3.4-21.5s5.1-44-4-54.8s4.5-24.8,4.5-24.8
		l27.1-42.9L877.1,375.9z"/>
</g>
<path class="st18" d="M867.5,522.2c0,0-8.6,12.7-23.6,16.7s-13.8,11.9-9.2,12.6s59-5.8,59-5.8s3.3-8.2-1.5-11.8s-4.8-11-4.8-11
	L867.5,522.2z"/>
<g class="st19">
	<path d="M878.8,353.3c0,0,1.3,18.4-3.5,23.2c-0.6,0.6-0.6,1.5-0.1,2.1c0.1,0.1,0.2,0.2,0.4,0.3l14.5,7.8l13-24.8L878.8,353.3z"/>
</g>
<path class="st20" d="M878.8,352.8c0,0,1.3,18.4-3.5,23.2c-0.6,0.6-0.6,1.5-0.1,2.1c0.1,0.1,0.2,0.2,0.4,0.3l14.5,7.8l13-24.8
	L878.8,352.8z"/>
<g class="st19">
	<path d="M878.8,353.8c0,0,1.3,18.4-3.5,23.2c-0.6,0.6-0.6,1.5-0.1,2.1c0.1,0.1,0.2,0.2,0.4,0.3l14.5,7.8l13-24.8L878.8,353.8z"/>
</g>
<path class="st14" d="M879.3,388.9c0,0-8.4,5.6-26,28.7c-3.7,4.8-7.8,9.3-12.2,13.4c-3.3,3-6.8,6.4-7.5,7.6
	c-1.1,1.9-3.7,8.3-2.6,13.5c1.5,6.3,2,12.8,1.8,19.3l-2.6,46.3c0,0-3.4,20.9-7.9,23.2l23.2,4c0,0-1.7-14.7,5.1-22
	c0,0,15.8-27.1,11.9-57.6c0,0-1.7-13.5,13.5-20.9s46.3-42.9,46.3-42.9L879.3,388.9z"/>
<path class="st18" d="M826.3,532.9c0,0-9.6,11.9-24.8,14.7s-14.7,10.7-10.2,11.9s59.3-1.1,59.3-1.1s4-7.9-0.6-11.9
	s-3.4-11.3-3.4-11.3L826.3,532.9z"/>
<g class="st19">
	<path d="M893.5,359c0,0-6.9,23.1-15.6,29.9c-0.5,0.4-0.6,1.1-0.2,1.6c0.1,0.2,0.3,0.3,0.5,0.4c7.2,2.6,30.4,11.5,38.5,19.5l0.3,0.3
		c0,0,48.3-24.6,22.3-66.3L893.5,359z"/>
</g>
<path class="st20" d="M893.5,358.4c0,0-6.9,23.1-15.6,29.9c-0.5,0.4-0.6,1.1-0.2,1.6c0.1,0.2,0.3,0.3,0.5,0.4
	c7.2,2.6,30.4,11.5,38.5,19.5l0.3,0.3c0,0,48.3-24.6,22.3-66.3L893.5,358.4z"/>
<g class="st19">
	<path d="M853.8,243.7c-3.6,2.4-7.5,4.3-11.6,5.6l3.9,34.5c0,0-9.1,20.3,16.9,34.5c0,0,15.8,20.9,14,40.7c0,0,8.5,9.1,14.1,6.8
		s0.6,1.1,1.7,0.6s3.4,4.5,20.9,0c17.5-4.5,30-16.3,29.4-20.2c-0.6-4-23.1-29.4-28.6-60.5c-5.6-31.1-38.8-53.2-38.8-53.2
		s-1.1,0.6-3,1.4C866.1,236.6,859.8,239.9,853.8,243.7z"/>
</g>
<g class="st19">
	<path d="M877.4,389.1c0,0.5,0.3,1,0.7,1.1c6.2,2.3,24.3,9.2,34.3,16.2C903.8,399.4,885.3,392.1,877.4,389.1z"/>
	<path d="M939.2,343.8l-1,0.3c22.2,38.8-19.6,62.2-23.2,64.2c0.6,0.5,1.2,1,1.7,1.5l0.3,0.3C917,410.1,965.2,385.5,939.2,343.8z"/>
</g>
<path class="st21" d="M913.8,365.2c-17.5,4.5-19.8-0.6-20.9,0s4-2.8-1.7-0.6s-14.1-6.8-14.1-6.8c0.1-1,0.1-1.9,0.1-2.9
	c0.1-18.9-14.3-37.8-14.3-37.8c-26-14.1-16.9-34.4-16.9-34.4l-1.1-9.3l-2.9-25.3c4.1-1.3,8-3.2,11.6-5.6c6-3.8,12.2-7.1,18.7-9.8
	c1.9-0.8,3-1.4,3-1.4s33.3,22,39,53.1s28.2,56.5,28.8,60.4S931.3,360.7,913.8,365.2z"/>
<g class="st19">
	<path d="M855.1,212.2l-24.8,16.9c3.4,1.2,6.7,2.8,9.7,4.8c8.5-1.2,13.6-7.2,17.1-14.7C855.7,217.1,856.3,215.1,855.1,212.2z"/>
</g>
<circle class="st17" cx="835.9" cy="208.8" r="24.8"/>
<g class="st19">
	<path d="M917.7,362.4c-17.5,4.5-19.8-0.6-20.9,0s4-2.8-1.7-0.6s-14.1-6.8-14.1-6.8c0.1-1,0.1-1.9,0.1-2.9
		c0.1-18.9-14.2-37.8-14.2-37.8C840.9,300.3,850,280,850,280l-1.1-9.3l-2.8-23.9c-1.3,0.6-2.7,1.1-4.1,1.5l2.9,25.3l1.1,9.3
		c0,0-9,20.3,16.9,34.4c0,0,14.3,18.9,14.2,37.8c0,1,0,1.9-0.1,2.9c0,0,8.5,9,14.1,6.8c5.6-2.2,0.6,1.1,1.7,0.6s3.4,4.5,20.9,0
		c7.9-2.1,15.4-5.7,21.9-10.7C930.1,358.1,924.1,360.7,917.7,362.4z"/>
</g>
<path class="st14" d="M870.9,264.1c0,0-14.1,5.1-22,13.5c0,0-38.4,15.2-49.1,13.5s-11.3-4.5-13.5-9l-24.3-44c0,0-10.2-36.7,0-32.8
	s13,26,13,26s19.2,38.4,31,37.8l32.2-15.3c0,0,7.3-10.7,10.7-10.2S870.9,264.1,870.9,264.1z"/>
<g class="st19">
	<path d="M851.8,243.5c0,0-11.7-1.1-15.1,13.6c-3.4,14.7,26,23.7,26,23.7l15.8-22L851.8,243.5z"/>
</g>
<path class="st16" d="M852.4,243.5c0,0-11.7-1.1-15.1,13.6c-3.4,14.7,26,23.7,26,23.7l15.8-22L852.4,243.5z"/>
<g class="st19">
	<path d="M847.6,246.1c-1.8,0.9-3.6,1.6-5.5,2.1l0.1,0.9C844,248.2,845.9,247.2,847.6,246.1z"/>
	<path d="M943.1,344.9c-0.6-4-23.2-29.4-28.8-60.4c-5.6-31.1-39-53.1-39-53.1s-1.1,0.6-3,1.4c-5.1,2.2-10,4.7-14.8,7.5
		c3.2-1.7,6.4-3.2,9.7-4.6c1.9-0.8,3-1.4,3-1.4s33.3,22,39,53.1s28.2,56.5,28.8,60.4c0.4,2.5-4.4,8.1-12.4,13.1
		C936.6,355.3,943.6,347.9,943.1,344.9z"/>
</g>
<path class="st22" d="M859.1,243.7c0,0,14.6,7.2,17.3,21.1"/>
<g class="st19">
	<path d="M823.4,207.4c2.3,0.5,4.9,1.2,6.1,3.3c0.8,1.5,0.7,3.4,1.5,5c2.1,3.9,8.2,2.6,12,4.9c7,4.2,2.4,17.4,9.4,21.6
		c1.3,0.8,2.9,1.1,4.2,1.9c5.9,3.2,5.1,11.7,4,18.4c-1.1,6.6,0.2,15.7,6.8,16.6c3.7,0.5,7.8-1.9,10.8,0.1c1.6,1.1,2.3,3,3.7,4.4
		c1.9,1.9,4.7,2.5,7.2,1.5c2.3-0.9,3.9-3.1,6.2-3.8c3.8-1.1,8,2,11.6,0.5c3.6-1.4,4.5-6.7,3.5-10.6c-0.9-4-2.9-8-1.9-12
		c0.8-3.3,3.5-5.8,4.7-9c3.5-9.4-7.3-19.1-5.3-28.9c0.9-4.2,4.1-8,4-12.3c-0.1-5-4.5-8.8-9.1-10.6s-9.7-2.4-14.2-4.4
		c-9.9-4.5-15.3-15.4-24.3-21.4c-4-2.6-8.6-4.4-13.4-5.1c-12.5-2-25.2,1.5-34.9,9.5c-0.9,0.7-1.8,1.4-2.7,2.1
		c-3.9,2.8-8,5.5-10.3,9.7C794.5,203.6,814.2,205.3,823.4,207.4z"/>
</g>
<path class="st20" d="M824.1,206c2.3,0.5,4.9,1.2,6.1,3.3c0.8,1.5,0.7,3.4,1.5,5c2.1,3.9,8.2,2.6,12,4.9c7,4.2,2.4,17.4,9.4,21.6
	c1.3,0.8,2.9,1.1,4.2,1.9c5.9,3.2,5.1,11.7,4,18.4c-1.1,6.6,0.2,15.7,6.8,16.6c3.7,0.5,7.8-1.9,10.8,0.1c1.6,1.1,2.3,3,3.7,4.4
	c1.9,1.9,4.7,2.5,7.2,1.5c2.3-0.9,3.9-3.1,6.2-3.8c3.8-1.1,8,2,11.6,0.5c3.6-1.4,4.5-6.7,3.5-10.6c-0.9-4-2.9-8-1.9-12
	c0.8-3.3,3.5-5.8,4.7-9c3.5-9.4-7.3-19.1-5.3-28.9c0.9-4.2,4.1-8,4-12.3c-0.1-5-4.5-8.8-9.1-10.6s-9.7-2.4-14.2-4.4
	c-9.9-4.5-15.3-15.4-24.3-21.4c-3.7-2.4-7.8-4.1-12.1-4.9c-12.9-2.5-26.2,0.9-36.3,9.3c-0.9,0.7-1.8,1.4-2.7,2
	c-3.9,2.8-8,5.5-10.3,9.7C795.2,202.2,814.9,203.9,824.1,206z"/>
<path class="st1" d="M622.8,362.2h-174v-32.8C491.3,309.5,556.8,298.4,622.8,362.2z"/>
<g class="st19">
	<path d="M757.8,357.5v4.7h-217v-1C540.8,361.2,647.6,257.2,757.8,357.5z"/>
</g>
<path class="st1" d="M759.8,357.5v4.7h-217v-1C542.8,361.2,649.6,257.2,759.8,357.5z"/>
<circle class="st23" cx="484.8" cy="215.2" r="16"/>
<path class="st24" d="M621.1,203.1c-1.8,0-3.9,0-5.3,0.1c-0.6,0-1.2,0.2-1.8,0.4l-9.4,3.4c7.6,0.2,15.5,0.1,23.3,0.1l43.7-0.3
	c4.5,0,9.1-0.1,12.8-0.3c2.5-0.2,4.3-0.4,6.6-0.6c8.3-0.7,20.3-0.6,31.1-0.6s23.8-0.2,27.6-1.3h-23.1c-2.5,0-5.1,0-7.3-0.1
	c-2.6-0.1-4.1-0.4-6.4-0.6c-3.7-0.3-8.9-0.4-13.7-0.4C672.8,202.6,646.8,203.2,621.1,203.1z"/>
<path class="st24" d="M646.9,222.5c-0.4,0-0.8,0-1.1,0c-0.1,0-0.3,0-0.4,0.1l-2,0.7c1.7,0,3.4,0,5,0l9.5-0.1c1,0,2,0,2.8-0.1
	c0.5,0,0.9-0.1,1.4-0.1c1.8-0.2,4.4-0.1,6.7-0.1c2,0.1,4,0,6-0.3h-5c-0.5,0-1.1,0-1.6,0s-0.9-0.1-1.4-0.1c-0.8-0.1-1.9-0.1-3-0.1
	C658.2,222.4,652.5,222.5,646.9,222.5z"/>
<path class="st24" d="M579.9,250.5c-0.4,0-0.8,0-1.1,0c-0.1,0-0.3,0-0.4,0.1l-2,0.7c1.7,0,3.4,0,5,0l9.5-0.1c1,0,2,0,2.8-0.1
	c0.5,0,0.9-0.1,1.4-0.1c1.8-0.2,4.4-0.1,6.7-0.1c2,0.1,4,0,6-0.3h-5c-0.5,0-1.1,0-1.6,0s-0.9-0.1-1.4-0.1c-0.8-0.1-1.9-0.1-3-0.1
	C591.2,250.4,585.5,250.5,579.9,250.5z"/>
<path class="st25" d="M542.3,353.3h-7.5c0,0-2.3-82.2,7.5-107.6h1.9C544.2,245.7,537.7,338.7,542.3,353.3z"/>
<path class="st25" d="M537.2,241.5c0,0-6.1,16.9-3.3,24.4c0,0,4.2-15.5,9.2-17.9s10.1,17.9,10.1,17.9s2.8-12.7-2.3-23
	c0,0,10.3,5.6,15.5,16.5c0,0,0.9-7-11.3-21.6c0,0,10.8,2.8,17.9,9.4c0,0,2.3-5.2-12.2-13.6c0,0,1.9-6.1,13.2-3.3c0,0,0-8-17.9-6.6
	c0,0,0-5.2,11.8-4.2c0,0,0-6.6-13.6-4.2c0,0,2.8-4.2,4.7-5.2c-2.4-0.2-4.7,0.5-6.6,1.9c0,0,0.5-8.5-6.6-11.8l-0.9,11.8
	c0,0-7.9-9.3-6.1-7.5c0.5,0.5,1.9,6.1,1.4,8.9c0,0-8-6.6-17.9,0.5c0,0,12.2,0.9,14.1,5.2c0,0-10.3-1.9-12.7-0.5c0,0,8,2.8,7.5,4.7
	c0,0-14.1,0-16,5.2c0,0,14.6,1.9,15.5,3.3c0,0-16.9,12.2-17.9,15.5c0,0,17.4-10.3,20.2-10.3s-12.7,15-11.8,18.8
	C521.2,255.6,533.9,240.5,537.2,241.5z"/>
<path class="st25" d="M635.1,350.2h5.7c0,0,1.8-62.8-5.7-82.2h-1.4C633.7,268,638.7,339.1,635.1,350.2z"/>
<path class="st25" d="M639,264.8c0,0,4.7,12.9,2.5,18.7c0,0-3.2-11.8-7-13.6c-3.8-1.8-7.7,13.6-7.7,13.6s-2.2-9.7,1.8-17.6
	c-5.1,3-9.2,7.3-11.8,12.6c0,0-0.7-5.4,8.6-16.5c0,0-8.3,2.2-13.6,7.2c0,0-1.8-4,9.3-10.4c0,0-1.4-4.7-10-2.5c0,0,0-6.1,13.6-5
	c0,0,0-4-9-3.2c0,0,0-5,10.4-3.2c0,0-2.2-3.2-3.6-4c1.8-0.2,3.6,0.4,5,1.4c0,0-0.4-6.5,5-9l0.7,9c0,0,6-7.1,4.7-5.7
	c-0.9,2.2-1.2,4.5-1.1,6.8c0,0,6.1-5,13.6,0.4c0,0-9.3,0.7-10.8,4c0,0,7.9-1.4,9.7-0.4c0,0-6.1,2.1-5.7,3.6c0,0,10.8,0,12.2,4
	c0,0-11.1,1.4-11.8,2.5c0,0,12.9,9.3,13.6,11.9c0,0-13.3-7.9-15.4-7.9s9.7,11.5,9,14.4C651.3,275.5,641.6,264.1,639,264.8z"/>
<path class="st25" d="M703.8,338h3.6c0,0,1.1-38.9-3.6-50.9h-0.9C702.9,287,706,331.1,703.8,338z"/>
<path class="st25" d="M706.3,285c0,0,2.9,8,1.6,11.6c0,0-2-7.3-4.3-8.5c-2.3-1.1-4.8,8.5-4.8,8.5s-1.3-6,1.1-10.9
	c-3.1,1.9-5.7,4.5-7.3,7.8c0,0-0.4-3.3,5.3-10.2c-3.1,0.9-6,2.4-8.5,4.5c0,0-1.1-2.5,5.8-6.5c0,0-0.9-2.9-6.2-1.6c0,0,0-3.8,8.5-3.1
	c0,0,0-2.5-5.6-2c0,0,0-3.1,6.5-2c-0.6-0.9-1.3-1.8-2.2-2.5c1.1-0.1,2.2,0.2,3.1,0.9c0,0-0.2-4,3.1-5.6l0.4,5.6c0,0,3.7-4.4,2.9-3.6
	c-0.5,1.3-0.8,2.8-0.7,4.2c2.5-1.9,6-1.8,8.5,0.2c0,0-5.8,0.4-6.7,2.5c0,0,4.9-0.9,6-0.2c0,0-3.8,1.3-3.6,2.2c0,0,6.7,0,7.6,2.5
	c0,0-6.9,0.9-7.3,1.6c0,0,8,5.8,8.5,7.3c0,0-8.2-4.9-9.6-4.9s6,7.1,5.6,8.9C713.8,291.7,707.8,284.6,706.3,285z"/>
<linearGradient id="SVGID_4_" gradientUnits="userSpaceOnUse" x1="687.7618" y1="134.4566" x2="687.7618" y2="189.7966" gradientTransform="matrix(1 0 0 -1 -124.06 467.08)">
	<stop  offset="0" style="stop-color:#808080;stop-opacity:0.25"/>
	<stop  offset="0.54" style="stop-color:#808080;stop-opacity:0.12"/>
	<stop  offset="1" style="stop-color:#808080;stop-opacity:0.1"/>
</linearGradient>
<path class="st26" d="M573.8,294L573.8,294l-0.8-4c0-0.6-0.2-1.2-0.7-1.6l-3.5-1.7l0,0c-0.3-0.3-0.5-0.6-0.6-1l0.1-0.1
	c0.2-0.2,0.3-0.5,0.4-0.8c0-0.1,0-0.2,0-0.2h0c0.7,0.1,1.3-0.3,1.4-1v-0.1c-0.1,0.6-0.6,1-1.2,1c1-0.7,1.6-1.8,1.6-2.9
	c0,0,0-0.1,0-0.1c0.3-0.2,0.5-0.5,0.6-0.9v-0.1c-0.1,0.3-0.3,0.6-0.6,0.8c0-0.3-0.1-0.7-0.2-1h0.1c0.7,0,1.3-0.6,1.3-1.3
	c0,0,0-0.1,0-0.1c0,0.7-0.6,1.2-1.3,1.2h-0.2V280c0.8-0.2,1.4-0.9,1.5-1.7c0,0,0-0.1,0-0.1c0,0.3-0.1,0.5-0.3,0.7
	c0-0.7-0.5-1.3-1.2-1.4c-0.6,0-1.2,0.4-1.3,1l-0.2-0.1c0.1-0.5,0.6-0.9,1.2-0.9h-0.1c-0.6,0-1,0.3-1.2,0.9c-1.6-0.7-3.5-0.2-4.5,1.3
	c-0.3,0.2-0.6,0.5-0.6,0.7c-0.1,0.1-0.2,0.2-0.3,0.4c-0.4,0.8-0.5,1.8-0.4,2.7c0.1,0.9-0.2,1.8-0.9,2.5c0.3,0.1,0.6,0.1,0.9,0
	c0.3-0.1,0.6-0.3,0.8-0.5c0.2-0.1,0.4-0.3,0.6-0.6v0c0.2,0.1,0.3,0.2,0.5,0.3c0.1,0.6,0.1,1.3-0.2,1.5l0,0l0,0l0-0.1
	c-0.6,0.5-1.4,0.7-2.2,0.6c-1,0.1-1.9,0.6-2.3,1.5l-1.1,4.5l0,0v0.1l0,0v0.1l0,0c0,0.1,0.1,0.2,0.3,0.2l0.3,0.1
	c0.1,0.8,0,1.6-0.2,2.3c-0.2,1.1-0.4,2.3-0.4,3.4c0.1,0.6,0.2,3.5,0.3,5c-0.1,0.5-0.2,1-0.3,1.5l-1.6,9.7c0,0-1.2,7.7-1.1,10.1
	l-0.2,1.3c0,0-3.3,4.1-2.3,4.7c1,0.6,2.4,0.8,3.8-1.3c0.2-0.5,0.5-1,0.9-1.4c0.3-0.3,0.5-0.7,0.5-1.1l-0.1-1l0.2,0.1l0,0h0.1
	c0,0,1.6-5.3,1.4-9c0,0,3-10.6,5.2-12.3v-0.1l0.2-0.1l0.5,10.3l-0.5,11.3l-0.1,0.7c0,0-3.3,4.1-2.3,4.7c1,0.6,2.4,0.8,3.8-1.3
	c0.2-0.5,0.5-1,0.9-1.4c0.3-0.3,0.5-0.7,0.5-1.1l-0.2-1.5c0.6-1.9,2-7.4,1.4-10.6l1-6.8c1-1.1,0.9-4,0.9-4c0.8-1.6,1-8.1,1-8.1
	l0.2-3.2c0.1,0,0.3,0,0.5,0h0.1h0.1v-0.1C573.7,294.1,573.8,294.1,573.8,294L573.8,294L573.8,294L573.8,294L573.8,294z M571,300.5
	c-0.1-0.2-0.2-0.4-0.3-0.7h-0.1v-0.1c0,0,0-0.1,0-0.1v-0.1c0-0.1,0.1-0.2,0.1-0.3c0.1-0.2,0.2-0.4,0.2-0.7
	C571.1,299.2,571.1,299.8,571,300.5z M570.7,297.7l-0.2-2.1l0.1-0.2l0.3,2.7L570.7,297.7z M561.3,298c-0.1,0.2-0.2,0.4-0.2,0.6
	c0,0,0,0,0,0.1c0,0.2,0,0.4,0.1,0.6l-0.3,1.3v-2.6c0.2-0.3,0.4-0.6,0.5-0.9C561.4,297.5,561.4,297.8,561.3,298L561.3,298z"/>
<path class="st27" d="M563.3,281.5c-0.4,0.8-0.5,1.7-0.4,2.6c0.1,0.9-0.2,1.8-0.9,2.4c0.3,0.1,0.6,0.1,0.9,0
	c0.3-0.1,0.6-0.3,0.8-0.5c0.2-0.1,0.4-0.3,0.6-0.5c0.1-0.3,0.2-0.7,0.1-1.1c0-0.7,0.1-1.3,0.2-2c0.1-0.4,0.4-1.5,0-1.7
	S563.5,281.2,563.3,281.5z"/>
<path class="st28" d="M556.7,324l-0.3,2c0,0-3.2,4-2.2,4.5s2.3,0.8,3.7-1.3c0.2-0.5,0.5-0.9,0.9-1.3l0,0c0.3-0.3,0.5-0.7,0.4-1.1
	l-0.3-3L556.7,324z"/>
<path class="st28" d="M566.1,324.8l-0.3,2c0,0-3.2,4-2.2,4.5s2.3,0.8,3.7-1.3c0.2-0.5,0.5-0.9,0.9-1.3l0,0c0.3-0.3,0.5-0.7,0.4-1.1
	l-0.3-3L566.1,324.8z"/>
<path class="st29" d="M561.2,300.9c0,0-1.5,1.1-2,4.8l-1.5,9.3c0,0-1.3,8.4-1.1,10.1l2.6,0.9c0,0,1.5-5.1,1.4-8.6
	c0,0,3.2-11.2,5.4-12l0.5,9.9l-0.5,11.2l2.2,0.5c0,0,2.3-7.1,1.5-10.9l1.2-8c0,0,1.3-4.3-0.5-8L561.2,300.9z"/>
<g class="st19">
	<path d="M565.7,305.4v-0.2c-2.2,0.8-5.4,12-5.4,12c-0.1,2.9-0.5,5.8-1.3,8.6l0.3,0.1c0,0,1.5-5.1,1.4-8.6
		C560.7,317.3,563.6,307.1,565.7,305.4z"/>
	<path d="M570.5,300h-0.3c1.1,2.5,1.3,5.3,0.5,7.9l-1.2,8c0.7,3.6-1.3,10.1-1.5,10.8l0.3,0.1c0,0,2.3-7.1,1.5-10.9l1.2-8
		C571,307.9,572.3,303.7,570.5,300z"/>
</g>
<path class="st30" d="M559.2,293.6c0,0.2,0.1,0.3,0.3,0.3c0.7,0.2,1.4,0.5,2,1c1.1,0.9-1.2-1.7-1.2-1.7l-0.8,0.2L559.2,293.6
	L559.2,293.6z"/>
<path class="st31" d="M559.2,293.6c0,0.2,0.1,0.3,0.3,0.3c0.7,0.2,1.4,0.5,2,1c1.1,0.9-1.2-1.7-1.2-1.7l-0.8,0.2L559.2,293.6
	L559.2,293.6z"/>
<path class="st30" d="M570,295.9c0.9-0.7,2-1.1,3.1-1.2c0.2,0,0.3-0.1,0.3-0.3l0,0C573.4,294.3,570.8,293.3,570,295.9z"/>
<path class="st31" d="M573.5,294.3c0,0-2.6-1-3.4,1.5c0,0,1.9-1.5,3.3-1.2"/>
<circle class="st27" cx="567" cy="282.3" r="3.4"/>
<path class="st17" d="M564.7,284.7c0,0,0.5,2,0,2.4c-0.5,0.4-1.5,1.2-0.7,1.8c0.7,0.6,3.3,1.6,4.2,1.1s1.9-0.3,1.6-1.3
	s-2.1-0.8-2.2-5.8L564.7,284.7z"/>
<path class="st31" d="M559.8,293c0.1,1.1,0,2.2-0.2,3.2c-0.2,1.1-0.3,2.2-0.4,3.3c0.1,0.7,0.3,5.5,0.3,5.5s-0.4,4.2,1.7,3.8
	s-0.3-4.8-0.3-4.8l0.1-5.7c0.6-0.7,0.9-1.6,1-2.5C562.1,294.4,559.8,293,559.8,293z"/>
<path class="st17" d="M559.8,293c0.1,1.1,0,2.2-0.2,3.2c-0.2,1.1-0.3,2.2-0.4,3.3c0.1,0.7,0.3,5.5,0.3,5.5s-0.4,4.2,1.7,3.8
	s-0.3-4.8-0.3-4.8l0.1-5.7c0.6-0.7,0.9-1.6,1-2.5C562.1,294.4,559.8,293,559.8,293z"/>
<path class="st31" d="M572.8,293.3l-0.3,4.5c0,0-0.2,6.2-0.9,7.8c0,0,0.2,4.4-1.8,4.3c-2-0.1,0.3-4.8,0.3-4.8s1.1-4.9,0.5-6.4
	l-0.5-5.3H572.8z"/>
<path class="st17" d="M572.8,293.3l-0.3,4.5c0,0-0.2,6.2-0.9,7.8c0,0,0.2,4.4-1.8,4.3c-2-0.1,0.3-4.8,0.3-4.8s1.1-4.9,0.5-6.4
	l-0.5-5.3H572.8z"/>
<path class="st31" d="M566.2,289c0,0,1.7,0.8,2.5-1.5l3.3,1.6c0.4,0.4,0.7,0.9,0.7,1.5l0.7,3.9c0,0-2.5-0.8-3.2,1.5l0.2,2.2l0,0
	c0.2,0.5,0.1,1.1-0.1,1.6c0,0.1,0,0.2,0,0.3c0.2,0.6-0.1,1.2-0.7,1.3c-0.1,0-0.2,0-0.3,0c-0.9,0-1.8,0.1-2.7,0.2
	c-0.7,0.2-2.9-0.4-3.6,0c-0.7,0.4-2.2-0.3-2.2-0.3l0.4-1.8c0,0-0.3-0.9,0.1-1.2c0.4-0.3,0.1-3-0.2-3.8c0,0-1.2-1.2-2-1l1-4.5
	c0.4-0.8,1.3-1.4,2.2-1.5c0.8,0.1,1.5-0.2,2.2-0.6C564.5,287.1,563.8,288.7,566.2,289z"/>
<path class="st31" d="M566.4,288.9c0.5,0.1,1.7,0.2,2.4-1.6l3.3,1.6c0.4,0.4,0.7,0.9,0.7,1.5l0.7,3.9c0,0-2.5-0.8-3.2,1.5l0.2,2.2
	l0.1,0.4c0.1,0.4,0.1,0.8-0.2,1.1c-0.1,0.1-0.1,0.3-0.1,0.4c0.2,0.6-0.1,1.2-0.7,1.3c-0.1,0-0.2,0-0.3,0c-0.9,0-1.8,0.1-2.7,0.2
	c-0.7,0.2-2.9-0.4-3.6,0c-0.7,0.4-2.2-0.3-2.2-0.3l0.4-1.8c0,0-0.3-0.9,0.1-1.2c0.4-0.3,0.1-3-0.2-3.8c0,0-1.2-1.2-2-1l1-4.5
	c0.4-0.8,1.3-1.4,2.2-1.5c0.8,0.1,1.5-0.2,2.2-0.6c0,0-0.8,1.5,1.3,1.8L566.4,288.9z"/>
<path class="st30" d="M566.4,289c0.5,0.1,1.7,0.2,2.4-1.6l3.3,1.6c0.4,0.4,0.7,0.9,0.7,1.5l0.7,3.9c0,0-2.5-0.8-3.2,1.5l0.2,2.2l0,0
	c0.2,0.5,0.1,1.1-0.1,1.6c0,0.1,0,0.2,0,0.3c0.2,0.6-0.1,1.2-0.7,1.3c-0.1,0-0.2,0-0.3,0c-0.9,0-1.8,0.1-2.7,0.2
	c-0.7,0.2-2.9-0.4-3.6,0c-0.7,0.4-2.2-0.3-2.2-0.3l0.4-1.8c0,0-0.3-0.9,0.1-1.2c0.4-0.3,0.1-3-0.2-3.8c0,0-1.2-1.2-2-1l1-4.5
	c0.4-0.8,1.3-1.4,2.2-1.5c0.8,0.1,1.5-0.2,2.2-0.6c0,0-0.8,1.5,1.3,1.8L566.4,289z"/>
<path class="st31" d="M567.6,283l-2.9,1.8c0.1,0.3,0.1,0.7,0.2,1c0.3,0.1,0.7,0.2,1,0.2c0.7-0.1,1.4-0.4,1.9-0.9
	C567.7,284.5,567.6,283.7,567.6,283z"/>
<circle class="st17" cx="565.9" cy="283" r="2.8"/>
<circle class="st27" cx="570" cy="279.6" r="1.2"/>
<path class="st27" d="M570.3,280.9c-0.7,0-1.2-0.5-1.2-1.2c0,0,0,0.1,0,0.1c0,0.7,0.6,1.2,1.2,1.2c0.7,0,1.2-0.6,1.2-1.2
	c0,0,0,0,0,0c0,0,0-0.1,0-0.1C571.5,280.4,570.9,280.9,570.3,280.9z"/>
<path class="st27" d="M569.6,282.1c-0.6-0.1-1.1-0.7-1-1.4v0.1c-0.1,0.7,0.3,1.3,1,1.4s1.3-0.3,1.4-1l0,0v-0.1
	C570.9,281.8,570.2,282.2,569.6,282.1z"/>
<path class="st27" d="M568.6,285.1c-0.6-0.1-1.1-0.7-1-1.4v0.1c-0.1,0.7,0.3,1.3,1,1.4s1.3-0.3,1.4-1v-0.1
	C569.9,284.8,569.3,285.2,568.6,285.1z"/>
<path class="st27" d="M570.3,280.2c-0.7,0-1.2-0.5-1.2-1.2c0,0,0,0.1,0,0.1c0,0.7,0.6,1.2,1.2,1.2c0.7,0,1.2-0.6,1.2-1.2
	c0,0,0,0,0,0c0,0,0-0.1,0-0.1C571.5,279.7,570.9,280.2,570.3,280.2z"/>
<path class="st27" d="M568.5,279.6c0-0.7,0.5-1.2,1.2-1.2h-0.1c-0.7,0-1.2,0.6-1.2,1.2c0,0.7,0.6,1.2,1.2,1.2l0,0h0.1
	C569.1,280.8,568.5,280.2,568.5,279.6z"/>
<path class="st31" d="M569.8,291.3c0.1,0.6,0.1,1.2,0,1.9c0,0-0.2,1.6,0.1,1.9"/>
<path class="st31" d="M561.4,291.7c0.1,0.6,0.1,1.2,0,1.9c0,0-0.2,1.6,0.1,1.9"/>
<path class="st31" d="M561.3,298.3c0.3,0.1,0.6,0.1,0.8,0c0.3-0.1,0.7-0.1,1,0"/>
<path class="st31" d="M561.8,295.9c1,0,1.9-0.1,2.9-0.5c0,0,3.5,0.9,4.5,0.2"/>
<path class="st17" d="M559.9,310.7h0.8c0.4,0,0.7,0.3,0.7,0.7v0c0,0.4-0.3,0.7-0.7,0.7h-0.8c-0.4,0-0.7-0.3-0.7-0.7v0
	C559.2,311,559.5,310.7,559.9,310.7z"/>
<path class="st32" d="M559.2,311.1l1.2,0l1,0.2H561L559.2,311.1z"/>
<path class="st32" d="M567,305.5h1.2l1,0.1h-0.3L567,305.5z"/>
<path class="st32" d="M567,305.7h1.2l1,0.1h-0.3L567,305.7z"/>
<path class="st32" d="M567,306h1.2l1,0.1h-0.3L567,306z"/>
<path class="st32" d="M567,306.2h1.2l1,0.1h-0.3L567,306.2z"/>
<path class="st32" d="M559.2,312h1.2l1,0.1H561L559.2,312z"/>
<path class="st32" d="M559.2,311.9h1.2l1,0.1H561L559.2,311.9z"/>
<path class="st32" d="M559.2,311.8h1.2l1,0.1H561L559.2,311.8z"/>
<path class="st32" d="M559.2,311.7h1.2l1,0.1H561L559.2,311.7z"/>
<path class="st32" d="M559.2,310.9l1.2,0l1,0.2H561L559.2,310.9z"/>
<path class="st32" d="M559.2,310.7l1.2,0l1,0.2H561L559.2,310.7z"/>
<path class="st31" d="M566.3,281.2c-0.1,1.1,0,2.1,0.4,3.1c0.4,1,0.3,2.1-0.2,3c0.3,0.1,0.6,0,0.9-0.2c0.2-0.2,0.5-0.5,0.6-0.8
	c0.2-0.2,0.3-0.5,0.4-0.8c0-0.4,0-0.9-0.2-1.3c-0.2-0.8-0.3-1.5-0.4-2.3c-0.1-0.5,0-1.9-0.5-2S566.5,280.8,566.3,281.2z"/>
<path class="st27" d="M566.4,281.2c-0.1,1.1,0,2.1,0.4,3.1c0.4,1,0.3,2.1-0.2,3c0.3,0.1,0.6,0,0.9-0.2c0.2-0.2,0.5-0.5,0.6-0.8
	c0.2-0.2,0.3-0.5,0.4-0.8c0-0.4,0-0.9-0.2-1.3c-0.2-0.8-0.3-1.5-0.4-2.3c-0.1-0.5,0-1.9-0.5-2S566.5,280.8,566.4,281.2z"/>
<path class="st31" d="M565.2,281.9c0.2,0.2,0.3,0.6,0.5,0.9c0.4,0.4,0.9,0.6,1.4,0.6c0.1,0,0.3,0,0.4,0.1c0.2,0.1,0.2,0.5,0.4,0.7
	c0.3,0.3,0.8,0.3,1.1,0c0,0,0,0,0,0c0.3-0.3,0.4-0.8,0.5-1.2c0-0.5,0-1,0-1.5c0-0.6-0.2-1.1-0.6-1.5c-0.3-0.2-0.7-0.4-1.1-0.5
	c-0.5-0.2-1.1-0.2-1.7-0.1c-0.3,0.1-0.5,0.2-0.8,0.4c-0.3,0.2-0.7,0.4-1,0.7c-0.4,0.3-1.1,0.8-0.4,1.1
	C564.3,281.6,564.8,281.5,565.2,281.9z"/>
<path class="st27" d="M565.3,281.9c0.2,0.2,0.3,0.6,0.5,0.9c0.4,0.4,0.9,0.6,1.4,0.6c0.1,0,0.3,0,0.4,0.1c0.2,0.1,0.2,0.5,0.4,0.7
	c0.3,0.3,0.8,0.3,1.1,0c0,0,0,0,0,0c0.3-0.3,0.4-0.8,0.5-1.2c0-0.5,0-1,0-1.5c0-0.6-0.2-1.1-0.6-1.5c-0.3-0.2-0.7-0.4-1.1-0.5
	c-0.5-0.2-1.1-0.2-1.7-0.1c-0.3,0.1-0.5,0.2-0.8,0.4c-0.3,0.2-0.7,0.4-1,0.7c-0.4,0.3-1.1,0.8-0.4,1.1
	C564.4,281.6,564.9,281.5,565.3,281.9z"/>
<path class="st32" d="M567.1,305.5h1.2l1,0.1h-0.3L567.1,305.5z"/>
<path class="st32" d="M567.1,305.7h1.2l1,0.1h-0.3L567.1,305.7z"/>
<path class="st32" d="M567.1,306h1.2l1,0.1h-0.3L567.1,306z"/>
<path class="st32" d="M567.1,306.2h1.2l1,0.1h-0.3L567.1,306.2z"/>
<path class="st32" d="M566.6,319.5h1.2l1,0.1h-0.3L566.6,319.5z"/>
<path class="st32" d="M566.6,319.7h1.2l1,0.1h-0.3L566.6,319.7z"/>
<path class="st32" d="M566.6,320h1.2l1,0.1h-0.3L566.6,320z"/>
<path class="st32" d="M566.6,320.2h1.2l1,0.1h-0.3L566.6,320.2z"/>
</svg>
