<svg xmlns="http://www.w3.org/2000/svg" width="197.35" height="195.766" viewBox="0 0 197.35 195.766">
  <g id="collect" transform="translate(-666.65 -471.385)">
    <circle id="Ellipse_17" data-name="Ellipse 17" cx="16.43" cy="16.43" r="16.43" transform="translate(780.62 558.735)" fill="#f89b37"/>
    <circle id="Ellipse_18" data-name="Ellipse 18" cx="16.43" cy="16.43" r="16.43" transform="translate(820.912 514.923)" fill="#f89b37"/>
    <circle id="Ellipse_19" data-name="Ellipse 19" cx="16.43" cy="16.43" r="16.43" transform="translate(771.232 481.282)" fill="#f89b37"/>
    <g id="Group_202" data-name="Group 202">
      <g id="Group_201" data-name="Group 201">
        <path id="Path_83" data-name="Path 83" d="M764.149,667.151a2.832,2.832,0,0,1-1.413-.378l-12.909-7.433a2.836,2.836,0,0,1,2.831-4.916l12.909,7.433a2.836,2.836,0,0,1-1.418,5.294Zm11.22-2.973a2.828,2.828,0,0,1-1.429-.387l-39.17-22.849H718.088a2.835,2.835,0,0,1-2.834,2.738H702.443v6.943a2.837,2.837,0,0,1-2.836,2.837H669.486a2.837,2.837,0,0,1,0-5.673h27.285v-71H669.877a2.836,2.836,0,0,1,0-5.672h29.73a2.836,2.836,0,0,1,2.836,2.836v5.77h12.811a2.836,2.836,0,0,1,2.836,2.836v4.6h42.639a2.838,2.838,0,0,1,2.134.968l22.222,25.4,61.439-18.344c8.28-2.43,12.579,1.363,14.729,4.972.037.062.071.125.1.189,3.5,7.039,1.416,11.27-.948,13.579a2.879,2.879,0,0,1-.531.409l-83.058,49.455A2.829,2.829,0,0,1,775.369,664.178ZM718.09,635.27h17.447a2.837,2.837,0,0,1,1.429.386l38.388,22.394,81.309-48.414c.681-.735,1.742-2.435-.337-6.676-1.155-1.9-3.146-3.827-8.192-2.346l-58.929,17.594a2.811,2.811,0,0,1,.126.293c2.109,5.829,1.629,10.463-1.428,13.775-2.6,2.908-7.365,5.774-15.36,2.971a2.845,2.845,0,0,1-.992-.6l-17.935-16.655a2.836,2.836,0,1,1,3.859-4.156l17.487,16.237c5.1,1.617,7.413-.116,8.721-1.589l.042-.045c.546-.588,2.171-2.339.456-7.481l-2.106-2.27-.021-.023,0,0,0,0-.042-.048-22.566-25.788H718.09Zm-15.647,2.738h9.975V585.394h-9.975ZM803.663,661.5a2.837,2.837,0,0,1-1.545-5.217l5.223-3.384a2.836,2.836,0,0,1,3.084,4.761l-5.222,3.383A2.823,2.823,0,0,1,803.663,661.5Zm-61.42-4.91a2.825,2.825,0,0,1-1.52-.443l-4.3-2.739a2.836,2.836,0,1,1,3.045-4.785l4.3,2.738a2.836,2.836,0,0,1-1.525,5.229Zm74.642-4.107a2.837,2.837,0,0,1-1.475-5.261l31.627-19.207a2.836,2.836,0,0,1,2.944,4.849L818.355,652.07A2.826,2.826,0,0,1,816.885,652.482ZM683.373,641.333a9.312,9.312,0,1,1,6.552-2.717A9.123,9.123,0,0,1,683.373,641.333Zm0-12.909a3.575,3.575,0,0,0-3.619,3.618,3.623,3.623,0,1,0,3.619-3.618Zm113.638-27.343a25.907,25.907,0,1,1,18.337-7.6A25.1,25.1,0,0,1,797.011,601.081Zm0-46.179a20.236,20.236,0,1,0,14.326,5.937A19.357,19.357,0,0,0,797.011,554.9Zm-41.466,28.536H739.116a2.836,2.836,0,0,1,0-5.672h16.429a2.836,2.836,0,1,1,0,5.672Zm-25.817,0h-2.739a2.836,2.836,0,0,1,0-5.672h2.739a2.836,2.836,0,0,1,0,5.672Zm34.482-5.085a2.836,2.836,0,0,1-2.836-2.836v-.352a33.161,33.161,0,0,1,4.052-16.279,2.836,2.836,0,1,1,4.961,2.75,27.557,27.557,0,0,0-3.341,13.529v.352A2.836,2.836,0,0,1,764.21,578.353ZM692.957,567.4h-9.389a2.836,2.836,0,0,1,0-5.672h9.389a2.836,2.836,0,1,1,0,5.672Zm-18.386,0h-2.738a2.836,2.836,0,0,1,0-5.672h2.738a2.836,2.836,0,0,1,0,5.672Zm163.122-10.112a25.909,25.909,0,1,1,18.337-7.6A25.094,25.094,0,0,1,837.693,557.288Zm0-46.179a20.236,20.236,0,1,0,14.327,5.937A19.356,19.356,0,0,0,837.693,511.109Zm-64.936,45.455a2.836,2.836,0,0,1-2.069-4.775q.324-.347.671-.693a36.9,36.9,0,0,1,3.158-2.818,2.836,2.836,0,0,1,3.522,4.446,31.139,31.139,0,0,0-2.67,2.384c-.187.187-.367.373-.542.559A2.827,2.827,0,0,1,772.757,556.564ZM766.575,526.7a2.825,2.825,0,0,1-1.845-.684c-.026-.022-.051-.042-.077-.061s-.071-.052-.105-.079a33.117,33.117,0,0,1-10.268-13.257,2.836,2.836,0,1,1,5.23-2.194,27.514,27.514,0,0,0,8.505,10.962c.138.1.275.21.408.324a2.836,2.836,0,0,1-1.848,4.989Zm21.438-3.462a25.941,25.941,0,1,1,18.335-7.6A25.1,25.1,0,0,1,788.013,523.236Zm0-46.179a20.27,20.27,0,1,0,14.33,5.94A19.356,19.356,0,0,0,788.013,477.057ZM861.165,510.4a2.827,2.827,0,0,1-2.064-.89,26.694,26.694,0,0,0-7.993-5.857,2.836,2.836,0,0,1,2.431-5.125,32.349,32.349,0,0,1,9.688,7.09,2.836,2.836,0,0,1-2.062,4.782ZM755.131,505.34a2.836,2.836,0,0,1-2.806-2.453q-.065-.468-.108-.957a35.624,35.624,0,0,1-.29-4.15,2.837,2.837,0,0,1,2.807-2.865h.03a2.837,2.837,0,0,1,2.835,2.807,29.945,29.945,0,0,0,.25,3.536c.006.041.01.081.014.121.021.253.049.5.082.742a2.843,2.843,0,0,1-2.814,3.22Zm89.47-3.873a2.872,2.872,0,0,1-.511-.046q-.42-.076-.859-.153a33.225,33.225,0,0,0-3.531-.372,2.836,2.836,0,0,1,.289-5.665,39.079,39.079,0,0,1,4.177.443c.344.06.645.113.939.166a2.836,2.836,0,0,1-.5,5.627Z" fill="#2d5772"/>
      </g>
    </g>
    <path id="Path_84" data-name="Path 84" d="M794.135,488.127l-.1-.1H781.715l-.117.1v1.194l.117.1h2.25a5.573,5.573,0,0,1,2.562.744,3.307,3.307,0,0,1,1.31,1.916h-6.122l-.117.118v1.173l.117.1H787.9v.157l-.059.586q-.84,3.051-5.065,3.052h-.783v.039q5.085,6.63,7.667,9.955h2.5v-.117l-6.611-8.567a.159.159,0,0,0,.117-.039A7.668,7.668,0,0,0,788.7,497.3q2.406-1.878,2.406-3.834h2.934l.1-.1V492.2l-.1-.118h-3.052l-.058-.371a3.526,3.526,0,0,0-1.526-2.191v-.1h4.636l.1-.1v-1.194" fill="#2d5772"/>
    <g id="Group_203" data-name="Group 203">
      <path id="Path_85" data-name="Path 85" d="M847.135,537.848H828.2a1.866,1.866,0,0,1-1.865-1.865v-9.466a1.866,1.866,0,0,1,1.865-1.865h18.933A1.867,1.867,0,0,1,849,526.517v9.466A1.867,1.867,0,0,1,847.135,537.848ZM828.2,525.513a1,1,0,0,0-1,1v9.466a1,1,0,0,0,1,1h18.933a1,1,0,0,0,1-1v-9.466a1,1,0,0,0-1-1Z" fill="#2d5772"/>
      <rect id="Rectangle_27" data-name="Rectangle 27" width="21.802" height="3.156" transform="translate(826.911 528.238)" fill="#2d5772"/>
    </g>
    <g id="Group_207" data-name="Group 207">
      <g id="Group_205" data-name="Group 205">
        <path id="Path_86" data-name="Path 86" d="M804.71,578.813h-1.436l1.995-7.206h1.436Z" fill="#2d5772"/>
        <g id="Group_204" data-name="Group 204">
          <path id="Path_87" data-name="Path 87" d="M803.964,571.833a.526.526,0,0,0-.461-.206h-7.89l-.389,1.413H802.4l-.418,1.508h-5.741v0H794.8l-1.191,4.3h1.436l.8-2.885H802.3a.909.909,0,0,0,.569-.206.963.963,0,0,0,.351-.511l.8-2.885A.585.585,0,0,0,803.964,571.833Z" fill="#2d5772"/>
        </g>
        <path id="Path_88" data-name="Path 88" d="M792.777,578.362a.661.661,0,0,1-.634.484h-7.4a.517.517,0,0,1-.451-.206.568.568,0,0,1-.062-.511l1.8-6.5h1.436l-1.612,5.809H791.6l1.612-5.809h1.436Z" fill="#2d5772"/>
      </g>
      <g id="Group_206" data-name="Group 206">
        <path id="Path_89" data-name="Path 89" d="M809.185,571.62,811,575.231l-3.817,3.611Z" fill="#2d5772"/>
        <path id="Path_90" data-name="Path 90" d="M807.909,571.62l1.815,3.611-3.821,3.611Z" fill="#2d5772"/>
      </g>
    </g>
  </g>
</svg>
