<svg xmlns="http://www.w3.org/2000/svg" width="62.902" height="70.329" viewBox="0 0 62.902 70.329">
  <g id="transactions" transform="translate(-1535.4 -821.5)">
    <path id="Path_77" data-name="Path 77" d="M1547.25,868.35a2.5,2.5,0,0,0,1.9.75h23a2.688,2.688,0,0,0,1.9-4.55,2.677,2.677,0,0,0-1.9-.8h-23a2.687,2.687,0,0,0-1.9,4.6m26.8-29.55a2.677,2.677,0,0,0-1.9-.8h-23a2.687,2.687,0,0,0-1.9,4.6,2.5,2.5,0,0,0,1.9.75h23a2.688,2.688,0,0,0,1.9-4.55m0,13a2.677,2.677,0,0,0-1.9-.8h-23a2.687,2.687,0,0,0-1.9,4.6,2.5,2.5,0,0,0,1.9.75h23a2.688,2.688,0,0,0,1.9-4.55Z" fill="#f89b37"/>
    <path id="Path_78" data-name="Path 78" d="M1579.85,826.05a2.459,2.459,0,0,0,.75-1.9,2.411,2.411,0,0,0-.8-1.85,2.626,2.626,0,0,0-1.9-.8l-8.05.05a2.676,2.676,0,0,0-1.85.8,2.656,2.656,0,0,0,0,3.8,2.553,2.553,0,0,0,1.9.75l8.05-.05a2.473,2.473,0,0,0,1.9-.8m18.2,2.45a1.2,1.2,0,0,0-.05-.45,7.288,7.288,0,0,0-2.05-4.05l-.05-.05a8.554,8.554,0,0,0-6.1-2.45,7.351,7.351,0,0,0-3.05.65,8,8,0,0,0-2.85,1.85,8.225,8.225,0,0,0-2.05,3.4c-.033.1-.067.2-.1.3a3.276,3.276,0,0,0-.15.85l.1,55.7-8.3-5.35a2.879,2.879,0,0,0-1.55-.45,2.837,2.837,0,0,0-1.45.5l-9.65,6.9-10.45-6.7a2.882,2.882,0,0,0-1.55-.45,2.843,2.843,0,0,0-1.45.5l-6.5,4.65-.05-54.55a.157.157,0,0,0,.05-.1,2.58,2.58,0,0,1,.65-1.4v.05a3.062,3.062,0,0,1,1.85-.9h.85a1.729,1.729,0,0,0,.6,0l2.05-.05q2.712.025,5.4,0h4.7q2,.025,4,0a2.688,2.688,0,0,0,1.9-4.55,2.677,2.677,0,0,0-1.9-.8q-2,.026-4,0h-4.7q-2.75.026-5.5,0a.236.236,0,0,1-.15,0l-1.95.05c-.263-.02-.53-.036-.8-.05-.3.014-.584.03-.85.05a1.193,1.193,0,0,1-.2.05.1.1,0,0,0-.05,0,.139.139,0,0,1-.05,0h-.05a8.058,8.058,0,0,0-4.95,2.4.1.1,0,0,1-.05.05,7.8,7.8,0,0,0-2.05,4.05.987.987,0,0,1-.05.15.188.188,0,0,1,0,.1,5.909,5.909,0,0,0-.1.8l.05,59.85a2.589,2.589,0,0,0,.7,1.75,2.561,2.561,0,0,0,1.7.9,2.533,2.533,0,0,0,1.85-.5l9.2-6.6,10.5,6.75a2.485,2.485,0,0,0,1.5.4,2.407,2.407,0,0,0,1.5-.5l9.6-6.9,10.95,7.05a2.65,2.65,0,0,0,3.45-.5,2.44,2.44,0,0,0,.65-1.75L1587,849.2h8.65a2.462,2.462,0,0,0,1.9-.8,2.428,2.428,0,0,0,.75-1.9l-.25-18m-11.1.5a3.136,3.136,0,0,1,1.7-1.85,1.19,1.19,0,0,0,.3-.1,2.375,2.375,0,0,1,.85-.2,3.337,3.337,0,0,1,2.35.95h0a2.222,2.222,0,0,1,.55,1.05l.2,15H1587Z" fill="#2d5772"/>
  </g>
</svg>
