<svg xmlns="http://www.w3.org/2000/svg" width="80" height="140.702" viewBox="0 0 80 140.702">
  <g id="welcome" transform="translate(-1191.176 -756)">
    <path id="Path_55" data-name="Path 55" d="M1223.152,859.365h8.669s7.87,12.838-4.316,20.673C1227.5,880.038,1213.577,874.815,1223.152,859.365Z" transform="translate(4.118 14.876)" fill="#f89b37"/>
    <path id="Path_56" data-name="Path 56" d="M1217.783,843.2l.436,11.316s10.662,4.57,18.279,0l1.958-11.316S1224.311,846.459,1217.783,843.2Z" transform="translate(3.829 12.549)" fill="#f89b37"/>
    <ellipse id="Ellipse_13" data-name="Ellipse 13" cx="6.528" cy="6.637" rx="6.528" ry="6.637" transform="translate(1224.441 783.714)" fill="#f89b37"/>
    <g id="Group_177" data-name="Group 177" transform="translate(1228.398 818.666)">
      <g id="Group_176" data-name="Group 176">
        <circle id="Ellipse_14" data-name="Ellipse 14" cx="2.185" cy="2.185" r="2.185" fill="#2d5772"/>
      </g>
    </g>
    <g id="Group_179" data-name="Group 179" transform="translate(1221.71 781.036)">
      <g id="Group_178" data-name="Group 178">
        <path id="Path_57" data-name="Path 57" d="M1227.167,777.886a9.295,9.295,0,1,0,9.3,9.3A9.237,9.237,0,0,0,1227.167,777.886Zm4.93,9.3a4.93,4.93,0,1,1-4.93-4.929A4.936,4.936,0,0,1,1232.1,787.185Z" transform="translate(-1217.868 -777.886)" fill="#2d5772"/>
      </g>
    </g>
    <g id="Group_181" data-name="Group 181" transform="translate(1222.025 874.184)">
      <g id="Group_180" data-name="Group 180">
        <path id="Path_58" data-name="Path 58" d="M1231.134,859.428a2.184,2.184,0,0,0-1.376,2.766l1.855,5.535a7.211,7.211,0,0,1-1.4,7l-1.993,2.287a1.295,1.295,0,0,1-1.952,0l-1.994-2.286a7.213,7.213,0,0,1-1.4-7l1.855-5.535a2.185,2.185,0,0,0-4.143-1.388l-1.855,5.535a11.6,11.6,0,0,0,2.248,11.263l1.993,2.287a5.666,5.666,0,0,0,8.275.283c.09-.092.178-.185.264-.284l1.993-2.287a11.6,11.6,0,0,0,2.245-11.264l-1.856-5.534A2.185,2.185,0,0,0,1231.134,859.428Z" transform="translate(-1218.144 -859.315)" fill="#2d5772"/>
      </g>
    </g>
    <g id="Group_183" data-name="Group 183" transform="translate(1191.176 756)">
      <g id="Group_182" data-name="Group 182">
        <path id="Path_59" data-name="Path 59" d="M1231.592,756a5.059,5.059,0,0,0-3.759,1.717l-1.348,1.529a65.918,65.918,0,0,0-16.031,50.2l.782,7.554-9.12,8.6-.046.045a36.961,36.961,0,0,0-10.895,26.309V870.1a2.184,2.184,0,0,0,3.648,1.621l20.2-18.225.182,1.748a2.184,2.184,0,0,0,1.554,1.87q1.282.378,2.578.688l.853,9.965a2.187,2.187,0,0,0,1.441,1.87,28.455,28.455,0,0,0,19.316,0,2.186,2.186,0,0,0,1.437-1.83c.185-1.778.372-3.854.554-5.861.129-1.431.261-2.894.392-4.254.714-.177,1.424-.368,2.13-.578a2.187,2.187,0,0,0,1.549-1.821l.236-1.87,20.284,18.3a2.185,2.185,0,0,0,3.648-1.622V851.951a36.967,36.967,0,0,0-10.9-26.308l-8.464-8.462.8-6.358a65.657,65.657,0,0,0-16.523-52.374l-.715-.788A5.061,5.061,0,0,0,1231.592,756Zm-36.046,109.191V851.954a32.619,32.619,0,0,1,9.593-23.2l6.666-6.286,2.66,25.649Zm43.04-3.634c-.134,1.479-.271,3-.407,4.394a23.994,23.994,0,0,1-13.759.008l-.625-7.295a50.669,50.669,0,0,0,7.14.53h.01a50.644,50.644,0,0,0,7.909-.6C1238.764,859.569,1238.674,860.572,1238.586,861.556Zm18.6-32.824a32.62,32.62,0,0,1,9.619,23.218v13.237l-18.9-17.047,3.211-25.473,6.065,6.064Zm-24.331-67.348a61.293,61.293,0,0,1,15.425,48.892l-5.424,43.031a46.256,46.256,0,0,1-9.727,1.467V838.437a2.185,2.185,0,0,0-4.37,0v16.323a46.375,46.375,0,0,1-9.363-1.44l-4.6-44.325a61.535,61.535,0,0,1,14.966-46.861l1.346-1.531a.687.687,0,0,1,.512-.233.678.678,0,0,1,.515.226Z" transform="translate(-1191.176 -756)" fill="#2d5772"/>
      </g>
    </g>
  </g>
</svg>
