<svg width="983.5482300000001" height="576.15723" xmlns="http://www.w3.org/2000/svg">
 <defs>
  <linearGradient y2="0" x2="0.5" y1="1" x1="0.5" id="ba860033-8b14-4705-9ef7-06625c8932b0">
   <stop stop-opacity="0.25" stop-color="gray" offset="0"/>
   <stop stop-opacity="0.12" stop-color="gray" offset="0.54"/>
   <stop stop-opacity="0.1" stop-color="gray" offset="1"/>
  </linearGradient>
 </defs>
 <g>
  <title>background</title>
  <rect fill="none" id="canvas_background" height="602" width="802" y="-1" x="-1"/>
 </g>
 <g>
  <title>Layer 1</title>
  <rect id="svg_1" fill="#f99b36" height="2.24072" width="324.03261" y="559.81277"/>
  <path id="svg_2" fill="url(#ba860033-8b14-4705-9ef7-06625c8932b0)" d="m204.5307,180.32374c0.93745,3.00967 1.768,5.87955 2.46694,8.34649l-0.43585,0.15624c-0.54275,-2.28603 -1.23347,-5.24637 -2.03109,-8.50273zm-26.01812,-73.26827l-0.13154,0.074l0.12336,-0.11514l0.00818,0.04114z"/>
  <path id="svg_3" fill="#2f2e41" d="m146.62323,530.41618c-4.89279,1.5706 -8.56851,31.65091 -8.56851,31.65091l30.42566,7.516s21.339,3.14943 31.4782,0s9.7938,-11.89065 -4.72008,-13.28859s-24.83393,-20.10562 -24.83393,-20.10562s-18.88856,-7.34327 -23.78134,-5.7727z"/>
  <path id="svg_4" fill="#2f2e41" d="m110.91826,536.53421a18.32464,18.32464 0 0 1 -1.18413,7.06371a61.72376,61.72376 0 0 0 -3.059,22.90146q0.0987,1.38969 0.222,2.911c1.05259,12.0634 30.23655,4.55565 32.1772,3.14948s-5.75621,-36.02563 -5.75621,-36.02563s-22.88501,-4.89276 -22.39986,-0.00002z"/>
  <path id="svg_5" fill="#ffb9b9" d="m142.86511,98.23116a0.09008,0.09008 0 0 1 0.01646,0.03292c0.61674,1.513 23.53466,57.71008 19.39016,39.3313a11.24085,11.24085 0 0 1 -0.24669,-1.661c-0.35359,-4.5145 1.77623,-9.48132 5.20527,-14.41521a71.05582,71.05582 0 0 1 7.26106,-8.68365c1.32391,-1.37325 2.69717,-2.71363 4.08688,-4.0129c3.81555,-3.577 7.78735,-6.84985 11.30683,-9.57994c6.32361,-4.93389 11.20816,-8.06691 11.20816,-8.06691s-44.32281,-51.67431 -41.18156,-29.38136c0.86348,6.1098 4.46517,12.20318 2.02292,17.86072a30.86734,30.86734 0 0 1 -6.69366,9.56353a50.65075,50.65075 0 0 1 -7.24459,5.94532c-1.11011,0.74828 -2.11336,1.37325 -2.92744,1.85021c-1.3568,0.79758 -2.2038,1.21697 -2.2038,1.21697z"/>
  <path id="svg_6" fill="#ffb9b9" d="m294.84554,164.87243s1.74331,-0.97033 4.37473,-2.1298c7.738,-3.37147 23.18929,-8.30536 25.13818,5.27928c2.62318,18.22251 -14.75234,16.12561 -14.75234,16.12561a81.17786,81.17786 0 0 0 -10.53386,-3.19881a13.53136,13.53136 0 0 0 -5.40261,-0.33716l1.1759,-15.73912z"/>
  <path id="svg_7" fill="#e6e6e6" d="m292.19771,182.12461l5.22991,0c3.04258,-4.11158 0.71541,-19.73556 0.71541,-19.73556l-4.54742,0.82231l-1.3979,18.91325z"/>
  <path id="svg_8" fill="#2f2e41" d="m198.73339,208.50447l0.87165,45.98385l5.75621,21.68445s2.82876,20.9855 6.29891,19.234s18.27182,3.23169 18.27182,3.23169l0.699,-7.7791l-4.98328,-45.72075l-3.84843,-22.81924s-2.18739,-17.92649 -3.84843,-28.41921s-15.55819,-2.17914 -15.55819,-2.17914l-3.65926,16.78345z"/>
  <path id="svg_9" fill="#2f2e41" d="m215.36876,185.69343c9.44839,-2.64786 21.64334,0 21.64334,0l55.09512,1.217c9.83486,-12.98437 3.01788,-25.17929 3.01788,-25.17929s-27.02126,-1.06077 -48.91952,-4.33359s-36.32165,-19.53822 -36.32165,-19.53822l5.48483,47.8341z"/>
  <path id="svg_10" opacity="0.1" d="m159.91187,61.79522c-3.14125,-22.293 41.18156,29.38132 41.18156,29.38132s-4.88456,3.133 -11.20816,8.06691c-0.58386,0.04111 -1.16773,0.04111 -1.768,0.04111c-13.56,0 -22.90974,-8.48629 -28.28766,-19.9987c2.16269,-5.12302 1.05258,-10.66543 0.08226,-17.49064z"/>
  <path id="svg_11" fill="#ffb9b9" d="m156.1784,68.67569a30.29883,30.29883 0 1 1 0.00009,0.14734q-0.00019,-0.07366 -0.00009,-0.14734z"/>
  <path id="svg_12" fill="#e6e6e6" d="m141.23711,198.89161l1.64463,-100.6596l17.57287,9.20171l14.57969,3.45375l3.69218,-2.15446l0.26315,-0.15624l0.60027,-0.34538s0.19735,0.42759 0.57564,1.2088c3.19058,6.7512 18.7159,39.76715 18.387,42.59592c-0.34536,3.14122 11.07644,42.74312 11.07644,42.74312l0,0l-5.50935,37.50662s10.4516,26.051 7.68863,35.672s-78.12,2.96854 -78.12,2.96854l7.54885,-72.03478z"/>
  <path id="svg_13" fill="#f99b36" d="m170.66771,113.99577l5.85488,7.516l0.94569,2.19559a70.79415,70.79415 0 0 1 5.60819,24.42277l0,9.75265l1.22524,78.161l6.73467,12.014l1.22524,-14.86745l-2.7054,-83.67057l-3.67572,-18.91315l-2.00646,-11.98114a53.02665,53.02665 0 0 1 -2.80407,-6.47162c-2.0064,-5.15593 -7.17056,-3.758 -7.17056,-3.758l-3.2317,5.59992z"/>
  <path id="svg_14" fill="#e6e6e6" d="m144.89626,96.59476l0.17266,0.41939l1.22524,3.00965l1.38148,3.36329a28.05717,28.05717 0 0 1 4.50632,3.56887c4.67075,4.19379 11.44662,10.93678 15.04836,14.56317c1.52126,1.5295 2.47518,2.49987 2.47518,2.49987c1.78441,-1.58711 3.577,-6.891 4.78588,-11.18352c0.19735,-0.68253 0.37,-1.34037 0.53447,-1.94888c0.60851,-2.32716 0.97856,-4.00467 0.97856,-4.00467c-4.5803,-1.6364 -15.2704,-12.088 -20.76346,-17.66331a50.65075,50.65075 0 0 1 -7.24459,5.94532c-0.31249,-0.87165 -3.1001,1.43082 -3.1001,1.43082z"/>
  <path id="svg_15" fill="#2f2e41" d="m183.14227,110.69007c3.429,2.09689 9.00431,4.827 15.18814,5.13947c0,0 13.3955,7.08835 15.8789,31.34665s12.97616,97.173 12.97616,97.173s9.34149,49.16624 2.763,54.27281l-7.34327,-60.18526s-12.85279,-34.75925 -13.782,-41.18976c-0.82232,-5.85488 -11.04369,-37.86761 -12.83633,-43.4758c-0.18093,-0.5263 -0.27138,-0.82232 -0.27138,-0.82232l-10.22138,-28.9044l-5.90422,-15.82134a32.0698,32.0698 0 0 0 3.55238,2.46695z"/>
  <path id="svg_16" fill="#2f2e41" d="m109.73411,441.07166s10.31181,-71.1796 7.516,-80.78423s1.92424,-80.58687 1.92424,-80.58687l1.55419,-13.31328l0.87165,-7.50775l0.37005,-3.14125l1.80087,0.551a265.6894,265.6894 0 0 0 53.27779,9.7691a40.63912,40.63912 0 0 0 11.92357,-0.95388c7.13769,-1.62817 20.93616,-3.62642 23.34554,-5.33682c0,0 0.82231,2.212 1.85021,5.83021c2.36827,8.36293 5.93714,24.34874 3.19059,37.96628l-4.202,27.53933s-1.65286,28.06562 -7.08012,44.85728l-4.80238,22.90143l-6.299,46.68285a279.587,279.587 0 0 0 -6.73476,37.8265c-2.29425,21.16639 -15.39377,56.27921 -15.39377,56.27921s-27.84358,3.84843 -28.6659,-5.59174l9.6211,-73.62185l8.91392,-105.43723s-9.6622,65.78521 -15.21283,79.95369c0,0 -7.69686,80.75954 -10.32005,93.20118s-4.36649,15.73089 -4.36649,15.73089s-16.26542,5.9536 -23.60869,-5.06544c0,0 -2.09694,-32.687 -3.66754,-44.405c-1.57879,-11.73448 4.19381,-53.34361 4.19381,-53.34361z"/>
  <path id="svg_17" fill="#ffb9b9" d="m122.52122,281.76453l11.51241,5.6l-13.72444,25.87827c-5.15593,-4.81055 -4.54743,-23.954 -4.54743,-23.954l6.75946,-7.52427z"/>
  <polygon id="svg_18" fill="#e6e6e6" points="127.472 281.765 132.718 285.876 125.728 296.459 116.198 299.954 115.408 292.956 127.472 281.765"/>
  <g id="svg_19" opacity="0.1">
   <path id="svg_20" d="m212.32623,259.86627a0.24908,0.24908 0 0 1 -0.04934,-0.12334a4.35894,4.35894 0 0 1 -0.46049,0.26315l0.50983,-0.13981z"/>
  </g>
  <path id="svg_21" fill="#2f2e41" d="m82.67986,296.27761c6.29074,7.34326 33.71493,8.659 33.71493,8.659l21.372,-33.682l5.76444,-9.07839s6.42228,-4.45694 18.49386,-24.52963s11.66042,-35.53226 10.99435,-47.07754s-8.22315,-44.72574 -8.22315,-44.72574a93.12961,93.12961 0 0 0 -2.7712,-9.90889c-2.62319,-8.27249 -6.59493,-19.76849 -9.84309,-28.97838c-0.58386,-1.66109 -1.143,-3.24815 -1.67755,-4.72831c-0.98674,-2.81236 4.02936,-13.5271 4.02936,-13.5271c-1.76795,3.54418 -12.90213,9.37437 -16.77525,11.81667c-10.44336,6.57852 -25.023,9.27569 -25.023,9.27569c-23.47709,3.41263 -19.14348,27.67092 -19.14348,27.67092s-0.26314,94.29488 1.18414,105.57707s-12.09636,53.23663 -12.09636,53.23663z"/>
  <path id="svg_22" opacity="0.1" d="m94.61174,137.45647s-9.96646,43.28666 -12.72119,70.03657s7.60641,43.79652 7.60641,43.79652l22.16141,49.18267c7.60641,-1.95712 23.08239,-18.09094 23.08239,-18.09094l-22.20251,-61.50919s8.23138,-31.05884 13.37908,-59.66719s-8.49453,-41.44468 -8.49453,-41.44468c-22.81924,-8.65077 -22.81106,17.69624 -22.81106,17.69624z"/>
  <path id="svg_23" fill="#2f2e41" d="m93.5592,137.45647s-9.96646,43.28666 -12.72119,70.03657s7.60641,43.79652 7.60641,43.79652l22.20252,49.18267c7.60641,-1.95712 23.08239,-18.09094 23.08239,-18.09094l-22.20251,-61.50919s8.23961,-31.05884 13.37085,-59.66719s-8.51917,-41.44468 -8.51917,-41.44468c-22.81925,-8.65077 -22.8193,17.69624 -22.8193,17.69624z"/>
  <path id="svg_24" fill="#2f2e41" d="m137.35572,290.16039l-6.118,17.49063l-6.817,9.34972s-5.10659,3.41263 -6.38117,-2.96854s15.994,-30.34346 15.994,-30.34346c2.73012,-1.07723 3.32217,6.47165 3.32217,6.47165z"/>
  <path id="svg_25" fill="#2f2e41" d="m158.44351,85.07745s-31.65753,-43.38254 8.20751,-52.76255c0,0 11.32506,-16.98759 25.24033,-8.63235a43.60963,43.60963 0 0 0 22.53909,5.99422c6.74188,0 13.19064,2.63813 12.01814,13.19064c-2.345,21.105 -15.24252,17.58752 -15.24252,17.58752s-34.97688,-15.67089 -36.14938,1.91662s-16.61317,22.7059 -16.61317,22.7059z"/>
  <circle id="svg_26" fill="#e6e6e6" r="6.81334" cy="6.81334" cx="531.30481"/>
  <circle id="svg_27" fill="#e6e6e6" r="6.81334" cy="6.81334" cx="565.79385"/>
  <circle id="svg_28" fill="#e6e6e6" r="6.81334" cy="6.81334" cx="600.28289"/>
  <circle id="svg_29" fill="#e6e6e6" r="6.81334" cy="6.81334" cx="634.77193"/>
  <circle id="svg_30" fill="#e6e6e6" r="6.81334" cy="6.81334" cx="669.26097"/>
  <circle id="svg_31" fill="#e6e6e6" r="6.81334" cy="41.73529" cx="531.30481"/>
  <circle id="svg_32" fill="#e6e6e6" r="6.81334" cy="41.73529" cx="565.79385"/>
  <circle id="svg_33" fill="#e6e6e6" r="6.81334" cy="41.73529" cx="600.28289"/>
  <circle id="svg_34" fill="#18aebf" r="6.81334" cy="41.73529" cx="634.77193"/>
  <circle id="svg_35" fill="#e6e6e6" r="6.81334" cy="41.73529" cx="669.26097"/>
  <circle id="svg_36" fill="#e6e6e6" r="6.81334" cy="41.73529" cx="738.23905"/>
  <circle id="svg_37" fill="#e6e6e6" r="6.81334" cy="76.65724" cx="531.30481"/>
  <circle id="svg_38" fill="#e6e6e6" r="6.81334" cy="76.65724" cx="565.79385"/>
  <circle id="svg_39" fill="#e6e6e6" r="6.81334" cy="76.65724" cx="600.28289"/>
  <circle id="svg_40" fill="#e6e6e6" r="6.81334" cy="76.65724" cx="634.77193"/>
  <circle id="svg_41" fill="#e6e6e6" r="6.81334" cy="76.65724" cx="669.26097"/>
  <circle id="svg_42" fill="#e6e6e6" r="6.81334" cy="111.57918" cx="531.30481"/>
  <circle id="svg_43" fill="#e6e6e6" r="6.81334" cy="111.57918" cx="565.79385"/>
  <circle id="svg_44" fill="#e6e6e6" r="6.81334" cy="111.57918" cx="600.28289"/>
  <circle id="svg_45" fill="#e6e6e6" r="6.81334" cy="111.57918" cx="634.77193"/>
  <circle id="svg_46" fill="#e6e6e6" r="6.81334" cy="111.57918" cx="669.26097"/>
  <circle id="svg_47" fill="#e6e6e6" r="6.81334" cy="111.57918" cx="703.75"/>
  <circle id="svg_48" fill="#e6e6e6" r="6.81334" cy="111.57918" cx="738.23905"/>
  <circle id="svg_49" fill="#e6e6e6" r="6.81334" cy="111.57918" cx="772.72809"/>
  <circle id="svg_50" fill="#e6e6e6" r="6.81335" cy="111.57918" cx="807.21714"/>
  <circle id="svg_51" fill="#e6e6e6" r="6.81335" cy="111.57918" cx="841.70618"/>
  <circle id="svg_52" fill="#e6e6e6" r="6.81334" cy="146.50113" cx="669.26097"/>
  <circle id="svg_53" fill="#18aebf" r="6.81334" cy="146.50113" cx="703.75"/>
  <circle id="svg_54" fill="#e6e6e6" r="6.81334" cy="146.50113" cx="738.23905"/>
  <circle id="svg_55" fill="#e6e6e6" r="6.81334" cy="146.50113" cx="772.72809"/>
  <circle id="svg_56" fill="#e6e6e6" r="6.81335" cy="146.50113" cx="807.21714"/>
  <circle id="svg_57" fill="#e6e6e6" r="6.81335" cy="146.50113" cx="841.70618"/>
  <circle id="svg_58" fill="#e6e6e6" r="6.81334" cy="181.42308" cx="669.26097"/>
  <circle id="svg_59" fill="#e6e6e6" r="6.81334" cy="181.42308" cx="703.75"/>
  <circle id="svg_60" fill="#e6e6e6" r="6.81334" cy="181.42308" cx="738.23905"/>
  <circle id="svg_61" fill="#e6e6e6" r="6.81334" cy="181.42308" cx="772.72809"/>
  <circle id="svg_62" fill="#18aebf" r="6.81335" cy="181.42308" cx="807.21714"/>
  <circle id="svg_63" fill="#e6e6e6" r="6.81335" cy="181.42308" cx="841.70618"/>
  <circle id="svg_64" fill="#e6e6e6" r="6.81334" cy="216.34503" cx="669.26097"/>
  <circle id="svg_65" fill="#e6e6e6" r="6.81334" cy="216.34503" cx="703.75"/>
  <circle id="svg_66" fill="#e6e6e6" r="6.81334" cy="216.34503" cx="738.23905"/>
  <circle id="svg_67" fill="#e6e6e6" r="6.81334" cy="216.34503" cx="772.72809"/>
  <circle id="svg_68" fill="#e6e6e6" r="6.81335" cy="216.34503" cx="807.21714"/>
  <circle id="svg_69" fill="#e6e6e6" r="6.81335" cy="216.34503" cx="841.70618"/>
  <circle id="svg_70" fill="#e6e6e6" r="6.81334" cy="251.26698" cx="531.30481"/>
  <circle id="svg_71" fill="#e6e6e6" r="6.81334" cy="251.26698" cx="565.79385"/>
  <circle id="svg_72" fill="#e6e6e6" r="6.81334" cy="251.26698" cx="600.28289"/>
  <circle id="svg_73" fill="#e6e6e6" r="6.81334" cy="251.26698" cx="634.77193"/>
  <circle id="svg_74" fill="#e6e6e6" r="6.81334" cy="251.26698" cx="669.26097"/>
  <circle id="svg_75" fill="#e6e6e6" r="6.81334" cy="251.26698" cx="703.75"/>
  <circle id="svg_76" fill="#e6e6e6" r="6.81334" cy="251.26698" cx="738.23905"/>
  <circle id="svg_77" fill="#e6e6e6" r="6.81334" cy="251.26698" cx="772.72809"/>
  <circle id="svg_78" fill="#e6e6e6" r="6.81335" cy="251.26698" cx="807.21714"/>
  <circle id="svg_79" fill="#e6e6e6" r="6.81335" cy="251.26698" cx="841.70618"/>
  <circle id="svg_80" fill="#e6e6e6" transform="matrix(0.00406,-0.99999,0.99999,0.00406,80.59854,923.89281) " r="6.81335" cy="448.11032" cx="639.5307"/>
  <circle id="svg_81" fill="#e6e6e6" r="6.81335" cy="286.18894" cx="565.79385"/>
  <circle id="svg_82" fill="#e6e6e6" transform="matrix(0.00406,-0.99999,0.99999,0.00406,45.67689,958.67279) " r="6.81335" cy="483.03225" cx="639.5307"/>
  <circle id="svg_83" fill="#e6e6e6" r="6.81335" cy="321.11087" cx="565.79385"/>
  <circle id="svg_84" fill="#e6e6e6" r="6.81335" cy="321.11087" cx="634.77193"/>
  <path id="svg_85" fill="#e6e6e6" d="m978.54822,80.38391l-270.00048,0a5.00588,5.00588 0 0 1 -5,-5l0,-66.97558a5.00588,5.00588 0 0 1 5,-5l270.00048,0a5.00588,5.00588 0 0 1 5,5l0,66.97558a5.00588,5.00588 0 0 1 -5,5zm-270.00048,-74.97558a3.00328,3.00328 0 0 0 -3,3l0,66.97558a3.00328,3.00328 0 0 0 3,3l270.00048,0a3.00328,3.00328 0 0 0 3,-3l0,-66.97558a3.00328,3.00328 0 0 0 -3,-3l-270.00048,0z"/>
  <circle id="svg_86" fill="#18aebf" r="21" cy="41.89587" cx="743.54774"/>
  <path id="svg_87" fill="#e6e6e6" d="m792.04774,27.89586a3.5,3.5 0 0 0 0,7l93,0a3.5,3.5 0 0 0 0,-7l-93,0z"/>
  <path id="svg_88" fill="#e6e6e6" d="m792.04774,48.89586a3.5,3.5 0 0 0 0,7l165,0a3.5,3.5 0 0 0 0,-7l-165,0z"/>
  <path id="svg_89" fill="#3f3d56" d="m631.54822,216.38391l-270.00048,0a5.00588,5.00588 0 0 1 -5,-5l0,-66.97558a5.00588,5.00588 0 0 1 5,-5l270.00048,0a5.00588,5.00588 0 0 1 5,5l0,66.97558a5.00588,5.00588 0 0 1 -5,5zm-270.00048,-74.97558a3.00328,3.00328 0 0 0 -3,3l0,66.97558a3.00328,3.00328 0 0 0 3,3l270.00048,0a3.00328,3.00328 0 0 0 3,-3l0,-66.97558a3.00328,3.00328 0 0 0 -3,-3l-270.00048,0z"/>
  <circle id="svg_90" fill="#18aebf" r="21" cy="177.89587" cx="396.54774"/>
  <path id="svg_91" fill="#e6e6e6" d="m445.04774,163.89586a3.5,3.5 0 0 0 0,7l97,0a3.5,3.5 0 0 0 0,-7l-97,0z"/>
  <path id="svg_92" fill="#e6e6e6" d="m445.04774,184.89586a3.5,3.5 0 0 0 0,7l165,0a3.5,3.5 0 0 0 0,-7l-165,0z"/>
  <path id="svg_93" fill="#e6e6e6" d="m875.54822,363.38391l-270.00048,0a5.00588,5.00588 0 0 1 -5,-5l0,-66.97558a5.00588,5.00588 0 0 1 5,-5l270.00048,0a5.00588,5.00588 0 0 1 5,5l0,66.97558a5.00588,5.00588 0 0 1 -5,5zm-270.00048,-74.97558a3.00328,3.00328 0 0 0 -3,3l0,66.97558a3.00328,3.00328 0 0 0 3,3l270.00048,0a3.00328,3.00328 0 0 0 3,-3l0,-66.97558a3.00328,3.00328 0 0 0 -3,-3l-270.00048,0z"/>
  <circle id="svg_94" fill="#18aebf" r="21" cy="324.89587" cx="640.54774"/>
  <path id="svg_95" fill="#e6e6e6" d="m689.04774,310.89586a3.5,3.5 0 0 0 0,7l89,0a3.5,3.5 0 0 0 0,-7l-89,0z"/>
  <path id="svg_96" fill="#e6e6e6" d="m689.04774,331.89586a3.5,3.5 0 0 0 0,7l165,0a3.5,3.5 0 0 0 0,-7l-165,0z"/>
 </g>
</svg>