<svg width="1145.7" height="770.58" xmlns="http://www.w3.org/2000/svg">
 <defs>
  <linearGradient y2="-0.00005" x2="0.5" y1="1.00001" x1="0.5" id="a4d1bb72-7695-4d06-9254-f62b9a81de63">
   <stop stop-opacity="0.25" stop-color="gray" offset="0"/>
   <stop stop-opacity="0.12" stop-color="gray" offset="0.54"/>
   <stop stop-opacity="0.1" stop-color="gray" offset="1"/>
  </linearGradient>
 </defs>
 <title>calling</title>
 <g>
  <title>background</title>
  <rect fill="none" id="canvas_background" height="602" width="802" y="-1" x="-1"/>
 </g>
 <g>
  <title>Layer 1</title>
  <ellipse id="svg_1" opacity="0.1" fill="#f99b36" ry="10" rx="142" cy="760.58" cx="771.85"/>
  <path id="svg_2" opacity="0.1" fill="#f99b36" d="m1145.7,454.1a268.06,268.06 0 0 1 -310.49,264.52l-424.71,0a364.06,364.06 0 0 1 -49.5,3.38q-17.83,0 -35.23,-1.7a360.62,360.62 0 0 1 -325.77,-359.3c0,-199.38 161.63,-361 361,-361c160.57,0 296.63,104.84 343.52,249.8a266.84,266.84 0 0 1 173.33,-63.6c147.91,0 267.85,119.94 267.85,267.9z"/>
  <path id="svg_3" opacity="0.1" fill="#f99b36" d="m1042.79,665.17a268.31,268.31 0 0 1 -207.58,53.45l-424.71,0a364.06,364.06 0 0 1 -49.5,3.38q-17.83,0 -35.23,-1.7a361.17,361.17 0 0 1 -309,-250.21c34.58,-73.89 123.42,-126.47 227.58,-126.47c101.5,0 188.5,49.94 224.81,120.87a301.82,301.82 0 0 1 54.19,-4.87c105.2,0 194.77,53.67 228.59,128.67a295.63,295.63 0 0 1 86.41,-12.71c85.8,0.04 161.21,35.71 204.44,89.59z"/>
  <path id="svg_4" fill="#f99b36" d="m351.7,673.23c0,25.62 -9.83,39.53 -25.93,47.07a359.07,359.07 0 0 1 -169,-61.58a97.08,97.08 0 0 1 7.33,-25.25l45.79,14.24l-40.78,-24a98.13,98.13 0 0 1 20.85,-24.94l76.93,23.92l-60.27,-35.4a98,98 0 0 1 139.29,52.71l0.21,0.6c0.16,0.45 0.32,0.9 0.47,1.36q0.81,2.39 1.49,4.83c0.17,0.58 0.33,1.16 0.47,1.75s0.29,1.12 0.42,1.68s0.24,1 0.34,1.46c0.07,0.3 0.14,0.6 0.2,0.9c0.11,0.48 0.21,1 0.3,1.45c0.14,0.7 0.28,1.41 0.4,2.11s0.25,1.46 0.36,2.19s0.24,1.62 0.34,2.44s0.18,1.46 0.25,2.19c0,0.23 0.05,0.45 0.07,0.68c0.07,0.64 0.12,1.28 0.17,1.92a2.11,2.11 0 0 1 0,0.25q0.09,1.2 0.15,2.4t0.09,2.34a1.69,1.69 0 0 1 0,0.23c0.05,0.8 0.06,1.62 0.06,2.45z"/>
  <path id="svg_5" opacity="0.1" d="m351.7,673.23c0,25.62 -9.83,39.53 -25.93,47.07a358.43,358.43 0 0 1 -113.44,-30.24l1.64,-1.09c7.41,-4.91 15.07,-9.93 23.79,-11.6c7.67,-1.47 15.58,-0.23 23.37,-0.67a54.67,54.67 0 0 0 35.81,-16.41c5.57,-5.76 10,-12.83 16.65,-17.23c7.22,-4.74 16.38,-5.76 24.94,-4.58a66.11,66.11 0 0 1 7.38,1.51l0.21,0.6c0.16,0.45 0.32,0.9 0.47,1.36q0.81,2.39 1.49,4.83c0.17,0.58 0.33,1.16 0.47,1.75s0.29,1.12 0.42,1.68s0.24,1 0.34,1.46c0.07,0.3 0.14,0.6 0.2,0.9c0.11,0.48 0.21,1 0.3,1.45c0.14,0.7 0.28,1.41 0.4,2.11s0.25,1.46 0.36,2.19s0.24,1.62 0.34,2.44s0.18,1.46 0.25,2.19c0,0.23 0.05,0.45 0.07,0.68c0.07,0.64 0.12,1.28 0.17,1.92a2.11,2.11 0 0 1 0,0.25q0.09,1.2 0.15,2.4t0.09,2.34a1.69,1.69 0 0 1 0,0.23c0.05,0.81 0.06,1.63 0.06,2.46z"/>
  <path id="svg_6" fill="#3f3d56" d="m935.5,689.86a37,37 0 0 1 -0.8,7.76c-0.1,0.48 -0.21,0.95 -0.32,1.41c-2.84,11.39 -10.85,19.72 -20.41,20.25c-0.32,0 -0.64,0 -1,0c-10.11,0 -18.66,-8.72 -21.48,-20.73c-0.08,-0.32 -0.15,-0.64 -0.22,-1a37,37 0 0 1 -0.8,-7.76c0,-16.27 10.07,-29.45 22.5,-29.45s22.53,13.25 22.53,29.52z"/>
  <path id="svg_7" opacity="0.1" d="m935.5,689.86a37,37 0 0 1 -0.8,7.76c-0.1,0.48 -0.21,0.95 -0.32,1.41c-0.34,0 -0.67,0 -1,0a45.76,45.76 0 0 1 -7.36,-1a44.92,44.92 0 0 1 -6.56,1.5a45.87,45.87 0 0 1 -5.14,0.48q-0.87,0 -1.74,0a46.41,46.41 0 0 1 -6.16,-0.41a45.17,45.17 0 0 1 -9.67,-2.4a45.56,45.56 0 0 1 -5.22,1.4c-0.08,-0.32 -0.15,-0.64 -0.22,-1a37,37 0 0 1 -0.8,-7.76c0,-16.27 10.07,-29.45 22.5,-29.45s22.49,13.2 22.49,29.47z"/>
  <path id="svg_8" fill="#f99b36" d="m983.5,635a45.54,45.54 0 0 0 -4.9,-20.61l-26.46,8.23l23.23,-13.65a45.71,45.71 0 0 0 -34.36,-19.59a45.65,45.65 0 0 0 -3.57,-4.72l-38,11.83l31.17,-18.33a45.73,45.73 0 0 0 -72,24.39l32.55,37.47l-35.31,-25.54a45.74,45.74 0 0 0 40.93,80.7a45.92,45.92 0 0 0 29.28,0.81a45.78,45.78 0 0 0 55.57,-44.7c0,-1 0,-2 -0.1,-3a45.63,45.63 0 0 0 1.97,-13.29z"/>
  <path id="svg_9" opacity="0.1" d="m982.71,643.48a121.9,121.9 0 0 0 -42.34,-0.54c-15.89,2.63 -32.13,8.41 -47.67,4.19c-9.12,-2.48 -17,-8.22 -25.91,-11.41a49.18,49.18 0 0 0 -26.75,-1.6a45.76,45.76 0 0 0 56.69,61.06a45.92,45.92 0 0 0 29.28,0.81a45.78,45.78 0 0 0 55.62,-44.7c0,-1 0,-2 -0.1,-3a45.19,45.19 0 0 0 1.18,-4.81z"/>
  <rect id="svg_10" fill="#3a3768" rx="2.29" height="73.02" width="8.86" y="250.42" x="706.95"/>
  <rect id="svg_11" fill="#3a3768" rx="2.29" height="24.04" width="4.97" y="193.21" x="412.51"/>
  <rect id="svg_12" fill="#3a3768" rx="2.29" height="41.84" width="5.6" y="237.23" x="412.33"/>
  <rect id="svg_13" fill="#3a3768" rx="2.29" height="42.2" width="5.33" y="293.71" x="412.42"/>
  <rect id="svg_14" fill="#3f3d56" rx="38.99" height="602.39" width="296.4" y="113.77" x="415.33"/>
  <rect id="svg_15" fill="#e6e8ec" rx="3.87" height="8.4" width="41.39" y="131.76" x="534.94"/>
  <circle id="svg_16" fill="#e6e8ec" r="4.77" cy="135.96" cx="587.35"/>
  <path id="svg_17" fill="#18aebf" d="m669.85,129.46l-33.9,0l0,4.09a19.38,19.38 0 0 1 -19.38,19.38l-108.18,0a19.38,19.38 0 0 1 -19.38,-19.38l0,-4.09l-31.84,0a23.53,23.53 0 0 0 -23.53,23.54l0,523.93a23.53,23.53 0 0 0 23.53,23.54l212.68,0a23.54,23.54 0 0 0 23.54,-23.54l0,-523.93a23.54,23.54 0 0 0 -23.54,-23.54z"/>
  <rect id="svg_18" opacity="0.1" stroke-miterlimit="10" stroke="#f99b36" height="24" width="149" y="223.47" x="444.53"/>
  <circle id="svg_19" opacity="0.1" stroke-miterlimit="10" stroke="#f99b36" r="32" cy="355.47" cx="480.53"/>
  <path id="svg_20" fill="#fff" d="m471.53,349.47l0,12l8,0l10,10.45l0,-32.91l-10,10.46l-8,0z"/>
  <circle id="svg_21" opacity="0.1" stroke-miterlimit="10" stroke="#f99b36" r="32" cy="355.47" cx="565.53"/>
  <path id="svg_22" fill="#fff" d="m565.53,368.83a3.82,3.82 0 1 0 3.8,3.82a3.82,3.82 0 0 0 -3.8,-3.82zm-11.2,-34.36a3.82,3.82 0 1 0 3.79,3.82a3.82,3.82 0 0 0 -3.79,-3.82zm0,11.46a3.82,3.82 0 1 0 3.79,3.81a3.81,3.81 0 0 0 -3.79,-3.81zm0,11.45a3.82,3.82 0 1 0 3.79,3.82a3.82,3.82 0 0 0 -3.79,-3.82zm22.4,-15.27a3.82,3.82 0 1 0 -3.8,-3.82a3.81,3.81 0 0 0 3.8,3.82zm-11.2,15.27a3.82,3.82 0 1 0 3.8,3.82a3.82,3.82 0 0 0 -3.8,-3.82zm11.2,0a3.82,3.82 0 1 0 3.8,3.82a3.82,3.82 0 0 0 -3.8,-3.82zm0,-11.45a3.82,3.82 0 1 0 3.8,3.81a3.81,3.81 0 0 0 -3.8,-3.81zm-11.2,0a3.82,3.82 0 1 0 3.8,3.81a3.81,3.81 0 0 0 -3.8,-3.81zm0,-11.46a3.82,3.82 0 1 0 3.8,3.82a3.82,3.82 0 0 0 -3.8,-3.82z"/>
  <g id="svg_23" opacity="0.4">
   <circle id="svg_24" opacity="0.1" stroke-miterlimit="10" stroke="#f99b36" r="32" cy="451.47" cx="480.53"/>
   <path id="svg_25" fill="#fff" d="m495.53,453.47l-13,0l0,13l-4,0l0,-13l-13,0l0,-4l13,0l0,-13l4,0l0,13l13,0l0,4z"/>
  </g>
  <circle id="svg_26" opacity="0.1" stroke-miterlimit="10" stroke="#f99b36" r="32" cy="355.47" cx="650.53"/>
  <path id="svg_27" fill="#fff" d="m650.53,335.96a18.24,18.24 0 0 0 -18,18.48l0,14.37a6.08,6.08 0 0 0 6,6.16l6,0l0,-16.51l-8,0l0,-4a14,14 0 1 1 28,0l0,4l-8,0l0,16.5l6,0a6.07,6.07 0 0 0 6,-6.16l0,-14.36a18.24,18.24 0 0 0 -18,-18.48z"/>
  <g id="svg_28" opacity="0.4">
   <circle id="svg_29" opacity="0.1" stroke-miterlimit="10" stroke="#f99b36" r="32" cy="451.47" cx="565.53"/>
   <path id="svg_30" fill="#fff" d="m577.53,448.04l0,-8a2.31,2.31 0 0 0 -2.34,-2.28l-28.34,0a2.31,2.31 0 0 0 -2.33,2.28l0,22.81a2.32,2.32 0 0 0 2.33,2.28l28.33,0a2.32,2.32 0 0 0 2.34,-2.28l0,-8l9,9.12l0,-25.05l-8.99,9.12z"/>
  </g>
  <circle id="svg_31" opacity="0.1" stroke-miterlimit="10" stroke="#f99b36" r="32" cy="451.47" cx="650.53"/>
  <path id="svg_32" fill="#fff" d="m648.95,459.71a11.44,11.44 0 0 1 -11.29,0c-4.42,1.35 -7.13,5.82 -8.13,9.75l27.55,0c-1,-3.93 -3.7,-8.4 -8.13,-9.75zm-5.64,-21a9.93,9.93 0 1 0 9.92,9.92a9.92,9.92 0 0 0 -9.92,-9.92zm0,17.48a7.66,7.66 0 0 1 -6.94,-4.74l13.87,0a7.66,7.66 0 0 1 -6.93,4.75l0,-0.01z"/>
  <path id="svg_33" fill="#fff" d="m656.77,463.46l14.76,0a12.28,12.28 0 0 0 -8.13,-9a11.47,11.47 0 0 1 -5.65,1.49a11.25,11.25 0 0 1 -3.9,-0.66a13.47,13.47 0 0 1 -2.62,3.28a12.77,12.77 0 0 1 5.54,4.89zm-1.5,-17.25l9.42,0a7.66,7.66 0 0 1 -6.94,4.72a7.26,7.26 0 0 1 -2.38,-0.42a12,12 0 0 1 -0.61,2.35a9.93,9.93 0 1 0 3,-19.39a9.94,9.94 0 0 0 -8.37,4.6a12.25,12.25 0 0 1 5.88,8.14z"/>
  <circle id="svg_34" fill="#f99b36" r="32" cy="579.47" cx="565.53"/>
  <path id="svg_35" fill="#fff" d="m549.1,587.37a23.61,23.61 0 0 1 5.91,-4.08a1.87,1.87 0 0 0 1.11,-1.74l0.17,-6.22a30.06,30.06 0 0 1 18.66,0.5l-0.17,6.22a2.07,2.07 0 0 0 1,1.8a21.9,21.9 0 0 1 5.82,4.4a2,2 0 0 0 2.83,0.08l5.08,-4.82a2,2 0 0 0 0.08,-2.82a34,34 0 0 0 -48.07,-1.3a2,2 0 0 0 -0.07,2.83l4.81,5.08a2,2 0 0 0 2.83,0.07l0.01,0z"/>
  <circle id="svg_36" opacity="0.1" stroke-miterlimit="10" stroke="#f99b36" r="25" cy="243.47" cx="654.53"/>
  <path id="svg_37" fill="#fff" d="m660.18,249.08a11.46,11.46 0 0 1 -11.3,0c-4.42,1.35 -7.13,5.82 -8.13,9.76l27.56,0c-1,-3.94 -3.71,-8.41 -8.13,-9.76zm-5.65,-21a9.93,9.93 0 1 0 9.92,9.93a9.94,9.94 0 0 0 -9.92,-9.93zm0,17.49a7.68,7.68 0 0 1 -6.94,-4.74l13.88,0a7.7,7.7 0 0 1 -6.94,4.75l0,-0.01z"/>
  <path id="svg_38" opacity="0.1" stroke-width="3" stroke-miterlimit="10" stroke="#f99b36" fill="none" d="m404.58,66.39c-2.33,-1.35 -5.48,-0.06 -7.08,2.11s-2,5 -2.45,7.63c-0.89,5.91 -1.54,12.7 2.45,17.16c-6.52,-19.77 -25.27,-34.92 -46,-37.13"/>
  <path id="svg_39" opacity="0.1" stroke-width="3" stroke-miterlimit="10" stroke="#f99b36" fill="none" d="m808.61,392.64c-1.5,-0.87 -3.52,0 -4.55,1.36a10.83,10.83 0 0 0 -1.58,4.9c-0.57,3.81 -1,8.17 1.58,11a35.86,35.86 0 0 0 -29.55,-23.87"/>
  <path id="svg_40" opacity="0.1" stroke-width="3" stroke-miterlimit="10" stroke="#f99b36" fill="none" d="m299.11,263.36c-1.5,-0.86 -3.52,0 -4.55,1.36a10.83,10.83 0 0 0 -1.58,4.91c-0.57,3.8 -1,8.16 1.58,11a35.88,35.88 0 0 0 -29.55,-23.87"/>
  <path id="svg_41" fill="url(#a4d1bb72-7695-4d06-9254-f62b9a81de63)" d="m696.85,730.97c1,1.89 2.88,3.05 4.69,4.08a222.68,222.68 0 0 0 39.56,17.81a2.64,2.64 0 0 0 3.84,-1.49c1.58,-2.66 3.31,-7 2.9,-10.51a5.86,5.86 0 0 0 2.63,-3.52a17.5,17.5 0 0 1 2.44,-5c1.87,-2.82 4.13,-5.65 4.43,-9.08a15.67,15.67 0 0 1 0.35,-3.64c0.53,-1.58 1.94,-2.62 3,-3.88c1.65,-2 2.44,-4.58 3.19,-7.09c3.12,-10.43 6.24,-20.86 8.84,-31.45c0.84,-3.43 1.62,-6.87 2.77,-10.2c1,-2.92 2.28,-5.72 3.55,-8.52a226.25,226.25 0 0 1 15.81,-29.32a78.48,78.48 0 0 0 3.39,9.24c0.68,1.55 1.41,3.08 2.1,4.63c2.61,5.84 2.14,13.34 5.35,18.83q2,3.38 3.94,6.75a13.59,13.59 0 0 1 1.69,3.57c0.21,0.88 0.23,1.8 0.38,2.69c0.68,4 3.93,6.82 5.73,10.39c1.65,3.26 2,7 3,10.59c2.37,8.3 8.19,15.51 8.78,24.16a62.39,62.39 0 0 1 -0.17,7a59.36,59.36 0 0 0 0.81,12.18a4.68,4.68 0 0 0 0.32,1.18a35.34,35.34 0 0 1 -22,14.86c-1.7,0.34 -3.65,0.7 -4.54,2.26c-1.07,1.86 0.14,4.42 2,5.42s4,0.9 6,0.72a217.9,217.9 0 0 0 42.37,-7.82a3.61,3.61 0 0 0 1.84,-1a3.71,3.71 0 0 0 0.61,-2.49a21,21 0 0 0 -2.2,-9.31l1,-0.35c0.56,-4 -1.5,-7.87 -3.1,-11.58c-2.78,-6.47 -4.3,-13.46 -6.5,-20.19c-4.24,-13 -11.09,-25.13 -12.74,-38.73c-0.45,-3.74 -1.57,-7.54 -1.81,-11.3c-0.48,-7.66 -1,-15.36 -2.67,-22.82c-1.4,-6.14 -3.61,-12 -5,-18.21s-1.84,-12.74 0.2,-18.68c0.58,-1.7 1.36,-3.31 1.89,-5c2,-6.61 0.09,-13.77 -1.85,-20.41q-0.92,-3.15 -1.82,-6.28c-0.81,-2.75 -1.61,-5.51 -2.49,-8.24c0.12,-0.11 0.23,-0.22 0.35,-0.35c1.76,-2 1.74,-5.06 3,-7.45c0.62,-1.23 1.56,-2.24 2.22,-3.44a12.6,12.6 0 0 0 0.91,-8.34c-0.53,-2.8 -1.59,-5.46 -2.39,-8.19a44.52,44.52 0 0 1 -0.48,-23c0.81,-3.23 2,-6.4 2.17,-9.73a28.38,28.38 0 0 0 -0.61,-6.63c-1.55,-8.4 -4.59,-16.92 -10.76,-22.47c-3.29,-3 -7.74,-5.63 -8.09,-10.19a2.55,2.55 0 0 0 -1.66,-0.06a17.84,17.84 0 0 1 -0.56,-3.17l0.05,0a4.09,4.09 0 0 0 0.92,0a1.83,1.83 0 0 0 0.74,-0.21a2.11,2.11 0 0 0 0.36,-0.27a6.51,6.51 0 0 0 1,-1.33c0.41,-0.68 0.78,-1.41 1.09,-1.91s0.81,-1.3 1.2,-2q1.75,-3 3.25,-6.1l0,-0.08c0.1,-0.19 0.19,-0.39 0.28,-0.58l0.12,-0.27l0.18,-0.41c0,-0.1 0.09,-0.21 0.13,-0.31s0.11,-0.25 0.16,-0.38l0.14,-0.33c0.05,-0.12 0.09,-0.24 0.14,-0.37a3.42,3.42 0 0 0 0.13,-0.34c0.05,-0.12 0.09,-0.24 0.13,-0.36s0.08,-0.23 0.13,-0.35s0.07,-0.24 0.11,-0.36l0.12,-0.36c0,-0.12 0.06,-0.23 0.1,-0.35l0.1,-0.37l0.09,-0.35l0.09,-0.38c0,-0.11 0,-0.22 0.07,-0.34s0,-0.26 0.07,-0.39s0,-0.22 0,-0.33l0.06,-0.39l0,-0.33c0,-0.14 0,-0.27 0,-0.4s0,-0.22 0,-0.33s0,-0.27 0,-0.4l0,-0.23c0,-0.14 0,-0.27 0,-0.41s0,-0.2 0,-0.3s0,-0.28 0,-0.42s0,-0.19 0,-0.28a7.93,7.93 0 0 0 -0.23,-1.16a11.93,11.93 0 0 0 -3.92,-5.93a24.55,24.55 0 0 0 -6,-3.61a4.38,4.38 0 0 1 -1.42,-0.89a11.12,11.12 0 0 1 -1.19,-2.24c-0.88,-1.54 -2.64,-2.23 -4.29,-2.64s-3.42,-0.67 -4.8,-1.72a1.27,1.27 0 0 0 -0.42,-0.24a1.09,1.09 0 0 0 -0.61,0.13l-3.85,1.71a1.83,1.83 0 0 0 -2.12,-1.51a5.13,5.13 0 0 0 -2.49,1.43a0.93,0.93 0 0 1 -0.23,-0.92l-3,2c-0.37,0.24 -1.05,0.3 -1,-0.16a31.28,31.28 0 0 0 -4.31,6a12.88,12.88 0 0 0 -0.94,2.07l0,0c0,0.15 -0.09,0.3 -0.13,0.45a0.29,0.29 0 0 0 0,0.09c0,0.13 -0.06,0.27 -0.08,0.41a0.5,0.5 0 0 0 0,0.12c0,0.17 0,0.35 0,0.52l0,0a5.49,5.49 0 0 0 0,0.58a3.19,3.19 0 0 0 1.73,2.66a3.08,3.08 0 0 0 1.2,0.19a15.48,15.48 0 0 0 2.54,-0.52a5.86,5.86 0 0 1 0.82,-0.14a2.56,2.56 0 0 1 0.39,0a2.21,2.21 0 0 1 1.44,0.49l0.06,0.06a16.83,16.83 0 0 0 -7,13.79a17.34,17.34 0 0 0 1.76,7.64a2.43,2.43 0 0 0 -1.25,2.26a7.68,7.68 0 0 1 -0.41,-2.38c-1.64,-0.33 -2.83,1.59 -3.42,3.24a80.53,80.53 0 0 0 -2.81,11.41c-0.51,2.57 -1,5.14 -1.52,7.71s-1,5.33 -1.38,8a61,61 0 0 0 0.93,20.79c-0.1,0.22 -0.19,0.45 -0.28,0.67c-0.3,0.8 -1.15,1.48 -1.25,2.33c-0.54,5.09 2.68,9.68 5.72,13.67a3,3 0 0 0 1,1a2.7,2.7 0 0 0 1.41,0.18a36.07,36.07 0 0 0 3.62,-0.36c0.07,0.68 0.15,1.35 0.23,2c0.86,7.18 2.33,14.36 2.32,21.59s-1.38,14.56 1.39,21c0.46,1.1 1.35,2 1.44,3.14l0.17,0a65.29,65.29 0 0 0 -4.14,10.74c-1.1,4.34 -1.33,8.9 -2.56,13.2c-1.05,3.65 -2.8,7 -4.21,10.56a58,58 0 0 0 -4,18.11a22.63,22.63 0 0 1 -1.7,8.31a84.53,84.53 0 0 0 -4.24,9.77c-2,5.94 -5.37,11.57 -6,17.86c-0.35,3.56 0.16,7.36 -1.33,10.58c-0.58,1.26 -1.44,2.35 -2.12,3.54a28.61,28.61 0 0 0 -2.31,6l-9.9,32.83a10.72,10.72 0 0 1 -2.42,4.87c-0.92,0.88 -2.13,1.36 -3,2.27c-1.4,1.42 -1.75,3.5 -1.76,5.62a11.8,11.8 0 0 0 -3.06,1a33.71,33.71 0 0 1 -26.49,0c-1.6,-0.69 -3.42,-1.51 -5,-0.72c-1.85,0.96 -2.15,3.75 -1.15,5.64zm78.87,-248.68a21.55,21.55 0 0 1 3.28,-7.59c2.24,-3.69 4.6,-7.34 6.74,-11.11l0.61,-0.59c0.17,0.48 0.33,1 0.48,1.45a34.91,34.91 0 0 1 0.89,3.9a18.79,18.79 0 0 1 0.28,5l-0.14,0.11a5.33,5.33 0 0 0 -1.89,2.11a4.25,4.25 0 0 0 0,2.64l-0.09,0.1l0.1,-0.07c0.35,1.38 1,2.8 0.79,4.2c-0.23,1.69 -1.59,2.92 -2.44,4.37c-2,3.49 -1.36,8.79 -4.65,10.93l-0.06,0.14l0,0a4.74,4.74 0 0 1 -3.23,-2.66l0,0c0.26,-4.27 -1.34,-8.65 -0.67,-12.93z"/>
  <path id="svg_42" fill="#3f3d56" d="m857.76,752.51a3.47,3.47 0 0 1 -0.63,2.45a3.89,3.89 0 0 1 -1.92,1a238.61,238.61 0 0 1 -44.14,7.72c-2.14,0.16 -4.4,0.28 -6.29,-0.71s-3.15,-3.52 -2,-5.35c0.93,-1.54 3,-1.9 4.73,-2.23a37,37 0 0 0 23.16,-15a10.74,10.74 0 0 1 2.52,-2.92c1.92,-1.31 4.47,-1 6.74,-0.55c4,0.82 9.31,1.79 12.92,3.75s4.85,8.01 4.91,11.84z"/>
  <path id="svg_43" opacity="0.1" d="m857.76,752.51a3.47,3.47 0 0 1 -0.63,2.45a3.89,3.89 0 0 1 -1.92,1a238.61,238.61 0 0 1 -44.14,7.72c-2.14,0.16 -4.4,0.28 -6.29,-0.71s-3.15,-3.52 -2,-5.35c0.93,-1.54 3,-1.9 4.73,-2.23a37,37 0 0 0 23.16,-15a10.74,10.74 0 0 1 2.52,-2.92c1.92,-1.31 4.47,-1 6.74,-0.55c4,0.82 9.31,1.79 12.92,3.75s4.85,8.01 4.91,11.84z"/>
  <path id="svg_44" fill="#3f3d56" d="m741.55,751.54a3.55,3.55 0 0 1 -1.87,1.72a3.83,3.83 0 0 1 -2.13,-0.25a238.82,238.82 0 0 1 -41.22,-17.57c-1.88,-1 -3.84,-2.16 -4.89,-4s-0.73,-4.67 1.2,-5.6c1.62,-0.78 3.52,0 5.18,0.71a36.9,36.9 0 0 0 27.6,0a10.69,10.69 0 0 1 3.71,-1.08c2.31,-0.05 4.3,1.58 6,3.21c2.92,2.87 6.83,6.58 8.79,10.18s-0.34,9.43 -2.37,12.68z"/>
  <path id="svg_45" opacity="0.1" d="m741.55,751.54a3.55,3.55 0 0 1 -1.87,1.72a3.83,3.83 0 0 1 -2.13,-0.25a238.82,238.82 0 0 1 -41.22,-17.57c-1.88,-1 -3.84,-2.16 -4.89,-4s-0.73,-4.67 1.2,-5.6c1.62,-0.78 3.52,0 5.18,0.71a36.9,36.9 0 0 0 27.6,0a10.69,10.69 0 0 1 3.71,-1.08c2.31,-0.05 4.3,1.58 6,3.21c2.92,2.87 6.83,6.58 8.79,10.18s-0.34,9.43 -2.37,12.68z"/>
  <path id="svg_46" fill="#18aebf" d="m817.77,560.04c1.49,4 2.74,8 4,12l1.9,6.2c2,6.55 4,13.61 1.93,20.14c-0.55,1.69 -1.36,3.28 -2,5c-2.12,5.86 -1.63,12.37 -0.21,18.44s3.72,11.9 5.18,18c1.77,7.36 2.28,15 2.78,22.51c0.25,3.71 1.41,7.46 1.89,11.15c1.72,13.41 8.85,25.43 13.27,38.21c2.29,6.63 3.87,13.52 6.78,19.91c1.66,3.66 3.81,7.45 3.23,11.42c-8.13,2.88 -17.14,2.83 -24.8,-1.12a2.54,2.54 0 0 1 -1.68,-2.33a55.19,55.19 0 0 1 -0.8,-12a58.54,58.54 0 0 0 0.17,-6.88c-0.61,-8.53 -6.68,-15.64 -9.14,-23.84c-1,-3.49 -1.46,-7.22 -3.18,-10.44c-1.88,-3.52 -5.26,-6.33 -6,-10.25c-0.16,-0.88 -0.18,-1.78 -0.39,-2.65a13.28,13.28 0 0 0 -1.77,-3.53l-4.08,-6.69c-3.35,-5.42 -2.86,-12.82 -5.57,-18.58c-0.72,-1.53 -1.49,-3 -2.2,-4.56a76.37,76.37 0 0 1 -3.53,-9.12a218.24,218.24 0 0 0 -16.5,28.89a89.74,89.74 0 0 0 -3.7,8.41c-1.2,3.28 -2,6.68 -2.89,10.06c-2.7,10.45 -6,20.74 -9.21,31c-0.78,2.48 -1.61,5 -3.32,7c-1.1,1.24 -2.56,2.26 -3.12,3.83a14.71,14.71 0 0 0 -0.36,3.58c-0.32,3.39 -2.67,6.18 -4.62,9a16.89,16.89 0 0 0 -2.54,5a5.86,5.86 0 0 1 -8,3.75l-0.08,0a17.58,17.58 0 0 1 -2.28,-1.36a42.13,42.13 0 0 1 -5.37,-4a31,31 0 0 1 -4,-4.72a2.28,2.28 0 0 1 1.14,-3.46l0,0c-0.21,-2.78 -0.27,-5.95 1.73,-7.87c0.93,-0.9 2.19,-1.38 3.15,-2.24a10.4,10.4 0 0 0 2.52,-4.8q5.12,-16.12 10.22,-32.24a27.41,27.41 0 0 1 2.41,-5.94c0.71,-1.18 1.6,-2.25 2.21,-3.49c1.55,-3.18 1,-6.92 1.38,-10.44c0.65,-6.21 4.13,-11.75 6.24,-17.61a81.55,81.55 0 0 1 4.42,-9.65a21.16,21.16 0 0 0 1.77,-8.19a54.69,54.69 0 0 1 4.16,-17.87c1.46,-3.48 3.29,-6.81 4.38,-10.42c1.29,-4.24 1.52,-8.74 2.68,-13a62.48,62.48 0 0 1 4.33,-10.64c1.45,-3 2.94,-6.07 5.33,-8.4c3.92,-3.82 9.69,-5.07 15.16,-5.24s11.53,0.64 16.98,0.07z"/>
  <path id="svg_47" fill="#a0616a" d="m784.2,482.16q10.56,-6.24 20.89,-12.88a13.27,13.27 0 0 1 -2.61,-7.67c0,-0.11 0,-0.22 0,-0.33c-0.1,-2.69 0.92,-5 -2.47,-4.65a64.36,64.36 0 0 0 -9.63,2c-0.9,0.23 -8.7,3.1 -9,2.81a19.2,19.2 0 0 1 3.77,7.06a34.24,34.24 0 0 1 0.93,3.85c0.68,3.44 0.71,7.48 -1.88,9.81z"/>
  <path id="svg_48" fill="#3f3d56" d="m774.75,528.29c0.9,7.08 2.43,14.17 2.42,21.29s-1.44,14.37 1.45,20.75c0.48,1.08 1.4,1.92 1.5,3.1c4,0.69 7.9,-1.18 11.71,-2.53a47.57,47.57 0 0 1 10.8,-2.42c3,-0.3 6.08,-0.32 9.06,-0.89a14.1,14.1 0 0 0 7.83,-4c1.83,-2 1.81,-5 3.09,-7.35c0.65,-1.21 1.63,-2.2 2.32,-3.39a11.89,11.89 0 0 0 0.94,-8.23a83.59,83.59 0 0 0 -2.49,-8.08a41.53,41.53 0 0 1 -0.5,-22.68c0.84,-3.19 2.06,-6.32 2.26,-9.61a26.73,26.73 0 0 0 -0.63,-6.54c-1.62,-8.28 -4.79,-16.69 -11.21,-22.16c-3.43,-2.93 -8.07,-5.56 -8.43,-10c-1.48,-0.58 -3.07,0.41 -4.34,1.35l-14.26,10.51a5.34,5.34 0 0 0 -2,2.09c-0.89,2.13 1.16,4.47 0.83,6.77c-0.24,1.67 -1.66,2.88 -2.54,4.32c-2.1,3.43 -1.42,8.66 -4.85,10.77c-0.31,0.64 -0.6,1.3 -0.86,2a48.64,48.64 0 0 0 -2.45,10.8a56.2,56.2 0 0 0 0.35,14.13z"/>
  <path id="svg_49" opacity="0.1" d="m781.42,461.46a19.2,19.2 0 0 1 3.77,7.06a15.81,15.81 0 0 0 3.46,0.38c5.82,0 9.72,-6.67 12.61,-11.25c-0.09,-2.69 2.14,-1.35 -1.25,-1a64.36,64.36 0 0 0 -9.63,2c-0.9,0.23 -8.7,3.1 -8.96,2.81z"/>
  <circle id="svg_50" fill="#a0616a" r="16.36" cy="451.17" cx="788.65"/>
  <rect id="svg_51" fill="#3f3d56" transform="rotate(-132.38999938964844 950.5000000000002,1409.5899658203127) " rx="3.33" height="23.86" width="12.27" y="1919.13997" x="1758.42"/>
  <rect id="svg_52" opacity="0.1" transform="rotate(-132.38999938964844 950.5000000000002,1409.5899658203127) " rx="3.33" height="23.86" width="12.27" y="1919.13997" x="1758.42"/>
  <circle id="svg_53" fill="#fff" r="1.36" cy="454.24" cx="789.67"/>
  <path id="svg_54" opacity="0.1" d="m774.75,528.29c12.62,-1.86 24.08,-9.44 32.85,-18.84a14.94,14.94 0 0 0 3.71,-5.55a16.76,16.76 0 0 0 0.45,-5.39l-0.21,-7.22c-0.09,-3.16 -0.22,-6.44 -1.75,-9.2s-4.94,-4.75 -7.88,-3.6c-7.73,3 -12.76,9.86 -17.18,16.88a71.9,71.9 0 0 1 -4.13,6.35c-0.75,0.95 -1.77,1.92 -3,1.79a2.26,2.26 0 0 1 -0.75,-0.2a48.64,48.64 0 0 0 -2.45,10.8a56.2,56.2 0 0 0 0.34,14.18z"/>
  <path id="svg_55" fill="#a0616a" d="m773.62,486.13a20.74,20.74 0 0 1 3.42,-7.5c4.89,-7.65 10.39,-15.12 13,-23.83c-3.81,0.69 -4.41,7.25 -8.27,7.54l0.3,-4.73c0,-0.8 0,-1.77 -0.65,-2.19s-1.81,0.13 -2.24,0.92s-0.52,1.75 -0.92,2.56s-1.34,1.53 -2.17,1.17l-0.34,-1.57a2.4,2.4 0 0 0 -2.89,2.44a7.24,7.24 0 0 1 -0.43,-2.35c-1.71,-0.32 -2.95,1.57 -3.56,3.2a75.93,75.93 0 0 0 -2.94,11.25l-1.57,7.61c-0.55,2.63 -1.09,5.26 -1.45,7.91a57.3,57.3 0 0 0 1.1,21.08a68,68 0 0 0 6.09,-3.81c1.51,-1.28 3.2,-2.73 3.77,-4.68c1.41,-4.92 -1.08,-10.07 -0.25,-15.02z"/>
  <path id="svg_56" fill="#3f3d56" d="m801.92,476.45c2.94,-1.15 6.35,0.84 7.88,3.6s1.66,6 1.75,9.2l0.2,7.24a16.51,16.51 0 0 1 -0.44,5.39a15.12,15.12 0 0 1 -3.7,5.55c-9.7,10.39 -22.67,18.54 -36.87,19.23a2.94,2.94 0 0 1 -1.47,-0.18a3.2,3.2 0 0 1 -1,-1c-3.17,-3.94 -6.52,-8.47 -6,-13.49c0.09,-0.84 1,-1.52 1.3,-2.3a20.29,20.29 0 0 1 9.83,-10.4l0.86,-0.4a5,5 0 0 0 3.37,2.64c1.2,0.12 2.23,-0.84 3,-1.79a72.06,72.06 0 0 0 4.13,-6.36c4.4,-7.09 9.44,-13.92 17.16,-16.93z"/>
  <path id="svg_57" fill="#3f3d56" d="m800.91,461.87c-1.39,-0.72 -1.61,-2.57 -1.75,-4.13a40.94,40.94 0 0 0 -0.83,-5.4c-0.43,-2 -1.14,-4.06 -2.84,-5.12a4.15,4.15 0 0 0 -6.31,3.09a1.41,1.41 0 0 1 -0.28,0.93a1,1 0 0 1 -0.48,0.25a3.23,3.23 0 0 1 -3.79,-2.14c-0.29,-1 -0.07,-2.29 -0.78,-3.11s-1.55,-0.8 -2.24,-1.34a3.89,3.89 0 0 1 -1.13,-3.2c0,-1.49 0.2,-3.27 -1,-4.19c-1.81,-1.41 -4.53,0.83 -6.66,0a3.27,3.27 0 0 1 -1.83,-3.19a7.92,7.92 0 0 1 1.3,-3.66a30.72,30.72 0 0 1 4.49,-5.91c0,0.44 0.69,0.39 1.07,0.15l3.16,-1.92a0.85,0.85 0 0 0 0.25,0.91a5.43,5.43 0 0 1 2.59,-1.4a1.9,1.9 0 0 1 2.21,1.49l4,-1.73a0.83,0.83 0 0 1 1.07,0.11c1.44,1 3.28,1.29 5,1.69s3.55,1.09 4.47,2.61a10.79,10.79 0 0 0 1.25,2.2a4.67,4.67 0 0 0 1.51,0.89a26.2,26.2 0 0 1 6.3,3.55a11.88,11.88 0 0 1 4.09,5.86c1.08,3.89 -0.48,8 -2.29,11.59a74.25,74.25 0 0 1 -4.64,7.95c-0.64,1 -1.52,2.89 -2.55,3.47a4.78,4.78 0 0 1 -3.36,-0.3z"/>
  <path id="svg_58" opacity="0.1" d="m772.85,433.43c2.13,0.82 4.85,-1.42 6.66,0c1.17,0.92 1,2.7 1,4.19a3.89,3.89 0 0 0 1.13,3.2c0.69,0.54 1.67,0.67 2.24,1.34s0.49,2.07 0.78,3.11a3.23,3.23 0 0 0 3.79,2.14a1,1 0 0 0 0.48,-0.25a1.41,1.41 0 0 0 0.28,-0.93a4.15,4.15 0 0 1 6.31,-3.09c1.7,1.06 2.41,3.16 2.84,5.12a40.94,40.94 0 0 1 0.83,5.4c0.14,1.56 0.36,3.41 1.75,4.13a4.78,4.78 0 0 0 3.42,0.3c1,-0.58 1.91,-2.5 2.55,-3.47a74.25,74.25 0 0 0 4.64,-8a24.77,24.77 0 0 0 2.46,-6.8c0.72,3.68 -0.76,7.5 -2.46,10.89a74.25,74.25 0 0 1 -4.64,7.95c-0.64,1 -1.52,2.89 -2.55,3.47a4.78,4.78 0 0 1 -3.42,-0.3c-1.39,-0.72 -1.61,-2.57 -1.75,-4.13a40.94,40.94 0 0 0 -0.83,-5.4c-0.43,-2 -1.14,-4.06 -2.84,-5.12a4.15,4.15 0 0 0 -6.31,3.09a1.41,1.41 0 0 1 -0.28,0.93a1,1 0 0 1 -0.48,0.25a3.23,3.23 0 0 1 -3.79,-2.14c-0.29,-1 -0.07,-2.29 -0.78,-3.11s-1.55,-0.8 -2.24,-1.34a3.89,3.89 0 0 1 -1.13,-3.2c0,-1.49 0.2,-3.27 -1,-4.19c-1.81,-1.41 -4.53,0.83 -6.66,0a3.27,3.27 0 0 1 -1.83,-3.19a5.82,5.82 0 0 1 0.5,-2.09a2.71,2.71 0 0 0 1.33,1.24z"/>
 </g>
</svg>